<svg width="256" height="212" viewBox="0 0 256 212" fill="none" xmlns="http://www.w3.org/2000/svg">
<path d="M66.4925 110.937C66.7455 110.669 67.01 110.424 67.286 110.201C67.562 109.979 67.8533 109.791 68.16 109.638C68.4743 109.477 68.8078 109.354 69.1605 109.27C69.5208 109.178 69.9042 109.132 70.3105 109.132C70.9545 109.132 71.518 109.239 72.001 109.454C72.4917 109.669 72.9018 109.971 73.2315 110.362C73.5612 110.746 73.8103 111.21 73.979 111.754C74.1477 112.298 74.232 112.9 74.232 113.559V121H71.978V113.559C71.978 112.724 71.7863 112.076 71.403 111.616C71.0197 111.148 70.4332 110.914 69.6435 110.914C69.0685 110.914 68.528 111.052 68.022 111.328C67.5237 111.597 67.0598 111.965 66.6305 112.432V121H64.388V109.316H65.7335C66.0478 109.316 66.2433 109.465 66.32 109.764L66.4925 110.937ZM83.5371 115.813C82.6248 115.844 81.8505 115.917 81.2141 116.032C80.5778 116.139 80.0603 116.285 79.6616 116.469C79.263 116.653 78.9755 116.871 78.7991 117.124C78.6228 117.37 78.5346 117.646 78.5346 117.952C78.5346 118.244 78.5806 118.497 78.6726 118.711C78.7723 118.918 78.9026 119.091 79.0636 119.229C79.2323 119.359 79.4278 119.455 79.6501 119.516C79.8725 119.578 80.114 119.608 80.3746 119.608C80.7196 119.608 81.034 119.574 81.3176 119.505C81.609 119.436 81.8811 119.34 82.1341 119.217C82.3871 119.087 82.6286 118.93 82.8586 118.746C83.0886 118.562 83.3148 118.351 83.5371 118.113V115.813ZM76.9591 110.949C77.6108 110.328 78.3161 109.864 79.0751 109.557C79.8418 109.251 80.6813 109.097 81.5936 109.097C82.2606 109.097 82.851 109.209 83.3646 109.431C83.8783 109.646 84.3115 109.948 84.6641 110.339C85.0168 110.73 85.2813 111.198 85.4576 111.742C85.6416 112.287 85.7336 112.889 85.7336 113.548V121H84.7331C84.5108 121 84.3421 120.965 84.2271 120.896C84.1121 120.82 84.0201 120.682 83.9511 120.482L83.7096 119.459C83.4106 119.735 83.1155 119.98 82.8241 120.195C82.5328 120.402 82.2261 120.582 81.9041 120.735C81.5898 120.881 81.2525 120.992 80.8921 121.069C80.5318 121.146 80.1331 121.184 79.6961 121.184C79.2361 121.184 78.803 121.123 78.3966 121C77.998 120.87 77.6491 120.674 77.3501 120.413C77.0511 120.153 76.8135 119.827 76.6371 119.436C76.4685 119.045 76.3841 118.589 76.3841 118.067C76.3841 117.607 76.5068 117.167 76.7521 116.745C77.0051 116.316 77.4115 115.932 77.9711 115.595C78.5385 115.258 79.2745 114.982 80.1791 114.767C81.0915 114.552 82.2108 114.43 83.5371 114.399V113.548C83.5371 112.666 83.3493 112.007 82.9736 111.57C82.598 111.133 82.046 110.914 81.3176 110.914C80.827 110.914 80.413 110.976 80.0756 111.098C79.746 111.221 79.4585 111.359 79.2131 111.512C78.9755 111.658 78.7646 111.792 78.5806 111.915C78.4043 112.038 78.2203 112.099 78.0286 112.099C77.8753 112.099 77.7411 112.057 77.6261 111.972C77.5188 111.888 77.4306 111.788 77.3616 111.673L76.9591 110.949ZM99.6529 121H97.3989V111.133H91.5339V117.975C91.5339 118.435 91.6451 118.78 91.8674 119.01C92.0974 119.233 92.3888 119.344 92.7414 119.344C92.9484 119.344 93.1248 119.317 93.2704 119.263C93.4238 119.21 93.5541 119.152 93.6614 119.091C93.7688 119.022 93.8608 118.961 93.9374 118.907C94.0141 118.853 94.0831 118.826 94.1444 118.826C94.2211 118.826 94.2786 118.846 94.3169 118.884C94.3629 118.915 94.4089 118.968 94.4549 119.045L95.1219 120.126C94.7539 120.463 94.3169 120.724 93.8109 120.908C93.3049 121.092 92.7798 121.184 92.2354 121.184C91.2924 121.184 90.5641 120.919 90.0504 120.39C89.5444 119.861 89.2914 119.106 89.2914 118.125V111.133H87.9344C87.8041 111.133 87.6929 111.095 87.6009 111.018C87.5166 110.934 87.4744 110.811 87.4744 110.65V109.741L89.3834 109.477L89.8779 105.992C89.9086 105.862 89.9661 105.762 90.0504 105.693C90.1424 105.617 90.2574 105.578 90.3954 105.578H91.5339V109.5H99.6529V121ZM100.159 105.636C100.159 105.843 100.117 106.042 100.032 106.234C99.9481 106.418 99.8331 106.583 99.6874 106.728C99.5494 106.866 99.3846 106.978 99.1929 107.062C99.0013 107.139 98.8019 107.177 98.5949 107.177C98.3879 107.177 98.1924 107.139 98.0084 107.062C97.8244 106.978 97.6596 106.866 97.5139 106.728C97.3759 106.583 97.2648 106.418 97.1804 106.234C97.1038 106.042 97.0654 105.843 97.0654 105.636C97.0654 105.421 97.1038 105.218 97.1804 105.026C97.2648 104.835 97.3759 104.67 97.5139 104.532C97.6596 104.386 97.8244 104.275 98.0084 104.198C98.1924 104.114 98.3879 104.072 98.5949 104.072C98.8019 104.072 99.0013 104.114 99.1929 104.198C99.3846 104.275 99.5494 104.386 99.6874 104.532C99.8331 104.67 99.9481 104.835 100.032 105.026C100.117 105.218 100.159 105.421 100.159 105.636ZM107.888 109.132C108.747 109.132 109.521 109.274 110.211 109.557C110.909 109.833 111.499 110.236 111.982 110.765C112.473 111.286 112.848 111.919 113.109 112.662C113.37 113.398 113.5 114.226 113.5 115.146C113.5 116.066 113.37 116.898 113.109 117.642C112.848 118.386 112.473 119.018 111.982 119.539C111.499 120.061 110.909 120.463 110.211 120.747C109.521 121.023 108.747 121.161 107.888 121.161C107.022 121.161 106.24 121.023 105.542 120.747C104.852 120.463 104.262 120.061 103.771 119.539C103.28 119.018 102.901 118.386 102.633 117.642C102.372 116.898 102.242 116.066 102.242 115.146C102.242 114.226 102.372 113.398 102.633 112.662C102.901 111.919 103.28 111.286 103.771 110.765C104.262 110.236 104.852 109.833 105.542 109.557C106.24 109.274 107.022 109.132 107.888 109.132ZM107.888 119.413C108.992 119.413 109.816 119.041 110.361 118.297C110.905 117.554 111.177 116.507 111.177 115.158C111.177 113.809 110.905 112.762 110.361 112.018C109.816 111.267 108.992 110.891 107.888 110.891C106.769 110.891 105.933 111.267 105.381 112.018C104.837 112.762 104.565 113.809 104.565 115.158C104.565 116.507 104.837 117.554 105.381 118.297C105.933 119.041 106.769 119.413 107.888 119.413ZM118.108 110.937C118.361 110.669 118.625 110.424 118.901 110.201C119.177 109.979 119.469 109.791 119.775 109.638C120.09 109.477 120.423 109.354 120.776 109.27C121.136 109.178 121.519 109.132 121.926 109.132C122.57 109.132 123.133 109.239 123.616 109.454C124.107 109.669 124.517 109.971 124.847 110.362C125.176 110.746 125.426 111.21 125.594 111.754C125.763 112.298 125.847 112.9 125.847 113.559V121H123.593V113.559C123.593 112.724 123.402 112.076 123.018 111.616C122.635 111.148 122.048 110.914 121.259 110.914C120.684 110.914 120.143 111.052 119.637 111.328C119.139 111.597 118.675 111.965 118.246 112.432V121H116.003V109.316H117.349C117.663 109.316 117.859 109.465 117.935 109.764L118.108 110.937ZM135.152 115.813C134.24 115.844 133.466 115.917 132.829 116.032C132.193 116.139 131.676 116.285 131.277 116.469C130.878 116.653 130.591 116.871 130.414 117.124C130.238 117.37 130.15 117.646 130.15 117.952C130.15 118.244 130.196 118.497 130.288 118.711C130.388 118.918 130.518 119.091 130.679 119.229C130.848 119.359 131.043 119.455 131.265 119.516C131.488 119.578 131.729 119.608 131.99 119.608C132.335 119.608 132.649 119.574 132.933 119.505C133.224 119.436 133.496 119.34 133.749 119.217C134.002 119.087 134.244 118.93 134.474 118.746C134.704 118.562 134.93 118.351 135.152 118.113V115.813ZM128.574 110.949C129.226 110.328 129.931 109.864 130.69 109.557C131.457 109.251 132.297 109.097 133.209 109.097C133.876 109.097 134.466 109.209 134.98 109.431C135.494 109.646 135.927 109.948 136.279 110.339C136.632 110.73 136.897 111.198 137.073 111.742C137.257 112.287 137.349 112.889 137.349 113.548V121H136.348C136.126 121 135.957 120.965 135.842 120.896C135.727 120.82 135.635 120.682 135.566 120.482L135.325 119.459C135.026 119.735 134.731 119.98 134.439 120.195C134.148 120.402 133.841 120.582 133.519 120.735C133.205 120.881 132.868 120.992 132.507 121.069C132.147 121.146 131.748 121.184 131.311 121.184C130.851 121.184 130.418 121.123 130.012 121C129.613 120.87 129.264 120.674 128.965 120.413C128.666 120.153 128.429 119.827 128.252 119.436C128.084 119.045 127.999 118.589 127.999 118.067C127.999 117.607 128.122 117.167 128.367 116.745C128.62 116.316 129.027 115.932 129.586 115.595C130.154 115.258 130.89 114.982 131.794 114.767C132.707 114.552 133.826 114.43 135.152 114.399V113.548C135.152 112.666 134.965 112.007 134.589 111.57C134.213 111.133 133.661 110.914 132.933 110.914C132.442 110.914 132.028 110.976 131.691 111.098C131.361 111.221 131.074 111.359 130.828 111.512C130.591 111.658 130.38 111.792 130.196 111.915C130.02 112.038 129.836 112.099 129.644 112.099C129.491 112.099 129.356 112.057 129.241 111.972C129.134 111.888 129.046 111.788 128.977 111.673L128.574 110.949ZM142.651 104.026V121H140.397V104.026H142.651ZM148.2 109.316V121H145.957V109.316H148.2ZM148.625 105.705C148.625 105.912 148.583 106.111 148.499 106.303C148.414 106.487 148.299 106.652 148.154 106.797C148.016 106.935 147.851 107.047 147.659 107.131C147.468 107.208 147.268 107.246 147.061 107.246C146.854 107.246 146.659 107.208 146.475 107.131C146.291 107.047 146.126 106.935 145.98 106.797C145.842 106.652 145.731 106.487 145.647 106.303C145.57 106.111 145.532 105.912 145.532 105.705C145.532 105.49 145.57 105.291 145.647 105.107C145.731 104.915 145.842 104.75 145.98 104.612C146.126 104.467 146.291 104.356 146.475 104.279C146.659 104.195 146.854 104.152 147.061 104.152C147.268 104.152 147.468 104.195 147.659 104.279C147.851 104.356 148.016 104.467 148.154 104.612C148.299 104.75 148.414 104.915 148.499 105.107C148.583 105.291 148.625 105.49 148.625 105.705ZM162.521 121H160.267V111.133H154.402V117.975C154.402 118.435 154.513 118.78 154.736 119.01C154.966 119.233 155.257 119.344 155.61 119.344C155.817 119.344 155.993 119.317 156.139 119.263C156.292 119.21 156.422 119.152 156.53 119.091C156.637 119.022 156.729 118.961 156.806 118.907C156.882 118.853 156.951 118.826 157.013 118.826C157.089 118.826 157.147 118.846 157.185 118.884C157.231 118.915 157.277 118.968 157.323 119.045L157.99 120.126C157.622 120.463 157.185 120.724 156.679 120.908C156.173 121.092 155.648 121.184 155.104 121.184C154.161 121.184 153.432 120.919 152.919 120.39C152.413 119.861 152.16 119.106 152.16 118.125V111.133H150.803C150.672 111.133 150.561 111.095 150.469 111.018C150.385 110.934 150.343 110.811 150.343 110.65V109.741L152.252 109.477L152.746 105.992C152.777 105.862 152.834 105.762 152.919 105.693C153.011 105.617 153.126 105.578 153.264 105.578H154.402V109.5H162.521V121ZM163.027 105.636C163.027 105.843 162.985 106.042 162.901 106.234C162.816 106.418 162.701 106.583 162.556 106.728C162.418 106.866 162.253 106.978 162.061 107.062C161.869 107.139 161.67 107.177 161.463 107.177C161.256 107.177 161.061 107.139 160.877 107.062C160.693 106.978 160.528 106.866 160.382 106.728C160.244 106.583 160.133 106.418 160.049 106.234C159.972 106.042 159.934 105.843 159.934 105.636C159.934 105.421 159.972 105.218 160.049 105.026C160.133 104.835 160.244 104.67 160.382 104.532C160.528 104.386 160.693 104.275 160.877 104.198C161.061 104.114 161.256 104.072 161.463 104.072C161.67 104.072 161.869 104.114 162.061 104.198C162.253 104.275 162.418 104.386 162.556 104.532C162.701 104.67 162.816 104.835 162.901 105.026C162.985 105.218 163.027 105.421 163.027 105.636ZM173.516 113.858C173.516 113.414 173.451 113.004 173.321 112.628C173.198 112.252 173.014 111.926 172.769 111.65C172.523 111.374 172.224 111.16 171.872 111.006C171.519 110.853 171.113 110.776 170.653 110.776C169.71 110.776 168.966 111.049 168.422 111.593C167.885 112.137 167.544 112.892 167.398 113.858H173.516ZM175.368 119.332C175.092 119.654 174.774 119.934 174.413 120.172C174.053 120.402 173.67 120.59 173.263 120.735C172.857 120.881 172.435 120.988 171.998 121.058C171.569 121.127 171.143 121.161 170.722 121.161C169.917 121.161 169.169 121.027 168.479 120.758C167.797 120.482 167.203 120.084 166.697 119.562C166.198 119.033 165.807 118.382 165.524 117.607C165.248 116.825 165.11 115.928 165.11 114.916C165.11 114.104 165.236 113.349 165.489 112.651C165.742 111.946 166.103 111.332 166.57 110.811C167.046 110.29 167.624 109.879 168.307 109.58C168.989 109.281 169.756 109.132 170.607 109.132C171.32 109.132 171.975 109.251 172.573 109.488C173.179 109.718 173.7 110.056 174.137 110.5C174.574 110.945 174.915 111.493 175.161 112.145C175.414 112.797 175.54 113.54 175.54 114.376C175.54 114.721 175.502 114.955 175.425 115.077C175.349 115.192 175.207 115.25 175 115.25H167.341C167.364 115.948 167.463 116.557 167.64 117.078C167.816 117.592 168.058 118.021 168.364 118.366C168.679 118.711 169.05 118.968 169.48 119.137C169.909 119.306 170.388 119.39 170.917 119.39C171.416 119.39 171.845 119.332 172.205 119.217C172.573 119.102 172.888 118.98 173.148 118.849C173.417 118.711 173.639 118.585 173.815 118.47C173.999 118.355 174.16 118.297 174.298 118.297C174.482 118.297 174.624 118.366 174.724 118.504L175.368 119.332ZM184.839 111.328C184.778 111.428 184.713 111.501 184.644 111.547C184.575 111.585 184.486 111.604 184.379 111.604C184.256 111.604 184.118 111.562 183.965 111.478C183.819 111.394 183.639 111.302 183.425 111.202C183.218 111.102 182.972 111.01 182.689 110.926C182.405 110.842 182.068 110.799 181.677 110.799C181.355 110.799 181.059 110.842 180.791 110.926C180.53 111.003 180.308 111.114 180.124 111.259C179.94 111.397 179.798 111.566 179.699 111.765C179.599 111.957 179.549 112.164 179.549 112.386C179.549 112.678 179.633 112.919 179.802 113.111C179.978 113.303 180.205 113.467 180.481 113.605C180.764 113.743 181.082 113.87 181.435 113.985C181.795 114.092 182.16 114.207 182.528 114.33C182.903 114.453 183.267 114.594 183.62 114.755C183.98 114.909 184.299 115.104 184.575 115.342C184.858 115.572 185.084 115.852 185.253 116.181C185.429 116.511 185.518 116.914 185.518 117.389C185.518 117.933 185.418 118.439 185.219 118.907C185.027 119.367 184.739 119.766 184.356 120.103C183.98 120.44 183.513 120.705 182.953 120.896C182.393 121.088 181.753 121.184 181.033 121.184C180.228 121.184 179.484 121.05 178.802 120.781C178.119 120.513 177.548 120.172 177.088 119.758L177.617 118.895C177.678 118.788 177.755 118.708 177.847 118.654C177.939 118.593 178.062 118.562 178.215 118.562C178.361 118.562 178.51 118.616 178.664 118.723C178.817 118.83 179.001 118.949 179.216 119.079C179.43 119.202 179.691 119.317 179.998 119.424C180.304 119.524 180.688 119.574 181.148 119.574C181.531 119.574 181.864 119.528 182.148 119.436C182.432 119.336 182.666 119.206 182.85 119.045C183.041 118.876 183.183 118.685 183.275 118.47C183.367 118.255 183.413 118.029 183.413 117.791C183.413 117.485 183.325 117.232 183.149 117.032C182.98 116.825 182.754 116.649 182.47 116.503C182.194 116.358 181.876 116.231 181.516 116.124C181.155 116.017 180.787 115.902 180.412 115.779C180.036 115.656 179.668 115.514 179.308 115.353C178.947 115.192 178.625 114.989 178.342 114.744C178.066 114.499 177.839 114.2 177.663 113.847C177.494 113.494 177.41 113.065 177.41 112.559C177.41 112.107 177.502 111.673 177.686 111.259C177.878 110.845 178.15 110.481 178.503 110.167C178.863 109.853 179.304 109.603 179.825 109.419C180.354 109.228 180.956 109.132 181.631 109.132C182.405 109.132 183.103 109.255 183.724 109.5C184.352 109.745 184.889 110.083 185.334 110.512L184.839 111.328ZM32.8351 138.558C33.2107 137.792 33.6631 137.19 34.1921 136.753C34.7211 136.316 35.3574 136.097 36.1011 136.097C36.3541 136.097 36.5917 136.128 36.8141 136.189C37.0441 136.243 37.2434 136.327 37.4121 136.443L37.2626 138.133C37.2089 138.34 37.0824 138.443 36.8831 138.443C36.7757 138.443 36.6147 138.424 36.4001 138.386C36.1854 138.34 35.9554 138.317 35.7101 138.317C35.3497 138.317 35.0316 138.371 34.7556 138.478C34.4796 138.578 34.2304 138.731 34.0081 138.938C33.7934 139.137 33.6017 139.386 33.4331 139.685C33.2644 139.977 33.1072 140.31 32.9616 140.686V148H30.7191V136.316H32.0071C32.2524 136.316 32.4172 136.362 32.5016 136.454C32.5936 136.538 32.6587 136.692 32.6971 136.914L32.8351 138.558ZM46.4546 140.858C46.4546 140.414 46.3895 140.004 46.2591 139.628C46.1365 139.252 45.9525 138.926 45.7071 138.65C45.4618 138.374 45.1628 138.16 44.8101 138.006C44.4575 137.853 44.0511 137.776 43.5911 137.776C42.6481 137.776 41.9045 138.049 41.3601 138.593C40.8235 139.137 40.4823 139.892 40.3366 140.858H46.4546ZM48.3061 146.332C48.0301 146.654 47.712 146.934 47.3516 147.172C46.9913 147.402 46.608 147.59 46.2016 147.735C45.7953 147.881 45.3736 147.988 44.9366 148.058C44.5073 148.127 44.0818 148.161 43.6601 148.161C42.8551 148.161 42.1076 148.027 41.4176 147.758C40.7353 147.482 40.1411 147.084 39.6351 146.562C39.1368 146.033 38.7458 145.382 38.4621 144.607C38.1861 143.825 38.0481 142.928 38.0481 141.916C38.0481 141.104 38.1746 140.349 38.4276 139.651C38.6806 138.946 39.041 138.332 39.5086 137.811C39.984 137.29 40.5628 136.879 41.2451 136.58C41.9275 136.281 42.6941 136.132 43.5451 136.132C44.2581 136.132 44.9136 136.251 45.5116 136.488C46.1173 136.718 46.6386 137.056 47.0756 137.5C47.5126 137.945 47.8538 138.493 48.0991 139.145C48.3521 139.797 48.4786 140.54 48.4786 141.376C48.4786 141.721 48.4403 141.955 48.3636 142.077C48.287 142.192 48.1451 142.25 47.9381 142.25H40.2791C40.3021 142.948 40.4018 143.557 40.5781 144.078C40.7545 144.592 40.996 145.021 41.3026 145.366C41.617 145.711 41.9888 145.968 42.4181 146.137C42.8475 146.306 43.3266 146.39 43.8556 146.39C44.354 146.39 44.7833 146.332 45.1436 146.217C45.5116 146.102 45.826 145.98 46.0866 145.849C46.355 145.711 46.5773 145.585 46.7536 145.47C46.9376 145.355 47.0986 145.297 47.2366 145.297C47.4206 145.297 47.5625 145.366 47.6621 145.504L48.3061 146.332ZM53.1315 145.125C53.4995 145.608 53.8943 145.945 54.316 146.137C54.7453 146.329 55.2245 146.424 55.7535 146.424C56.7808 146.424 57.5743 146.056 58.134 145.32C58.7013 144.577 58.985 143.496 58.985 142.077C58.985 141.334 58.9198 140.701 58.7895 140.18C58.6668 139.651 58.4828 139.222 58.2375 138.892C57.9998 138.555 57.7046 138.309 57.352 138.156C56.9993 137.995 56.6006 137.914 56.156 137.914C55.5043 137.914 54.937 138.06 54.454 138.351C53.9786 138.643 53.5378 139.057 53.1315 139.593V145.125ZM53.0165 138.064C53.2618 137.773 53.5225 137.508 53.7985 137.27C54.0821 137.025 54.385 136.818 54.707 136.649C55.029 136.473 55.3701 136.339 55.7305 136.247C56.0985 136.147 56.4895 136.097 56.9035 136.097C57.5705 136.097 58.1723 136.228 58.709 136.488C59.2533 136.749 59.7171 137.132 60.1005 137.638C60.4838 138.144 60.779 138.769 60.986 139.513C61.2006 140.257 61.308 141.111 61.308 142.077C61.308 142.944 61.1891 143.749 60.9515 144.492C60.7215 145.228 60.388 145.869 59.951 146.413C59.5216 146.957 58.9926 147.387 58.364 147.701C57.743 148.008 57.0415 148.161 56.2595 148.161C55.5618 148.161 54.9638 148.046 54.4655 147.816C53.9671 147.586 53.5225 147.264 53.1315 146.85V151.922H50.889V136.316H52.2345C52.5488 136.316 52.7443 136.465 52.821 136.764L53.0165 138.064ZM65.9425 138.558C66.3181 137.792 66.7705 137.19 67.2995 136.753C67.8285 136.316 68.4648 136.097 69.2085 136.097C69.4615 136.097 69.6991 136.128 69.9215 136.189C70.1515 136.243 70.3508 136.327 70.5195 136.443L70.37 138.133C70.3163 138.34 70.1898 138.443 69.9905 138.443C69.8831 138.443 69.7221 138.424 69.5075 138.386C69.2928 138.34 69.0628 138.317 68.8175 138.317C68.4571 138.317 68.139 138.371 67.863 138.478C67.587 138.578 67.3378 138.731 67.1155 138.938C66.9008 139.137 66.7091 139.386 66.5405 139.685C66.3718 139.977 66.2146 140.31 66.069 140.686V148H63.8265V136.316H65.1145C65.3598 136.316 65.5246 136.362 65.609 136.454C65.701 136.538 65.7661 136.692 65.8045 136.914L65.9425 138.558ZM79.5621 140.858C79.5621 140.414 79.4969 140.004 79.3666 139.628C79.2439 139.252 79.0599 138.926 78.8146 138.65C78.5692 138.374 78.2702 138.16 77.9176 138.006C77.5649 137.853 77.1586 137.776 76.6986 137.776C75.7556 137.776 75.0119 138.049 74.4676 138.593C73.9309 139.137 73.5897 139.892 73.4441 140.858H79.5621ZM81.4136 146.332C81.1376 146.654 80.8194 146.934 80.4591 147.172C80.0987 147.402 79.7154 147.59 79.3091 147.735C78.9027 147.881 78.4811 147.988 78.0441 148.058C77.6147 148.127 77.1892 148.161 76.7676 148.161C75.9626 148.161 75.2151 148.027 74.5251 147.758C73.8427 147.482 73.2486 147.084 72.7426 146.562C72.2442 146.033 71.8532 145.382 71.5696 144.607C71.2936 143.825 71.1556 142.928 71.1556 141.916C71.1556 141.104 71.2821 140.349 71.5351 139.651C71.7881 138.946 72.1484 138.332 72.6161 137.811C73.0914 137.29 73.6702 136.879 74.3526 136.58C75.0349 136.281 75.8016 136.132 76.6526 136.132C77.3656 136.132 78.0211 136.251 78.6191 136.488C79.2247 136.718 79.7461 137.056 80.1831 137.5C80.6201 137.945 80.9612 138.493 81.2066 139.145C81.4596 139.797 81.5861 140.54 81.5861 141.376C81.5861 141.721 81.5477 141.955 81.4711 142.077C81.3944 142.192 81.2526 142.25 81.0456 142.25H73.3866C73.4096 142.948 73.5092 143.557 73.6856 144.078C73.8619 144.592 74.1034 145.021 74.4101 145.366C74.7244 145.711 75.0962 145.968 75.5256 146.137C75.9549 146.306 76.4341 146.39 76.9631 146.39C77.4614 146.39 77.8907 146.332 78.2511 146.217C78.6191 146.102 78.9334 145.98 79.1941 145.849C79.4624 145.711 79.6847 145.585 79.8611 145.47C80.0451 145.355 80.2061 145.297 80.3441 145.297C80.5281 145.297 80.6699 145.366 80.7696 145.504L81.4136 146.332ZM90.8849 138.328C90.8236 138.428 90.7584 138.501 90.6894 138.547C90.6204 138.585 90.5322 138.604 90.4249 138.604C90.3022 138.604 90.1642 138.562 90.0109 138.478C89.8652 138.394 89.6851 138.302 89.4704 138.202C89.2634 138.102 89.0181 138.01 88.7344 137.926C88.4507 137.842 88.1134 137.799 87.7224 137.799C87.4004 137.799 87.1052 137.842 86.8369 137.926C86.5762 138.003 86.3539 138.114 86.1699 138.259C85.9859 138.397 85.8441 138.566 85.7444 138.765C85.6447 138.957 85.5949 139.164 85.5949 139.386C85.5949 139.678 85.6792 139.919 85.8479 140.111C86.0242 140.303 86.2504 140.467 86.5264 140.605C86.8101 140.743 87.1282 140.87 87.4809 140.985C87.8412 141.092 88.2054 141.207 88.5734 141.33C88.9491 141.453 89.3132 141.594 89.6659 141.755C90.0262 141.909 90.3444 142.104 90.6204 142.342C90.9041 142.572 91.1302 142.852 91.2989 143.181C91.4752 143.511 91.5634 143.914 91.5634 144.389C91.5634 144.933 91.4637 145.439 91.2644 145.907C91.0727 146.367 90.7852 146.766 90.4019 147.103C90.0262 147.44 89.5586 147.705 88.9989 147.896C88.4392 148.088 87.7991 148.184 87.0784 148.184C86.2734 148.184 85.5297 148.05 84.8474 147.781C84.1651 147.513 83.5939 147.172 83.1339 146.758L83.6629 145.895C83.7242 145.788 83.8009 145.708 83.8929 145.654C83.9849 145.593 84.1076 145.562 84.2609 145.562C84.4066 145.562 84.5561 145.616 84.7094 145.723C84.8627 145.83 85.0467 145.949 85.2614 146.079C85.4761 146.202 85.7367 146.317 86.0434 146.424C86.3501 146.524 86.7334 146.574 87.1934 146.574C87.5767 146.574 87.9102 146.528 88.1939 146.436C88.4776 146.336 88.7114 146.206 88.8954 146.045C89.0871 145.876 89.2289 145.685 89.3209 145.47C89.4129 145.255 89.4589 145.029 89.4589 144.791C89.4589 144.485 89.3707 144.232 89.1944 144.032C89.0257 143.825 88.7996 143.649 88.5159 143.503C88.2399 143.358 87.9217 143.231 87.5614 143.124C87.2011 143.017 86.8331 142.902 86.4574 142.779C86.0817 142.656 85.7137 142.514 85.3534 142.353C84.9931 142.192 84.6711 141.989 84.3874 141.744C84.1114 141.499 83.8852 141.2 83.7089 140.847C83.5402 140.494 83.4559 140.065 83.4559 139.559C83.4559 139.107 83.5479 138.673 83.7319 138.259C83.9236 137.845 84.1957 137.481 84.5484 137.167C84.9087 136.853 85.3496 136.603 85.8709 136.419C86.3999 136.228 87.0017 136.132 87.6764 136.132C88.4507 136.132 89.1484 136.255 89.7694 136.5C90.3981 136.745 90.9347 137.083 91.3794 137.512L90.8849 138.328ZM101.731 140.858C101.731 140.414 101.666 140.004 101.536 139.628C101.413 139.252 101.229 138.926 100.984 138.65C100.738 138.374 100.439 138.16 100.087 138.006C99.7338 137.853 99.3275 137.776 98.8675 137.776C97.9245 137.776 97.1808 138.049 96.6365 138.593C96.0998 139.137 95.7587 139.892 95.613 140.858H101.731ZM103.583 146.332C103.307 146.654 102.988 146.934 102.628 147.172C102.268 147.402 101.884 147.59 101.478 147.735C101.072 147.881 100.65 147.988 100.213 148.058C99.7837 148.127 99.3582 148.161 98.9365 148.161C98.1315 148.161 97.384 148.027 96.694 147.758C96.0117 147.482 95.4175 147.084 94.9115 146.562C94.4132 146.033 94.0222 145.382 93.7385 144.607C93.4625 143.825 93.3245 142.928 93.3245 141.916C93.3245 141.104 93.451 140.349 93.704 139.651C93.957 138.946 94.3173 138.332 94.785 137.811C95.2603 137.29 95.8392 136.879 96.5215 136.58C97.2038 136.281 97.9705 136.132 98.8215 136.132C99.5345 136.132 100.19 136.251 100.788 136.488C101.394 136.718 101.915 137.056 102.352 137.5C102.789 137.945 103.13 138.493 103.376 139.145C103.629 139.797 103.755 140.54 103.755 141.376C103.755 141.721 103.717 141.955 103.64 142.077C103.563 142.192 103.422 142.25 103.215 142.25H95.5555C95.5785 142.948 95.6782 143.557 95.8545 144.078C96.0308 144.592 96.2723 145.021 96.579 145.366C96.8933 145.711 97.2652 145.968 97.6945 146.137C98.1238 146.306 98.603 146.39 99.132 146.39C99.6303 146.39 100.06 146.332 100.42 146.217C100.788 146.102 101.102 145.98 101.363 145.849C101.631 145.711 101.854 145.585 102.03 145.47C102.214 145.355 102.375 145.297 102.513 145.297C102.697 145.297 102.839 145.366 102.939 145.504L103.583 146.332ZM108.27 137.937C108.523 137.669 108.787 137.424 109.063 137.201C109.339 136.979 109.631 136.791 109.937 136.638C110.252 136.477 110.585 136.354 110.938 136.27C111.298 136.178 111.682 136.132 112.088 136.132C112.732 136.132 113.295 136.239 113.778 136.454C114.269 136.669 114.679 136.971 115.009 137.362C115.339 137.746 115.588 138.21 115.756 138.754C115.925 139.298 116.009 139.9 116.009 140.559V148H113.755V140.559C113.755 139.724 113.564 139.076 113.18 138.616C112.797 138.148 112.211 137.914 111.421 137.914C110.846 137.914 110.305 138.052 109.799 138.328C109.301 138.597 108.837 138.965 108.408 139.432V148H106.165V136.316H107.511C107.825 136.316 108.021 136.465 108.097 136.764L108.27 137.937ZM122.535 148.184C121.592 148.184 120.864 147.919 120.35 147.39C119.844 146.861 119.591 146.106 119.591 145.125V138.133H118.234C118.104 138.133 117.993 138.095 117.901 138.018C117.816 137.934 117.774 137.811 117.774 137.65V136.741L119.672 136.477L120.178 132.992C120.208 132.862 120.266 132.762 120.35 132.693C120.442 132.617 120.557 132.578 120.695 132.578H121.834V136.5H125.146V138.133H121.834V144.975C121.834 145.435 121.945 145.78 122.167 146.01C122.397 146.233 122.689 146.344 123.041 146.344C123.248 146.344 123.425 146.317 123.57 146.263C123.724 146.21 123.854 146.152 123.961 146.091C124.069 146.022 124.161 145.961 124.237 145.907C124.314 145.853 124.383 145.826 124.444 145.826C124.521 145.826 124.578 145.846 124.617 145.884C124.663 145.915 124.709 145.968 124.755 146.045L125.422 147.126C125.054 147.463 124.617 147.724 124.111 147.908C123.605 148.092 123.08 148.184 122.535 148.184ZM134.883 140.858C134.883 140.414 134.818 140.004 134.688 139.628C134.565 139.252 134.381 138.926 134.136 138.65C133.891 138.374 133.592 138.16 133.239 138.006C132.886 137.853 132.48 137.776 132.02 137.776C131.077 137.776 130.333 138.049 129.789 138.593C129.252 139.137 128.911 139.892 128.765 140.858H134.883ZM136.735 146.332C136.459 146.654 136.141 146.934 135.78 147.172C135.42 147.402 135.037 147.59 134.63 147.735C134.224 147.881 133.802 147.988 133.365 148.058C132.936 148.127 132.511 148.161 132.089 148.161C131.284 148.161 130.536 148.027 129.846 147.758C129.164 147.482 128.57 147.084 128.064 146.562C127.566 146.033 127.175 145.382 126.891 144.607C126.615 143.825 126.477 142.928 126.477 141.916C126.477 141.104 126.603 140.349 126.856 139.651C127.109 138.946 127.47 138.332 127.937 137.811C128.413 137.29 128.992 136.879 129.674 136.58C130.356 136.281 131.123 136.132 131.974 136.132C132.687 136.132 133.342 136.251 133.94 136.488C134.546 136.718 135.067 137.056 135.504 137.5C135.941 137.945 136.283 138.493 136.528 139.145C136.781 139.797 136.907 140.54 136.907 141.376C136.907 141.721 136.869 141.955 136.792 142.077C136.716 142.192 136.574 142.25 136.367 142.25H128.708C128.731 142.948 128.831 143.557 129.007 144.078C129.183 144.592 129.425 145.021 129.731 145.366C130.046 145.711 130.418 145.968 130.847 146.137C131.276 146.306 131.755 146.39 132.284 146.39C132.783 146.39 133.212 146.332 133.572 146.217C133.94 146.102 134.255 145.98 134.515 145.849C134.784 145.711 135.006 145.585 135.182 145.47C135.366 145.355 135.527 145.297 135.665 145.297C135.849 145.297 135.991 145.366 136.091 145.504L136.735 146.332ZM146.85 139.145C146.482 138.662 146.084 138.325 145.654 138.133C145.233 137.941 144.757 137.845 144.228 137.845C143.201 137.845 142.404 138.217 141.836 138.961C141.277 139.697 140.997 140.774 140.997 142.193C140.997 142.936 141.058 143.572 141.181 144.101C141.311 144.623 141.495 145.052 141.733 145.389C141.978 145.719 142.277 145.964 142.63 146.125C142.982 146.279 143.381 146.355 143.826 146.355C144.477 146.355 145.041 146.21 145.516 145.918C145.992 145.627 146.436 145.217 146.85 144.688V139.145ZM149.104 131.026V148H147.747C147.433 148 147.237 147.85 147.161 147.551L146.965 146.206C146.467 146.796 145.9 147.272 145.263 147.632C144.635 147.985 143.906 148.161 143.078 148.161C142.411 148.161 141.806 148.031 141.261 147.77C140.725 147.509 140.265 147.13 139.881 146.631C139.498 146.125 139.203 145.501 138.996 144.757C138.789 144.013 138.685 143.158 138.685 142.193C138.685 141.326 138.8 140.521 139.03 139.777C139.26 139.034 139.594 138.39 140.031 137.845C140.468 137.301 140.997 136.876 141.618 136.569C142.239 136.255 142.94 136.097 143.722 136.097C144.428 136.097 145.026 136.212 145.516 136.443C146.015 136.672 146.459 136.998 146.85 137.42V131.026H149.104ZM164.329 142.813C163.417 142.844 162.642 142.917 162.006 143.032C161.37 143.139 160.852 143.285 160.454 143.469C160.055 143.653 159.767 143.871 159.591 144.124C159.415 144.37 159.327 144.646 159.327 144.952C159.327 145.244 159.373 145.497 159.465 145.711C159.564 145.918 159.695 146.091 159.856 146.229C160.024 146.359 160.22 146.455 160.442 146.516C160.664 146.578 160.906 146.608 161.167 146.608C161.512 146.608 161.826 146.574 162.11 146.505C162.401 146.436 162.673 146.34 162.926 146.217C163.179 146.087 163.421 145.93 163.651 145.746C163.881 145.562 164.107 145.351 164.329 145.113V142.813ZM157.751 137.949C158.403 137.328 159.108 136.864 159.867 136.557C160.634 136.251 161.473 136.097 162.386 136.097C163.053 136.097 163.643 136.209 164.157 136.431C164.67 136.646 165.103 136.948 165.456 137.339C165.809 137.73 166.073 138.198 166.25 138.742C166.434 139.287 166.526 139.889 166.526 140.548V148H165.525C165.303 148 165.134 147.965 165.019 147.896C164.904 147.82 164.812 147.682 164.743 147.482L164.502 146.459C164.203 146.735 163.907 146.98 163.616 147.195C163.325 147.402 163.018 147.582 162.696 147.735C162.382 147.881 162.044 147.992 161.684 148.069C161.324 148.146 160.925 148.184 160.488 148.184C160.028 148.184 159.595 148.123 159.189 148C158.79 147.87 158.441 147.674 158.142 147.413C157.843 147.153 157.605 146.827 157.429 146.436C157.26 146.045 157.176 145.589 157.176 145.067C157.176 144.607 157.299 144.167 157.544 143.745C157.797 143.316 158.203 142.932 158.763 142.595C159.33 142.258 160.066 141.982 160.971 141.767C161.883 141.552 163.003 141.43 164.329 141.399V140.548C164.329 139.666 164.141 139.007 163.766 138.57C163.39 138.133 162.838 137.914 162.11 137.914C161.619 137.914 161.205 137.976 160.868 138.098C160.538 138.221 160.25 138.359 160.005 138.512C159.767 138.658 159.557 138.792 159.373 138.915C159.196 139.038 159.012 139.099 158.821 139.099C158.667 139.099 158.533 139.057 158.418 138.972C158.311 138.888 158.223 138.788 158.154 138.673L157.751 137.949ZM177.716 138.501C177.647 138.585 177.578 138.654 177.509 138.708C177.447 138.754 177.355 138.777 177.233 138.777C177.11 138.777 176.98 138.731 176.842 138.639C176.711 138.539 176.543 138.436 176.336 138.328C176.136 138.213 175.891 138.11 175.6 138.018C175.316 137.918 174.963 137.868 174.542 137.868C173.99 137.868 173.503 137.968 173.081 138.167C172.659 138.367 172.307 138.65 172.023 139.018C171.747 139.386 171.536 139.835 171.391 140.364C171.245 140.893 171.172 141.487 171.172 142.146C171.172 142.829 171.249 143.438 171.402 143.975C171.555 144.504 171.774 144.952 172.058 145.32C172.341 145.681 172.686 145.957 173.093 146.148C173.499 146.332 173.951 146.424 174.45 146.424C174.933 146.424 175.331 146.367 175.646 146.252C175.96 146.129 176.221 145.999 176.428 145.861C176.635 145.723 176.807 145.596 176.945 145.481C177.083 145.359 177.225 145.297 177.371 145.297C177.555 145.297 177.696 145.366 177.796 145.504L178.44 146.332C178.172 146.662 177.869 146.942 177.532 147.172C177.202 147.402 176.849 147.59 176.474 147.735C176.098 147.881 175.703 147.988 175.289 148.058C174.883 148.127 174.469 148.161 174.047 148.161C173.319 148.161 172.636 148.027 172 147.758C171.371 147.49 170.823 147.099 170.356 146.585C169.896 146.072 169.531 145.443 169.263 144.699C168.995 143.948 168.861 143.097 168.861 142.146C168.861 141.28 168.979 140.479 169.217 139.743C169.462 139.007 169.819 138.374 170.287 137.845C170.762 137.309 171.345 136.891 172.035 136.592C172.725 136.285 173.514 136.132 174.404 136.132C175.239 136.132 175.975 136.266 176.612 136.534C177.248 136.803 177.815 137.182 178.314 137.673L177.716 138.501ZM182.65 138.558C183.025 137.792 183.478 137.19 184.007 136.753C184.536 136.316 185.172 136.097 185.916 136.097C186.169 136.097 186.406 136.128 186.629 136.189C186.859 136.243 187.058 136.327 187.227 136.443L187.077 138.133C187.023 138.34 186.897 138.443 186.698 138.443C186.59 138.443 186.429 138.424 186.215 138.386C186 138.34 185.77 138.317 185.525 138.317C185.164 138.317 184.846 138.371 184.57 138.478C184.294 138.578 184.045 138.731 183.823 138.938C183.608 139.137 183.416 139.386 183.248 139.685C183.079 139.977 182.922 140.31 182.776 140.686V148H180.534V136.316H181.822C182.067 136.316 182.232 136.362 182.316 136.454C182.408 136.538 182.473 136.692 182.512 136.914L182.65 138.558ZM193.509 136.132C194.368 136.132 195.142 136.274 195.832 136.557C196.53 136.833 197.12 137.236 197.603 137.765C198.094 138.286 198.469 138.919 198.73 139.662C198.991 140.398 199.121 141.226 199.121 142.146C199.121 143.066 198.991 143.898 198.73 144.642C198.469 145.386 198.094 146.018 197.603 146.539C197.12 147.061 196.53 147.463 195.832 147.747C195.142 148.023 194.368 148.161 193.509 148.161C192.643 148.161 191.861 148.023 191.163 147.747C190.473 147.463 189.883 147.061 189.392 146.539C188.901 146.018 188.522 145.386 188.254 144.642C187.993 143.898 187.863 143.066 187.863 142.146C187.863 141.226 187.993 140.398 188.254 139.662C188.522 138.919 188.901 138.286 189.392 137.765C189.883 137.236 190.473 136.833 191.163 136.557C191.861 136.274 192.643 136.132 193.509 136.132ZM193.509 146.413C194.613 146.413 195.437 146.041 195.982 145.297C196.526 144.554 196.798 143.507 196.798 142.158C196.798 140.809 196.526 139.762 195.982 139.018C195.437 138.267 194.613 137.891 193.509 137.891C192.39 137.891 191.554 138.267 191.002 139.018C190.458 139.762 190.186 140.809 190.186 142.158C190.186 143.507 190.458 144.554 191.002 145.297C191.554 146.041 192.39 146.413 193.509 146.413ZM208.513 138.328C208.451 138.428 208.386 138.501 208.317 138.547C208.248 138.585 208.16 138.604 208.053 138.604C207.93 138.604 207.792 138.562 207.639 138.478C207.493 138.394 207.313 138.302 207.098 138.202C206.891 138.102 206.646 138.01 206.362 137.926C206.079 137.842 205.741 137.799 205.35 137.799C205.028 137.799 204.733 137.842 204.465 137.926C204.204 138.003 203.982 138.114 203.798 138.259C203.614 138.397 203.472 138.566 203.372 138.765C203.273 138.957 203.223 139.164 203.223 139.386C203.223 139.678 203.307 139.919 203.476 140.111C203.652 140.303 203.878 140.467 204.154 140.605C204.438 140.743 204.756 140.87 205.109 140.985C205.469 141.092 205.833 141.207 206.201 141.33C206.577 141.453 206.941 141.594 207.294 141.755C207.654 141.909 207.972 142.104 208.248 142.342C208.532 142.572 208.758 142.852 208.927 143.181C209.103 143.511 209.191 143.914 209.191 144.389C209.191 144.933 209.092 145.439 208.892 145.907C208.701 146.367 208.413 146.766 208.03 147.103C207.654 147.44 207.186 147.705 206.627 147.896C206.067 148.088 205.427 148.184 204.706 148.184C203.901 148.184 203.158 148.05 202.475 147.781C201.793 147.513 201.222 147.172 200.762 146.758L201.291 145.895C201.352 145.788 201.429 145.708 201.521 145.654C201.613 145.593 201.735 145.562 201.889 145.562C202.034 145.562 202.184 145.616 202.337 145.723C202.491 145.83 202.675 145.949 202.889 146.079C203.104 146.202 203.365 146.317 203.671 146.424C203.978 146.524 204.361 146.574 204.821 146.574C205.205 146.574 205.538 146.528 205.822 146.436C206.105 146.336 206.339 146.206 206.523 146.045C206.715 145.876 206.857 145.685 206.949 145.47C207.041 145.255 207.087 145.029 207.087 144.791C207.087 144.485 206.999 144.232 206.822 144.032C206.654 143.825 206.427 143.649 206.144 143.503C205.868 143.358 205.55 143.231 205.189 143.124C204.829 143.017 204.461 142.902 204.085 142.779C203.71 142.656 203.342 142.514 202.981 142.353C202.621 142.192 202.299 141.989 202.015 141.744C201.739 141.499 201.513 141.2 201.337 140.847C201.168 140.494 201.084 140.065 201.084 139.559C201.084 139.107 201.176 138.673 201.36 138.259C201.551 137.845 201.824 137.481 202.176 137.167C202.537 136.853 202.977 136.603 203.499 136.419C204.028 136.228 204.63 136.132 205.304 136.132C206.079 136.132 206.776 136.255 207.397 136.5C208.026 136.745 208.563 137.083 209.007 137.512L208.513 138.328ZM218.508 138.328C218.447 138.428 218.381 138.501 218.312 138.547C218.243 138.585 218.155 138.604 218.048 138.604C217.925 138.604 217.787 138.562 217.634 138.478C217.488 138.394 217.308 138.302 217.093 138.202C216.886 138.102 216.641 138.01 216.357 137.926C216.074 137.842 215.736 137.799 215.345 137.799C215.023 137.799 214.728 137.842 214.46 137.926C214.199 138.003 213.977 138.114 213.793 138.259C213.609 138.397 213.467 138.566 213.367 138.765C213.268 138.957 213.218 139.164 213.218 139.386C213.218 139.678 213.302 139.919 213.471 140.111C213.647 140.303 213.873 140.467 214.149 140.605C214.433 140.743 214.751 140.87 215.104 140.985C215.464 141.092 215.828 141.207 216.196 141.33C216.572 141.453 216.936 141.594 217.289 141.755C217.649 141.909 217.967 142.104 218.243 142.342C218.527 142.572 218.753 142.852 218.922 143.181C219.098 143.511 219.186 143.914 219.186 144.389C219.186 144.933 219.087 145.439 218.887 145.907C218.696 146.367 218.408 146.766 218.025 147.103C217.649 147.44 217.182 147.705 216.622 147.896C216.062 148.088 215.422 148.184 214.701 148.184C213.896 148.184 213.153 148.05 212.47 147.781C211.788 147.513 211.217 147.172 210.757 146.758L211.286 145.895C211.347 145.788 211.424 145.708 211.516 145.654C211.608 145.593 211.731 145.562 211.884 145.562C212.03 145.562 212.179 145.616 212.332 145.723C212.486 145.83 212.67 145.949 212.884 146.079C213.099 146.202 213.36 146.317 213.666 146.424C213.973 146.524 214.356 146.574 214.816 146.574C215.2 146.574 215.533 146.528 215.817 146.436C216.101 146.336 216.334 146.206 216.518 146.045C216.71 145.876 216.852 145.685 216.944 145.47C217.036 145.255 217.082 145.029 217.082 144.791C217.082 144.485 216.994 144.232 216.817 144.032C216.649 143.825 216.423 143.649 216.139 143.503C215.863 143.358 215.545 143.231 215.184 143.124C214.824 143.017 214.456 142.902 214.08 142.779C213.705 142.656 213.337 142.514 212.976 142.353C212.616 142.192 212.294 141.989 212.01 141.744C211.734 141.499 211.508 141.2 211.332 140.847C211.163 140.494 211.079 140.065 211.079 139.559C211.079 139.107 211.171 138.673 211.355 138.259C211.547 137.845 211.819 137.481 212.171 137.167C212.532 136.853 212.973 136.603 213.494 136.419C214.023 136.228 214.625 136.132 215.299 136.132C216.074 136.132 216.771 136.255 217.392 136.5C218.021 136.745 218.558 137.083 219.002 137.512L218.508 138.328ZM76.9705 163.132C77.8292 163.132 78.6035 163.274 79.2935 163.557C79.9912 163.833 80.5815 164.236 81.0645 164.765C81.5552 165.286 81.9309 165.919 82.1915 166.662C82.4522 167.398 82.5825 168.226 82.5825 169.146C82.5825 170.066 82.4522 170.898 82.1915 171.642C81.9309 172.386 81.5552 173.018 81.0645 173.539C80.5815 174.061 79.9912 174.463 79.2935 174.747C78.6035 175.023 77.8292 175.161 76.9705 175.161C76.1042 175.161 75.3222 175.023 74.6245 174.747C73.9345 174.463 73.3442 174.061 72.8535 173.539C72.3629 173.018 71.9834 172.386 71.715 171.642C71.4544 170.898 71.324 170.066 71.324 169.146C71.324 168.226 71.4544 167.398 71.715 166.662C71.9834 165.919 72.3629 165.286 72.8535 164.765C73.3442 164.236 73.9345 163.833 74.6245 163.557C75.3222 163.274 76.1042 163.132 76.9705 163.132ZM76.9705 173.413C78.0745 173.413 78.8987 173.041 79.443 172.297C79.9874 171.554 80.2595 170.507 80.2595 169.158C80.2595 167.809 79.9874 166.762 79.443 166.018C78.8987 165.267 78.0745 164.891 76.9705 164.891C75.8512 164.891 75.0155 165.267 74.4635 166.018C73.9192 166.762 73.647 167.809 73.647 169.158C73.647 170.507 73.9192 171.554 74.4635 172.297C75.0155 173.041 75.8512 173.413 76.9705 173.413ZM94.8033 163.316V175H93.4578C93.1511 175 92.9518 174.85 92.8598 174.551L92.6988 173.378C92.4458 173.647 92.1813 173.892 91.9053 174.114C91.6293 174.337 91.3341 174.528 91.0198 174.689C90.7054 174.843 90.3719 174.962 90.0193 175.046C89.6666 175.138 89.2871 175.184 88.8808 175.184C88.2368 175.184 87.6694 175.077 87.1788 174.862C86.6958 174.647 86.2894 174.348 85.9598 173.965C85.6301 173.574 85.3809 173.106 85.2123 172.562C85.0436 172.018 84.9593 171.416 84.9593 170.756V163.316H87.2133V170.756C87.2133 171.592 87.4049 172.244 87.7883 172.711C88.1716 173.171 88.7581 173.401 89.5478 173.401C90.1228 173.401 90.6594 173.267 91.1578 172.999C91.6561 172.723 92.1238 172.347 92.5608 171.872V163.316H94.8033ZM100.049 165.558C100.425 164.792 100.877 164.19 101.406 163.753C101.935 163.316 102.572 163.097 103.315 163.097C103.568 163.097 103.806 163.128 104.028 163.189C104.258 163.243 104.458 163.327 104.626 163.443L104.477 165.133C104.423 165.34 104.297 165.443 104.097 165.443C103.99 165.443 103.829 165.424 103.614 165.386C103.4 165.34 103.17 165.317 102.924 165.317C102.564 165.317 102.246 165.371 101.97 165.478C101.694 165.578 101.445 165.731 101.222 165.938C101.008 166.137 100.816 166.386 100.647 166.685C100.479 166.977 100.322 167.31 100.176 167.686V175H97.9334V163.316H99.2214C99.4667 163.316 99.6316 163.362 99.7159 163.454C99.8079 163.538 99.8731 163.692 99.9114 163.914L100.049 165.558ZM119.868 165.501C119.799 165.585 119.73 165.654 119.661 165.708C119.599 165.754 119.507 165.777 119.385 165.777C119.262 165.777 119.132 165.731 118.994 165.639C118.863 165.539 118.695 165.436 118.488 165.328C118.288 165.213 118.043 165.11 117.752 165.018C117.468 164.918 117.115 164.868 116.694 164.868C116.142 164.868 115.655 164.968 115.233 165.167C114.811 165.367 114.459 165.65 114.175 166.018C113.899 166.386 113.688 166.835 113.543 167.364C113.397 167.893 113.324 168.487 113.324 169.146C113.324 169.829 113.401 170.438 113.554 170.975C113.707 171.504 113.926 171.952 114.21 172.32C114.493 172.681 114.838 172.957 115.245 173.148C115.651 173.332 116.103 173.424 116.602 173.424C117.085 173.424 117.483 173.367 117.798 173.252C118.112 173.129 118.373 172.999 118.58 172.861C118.787 172.723 118.959 172.596 119.097 172.481C119.235 172.359 119.377 172.297 119.523 172.297C119.707 172.297 119.848 172.366 119.948 172.504L120.592 173.332C120.324 173.662 120.021 173.942 119.684 174.172C119.354 174.402 119.001 174.59 118.626 174.735C118.25 174.881 117.855 174.988 117.441 175.058C117.035 175.127 116.621 175.161 116.199 175.161C115.471 175.161 114.788 175.027 114.152 174.758C113.523 174.49 112.975 174.099 112.508 173.585C112.048 173.072 111.683 172.443 111.415 171.699C111.147 170.948 111.013 170.097 111.013 169.146C111.013 168.28 111.131 167.479 111.369 166.743C111.614 166.007 111.971 165.374 112.439 164.845C112.914 164.309 113.497 163.891 114.187 163.592C114.877 163.285 115.666 163.132 116.556 163.132C117.391 163.132 118.127 163.266 118.764 163.534C119.4 163.803 119.967 164.182 120.466 164.673L119.868 165.501ZM130.223 167.858C130.223 167.414 130.158 167.004 130.027 166.628C129.905 166.252 129.721 165.926 129.475 165.65C129.23 165.374 128.931 165.16 128.578 165.006C128.226 164.853 127.819 164.776 127.359 164.776C126.416 164.776 125.673 165.049 125.128 165.593C124.592 166.137 124.25 166.892 124.105 167.858H130.223ZM132.074 173.332C131.798 173.654 131.48 173.934 131.12 174.172C130.759 174.402 130.376 174.59 129.97 174.735C129.563 174.881 129.142 174.988 128.705 175.058C128.275 175.127 127.85 175.161 127.428 175.161C126.623 175.161 125.876 175.027 125.186 174.758C124.503 174.482 123.909 174.084 123.403 173.562C122.905 173.033 122.514 172.382 122.23 171.607C121.954 170.825 121.816 169.928 121.816 168.916C121.816 168.104 121.943 167.349 122.196 166.651C122.449 165.946 122.809 165.332 123.277 164.811C123.752 164.29 124.331 163.879 125.013 163.58C125.696 163.281 126.462 163.132 127.313 163.132C128.026 163.132 128.682 163.251 129.28 163.488C129.885 163.718 130.407 164.056 130.844 164.5C131.281 164.945 131.622 165.493 131.867 166.145C132.12 166.797 132.247 167.54 132.247 168.376C132.247 168.721 132.208 168.955 132.132 169.077C132.055 169.192 131.913 169.25 131.706 169.25H124.047C124.07 169.948 124.17 170.557 124.346 171.078C124.523 171.592 124.764 172.021 125.071 172.366C125.385 172.711 125.757 172.968 126.186 173.137C126.616 173.306 127.095 173.39 127.624 173.39C128.122 173.39 128.551 173.332 128.912 173.217C129.28 173.102 129.594 172.98 129.855 172.849C130.123 172.711 130.345 172.585 130.522 172.47C130.706 172.355 130.867 172.297 131.005 172.297C131.189 172.297 131.331 172.366 131.43 172.504L132.074 173.332ZM136.762 164.937C137.015 164.669 137.279 164.424 137.555 164.201C137.831 163.979 138.122 163.791 138.429 163.638C138.743 163.477 139.077 163.354 139.43 163.27C139.79 163.178 140.173 163.132 140.58 163.132C141.224 163.132 141.787 163.239 142.27 163.454C142.761 163.669 143.171 163.971 143.501 164.362C143.83 164.746 144.079 165.21 144.248 165.754C144.417 166.298 144.501 166.9 144.501 167.559V175H142.247V167.559C142.247 166.724 142.055 166.076 141.672 165.616C141.289 165.148 140.702 164.914 139.913 164.914C139.338 164.914 138.797 165.052 138.291 165.328C137.793 165.597 137.329 165.965 136.9 166.432V175H134.657V163.316H136.003C136.317 163.316 136.512 163.465 136.589 163.764L136.762 164.937ZM151.027 175.184C150.084 175.184 149.356 174.919 148.842 174.39C148.336 173.861 148.083 173.106 148.083 172.125V165.133H146.726C146.596 165.133 146.484 165.095 146.392 165.018C146.308 164.934 146.266 164.811 146.266 164.65V163.741L148.163 163.477L148.669 159.992C148.7 159.862 148.758 159.762 148.842 159.693C148.934 159.617 149.049 159.578 149.187 159.578H150.325V163.5H153.637V165.133H150.325V171.975C150.325 172.435 150.437 172.78 150.659 173.01C150.889 173.233 151.18 173.344 151.533 173.344C151.74 173.344 151.916 173.317 152.062 173.263C152.215 173.21 152.346 173.152 152.453 173.091C152.56 173.022 152.652 172.961 152.729 172.907C152.806 172.853 152.875 172.826 152.936 172.826C153.013 172.826 153.07 172.846 153.108 172.884C153.154 172.915 153.2 172.968 153.246 173.045L153.913 174.126C153.545 174.463 153.108 174.724 152.602 174.908C152.096 175.092 151.571 175.184 151.027 175.184ZM163.375 167.858C163.375 167.414 163.31 167.004 163.18 166.628C163.057 166.252 162.873 165.926 162.628 165.65C162.382 165.374 162.083 165.16 161.731 165.006C161.378 164.853 160.972 164.776 160.512 164.776C159.569 164.776 158.825 165.049 158.281 165.593C157.744 166.137 157.403 166.892 157.257 167.858H163.375ZM165.227 173.332C164.951 173.654 164.632 173.934 164.272 174.172C163.912 174.402 163.528 174.59 163.122 174.735C162.716 174.881 162.294 174.988 161.857 175.058C161.428 175.127 161.002 175.161 160.581 175.161C159.776 175.161 159.028 175.027 158.338 174.758C157.656 174.482 157.062 174.084 156.556 173.562C156.057 173.033 155.666 172.382 155.383 171.607C155.107 170.825 154.969 169.928 154.969 168.916C154.969 168.104 155.095 167.349 155.348 166.651C155.601 165.946 155.961 165.332 156.429 164.811C156.904 164.29 157.483 163.879 158.166 163.58C158.848 163.281 159.615 163.132 160.466 163.132C161.179 163.132 161.834 163.251 162.432 163.488C163.038 163.718 163.559 164.056 163.996 164.5C164.433 164.945 164.774 165.493 165.02 166.145C165.273 166.797 165.399 167.54 165.399 168.376C165.399 168.721 165.361 168.955 165.284 169.077C165.207 169.192 165.066 169.25 164.859 169.25H157.2C157.223 169.948 157.322 170.557 157.499 171.078C157.675 171.592 157.916 172.021 158.223 172.366C158.537 172.711 158.909 172.968 159.339 173.137C159.768 173.306 160.247 173.39 160.776 173.39C161.274 173.39 161.704 173.332 162.064 173.217C162.432 173.102 162.746 172.98 163.007 172.849C163.275 172.711 163.498 172.585 163.674 172.47C163.858 172.355 164.019 172.297 164.157 172.297C164.341 172.297 164.483 172.366 164.583 172.504L165.227 173.332ZM169.925 165.558C170.301 164.792 170.753 164.19 171.282 163.753C171.811 163.316 172.448 163.097 173.191 163.097C173.444 163.097 173.682 163.128 173.904 163.189C174.134 163.243 174.334 163.327 174.502 163.443L174.353 165.133C174.299 165.34 174.173 165.443 173.973 165.443C173.866 165.443 173.705 165.424 173.49 165.386C173.276 165.34 173.046 165.317 172.8 165.317C172.44 165.317 172.122 165.371 171.846 165.478C171.57 165.578 171.321 165.731 171.098 165.938C170.884 166.137 170.692 166.386 170.523 166.685C170.355 166.977 170.198 167.31 170.052 167.686V175H167.809V163.316H169.097C169.343 163.316 169.508 163.362 169.592 163.454C169.684 163.538 169.749 163.692 169.787 163.914L169.925 165.558ZM183.053 165.328C182.992 165.428 182.927 165.501 182.858 165.547C182.789 165.585 182.701 165.604 182.593 165.604C182.471 165.604 182.333 165.562 182.179 165.478C182.034 165.394 181.854 165.302 181.639 165.202C181.432 165.102 181.187 165.01 180.903 164.926C180.619 164.842 180.282 164.799 179.891 164.799C179.569 164.799 179.274 164.842 179.005 164.926C178.745 165.003 178.522 165.114 178.338 165.259C178.154 165.397 178.013 165.566 177.913 165.765C177.813 165.957 177.763 166.164 177.763 166.386C177.763 166.678 177.848 166.919 178.016 167.111C178.193 167.303 178.419 167.467 178.695 167.605C178.979 167.743 179.297 167.87 179.649 167.985C180.01 168.092 180.374 168.207 180.742 168.33C181.118 168.453 181.482 168.594 181.834 168.755C182.195 168.909 182.513 169.104 182.789 169.342C183.073 169.572 183.299 169.852 183.467 170.181C183.644 170.511 183.732 170.914 183.732 171.389C183.732 171.933 183.632 172.439 183.433 172.907C183.241 173.367 182.954 173.766 182.57 174.103C182.195 174.44 181.727 174.705 181.167 174.896C180.608 175.088 179.968 175.184 179.247 175.184C178.442 175.184 177.698 175.05 177.016 174.781C176.334 174.513 175.762 174.172 175.302 173.758L175.831 172.895C175.893 172.788 175.969 172.708 176.061 172.654C176.153 172.593 176.276 172.562 176.429 172.562C176.575 172.562 176.725 172.616 176.878 172.723C177.031 172.83 177.215 172.949 177.43 173.079C177.645 173.202 177.905 173.317 178.212 173.424C178.519 173.524 178.902 173.574 179.362 173.574C179.745 173.574 180.079 173.528 180.362 173.436C180.646 173.336 180.88 173.206 181.064 173.045C181.256 172.876 181.397 172.685 181.489 172.47C181.581 172.255 181.627 172.029 181.627 171.791C181.627 171.485 181.539 171.232 181.363 171.032C181.194 170.825 180.968 170.649 180.684 170.503C180.408 170.358 180.09 170.231 179.73 170.124C179.37 170.017 179.002 169.902 178.626 169.779C178.25 169.656 177.882 169.514 177.522 169.353C177.162 169.192 176.84 168.989 176.556 168.744C176.28 168.499 176.054 168.2 175.877 167.847C175.709 167.494 175.624 167.065 175.624 166.559C175.624 166.107 175.716 165.673 175.9 165.259C176.092 164.845 176.364 164.481 176.717 164.167C177.077 163.853 177.518 163.603 178.039 163.419C178.568 163.228 179.17 163.132 179.845 163.132C180.619 163.132 181.317 163.255 181.938 163.5C182.567 163.745 183.103 164.083 183.548 164.512L183.053 165.328Z" fill="white"/>
<path d="M55.1072 65.371C54.3613 65.371 53.751 65.9135 53.751 66.6594V73.6438C53.751 74.3897 54.3613 75 55.1072 75H84.6722C85.4181 75 86.0284 74.3897 86.0284 73.6438V66.6594C86.0284 65.9135 85.4181 65.371 84.6722 65.371H75.6535V25.9059C75.6535 25.16 75.111 24.6175 74.3651 24.6175H68.2623C67.5842 24.6175 67.1773 24.6853 66.7027 24.8888L54.4291 30.6526C53.9545 30.856 53.751 31.1272 53.751 31.6019V39.3322C53.751 39.8747 54.0223 40.2137 54.4969 40.2137C54.7004 40.2137 54.9716 40.1459 55.3107 40.0103L64.1259 36.213V65.371H55.1072ZM129.259 36.9589C129.259 28.2792 124.445 24.0072 111.968 24.0072C106.95 24.0072 101.322 24.9566 97.5242 26.1093C96.8461 26.3128 96.2358 26.7196 96.2358 27.3977V32.6869C96.2358 33.4328 96.7105 34.043 97.4564 34.043C97.5242 34.043 97.5242 34.043 97.592 34.043C101.728 33.6362 106.814 33.1615 110.95 33.1615C116.443 33.1615 118.138 34.3143 118.138 37.2301C118.138 40.4171 117.121 40.9596 111.222 45.096L104.983 49.5036C99.8297 53.1653 95.7612 59.2682 95.7612 66.7272V73.6438C95.7612 74.3897 96.3714 75 97.1174 75H127.293C128.038 75 128.649 74.3897 128.649 73.6438V66.6594C128.649 65.9135 128.038 65.371 127.293 65.371H105.865V65.0998C105.865 60.3531 109.933 57.4373 115.697 53.5722L121.461 49.707C126.479 46.3166 129.259 42.4514 129.259 36.9589ZM174.456 52.7585V46.9269C174.456 30.6526 167.675 24.0072 156.148 24.0072C144.62 24.0072 137.907 30.6526 137.907 46.9269V52.7585C137.907 69.0328 144.62 75.6103 156.148 75.6103C167.675 75.6103 174.456 69.0328 174.456 52.7585ZM162.861 52.7585C162.861 63.4724 159.945 65.9813 156.148 65.9813C152.35 65.9813 149.502 63.4724 149.502 52.7585V46.9269C149.502 36.213 152.35 33.6362 156.148 33.6362C159.945 33.6362 162.861 36.213 162.861 46.9269V52.7585Z" fill="white"/>
<path d="M209.97 53.0729V49.0043C209.97 48.507 209.563 48.281 209.066 48.281H201.38V40.5959C201.38 40.0987 201.154 39.6918 200.657 39.6918H196.589C196.091 39.6918 195.865 40.0987 195.865 40.5959V48.281H188.225C187.728 48.281 187.321 48.507 187.321 49.0043V53.0729C187.321 53.5702 187.728 53.7962 188.225 53.7962H195.865V61.4361C195.865 61.9333 196.091 62.3402 196.589 62.3402H200.657C201.154 62.3402 201.38 61.9333 201.38 61.4361V53.7962H209.066C209.563 53.7962 209.97 53.5702 209.97 53.0729Z" fill="white"/>
</svg>
