<svg width="256" height="212" viewBox="0 0 256 212" fill="none" xmlns="http://www.w3.org/2000/svg">
<path d="M41.5434 109.316L35.0574 124.393C34.9884 124.561 34.8964 124.692 34.7814 124.784C34.6664 124.876 34.4977 124.922 34.2754 124.922H32.6079L34.7469 120.264L29.9514 109.316H31.9064C32.098 109.316 32.2475 109.362 32.3549 109.454C32.4622 109.546 32.5389 109.649 32.5849 109.764L35.5519 116.779C35.6132 116.956 35.6707 117.136 35.7244 117.32C35.7857 117.496 35.8355 117.673 35.8739 117.849C35.9275 117.665 35.985 117.485 36.0464 117.308C36.1077 117.124 36.1729 116.944 36.2419 116.768L39.1054 109.764C39.159 109.634 39.2434 109.527 39.3584 109.443C39.4734 109.358 39.6037 109.316 39.7494 109.316H41.5434ZM50.6607 113.858C50.6607 113.414 50.5955 113.004 50.4652 112.628C50.3425 112.252 50.1585 111.926 49.9132 111.65C49.6679 111.374 49.3689 111.16 49.0162 111.006C48.6635 110.853 48.2572 110.776 47.7972 110.776C46.8542 110.776 46.1105 111.049 45.5662 111.593C45.0295 112.137 44.6884 112.892 44.5427 113.858H50.6607ZM52.5122 119.332C52.2362 119.654 51.918 119.934 51.5577 120.172C51.1974 120.402 50.814 120.59 50.4077 120.735C50.0014 120.881 49.5797 120.988 49.1427 121.058C48.7134 121.127 48.2879 121.161 47.8662 121.161C47.0612 121.161 46.3137 121.027 45.6237 120.758C44.9414 120.482 44.3472 120.084 43.8412 119.562C43.3429 119.033 42.9519 118.382 42.6682 117.607C42.3922 116.825 42.2542 115.928 42.2542 114.916C42.2542 114.104 42.3807 113.349 42.6337 112.651C42.8867 111.946 43.247 111.332 43.7147 110.811C44.19 110.29 44.7689 109.879 45.4512 109.58C46.1335 109.281 46.9002 109.132 47.7512 109.132C48.4642 109.132 49.1197 109.251 49.7177 109.488C50.3234 109.718 50.8447 110.056 51.2817 110.5C51.7187 110.945 52.0599 111.493 52.3052 112.145C52.5582 112.797 52.6847 113.54 52.6847 114.376C52.6847 114.721 52.6464 114.955 52.5697 115.077C52.493 115.192 52.3512 115.25 52.1442 115.25H44.4852C44.5082 115.948 44.6079 116.557 44.7842 117.078C44.9605 117.592 45.202 118.021 45.5087 118.366C45.823 118.711 46.1949 118.968 46.6242 119.137C47.0535 119.306 47.5327 119.39 48.0617 119.39C48.56 119.39 48.9894 119.332 49.3497 119.217C49.7177 119.102 50.032 118.98 50.2927 118.849C50.561 118.711 50.7834 118.585 50.9597 118.47C51.1437 118.355 51.3047 118.297 51.4427 118.297C51.6267 118.297 51.7685 118.366 51.8682 118.504L52.5122 119.332ZM61.374 115.813C60.4617 115.844 59.6874 115.917 59.051 116.032C58.4147 116.139 57.8972 116.285 57.4985 116.469C57.0999 116.653 56.8124 116.871 56.636 117.124C56.4597 117.37 56.3715 117.646 56.3715 117.952C56.3715 118.244 56.4175 118.497 56.5095 118.711C56.6092 118.918 56.7395 119.091 56.9005 119.229C57.0692 119.359 57.2647 119.455 57.487 119.516C57.7094 119.578 57.9509 119.608 58.2115 119.608C58.5565 119.608 58.8709 119.574 59.1545 119.505C59.4459 119.436 59.718 119.34 59.971 119.217C60.224 119.087 60.4655 118.93 60.6955 118.746C60.9255 118.562 61.1517 118.351 61.374 118.113V115.813ZM54.796 110.949C55.4477 110.328 56.153 109.864 56.912 109.557C57.6787 109.251 58.5182 109.097 59.4305 109.097C60.0975 109.097 60.6879 109.209 61.2015 109.431C61.7152 109.646 62.1484 109.948 62.501 110.339C62.8537 110.73 63.1182 111.198 63.2945 111.742C63.4785 112.287 63.5705 112.889 63.5705 113.548V121H62.57C62.3477 121 62.179 120.965 62.064 120.896C61.949 120.82 61.857 120.682 61.788 120.482L61.5465 119.459C61.2475 119.735 60.9524 119.98 60.661 120.195C60.3697 120.402 60.063 120.582 59.741 120.735C59.4267 120.881 59.0894 120.992 58.729 121.069C58.3687 121.146 57.97 121.184 57.533 121.184C57.073 121.184 56.6399 121.123 56.2335 121C55.8349 120.87 55.486 120.674 55.187 120.413C54.888 120.153 54.6504 119.827 54.474 119.436C54.3054 119.045 54.221 118.589 54.221 118.067C54.221 117.607 54.3437 117.167 54.589 116.745C54.842 116.316 55.2484 115.932 55.808 115.595C56.3754 115.258 57.1114 114.982 58.016 114.767C58.9284 114.552 60.0477 114.43 61.374 114.399V113.548C61.374 112.666 61.1862 112.007 60.8105 111.57C60.4349 111.133 59.8829 110.914 59.1545 110.914C58.6639 110.914 58.2499 110.976 57.9125 111.098C57.5829 111.221 57.2954 111.359 57.05 111.512C56.8124 111.658 56.6015 111.792 56.4175 111.915C56.2412 112.038 56.0572 112.099 55.8655 112.099C55.7122 112.099 55.578 112.057 55.463 111.972C55.3557 111.888 55.2675 111.788 55.1985 111.673L54.796 110.949ZM68.6886 111.558C69.0642 110.792 69.5166 110.19 70.0456 109.753C70.5746 109.316 71.2109 109.097 71.9546 109.097C72.2076 109.097 72.4452 109.128 72.6676 109.189C72.8976 109.243 73.0969 109.327 73.2656 109.443L73.1161 111.133C73.0624 111.34 72.9359 111.443 72.7366 111.443C72.6292 111.443 72.4682 111.424 72.2536 111.386C72.0389 111.34 71.8089 111.317 71.5636 111.317C71.2032 111.317 70.8851 111.371 70.6091 111.478C70.3331 111.578 70.0839 111.731 69.8616 111.938C69.6469 112.137 69.4552 112.386 69.2866 112.685C69.1179 112.977 68.9607 113.31 68.8151 113.686V121H66.5726V109.316H67.8606C68.1059 109.316 68.2707 109.362 68.3551 109.454C68.4471 109.538 68.5122 109.692 68.5506 109.914L68.6886 111.558ZM81.8165 111.328C81.7552 111.428 81.69 111.501 81.621 111.547C81.552 111.585 81.4639 111.604 81.3565 111.604C81.2339 111.604 81.0959 111.562 80.9425 111.478C80.7969 111.394 80.6167 111.302 80.402 111.202C80.195 111.102 79.9497 111.01 79.666 110.926C79.3824 110.842 79.045 110.799 78.654 110.799C78.332 110.799 78.0369 110.842 77.7685 110.926C77.5079 111.003 77.2855 111.114 77.1015 111.259C76.9175 111.397 76.7757 111.566 76.676 111.765C76.5764 111.957 76.5265 112.164 76.5265 112.386C76.5265 112.678 76.6109 112.919 76.7795 113.111C76.9559 113.303 77.182 113.467 77.458 113.605C77.7417 113.743 78.0599 113.87 78.4125 113.985C78.7729 114.092 79.137 114.207 79.505 114.33C79.8807 114.453 80.2449 114.594 80.5975 114.755C80.9579 114.909 81.276 115.104 81.552 115.342C81.8357 115.572 82.0619 115.852 82.2305 116.181C82.4069 116.511 82.495 116.914 82.495 117.389C82.495 117.933 82.3954 118.439 82.196 118.907C82.0044 119.367 81.7169 119.766 81.3335 120.103C80.9579 120.44 80.4902 120.705 79.9305 120.896C79.3709 121.088 78.7307 121.184 78.01 121.184C77.205 121.184 76.4614 121.05 75.779 120.781C75.0967 120.513 74.5255 120.172 74.0655 119.758L74.5945 118.895C74.6559 118.788 74.7325 118.708 74.8245 118.654C74.9165 118.593 75.0392 118.562 75.1925 118.562C75.3382 118.562 75.4877 118.616 75.641 118.723C75.7944 118.83 75.9784 118.949 76.193 119.079C76.4077 119.202 76.6684 119.317 76.975 119.424C77.2817 119.524 77.665 119.574 78.125 119.574C78.5084 119.574 78.8419 119.528 79.1255 119.436C79.4092 119.336 79.643 119.206 79.827 119.045C80.0187 118.876 80.1605 118.685 80.2525 118.47C80.3445 118.255 80.3905 118.029 80.3905 117.791C80.3905 117.485 80.3024 117.232 80.126 117.032C79.9574 116.825 79.7312 116.649 79.4475 116.503C79.1715 116.358 78.8534 116.231 78.493 116.124C78.1327 116.017 77.7647 115.902 77.389 115.779C77.0134 115.656 76.6454 115.514 76.285 115.353C75.9247 115.192 75.6027 114.989 75.319 114.744C75.043 114.499 74.8169 114.2 74.6405 113.847C74.4719 113.494 74.3875 113.065 74.3875 112.559C74.3875 112.107 74.4795 111.673 74.6635 111.259C74.8552 110.845 75.1274 110.481 75.48 110.167C75.8404 109.853 76.2812 109.603 76.8025 109.419C77.3315 109.228 77.9334 109.132 78.608 109.132C79.3824 109.132 80.08 109.255 80.701 109.5C81.3297 109.745 81.8664 110.083 82.311 110.512L81.8165 111.328ZM95.72 109.132C96.5787 109.132 97.353 109.274 98.043 109.557C98.7407 109.833 99.331 110.236 99.814 110.765C100.305 111.286 100.68 111.919 100.941 112.662C101.202 113.398 101.332 114.226 101.332 115.146C101.332 116.066 101.202 116.898 100.941 117.642C100.68 118.386 100.305 119.018 99.814 119.539C99.331 120.061 98.7407 120.463 98.043 120.747C97.353 121.023 96.5787 121.161 95.72 121.161C94.8537 121.161 94.0717 121.023 93.374 120.747C92.684 120.463 92.0937 120.061 91.603 119.539C91.1124 119.018 90.7329 118.386 90.4645 117.642C90.2039 116.898 90.0735 116.066 90.0735 115.146C90.0735 114.226 90.2039 113.398 90.4645 112.662C90.7329 111.919 91.1124 111.286 91.603 110.765C92.0937 110.236 92.684 109.833 93.374 109.557C94.0717 109.274 94.8537 109.132 95.72 109.132ZM95.72 119.413C96.824 119.413 97.6482 119.041 98.1925 118.297C98.7369 117.554 99.009 116.507 99.009 115.158C99.009 113.809 98.7369 112.762 98.1925 112.018C97.6482 111.267 96.824 110.891 95.72 110.891C94.6007 110.891 93.765 111.267 93.213 112.018C92.6687 112.762 92.3965 113.809 92.3965 115.158C92.3965 116.507 92.6687 117.554 93.213 118.297C93.765 119.041 94.6007 119.413 95.72 119.413ZM104.336 121V111.156L103.117 111.006C102.941 110.968 102.795 110.907 102.68 110.822C102.573 110.73 102.519 110.6 102.519 110.431V109.5H104.336V108.442C104.336 107.775 104.432 107.181 104.624 106.659C104.815 106.138 105.088 105.697 105.44 105.337C105.801 104.969 106.23 104.693 106.728 104.509C107.234 104.317 107.802 104.221 108.43 104.221C108.959 104.221 109.446 104.298 109.891 104.451L109.845 105.578C109.837 105.678 109.806 105.755 109.753 105.808C109.699 105.854 109.626 105.889 109.534 105.912C109.45 105.935 109.343 105.95 109.212 105.958C109.09 105.958 108.955 105.958 108.81 105.958C108.465 105.958 108.15 106 107.867 106.084C107.583 106.169 107.342 106.311 107.142 106.51C106.943 106.709 106.79 106.974 106.682 107.303C106.575 107.625 106.521 108.028 106.521 108.511V109.5H109.799V111.133H106.59V121H104.336ZM124.804 113.858C124.804 113.414 124.739 113.004 124.609 112.628C124.486 112.252 124.302 111.926 124.057 111.65C123.811 111.374 123.512 111.16 123.16 111.006C122.807 110.853 122.401 110.776 121.941 110.776C120.998 110.776 120.254 111.049 119.71 111.593C119.173 112.137 118.832 112.892 118.686 113.858H124.804ZM126.656 119.332C126.38 119.654 126.062 119.934 125.701 120.172C125.341 120.402 124.958 120.59 124.551 120.735C124.145 120.881 123.723 120.988 123.286 121.058C122.857 121.127 122.431 121.161 122.01 121.161C121.205 121.161 120.457 121.027 119.767 120.758C119.085 120.482 118.491 120.084 117.985 119.562C117.486 119.033 117.095 118.382 116.812 117.607C116.536 116.825 116.398 115.928 116.398 114.916C116.398 114.104 116.524 113.349 116.777 112.651C117.03 111.946 117.391 111.332 117.858 110.811C118.334 110.29 118.912 109.879 119.595 109.58C120.277 109.281 121.044 109.132 121.895 109.132C122.608 109.132 123.263 109.251 123.861 109.488C124.467 109.718 124.988 110.056 125.425 110.5C125.862 110.945 126.203 111.493 126.449 112.145C126.702 112.797 126.828 113.54 126.828 114.376C126.828 114.721 126.79 114.955 126.713 115.077C126.637 115.192 126.495 115.25 126.288 115.25H118.629C118.652 115.948 118.751 116.557 118.928 117.078C119.104 117.592 119.346 118.021 119.652 118.366C119.967 118.711 120.338 118.968 120.768 119.137C121.197 119.306 121.676 119.39 122.205 119.39C122.704 119.39 123.133 119.332 123.493 119.217C123.861 119.102 124.176 118.98 124.436 118.849C124.705 118.711 124.927 118.585 125.103 118.47C125.287 118.355 125.448 118.297 125.586 118.297C125.77 118.297 125.912 118.366 126.012 118.504L126.656 119.332ZM138.879 121H136.717C136.541 121 136.399 120.954 136.292 120.862C136.192 120.762 136.112 120.659 136.05 120.551L133.233 116.101C133.195 116.216 133.156 116.327 133.118 116.434C133.08 116.542 133.03 116.641 132.968 116.733L130.381 120.551C130.304 120.659 130.216 120.762 130.116 120.862C130.017 120.954 129.886 121 129.725 121H127.724L131.795 114.985L127.885 109.316H130.047C130.224 109.316 130.35 109.343 130.427 109.396C130.511 109.45 130.584 109.531 130.645 109.638L133.417 113.904C133.455 113.789 133.497 113.678 133.543 113.571C133.589 113.456 133.651 113.337 133.727 113.214L136.108 109.684C136.246 109.439 136.43 109.316 136.66 109.316H138.718L134.808 114.882L138.879 121ZM142.914 118.125C143.282 118.608 143.677 118.945 144.098 119.137C144.528 119.329 145.007 119.424 145.536 119.424C146.563 119.424 147.357 119.056 147.916 118.32C148.484 117.577 148.767 116.496 148.767 115.077C148.767 114.334 148.702 113.701 148.572 113.18C148.449 112.651 148.265 112.222 148.02 111.892C147.782 111.555 147.487 111.309 147.134 111.156C146.782 110.995 146.383 110.914 145.938 110.914C145.287 110.914 144.719 111.06 144.236 111.351C143.761 111.643 143.32 112.057 142.914 112.593V118.125ZM142.799 111.064C143.044 110.773 143.305 110.508 143.581 110.27C143.864 110.025 144.167 109.818 144.489 109.649C144.811 109.473 145.152 109.339 145.513 109.247C145.881 109.147 146.272 109.097 146.686 109.097C147.353 109.097 147.955 109.228 148.491 109.488C149.036 109.749 149.499 110.132 149.883 110.638C150.266 111.144 150.561 111.769 150.768 112.513C150.983 113.257 151.09 114.111 151.09 115.077C151.09 115.944 150.971 116.749 150.734 117.492C150.504 118.228 150.17 118.869 149.733 119.413C149.304 119.957 148.775 120.387 148.146 120.701C147.525 121.008 146.824 121.161 146.042 121.161C145.344 121.161 144.746 121.046 144.248 120.816C143.749 120.586 143.305 120.264 142.914 119.85V124.922H140.671V109.316H142.017C142.331 109.316 142.527 109.465 142.603 109.764L142.799 111.064ZM161.348 113.858C161.348 113.414 161.283 113.004 161.153 112.628C161.03 112.252 160.846 111.926 160.601 111.65C160.355 111.374 160.056 111.16 159.704 111.006C159.351 110.853 158.945 110.776 158.485 110.776C157.542 110.776 156.798 111.049 156.254 111.593C155.717 112.137 155.376 112.892 155.23 113.858H161.348ZM163.2 119.332C162.924 119.654 162.606 119.934 162.245 120.172C161.885 120.402 161.502 120.59 161.095 120.735C160.689 120.881 160.267 120.988 159.83 121.058C159.401 121.127 158.975 121.161 158.554 121.161C157.749 121.161 157.001 121.027 156.311 120.758C155.629 120.482 155.035 120.084 154.529 119.562C154.03 119.033 153.639 118.382 153.356 117.607C153.08 116.825 152.942 115.928 152.942 114.916C152.942 114.104 153.068 113.349 153.321 112.651C153.574 111.946 153.935 111.332 154.402 110.811C154.878 110.29 155.456 109.879 156.139 109.58C156.821 109.281 157.588 109.132 158.439 109.132C159.152 109.132 159.807 109.251 160.405 109.488C161.011 109.718 161.532 110.056 161.969 110.5C162.406 110.945 162.747 111.493 162.993 112.145C163.246 112.797 163.372 113.54 163.372 114.376C163.372 114.721 163.334 114.955 163.257 115.077C163.181 115.192 163.039 115.25 162.832 115.25H155.173C155.196 115.948 155.295 116.557 155.472 117.078C155.648 117.592 155.89 118.021 156.196 118.366C156.511 118.711 156.882 118.968 157.312 119.137C157.741 119.306 158.22 119.39 158.749 119.39C159.248 119.39 159.677 119.332 160.037 119.217C160.405 119.102 160.72 118.98 160.98 118.849C161.249 118.711 161.471 118.585 161.647 118.47C161.831 118.355 161.992 118.297 162.13 118.297C162.314 118.297 162.456 118.366 162.556 118.504L163.2 119.332ZM167.899 111.558C168.274 110.792 168.727 110.19 169.256 109.753C169.785 109.316 170.421 109.097 171.165 109.097C171.418 109.097 171.655 109.128 171.878 109.189C172.108 109.243 172.307 109.327 172.476 109.443L172.326 111.133C172.272 111.34 172.146 111.443 171.947 111.443C171.839 111.443 171.678 111.424 171.464 111.386C171.249 111.34 171.019 111.317 170.774 111.317C170.413 111.317 170.095 111.371 169.819 111.478C169.543 111.578 169.294 111.731 169.072 111.938C168.857 112.137 168.665 112.386 168.497 112.685C168.328 112.977 168.171 113.31 168.025 113.686V121H165.783V109.316H167.071C167.316 109.316 167.481 109.362 167.565 109.454C167.657 109.538 167.722 109.692 167.761 109.914L167.899 111.558ZM176.551 109.316V121H174.309V109.316H176.551ZM176.977 105.705C176.977 105.912 176.935 106.111 176.85 106.303C176.766 106.487 176.651 106.652 176.505 106.797C176.367 106.935 176.203 107.047 176.011 107.131C175.819 107.208 175.62 107.246 175.413 107.246C175.206 107.246 175.01 107.208 174.826 107.131C174.642 107.047 174.478 106.935 174.332 106.797C174.194 106.652 174.083 106.487 173.998 106.303C173.922 106.111 173.883 105.912 173.883 105.705C173.883 105.49 173.922 105.291 173.998 105.107C174.083 104.915 174.194 104.75 174.332 104.612C174.478 104.467 174.642 104.356 174.826 104.279C175.01 104.195 175.206 104.152 175.413 104.152C175.62 104.152 175.819 104.195 176.011 104.279C176.203 104.356 176.367 104.467 176.505 104.612C176.651 104.75 176.766 104.915 176.85 105.107C176.935 105.291 176.977 105.49 176.977 105.705ZM187.538 113.858C187.538 113.414 187.472 113.004 187.342 112.628C187.219 112.252 187.035 111.926 186.79 111.65C186.545 111.374 186.246 111.16 185.893 111.006C185.54 110.853 185.134 110.776 184.674 110.776C183.731 110.776 182.987 111.049 182.443 111.593C181.906 112.137 181.565 112.892 181.42 113.858H187.538ZM189.389 119.332C189.113 119.654 188.795 119.934 188.435 120.172C188.074 120.402 187.691 120.59 187.285 120.735C186.878 120.881 186.457 120.988 186.02 121.058C185.59 121.127 185.165 121.161 184.743 121.161C183.938 121.161 183.191 121.027 182.501 120.758C181.818 120.482 181.224 120.084 180.718 119.562C180.22 119.033 179.829 118.382 179.545 117.607C179.269 116.825 179.131 115.928 179.131 114.916C179.131 114.104 179.258 113.349 179.511 112.651C179.764 111.946 180.124 111.332 180.592 110.811C181.067 110.29 181.646 109.879 182.328 109.58C183.01 109.281 183.777 109.132 184.628 109.132C185.341 109.132 185.997 109.251 186.595 109.488C187.2 109.718 187.722 110.056 188.159 110.5C188.596 110.945 188.937 111.493 189.182 112.145C189.435 112.797 189.562 113.54 189.562 114.376C189.562 114.721 189.523 114.955 189.447 115.077C189.37 115.192 189.228 115.25 189.021 115.25H181.362C181.385 115.948 181.485 116.557 181.661 117.078C181.837 117.592 182.079 118.021 182.386 118.366C182.7 118.711 183.072 118.968 183.501 119.137C183.93 119.306 184.41 119.39 184.939 119.39C185.437 119.39 185.866 119.332 186.227 119.217C186.595 119.102 186.909 118.98 187.17 118.849C187.438 118.711 187.66 118.585 187.837 118.47C188.021 118.355 188.182 118.297 188.32 118.297C188.504 118.297 188.645 118.366 188.745 118.504L189.389 119.332ZM194.076 110.937C194.329 110.669 194.594 110.424 194.87 110.201C195.146 109.979 195.437 109.791 195.744 109.638C196.058 109.477 196.392 109.354 196.744 109.27C197.105 109.178 197.488 109.132 197.894 109.132C198.538 109.132 199.102 109.239 199.585 109.454C200.076 109.669 200.486 109.971 200.815 110.362C201.145 110.746 201.394 111.21 201.563 111.754C201.732 112.298 201.816 112.9 201.816 113.559V121H199.562V113.559C199.562 112.724 199.37 112.076 198.987 111.616C198.604 111.148 198.017 110.914 197.227 110.914C196.652 110.914 196.112 111.052 195.606 111.328C195.108 111.597 194.644 111.965 194.214 112.432V121H191.972V109.316H193.317C193.632 109.316 193.827 109.465 193.904 109.764L194.076 110.937ZM213.03 111.501C212.961 111.585 212.892 111.654 212.823 111.708C212.762 111.754 212.67 111.777 212.547 111.777C212.424 111.777 212.294 111.731 212.156 111.639C212.026 111.539 211.857 111.436 211.65 111.328C211.451 111.213 211.205 111.11 210.914 111.018C210.63 110.918 210.278 110.868 209.856 110.868C209.304 110.868 208.817 110.968 208.396 111.167C207.974 111.367 207.621 111.65 207.338 112.018C207.062 112.386 206.851 112.835 206.705 113.364C206.559 113.893 206.487 114.487 206.487 115.146C206.487 115.829 206.563 116.438 206.717 116.975C206.87 117.504 207.088 117.952 207.372 118.32C207.656 118.681 208.001 118.957 208.407 119.148C208.813 119.332 209.266 119.424 209.764 119.424C210.247 119.424 210.646 119.367 210.96 119.252C211.274 119.129 211.535 118.999 211.742 118.861C211.949 118.723 212.122 118.596 212.26 118.481C212.398 118.359 212.539 118.297 212.685 118.297C212.869 118.297 213.011 118.366 213.111 118.504L213.755 119.332C213.486 119.662 213.183 119.942 212.846 120.172C212.516 120.402 212.164 120.59 211.788 120.735C211.412 120.881 211.018 120.988 210.604 121.058C210.197 121.127 209.783 121.161 209.362 121.161C208.633 121.161 207.951 121.027 207.315 120.758C206.686 120.49 206.138 120.099 205.67 119.585C205.21 119.072 204.846 118.443 204.578 117.699C204.309 116.948 204.175 116.097 204.175 115.146C204.175 114.28 204.294 113.479 204.532 112.743C204.777 112.007 205.133 111.374 205.601 110.845C206.076 110.309 206.659 109.891 207.349 109.592C208.039 109.285 208.829 109.132 209.718 109.132C210.554 109.132 211.29 109.266 211.926 109.534C212.562 109.803 213.13 110.182 213.628 110.673L213.03 111.501ZM223.385 113.858C223.385 113.414 223.32 113.004 223.19 112.628C223.067 112.252 222.883 111.926 222.638 111.65C222.392 111.374 222.093 111.16 221.741 111.006C221.388 110.853 220.982 110.776 220.522 110.776C219.579 110.776 218.835 111.049 218.291 111.593C217.754 112.137 217.413 112.892 217.267 113.858H223.385ZM225.237 119.332C224.961 119.654 224.643 119.934 224.282 120.172C223.922 120.402 223.539 120.59 223.132 120.735C222.726 120.881 222.304 120.988 221.867 121.058C221.438 121.127 221.012 121.161 220.591 121.161C219.786 121.161 219.038 121.027 218.348 120.758C217.666 120.482 217.072 120.084 216.566 119.562C216.067 119.033 215.676 118.382 215.393 117.607C215.117 116.825 214.979 115.928 214.979 114.916C214.979 114.104 215.105 113.349 215.358 112.651C215.611 111.946 215.972 111.332 216.439 110.811C216.915 110.29 217.493 109.879 218.176 109.58C218.858 109.281 219.625 109.132 220.476 109.132C221.189 109.132 221.844 109.251 222.442 109.488C223.048 109.718 223.569 110.056 224.006 110.5C224.443 110.945 224.784 111.493 225.03 112.145C225.283 112.797 225.409 113.54 225.409 114.376C225.409 114.721 225.371 114.955 225.294 115.077C225.218 115.192 225.076 115.25 224.869 115.25H217.21C217.233 115.948 217.332 116.557 217.509 117.078C217.685 117.592 217.927 118.021 218.233 118.366C218.548 118.711 218.919 118.968 219.349 119.137C219.778 119.306 220.257 119.39 220.786 119.39C221.285 119.39 221.714 119.332 222.074 119.217C222.442 119.102 222.757 118.98 223.017 118.849C223.286 118.711 223.508 118.585 223.684 118.47C223.868 118.355 224.029 118.297 224.167 118.297C224.351 118.297 224.493 118.366 224.593 118.504L225.237 119.332ZM27.6105 137.799C28.1011 137.301 28.6416 136.899 29.232 136.592C29.83 136.285 30.5161 136.132 31.2905 136.132C31.9345 136.132 32.498 136.239 32.981 136.454C33.4716 136.669 33.8818 136.971 34.2115 137.362C34.5411 137.746 34.7903 138.21 34.959 138.754C35.1276 139.298 35.212 139.9 35.212 140.559V148H32.958V140.559C32.958 139.724 32.7663 139.076 32.383 138.616C31.9996 138.148 31.4131 137.914 30.6235 137.914C30.0485 137.914 29.508 138.052 29.002 138.328C28.5036 138.597 28.0398 138.965 27.6105 139.432V148H25.368V131.026H27.6105V137.799ZM45.9776 140.858C45.9776 140.414 45.9124 140.004 45.7821 139.628C45.6594 139.252 45.4754 138.926 45.2301 138.65C44.9848 138.374 44.6858 138.16 44.3331 138.006C43.9804 137.853 43.5741 137.776 43.1141 137.776C42.1711 137.776 41.4274 138.049 40.8831 138.593C40.3464 139.137 40.0053 139.892 39.8596 140.858H45.9776ZM47.8291 146.332C47.5531 146.654 47.2349 146.934 46.8746 147.172C46.5143 147.402 46.1309 147.59 45.7246 147.735C45.3183 147.881 44.8966 147.988 44.4596 148.058C44.0303 148.127 43.6048 148.161 43.1831 148.161C42.3781 148.161 41.6306 148.027 40.9406 147.758C40.2583 147.482 39.6641 147.084 39.1581 146.562C38.6598 146.033 38.2688 145.382 37.9851 144.607C37.7091 143.825 37.5711 142.928 37.5711 141.916C37.5711 141.104 37.6976 140.349 37.9506 139.651C38.2036 138.946 38.5639 138.332 39.0316 137.811C39.5069 137.29 40.0858 136.879 40.7681 136.58C41.4504 136.281 42.2171 136.132 43.0681 136.132C43.7811 136.132 44.4366 136.251 45.0346 136.488C45.6403 136.718 46.1616 137.056 46.5986 137.5C47.0356 137.945 47.3768 138.493 47.6221 139.145C47.8751 139.797 48.0016 140.54 48.0016 141.376C48.0016 141.721 47.9633 141.955 47.8866 142.077C47.8099 142.192 47.6681 142.25 47.4611 142.25H39.8021C39.8251 142.948 39.9248 143.557 40.1011 144.078C40.2774 144.592 40.5189 145.021 40.8256 145.366C41.1399 145.711 41.5118 145.968 41.9411 146.137C42.3704 146.306 42.8496 146.39 43.3786 146.39C43.8769 146.39 44.3063 146.332 44.6666 146.217C45.0346 146.102 45.3489 145.98 45.6096 145.849C45.8779 145.711 46.1003 145.585 46.2766 145.47C46.4606 145.355 46.6216 145.297 46.7596 145.297C46.9436 145.297 47.0854 145.366 47.1851 145.504L47.8291 146.332ZM52.7119 131.026V148H50.4579V131.026H52.7119ZM58.1574 145.125C58.5254 145.608 58.9202 145.945 59.3419 146.137C59.7712 146.329 60.2504 146.424 60.7794 146.424C61.8067 146.424 62.6002 146.056 63.1599 145.32C63.7272 144.577 64.0109 143.496 64.0109 142.077C64.0109 141.334 63.9457 140.701 63.8154 140.18C63.6927 139.651 63.5087 139.222 63.2634 138.892C63.0257 138.555 62.7305 138.309 62.3779 138.156C62.0252 137.995 61.6265 137.914 61.1819 137.914C60.5302 137.914 59.9629 138.06 59.4799 138.351C59.0045 138.643 58.5637 139.057 58.1574 139.593V145.125ZM58.0424 138.064C58.2877 137.773 58.5484 137.508 58.8244 137.27C59.108 137.025 59.4109 136.818 59.7329 136.649C60.0549 136.473 60.396 136.339 60.7564 136.247C61.1244 136.147 61.5154 136.097 61.9294 136.097C62.5964 136.097 63.1982 136.228 63.7349 136.488C64.2792 136.749 64.743 137.132 65.1264 137.638C65.5097 138.144 65.8049 138.769 66.0119 139.513C66.2265 140.257 66.3339 141.111 66.3339 142.077C66.3339 142.944 66.215 143.749 65.9774 144.492C65.7474 145.228 65.4139 145.869 64.9769 146.413C64.5475 146.957 64.0185 147.387 63.3899 147.701C62.7689 148.008 62.0674 148.161 61.2854 148.161C60.5877 148.161 59.9897 148.046 59.4914 147.816C58.993 147.586 58.5484 147.264 58.1574 146.85V151.922H55.9149V136.316H57.2604C57.5747 136.316 57.7702 136.465 57.8469 136.764L58.0424 138.064ZM71.1984 136.316V148H68.9559V136.316H71.1984ZM71.6239 132.705C71.6239 132.912 71.5817 133.111 71.4974 133.303C71.413 133.487 71.298 133.652 71.1524 133.797C71.0144 133.935 70.8495 134.047 70.6579 134.131C70.4662 134.208 70.2669 134.246 70.0599 134.246C69.8529 134.246 69.6574 134.208 69.4734 134.131C69.2894 134.047 69.1245 133.935 68.9789 133.797C68.8409 133.652 68.7297 133.487 68.6454 133.303C68.5687 133.111 68.5304 132.912 68.5304 132.705C68.5304 132.49 68.5687 132.291 68.6454 132.107C68.7297 131.915 68.8409 131.75 68.9789 131.612C69.1245 131.467 69.2894 131.356 69.4734 131.279C69.6574 131.195 69.8529 131.152 70.0599 131.152C70.2669 131.152 70.4662 131.195 70.6579 131.279C70.8495 131.356 71.0144 131.467 71.1524 131.612C71.298 131.75 71.413 131.915 71.4974 132.107C71.5817 132.291 71.6239 132.49 71.6239 132.705ZM76.5496 137.937C76.8026 137.669 77.0671 137.424 77.3431 137.201C77.6191 136.979 77.9105 136.791 78.2171 136.638C78.5315 136.477 78.865 136.354 79.2176 136.27C79.578 136.178 79.9613 136.132 80.3676 136.132C81.0116 136.132 81.5751 136.239 82.0581 136.454C82.5488 136.669 82.959 136.971 83.2886 137.362C83.6183 137.746 83.8675 138.21 84.0361 138.754C84.2048 139.298 84.2891 139.9 84.2891 140.559V148H82.0351V140.559C82.0351 139.724 81.8435 139.076 81.4601 138.616C81.0768 138.148 80.4903 137.914 79.7006 137.914C79.1256 137.914 78.5851 138.052 78.0791 138.328C77.5808 138.597 77.117 138.965 76.6876 139.432V148H74.4451V136.316H75.7906C76.105 136.316 76.3005 136.465 76.3771 136.764L76.5496 137.937ZM91.4207 142.169C91.8194 142.169 92.1682 142.116 92.4672 142.008C92.7739 141.901 93.0269 141.752 93.2262 141.56C93.4332 141.361 93.5866 141.123 93.6862 140.847C93.7936 140.571 93.8472 140.268 93.8472 139.938C93.8472 139.264 93.6402 138.727 93.2262 138.328C92.8199 137.922 92.2181 137.719 91.4207 137.719C90.6311 137.719 90.0292 137.922 89.6152 138.328C89.2089 138.727 89.0057 139.264 89.0057 139.938C89.0057 140.268 89.0556 140.571 89.1552 140.847C89.2626 141.115 89.4159 141.349 89.6152 141.548C89.8222 141.74 90.0752 141.893 90.3742 142.008C90.6809 142.116 91.0297 142.169 91.4207 142.169ZM94.9972 148.61C94.9972 148.334 94.9206 148.115 94.7672 147.954C94.6139 147.785 94.4031 147.655 94.1347 147.563C93.8741 147.463 93.5674 147.394 93.2147 147.356C92.8621 147.31 92.4902 147.275 92.0992 147.252C91.7159 147.229 91.3211 147.21 90.9147 147.195C90.5084 147.172 90.1174 147.134 89.7417 147.08C89.3431 147.279 89.0134 147.521 88.7527 147.804C88.4997 148.088 88.3732 148.422 88.3732 148.805C88.3732 149.05 88.4346 149.28 88.5572 149.495C88.6876 149.71 88.8831 149.894 89.1437 150.047C89.4121 150.208 89.7456 150.331 90.1442 150.415C90.5506 150.507 91.0336 150.553 91.5932 150.553C92.1452 150.553 92.6321 150.503 93.0537 150.404C93.4754 150.312 93.8281 150.177 94.1117 150.001C94.4031 149.832 94.6216 149.629 94.7672 149.392C94.9206 149.154 94.9972 148.893 94.9972 148.61ZM97.2742 136.753V137.592C97.2742 137.868 97.1017 138.041 96.7567 138.11L95.5032 138.294C95.6106 138.532 95.6949 138.785 95.7562 139.053C95.8176 139.314 95.8482 139.59 95.8482 139.881C95.8482 140.456 95.7371 140.977 95.5147 141.445C95.2924 141.905 94.9857 142.3 94.5947 142.629C94.2037 142.959 93.7361 143.212 93.1917 143.388C92.6551 143.565 92.0647 143.653 91.4207 143.653C90.8917 143.653 90.3972 143.595 89.9372 143.48C89.7072 143.618 89.5309 143.772 89.4082 143.94C89.2932 144.101 89.2357 144.262 89.2357 144.423C89.2357 144.692 89.3469 144.891 89.5692 145.021C89.7992 145.152 90.0944 145.248 90.4547 145.309C90.8227 145.363 91.2406 145.397 91.7082 145.412C92.1836 145.428 92.6627 145.455 93.1457 145.493C93.6364 145.524 94.1156 145.585 94.5832 145.677C95.0586 145.761 95.4764 145.903 95.8367 146.102C96.2047 146.294 96.4999 146.562 96.7222 146.907C96.9522 147.245 97.0672 147.686 97.0672 148.23C97.0672 148.736 96.9407 149.227 96.6877 149.702C96.4424 150.177 96.0821 150.599 95.6067 150.967C95.1314 151.335 94.5526 151.63 93.8702 151.853C93.1879 152.075 92.4136 152.186 91.5472 152.186C90.6809 152.186 89.9257 152.102 89.2817 151.933C88.6454 151.764 88.1126 151.538 87.6832 151.255C87.2616 150.971 86.9434 150.641 86.7287 150.266C86.5217 149.89 86.4182 149.499 86.4182 149.093C86.4182 148.525 86.5946 148.046 86.9472 147.655C87.2999 147.256 87.7867 146.946 88.4077 146.723C88.0704 146.57 87.8021 146.363 87.6027 146.102C87.4034 145.834 87.3037 145.481 87.3037 145.045C87.3037 144.876 87.3344 144.703 87.3957 144.527C87.4571 144.343 87.5491 144.163 87.6717 143.986C87.8021 143.802 87.9592 143.63 88.1432 143.469C88.3349 143.308 88.5534 143.162 88.7987 143.032C88.2237 142.71 87.7714 142.284 87.4417 141.755C87.1121 141.219 86.9472 140.594 86.9472 139.881C86.9472 139.306 87.0584 138.788 87.2807 138.328C87.5031 137.868 87.8097 137.474 88.2007 137.144C88.5994 136.814 89.0709 136.561 89.6152 136.385C90.1672 136.209 90.7691 136.121 91.4207 136.121C92.4327 136.121 93.3029 136.331 94.0312 136.753H97.2742ZM107.495 136.316V148H105.253V136.316H107.495ZM107.921 132.705C107.921 132.912 107.879 133.111 107.794 133.303C107.71 133.487 107.595 133.652 107.449 133.797C107.311 133.935 107.146 134.047 106.955 134.131C106.763 134.208 106.564 134.246 106.357 134.246C106.15 134.246 105.954 134.208 105.77 134.131C105.586 134.047 105.421 133.935 105.276 133.797C105.138 133.652 105.027 133.487 104.942 133.303C104.866 133.111 104.827 132.912 104.827 132.705C104.827 132.49 104.866 132.291 104.942 132.107C105.027 131.915 105.138 131.75 105.276 131.612C105.421 131.467 105.586 131.356 105.77 131.279C105.954 131.195 106.15 131.152 106.357 131.152C106.564 131.152 106.763 131.195 106.955 131.279C107.146 131.356 107.311 131.467 107.449 131.612C107.595 131.75 107.71 131.915 107.794 132.107C107.879 132.291 107.921 132.49 107.921 132.705ZM112.847 137.937C113.1 137.669 113.364 137.424 113.64 137.201C113.916 136.979 114.207 136.791 114.514 136.638C114.828 136.477 115.162 136.354 115.515 136.27C115.875 136.178 116.258 136.132 116.665 136.132C117.309 136.132 117.872 136.239 118.355 136.454C118.846 136.669 119.256 136.971 119.586 137.362C119.915 137.746 120.164 138.21 120.333 138.754C120.502 139.298 120.586 139.9 120.586 140.559V148H118.332V140.559C118.332 139.724 118.14 139.076 117.757 138.616C117.374 138.148 116.787 137.914 115.998 137.914C115.423 137.914 114.882 138.052 114.376 138.328C113.878 138.597 113.414 138.965 112.985 139.432V148H110.742V136.316H112.088C112.402 136.316 112.597 136.465 112.674 136.764L112.847 137.937ZM127.112 148.184C126.169 148.184 125.441 147.919 124.927 147.39C124.421 146.861 124.168 146.106 124.168 145.125V138.133H122.811C122.681 138.133 122.569 138.095 122.477 138.018C122.393 137.934 122.351 137.811 122.351 137.65V136.741L124.248 136.477L124.754 132.992C124.785 132.862 124.843 132.762 124.927 132.693C125.019 132.617 125.134 132.578 125.272 132.578H126.41V136.5H129.722V138.133H126.41V144.975C126.41 145.435 126.522 145.78 126.744 146.01C126.974 146.233 127.265 146.344 127.618 146.344C127.825 146.344 128.001 146.317 128.147 146.263C128.3 146.21 128.431 146.152 128.538 146.091C128.645 146.022 128.737 145.961 128.814 145.907C128.891 145.853 128.96 145.826 129.021 145.826C129.098 145.826 129.155 145.846 129.193 145.884C129.239 145.915 129.285 145.968 129.331 146.045L129.998 147.126C129.63 147.463 129.193 147.724 128.687 147.908C128.181 148.092 127.656 148.184 127.112 148.184ZM139.46 140.858C139.46 140.414 139.395 140.004 139.265 139.628C139.142 139.252 138.958 138.926 138.713 138.65C138.467 138.374 138.168 138.16 137.816 138.006C137.463 137.853 137.057 137.776 136.597 137.776C135.654 137.776 134.91 138.049 134.366 138.593C133.829 139.137 133.488 139.892 133.342 140.858H139.46ZM141.312 146.332C141.036 146.654 140.717 146.934 140.357 147.172C139.997 147.402 139.613 147.59 139.207 147.735C138.801 147.881 138.379 147.988 137.942 148.058C137.513 148.127 137.087 148.161 136.666 148.161C135.861 148.161 135.113 148.027 134.423 147.758C133.741 147.482 133.147 147.084 132.641 146.562C132.142 146.033 131.751 145.382 131.468 144.607C131.192 143.825 131.054 142.928 131.054 141.916C131.054 141.104 131.18 140.349 131.433 139.651C131.686 138.946 132.046 138.332 132.514 137.811C132.989 137.29 133.568 136.879 134.251 136.58C134.933 136.281 135.7 136.132 136.551 136.132C137.264 136.132 137.919 136.251 138.517 136.488C139.123 136.718 139.644 137.056 140.081 137.5C140.518 137.945 140.859 138.493 141.105 139.145C141.358 139.797 141.484 140.54 141.484 141.376C141.484 141.721 141.446 141.955 141.369 142.077C141.292 142.192 141.151 142.25 140.944 142.25H133.285C133.308 142.948 133.407 143.557 133.584 144.078C133.76 144.592 134.001 145.021 134.308 145.366C134.622 145.711 134.994 145.968 135.424 146.137C135.853 146.306 136.332 146.39 136.861 146.39C137.359 146.39 137.789 146.332 138.149 146.217C138.517 146.102 138.831 145.98 139.092 145.849C139.36 145.711 139.583 145.585 139.759 145.47C139.943 145.355 140.104 145.297 140.242 145.297C140.426 145.297 140.568 145.366 140.668 145.504L141.312 146.332ZM146.01 138.558C146.386 137.792 146.838 137.19 147.367 136.753C147.896 136.316 148.533 136.097 149.276 136.097C149.529 136.097 149.767 136.128 149.989 136.189C150.219 136.243 150.419 136.327 150.587 136.443L150.438 138.133C150.384 138.34 150.258 138.443 150.058 138.443C149.951 138.443 149.79 138.424 149.575 138.386C149.361 138.34 149.131 138.317 148.885 138.317C148.525 138.317 148.207 138.371 147.931 138.478C147.655 138.578 147.406 138.731 147.183 138.938C146.969 139.137 146.777 139.386 146.608 139.685C146.44 139.977 146.283 140.31 146.137 140.686V148H143.894V136.316H145.182C145.428 136.316 145.593 136.362 145.677 136.454C145.769 136.538 145.834 136.692 145.872 136.914L146.01 138.558ZM154.422 137.937C154.675 137.669 154.939 137.424 155.215 137.201C155.491 136.979 155.783 136.791 156.089 136.638C156.404 136.477 156.737 136.354 157.09 136.27C157.45 136.178 157.833 136.132 158.24 136.132C158.884 136.132 159.447 136.239 159.93 136.454C160.421 136.669 160.831 136.971 161.161 137.362C161.49 137.746 161.74 138.21 161.908 138.754C162.077 139.298 162.161 139.9 162.161 140.559V148H159.907V140.559C159.907 139.724 159.716 139.076 159.332 138.616C158.949 138.148 158.362 137.914 157.573 137.914C156.998 137.914 156.457 138.052 155.951 138.328C155.453 138.597 154.989 138.965 154.56 139.432V148H152.317V136.316H153.663C153.977 136.316 154.173 136.465 154.249 136.764L154.422 137.937ZM171.466 142.813C170.554 142.844 169.78 142.917 169.143 143.032C168.507 143.139 167.989 143.285 167.591 143.469C167.192 143.653 166.905 143.871 166.728 144.124C166.552 144.37 166.464 144.646 166.464 144.952C166.464 145.244 166.51 145.497 166.602 145.711C166.701 145.918 166.832 146.091 166.993 146.229C167.161 146.359 167.357 146.455 167.579 146.516C167.802 146.578 168.043 146.608 168.304 146.608C168.649 146.608 168.963 146.574 169.247 146.505C169.538 146.436 169.81 146.34 170.063 146.217C170.316 146.087 170.558 145.93 170.788 145.746C171.018 145.562 171.244 145.351 171.466 145.113V142.813ZM164.888 137.949C165.54 137.328 166.245 136.864 167.004 136.557C167.771 136.251 168.61 136.097 169.523 136.097C170.19 136.097 170.78 136.209 171.294 136.431C171.807 136.646 172.241 136.948 172.593 137.339C172.946 137.73 173.21 138.198 173.387 138.742C173.571 139.287 173.663 139.889 173.663 140.548V148H172.662C172.44 148 172.271 147.965 172.156 147.896C172.041 147.82 171.949 147.682 171.88 147.482L171.639 146.459C171.34 146.735 171.045 146.98 170.753 147.195C170.462 147.402 170.155 147.582 169.833 147.735C169.519 147.881 169.182 147.992 168.821 148.069C168.461 148.146 168.062 148.184 167.625 148.184C167.165 148.184 166.732 148.123 166.326 148C165.927 147.87 165.578 147.674 165.279 147.413C164.98 147.153 164.743 146.827 164.566 146.436C164.398 146.045 164.313 145.589 164.313 145.067C164.313 144.607 164.436 144.167 164.681 143.745C164.934 143.316 165.341 142.932 165.9 142.595C166.468 142.258 167.204 141.982 168.108 141.767C169.021 141.552 170.14 141.43 171.466 141.399V140.548C171.466 139.666 171.278 139.007 170.903 138.57C170.527 138.133 169.975 137.914 169.247 137.914C168.756 137.914 168.342 137.976 168.005 138.098C167.675 138.221 167.388 138.359 167.142 138.512C166.905 138.658 166.694 138.792 166.51 138.915C166.333 139.038 166.149 139.099 165.958 139.099C165.804 139.099 165.67 139.057 165.555 138.972C165.448 138.888 165.36 138.788 165.291 138.673L164.888 137.949ZM187.582 148H185.328V138.133H179.463V144.975C179.463 145.435 179.574 145.78 179.797 146.01C180.027 146.233 180.318 146.344 180.671 146.344C180.878 146.344 181.054 146.317 181.2 146.263C181.353 146.21 181.483 146.152 181.591 146.091C181.698 146.022 181.79 145.961 181.867 145.907C181.943 145.853 182.012 145.826 182.074 145.826C182.15 145.826 182.208 145.846 182.246 145.884C182.292 145.915 182.338 145.968 182.384 146.045L183.051 147.126C182.683 147.463 182.246 147.724 181.74 147.908C181.234 148.092 180.709 148.184 180.165 148.184C179.222 148.184 178.493 147.919 177.98 147.39C177.474 146.861 177.221 146.106 177.221 145.125V138.133H175.864C175.733 138.133 175.622 138.095 175.53 138.018C175.446 137.934 175.404 137.811 175.404 137.65V136.741L177.313 136.477L177.807 132.992C177.838 132.862 177.895 132.762 177.98 132.693C178.072 132.617 178.187 132.578 178.325 132.578H179.463V136.5H187.582V148ZM188.088 132.636C188.088 132.843 188.046 133.042 187.962 133.234C187.877 133.418 187.762 133.583 187.617 133.728C187.479 133.866 187.314 133.978 187.122 134.062C186.93 134.139 186.731 134.177 186.524 134.177C186.317 134.177 186.122 134.139 185.938 134.062C185.754 133.978 185.589 133.866 185.443 133.728C185.305 133.583 185.194 133.418 185.11 133.234C185.033 133.042 184.995 132.843 184.995 132.636C184.995 132.421 185.033 132.218 185.11 132.026C185.194 131.835 185.305 131.67 185.443 131.532C185.589 131.386 185.754 131.275 185.938 131.198C186.122 131.114 186.317 131.072 186.524 131.072C186.731 131.072 186.93 131.114 187.122 131.198C187.314 131.275 187.479 131.386 187.617 131.532C187.762 131.67 187.877 131.835 187.962 132.026C188.046 132.218 188.088 132.421 188.088 132.636ZM195.817 136.132C196.676 136.132 197.45 136.274 198.14 136.557C198.838 136.833 199.428 137.236 199.911 137.765C200.402 138.286 200.778 138.919 201.038 139.662C201.299 140.398 201.429 141.226 201.429 142.146C201.429 143.066 201.299 143.898 201.038 144.642C200.778 145.386 200.402 146.018 199.911 146.539C199.428 147.061 198.838 147.463 198.14 147.747C197.45 148.023 196.676 148.161 195.817 148.161C194.951 148.161 194.169 148.023 193.471 147.747C192.781 147.463 192.191 147.061 191.7 146.539C191.21 146.018 190.83 145.386 190.562 144.642C190.301 143.898 190.171 143.066 190.171 142.146C190.171 141.226 190.301 140.398 190.562 139.662C190.83 138.919 191.21 138.286 191.7 137.765C192.191 137.236 192.781 136.833 193.471 136.557C194.169 136.274 194.951 136.132 195.817 136.132ZM195.817 146.413C196.921 146.413 197.745 146.041 198.29 145.297C198.834 144.554 199.106 143.507 199.106 142.158C199.106 140.809 198.834 139.762 198.29 139.018C197.745 138.267 196.921 137.891 195.817 137.891C194.698 137.891 193.862 138.267 193.31 139.018C192.766 139.762 192.494 140.809 192.494 142.158C192.494 143.507 192.766 144.554 193.31 145.297C193.862 146.041 194.698 146.413 195.817 146.413ZM206.037 137.937C206.29 137.669 206.554 137.424 206.83 137.201C207.106 136.979 207.398 136.791 207.704 136.638C208.019 136.477 208.352 136.354 208.705 136.27C209.065 136.178 209.449 136.132 209.855 136.132C210.499 136.132 211.062 136.239 211.545 136.454C212.036 136.669 212.446 136.971 212.776 137.362C213.106 137.746 213.355 138.21 213.523 138.754C213.692 139.298 213.776 139.9 213.776 140.559V148H211.522V140.559C211.522 139.724 211.331 139.076 210.947 138.616C210.564 138.148 209.978 137.914 209.188 137.914C208.613 137.914 208.072 138.052 207.566 138.328C207.068 138.597 206.604 138.965 206.175 139.432V148H203.932V136.316H205.278C205.592 136.316 205.788 136.465 205.864 136.764L206.037 137.937ZM223.082 142.813C222.169 142.844 221.395 142.917 220.759 143.032C220.122 143.139 219.605 143.285 219.206 143.469C218.807 143.653 218.52 143.871 218.344 144.124C218.167 144.37 218.079 144.646 218.079 144.952C218.079 145.244 218.125 145.497 218.217 145.711C218.317 145.918 218.447 146.091 218.608 146.229C218.777 146.359 218.972 146.455 219.195 146.516C219.417 146.578 219.658 146.608 219.919 146.608C220.264 146.608 220.578 146.574 220.862 146.505C221.153 146.436 221.426 146.34 221.679 146.217C221.932 146.087 222.173 145.93 222.403 145.746C222.633 145.562 222.859 145.351 223.082 145.113V142.813ZM216.504 137.949C217.155 137.328 217.861 136.864 218.62 136.557C219.386 136.251 220.226 136.097 221.138 136.097C221.805 136.097 222.395 136.209 222.909 136.431C223.423 136.646 223.856 136.948 224.209 137.339C224.561 137.73 224.826 138.198 225.002 138.742C225.186 139.287 225.278 139.889 225.278 140.548V148H224.278C224.055 148 223.887 147.965 223.772 147.896C223.657 147.82 223.565 147.682 223.496 147.482L223.254 146.459C222.955 146.735 222.66 146.98 222.369 147.195C222.077 147.402 221.771 147.582 221.449 147.735C221.134 147.881 220.797 147.992 220.437 148.069C220.076 148.146 219.678 148.184 219.241 148.184C218.781 148.184 218.347 148.123 217.941 148C217.542 147.87 217.194 147.674 216.895 147.413C216.596 147.153 216.358 146.827 216.182 146.436C216.013 146.045 215.929 145.589 215.929 145.067C215.929 144.607 216.051 144.167 216.297 143.745C216.55 143.316 216.956 142.932 217.516 142.595C218.083 142.258 218.819 141.982 219.724 141.767C220.636 141.552 221.755 141.43 223.082 141.399V140.548C223.082 139.666 222.894 139.007 222.518 138.57C222.142 138.133 221.59 137.914 220.862 137.914C220.371 137.914 219.957 137.976 219.62 138.098C219.29 138.221 219.003 138.359 218.758 138.512C218.52 138.658 218.309 138.792 218.125 138.915C217.949 139.038 217.765 139.099 217.573 139.099C217.42 139.099 217.286 139.057 217.171 138.972C217.063 138.888 216.975 138.788 216.906 138.673L216.504 137.949ZM230.58 131.026V148H228.326V131.026H230.58ZM49.046 165.328C48.9847 165.428 48.9195 165.501 48.8505 165.547C48.7815 165.585 48.6934 165.604 48.586 165.604C48.4634 165.604 48.3254 165.562 48.172 165.478C48.0264 165.394 47.8462 165.302 47.6315 165.202C47.4245 165.102 47.1792 165.01 46.8955 164.926C46.6119 164.842 46.2745 164.799 45.8835 164.799C45.5615 164.799 45.2664 164.842 44.998 164.926C44.7374 165.003 44.515 165.114 44.331 165.259C44.147 165.397 44.0052 165.566 43.9055 165.765C43.8059 165.957 43.756 166.164 43.756 166.386C43.756 166.678 43.8404 166.919 44.009 167.111C44.1854 167.303 44.4115 167.467 44.6875 167.605C44.9712 167.743 45.2894 167.87 45.642 167.985C46.0024 168.092 46.3665 168.207 46.7345 168.33C47.1102 168.453 47.4744 168.594 47.827 168.755C48.1874 168.909 48.5055 169.104 48.7815 169.342C49.0652 169.572 49.2914 169.852 49.46 170.181C49.6364 170.511 49.7245 170.914 49.7245 171.389C49.7245 171.933 49.6249 172.439 49.4255 172.907C49.2339 173.367 48.9464 173.766 48.563 174.103C48.1874 174.44 47.7197 174.705 47.16 174.896C46.6004 175.088 45.9602 175.184 45.2395 175.184C44.4345 175.184 43.6909 175.05 43.0085 174.781C42.3262 174.513 41.755 174.172 41.295 173.758L41.824 172.895C41.8854 172.788 41.962 172.708 42.054 172.654C42.146 172.593 42.2687 172.562 42.422 172.562C42.5677 172.562 42.7172 172.616 42.8705 172.723C43.0239 172.83 43.2079 172.949 43.4225 173.079C43.6372 173.202 43.8979 173.317 44.2045 173.424C44.5112 173.524 44.8945 173.574 45.3545 173.574C45.7379 173.574 46.0714 173.528 46.355 173.436C46.6387 173.336 46.8725 173.206 47.0565 173.045C47.2482 172.876 47.39 172.685 47.482 172.47C47.574 172.255 47.62 172.029 47.62 171.791C47.62 171.485 47.5319 171.232 47.3555 171.032C47.1869 170.825 46.9607 170.649 46.677 170.503C46.401 170.358 46.0829 170.231 45.7225 170.124C45.3622 170.017 44.9942 169.902 44.6185 169.779C44.2429 169.656 43.8749 169.514 43.5145 169.353C43.1542 169.192 42.8322 168.989 42.5485 168.744C42.2725 168.499 42.0464 168.2 41.87 167.847C41.7014 167.494 41.617 167.065 41.617 166.559C41.617 166.107 41.709 165.673 41.893 165.259C42.0847 164.845 42.3569 164.481 42.7095 164.167C43.0699 163.853 43.5107 163.603 44.032 163.419C44.561 163.228 45.1629 163.132 45.8375 163.132C46.6119 163.132 47.3095 163.255 47.9305 163.5C48.5592 163.745 49.0959 164.083 49.5405 164.512L49.046 165.328ZM55.8096 175.184C54.8666 175.184 54.1383 174.919 53.6246 174.39C53.1186 173.861 52.8656 173.106 52.8656 172.125V165.133H51.5086C51.3783 165.133 51.2671 165.095 51.1751 165.018C51.0908 164.934 51.0486 164.811 51.0486 164.65V163.741L52.9461 163.477L53.4521 159.992C53.4828 159.862 53.5403 159.762 53.6246 159.693C53.7166 159.617 53.8316 159.578 53.9696 159.578H55.1081V163.5H58.4201V165.133H55.1081V171.975C55.1081 172.435 55.2193 172.78 55.4416 173.01C55.6716 173.233 55.963 173.344 56.3156 173.344C56.5226 173.344 56.699 173.317 56.8446 173.263C56.998 173.21 57.1283 173.152 57.2356 173.091C57.343 173.022 57.435 172.961 57.5116 172.907C57.5883 172.853 57.6573 172.826 57.7186 172.826C57.7953 172.826 57.8528 172.846 57.8911 172.884C57.9371 172.915 57.9831 172.968 58.0291 173.045L58.6961 174.126C58.3281 174.463 57.8911 174.724 57.3851 174.908C56.8791 175.092 56.354 175.184 55.8096 175.184ZM70.2032 163.316V175H68.8577C68.551 175 68.3517 174.85 68.2597 174.551L68.0987 173.378C67.8457 173.647 67.5812 173.892 67.3052 174.114C67.0292 174.337 66.734 174.528 66.4197 174.689C66.1053 174.843 65.7718 174.962 65.4192 175.046C65.0665 175.138 64.687 175.184 64.2807 175.184C63.6367 175.184 63.0693 175.077 62.5787 174.862C62.0957 174.647 61.6893 174.348 61.3597 173.965C61.03 173.574 60.7808 173.106 60.6122 172.562C60.4435 172.018 60.3592 171.416 60.3592 170.756V163.316H62.6132V170.756C62.6132 171.592 62.8048 172.244 63.1882 172.711C63.5715 173.171 64.158 173.401 64.9477 173.401C65.5227 173.401 66.0593 173.267 66.5577 172.999C67.056 172.723 67.5237 172.347 67.9607 171.872V163.316H70.2032ZM80.8658 166.145C80.4978 165.662 80.0991 165.325 79.6698 165.133C79.2481 164.941 78.7728 164.845 78.2438 164.845C77.2165 164.845 76.4191 165.217 75.8518 165.961C75.2921 166.697 75.0123 167.774 75.0123 169.193C75.0123 169.936 75.0736 170.572 75.1963 171.101C75.3266 171.623 75.5106 172.052 75.7483 172.389C75.9936 172.719 76.2926 172.964 76.6453 173.125C76.998 173.279 77.3966 173.355 77.8413 173.355C78.493 173.355 79.0565 173.21 79.5318 172.918C80.0071 172.627 80.4518 172.217 80.8658 171.688V166.145ZM83.1198 158.026V175H81.7628C81.4485 175 81.253 174.85 81.1763 174.551L80.9808 173.206C80.4825 173.796 79.9151 174.272 79.2788 174.632C78.6501 174.985 77.9218 175.161 77.0938 175.161C76.4268 175.161 75.8211 175.031 75.2768 174.77C74.7401 174.509 74.2801 174.13 73.8968 173.631C73.5135 173.125 73.2183 172.501 73.0113 171.757C72.8043 171.013 72.7008 170.158 72.7008 169.193C72.7008 168.326 72.8158 167.521 73.0458 166.777C73.2758 166.034 73.6093 165.39 74.0463 164.845C74.4833 164.301 75.0123 163.876 75.6333 163.569C76.2543 163.255 76.9558 163.097 77.7378 163.097C78.4431 163.097 79.0411 163.212 79.5318 163.443C80.0301 163.672 80.4748 163.998 80.8658 164.42V158.026H83.1198ZM93.9879 167.858C93.9879 167.414 93.9227 167.004 93.7924 166.628C93.6697 166.252 93.4857 165.926 93.2404 165.65C92.995 165.374 92.696 165.16 92.3434 165.006C91.9907 164.853 91.5844 164.776 91.1244 164.776C90.1814 164.776 89.4377 165.049 88.8934 165.593C88.3567 166.137 88.0155 166.892 87.8699 167.858H93.9879ZM95.8394 173.332C95.5634 173.654 95.2452 173.934 94.8849 174.172C94.5245 174.402 94.1412 174.59 93.7349 174.735C93.3285 174.881 92.9069 174.988 92.4699 175.058C92.0405 175.127 91.615 175.161 91.1934 175.161C90.3884 175.161 89.6409 175.027 88.9509 174.758C88.2685 174.482 87.6744 174.084 87.1684 173.562C86.67 173.033 86.279 172.382 85.9954 171.607C85.7194 170.825 85.5814 169.928 85.5814 168.916C85.5814 168.104 85.7079 167.349 85.9609 166.651C86.2139 165.946 86.5742 165.332 87.0419 164.811C87.5172 164.29 88.096 163.879 88.7784 163.58C89.4607 163.281 90.2274 163.132 91.0784 163.132C91.7914 163.132 92.4469 163.251 93.0449 163.488C93.6505 163.718 94.1719 164.056 94.6089 164.5C95.0459 164.945 95.387 165.493 95.6324 166.145C95.8854 166.797 96.0119 167.54 96.0119 168.376C96.0119 168.721 95.9735 168.955 95.8969 169.077C95.8202 169.192 95.6784 169.25 95.4714 169.25H87.8124C87.8354 169.948 87.935 170.557 88.1114 171.078C88.2877 171.592 88.5292 172.021 88.8359 172.366C89.1502 172.711 89.522 172.968 89.9514 173.137C90.3807 173.306 90.8599 173.39 91.3889 173.39C91.8872 173.39 92.3165 173.332 92.6769 173.217C93.0449 173.102 93.3592 172.98 93.6199 172.849C93.8882 172.711 94.1105 172.585 94.2869 172.47C94.4709 172.355 94.6319 172.297 94.7699 172.297C94.9539 172.297 95.0957 172.366 95.1954 172.504L95.8394 173.332ZM100.527 164.937C100.78 164.669 101.044 164.424 101.32 164.201C101.596 163.979 101.888 163.791 102.194 163.638C102.509 163.477 102.842 163.354 103.195 163.27C103.555 163.178 103.938 163.132 104.345 163.132C104.989 163.132 105.552 163.239 106.035 163.454C106.526 163.669 106.936 163.971 107.266 164.362C107.595 164.746 107.845 165.21 108.013 165.754C108.182 166.298 108.266 166.9 108.266 167.559V175H106.012V167.559C106.012 166.724 105.821 166.076 105.437 165.616C105.054 165.148 104.467 164.914 103.678 164.914C103.103 164.914 102.562 165.052 102.056 165.328C101.558 165.597 101.094 165.965 100.665 166.432V175H98.4222V163.316H99.7677C100.082 163.316 100.278 163.465 100.354 163.764L100.527 164.937ZM114.792 175.184C113.849 175.184 113.121 174.919 112.607 174.39C112.101 173.861 111.848 173.106 111.848 172.125V165.133H110.491C110.361 165.133 110.25 165.095 110.158 165.018C110.073 164.934 110.031 164.811 110.031 164.65V163.741L111.929 163.477L112.435 159.992C112.465 159.862 112.523 159.762 112.607 159.693C112.699 159.617 112.814 159.578 112.952 159.578H114.091V163.5H117.403V165.133H114.091V171.975C114.091 172.435 114.202 172.78 114.424 173.01C114.654 173.233 114.945 173.344 115.298 173.344C115.505 173.344 115.681 173.317 115.827 173.263C115.98 173.21 116.111 173.152 116.218 173.091C116.325 173.022 116.417 172.961 116.494 172.907C116.571 172.853 116.64 172.826 116.701 172.826C116.778 172.826 116.835 172.846 116.874 172.884C116.92 172.915 116.966 172.968 117.012 173.045L117.679 174.126C117.311 174.463 116.874 174.724 116.368 174.908C115.862 175.092 115.336 175.184 114.792 175.184ZM126.357 165.328C126.295 165.428 126.23 165.501 126.161 165.547C126.092 165.585 126.004 165.604 125.897 165.604C125.774 165.604 125.636 165.562 125.483 165.478C125.337 165.394 125.157 165.302 124.942 165.202C124.735 165.102 124.49 165.01 124.206 164.926C123.922 164.842 123.585 164.799 123.194 164.799C122.872 164.799 122.577 164.842 122.309 164.926C122.048 165.003 121.826 165.114 121.642 165.259C121.458 165.397 121.316 165.566 121.216 165.765C121.116 165.957 121.067 166.164 121.067 166.386C121.067 166.678 121.151 166.919 121.32 167.111C121.496 167.303 121.722 167.467 121.998 167.605C122.282 167.743 122.6 167.87 122.953 167.985C123.313 168.092 123.677 168.207 124.045 168.33C124.421 168.453 124.785 168.594 125.138 168.755C125.498 168.909 125.816 169.104 126.092 169.342C126.376 169.572 126.602 169.852 126.771 170.181C126.947 170.511 127.035 170.914 127.035 171.389C127.035 171.933 126.935 172.439 126.736 172.907C126.544 173.367 126.257 173.766 125.874 174.103C125.498 174.44 125.03 174.705 124.471 174.896C123.911 175.088 123.271 175.184 122.55 175.184C121.745 175.184 121.001 175.05 120.319 174.781C119.637 174.513 119.066 174.172 118.606 173.758L119.135 172.895C119.196 172.788 119.273 172.708 119.365 172.654C119.457 172.593 119.579 172.562 119.733 172.562C119.878 172.562 120.028 172.616 120.181 172.723C120.334 172.83 120.518 172.949 120.733 173.079C120.948 173.202 121.208 173.317 121.515 173.424C121.822 173.524 122.205 173.574 122.665 173.574C123.048 173.574 123.382 173.528 123.666 173.436C123.949 173.336 124.183 173.206 124.367 173.045C124.559 172.876 124.701 172.685 124.793 172.47C124.885 172.255 124.931 172.029 124.931 171.791C124.931 171.485 124.842 171.232 124.666 171.032C124.497 170.825 124.271 170.649 123.988 170.503C123.712 170.358 123.393 170.231 123.033 170.124C122.673 170.017 122.305 169.902 121.929 169.779C121.553 169.656 121.185 169.514 120.825 169.353C120.465 169.192 120.143 168.989 119.859 168.744C119.583 168.499 119.357 168.2 119.181 167.847C119.012 167.494 118.928 167.065 118.928 166.559C118.928 166.107 119.02 165.673 119.204 165.259C119.395 164.845 119.667 164.481 120.02 164.167C120.38 163.853 120.821 163.603 121.343 163.419C121.872 163.228 122.473 163.132 123.148 163.132C123.922 163.132 124.62 163.255 125.241 163.5C125.87 163.745 126.406 164.083 126.851 164.512L126.357 165.328ZM142.169 165.328C142.108 165.428 142.043 165.501 141.974 165.547C141.905 165.585 141.816 165.604 141.709 165.604C141.586 165.604 141.448 165.562 141.295 165.478C141.149 165.394 140.969 165.302 140.755 165.202C140.548 165.102 140.302 165.01 140.019 164.926C139.735 164.842 139.398 164.799 139.007 164.799C138.685 164.799 138.389 164.842 138.121 164.926C137.86 165.003 137.638 165.114 137.454 165.259C137.27 165.397 137.128 165.566 137.029 165.765C136.929 165.957 136.879 166.164 136.879 166.386C136.879 166.678 136.963 166.919 137.132 167.111C137.308 167.303 137.535 167.467 137.811 167.605C138.094 167.743 138.412 167.87 138.765 167.985C139.125 168.092 139.49 168.207 139.858 168.33C140.233 168.453 140.597 168.594 140.95 168.755C141.31 168.909 141.629 169.104 141.905 169.342C142.188 169.572 142.414 169.852 142.583 170.181C142.759 170.511 142.848 170.914 142.848 171.389C142.848 171.933 142.748 172.439 142.549 172.907C142.357 173.367 142.069 173.766 141.686 174.103C141.31 174.44 140.843 174.705 140.283 174.896C139.723 175.088 139.083 175.184 138.363 175.184C137.558 175.184 136.814 175.05 136.132 174.781C135.449 174.513 134.878 174.172 134.418 173.758L134.947 172.895C135.008 172.788 135.085 172.708 135.177 172.654C135.269 172.593 135.392 172.562 135.545 172.562C135.691 172.562 135.84 172.616 135.994 172.723C136.147 172.83 136.331 172.949 136.546 173.079C136.76 173.202 137.021 173.317 137.328 173.424C137.634 173.524 138.018 173.574 138.478 173.574C138.861 173.574 139.194 173.528 139.478 173.436C139.762 173.336 139.996 173.206 140.18 173.045C140.371 172.876 140.513 172.685 140.605 172.47C140.697 172.255 140.743 172.029 140.743 171.791C140.743 171.485 140.655 171.232 140.479 171.032C140.31 170.825 140.084 170.649 139.8 170.503C139.524 170.358 139.206 170.231 138.846 170.124C138.485 170.017 138.117 169.902 137.742 169.779C137.366 169.656 136.998 169.514 136.638 169.353C136.277 169.192 135.955 168.989 135.672 168.744C135.396 168.499 135.169 168.2 134.993 167.847C134.824 167.494 134.74 167.065 134.74 166.559C134.74 166.107 134.832 165.673 135.016 165.259C135.208 164.845 135.48 164.481 135.833 164.167C136.193 163.853 136.634 163.603 137.155 163.419C137.684 163.228 138.286 163.132 138.961 163.132C139.735 163.132 140.433 163.255 141.054 163.5C141.682 163.745 142.219 164.083 142.664 164.512L142.169 165.328ZM154.993 163.316V175H153.648C153.341 175 153.142 174.85 153.05 174.551L152.889 173.378C152.636 173.647 152.371 173.892 152.095 174.114C151.819 174.337 151.524 174.528 151.21 174.689C150.895 174.843 150.562 174.962 150.209 175.046C149.857 175.138 149.477 175.184 149.071 175.184C148.427 175.184 147.859 175.077 147.369 174.862C146.886 174.647 146.479 174.348 146.15 173.965C145.82 173.574 145.571 173.106 145.402 172.562C145.234 172.018 145.149 171.416 145.149 170.756V163.316H147.403V170.756C147.403 171.592 147.595 172.244 147.978 172.711C148.362 173.171 148.948 173.401 149.738 173.401C150.313 173.401 150.849 173.267 151.348 172.999C151.846 172.723 152.314 172.347 152.751 171.872V163.316H154.993ZM166.311 165.501C166.242 165.585 166.173 165.654 166.104 165.708C166.043 165.754 165.951 165.777 165.828 165.777C165.706 165.777 165.575 165.731 165.437 165.639C165.307 165.539 165.138 165.436 164.931 165.328C164.732 165.213 164.487 165.11 164.195 165.018C163.912 164.918 163.559 164.868 163.137 164.868C162.585 164.868 162.099 164.968 161.677 165.167C161.255 165.367 160.903 165.65 160.619 166.018C160.343 166.386 160.132 166.835 159.986 167.364C159.841 167.893 159.768 168.487 159.768 169.146C159.768 169.829 159.845 170.438 159.998 170.975C160.151 171.504 160.37 171.952 160.653 172.32C160.937 172.681 161.282 172.957 161.688 173.148C162.095 173.332 162.547 173.424 163.045 173.424C163.528 173.424 163.927 173.367 164.241 173.252C164.556 173.129 164.816 172.999 165.023 172.861C165.23 172.723 165.403 172.596 165.541 172.481C165.679 172.359 165.821 172.297 165.966 172.297C166.15 172.297 166.292 172.366 166.392 172.504L167.036 173.332C166.768 173.662 166.465 173.942 166.127 174.172C165.798 174.402 165.445 174.59 165.069 174.735C164.694 174.881 164.299 174.988 163.885 175.058C163.479 175.127 163.065 175.161 162.643 175.161C161.915 175.161 161.232 175.027 160.596 174.758C159.967 174.49 159.419 174.099 158.951 173.585C158.491 173.072 158.127 172.443 157.859 171.699C157.591 170.948 157.456 170.097 157.456 169.146C157.456 168.28 157.575 167.479 157.813 166.743C158.058 166.007 158.415 165.374 158.882 164.845C159.358 164.309 159.94 163.891 160.63 163.592C161.32 163.285 162.11 163.132 162.999 163.132C163.835 163.132 164.571 163.266 165.207 163.534C165.844 163.803 166.411 164.182 166.909 164.673L166.311 165.501ZM177.115 165.501C177.046 165.585 176.977 165.654 176.908 165.708C176.847 165.754 176.755 165.777 176.632 165.777C176.509 165.777 176.379 165.731 176.241 165.639C176.111 165.539 175.942 165.436 175.735 165.328C175.536 165.213 175.29 165.11 174.999 165.018C174.715 164.918 174.363 164.868 173.941 164.868C173.389 164.868 172.902 164.968 172.481 165.167C172.059 165.367 171.706 165.65 171.423 166.018C171.147 166.386 170.936 166.835 170.79 167.364C170.644 167.893 170.572 168.487 170.572 169.146C170.572 169.829 170.648 170.438 170.802 170.975C170.955 171.504 171.173 171.952 171.457 172.32C171.741 172.681 172.086 172.957 172.492 173.148C172.898 173.332 173.351 173.424 173.849 173.424C174.332 173.424 174.731 173.367 175.045 173.252C175.359 173.129 175.62 172.999 175.827 172.861C176.034 172.723 176.207 172.596 176.345 172.481C176.483 172.359 176.624 172.297 176.77 172.297C176.954 172.297 177.096 172.366 177.196 172.504L177.84 173.332C177.571 173.662 177.268 173.942 176.931 174.172C176.601 174.402 176.249 174.59 175.873 174.735C175.497 174.881 175.103 174.988 174.689 175.058C174.282 175.127 173.868 175.161 173.447 175.161C172.718 175.161 172.036 175.027 171.4 174.758C170.771 174.49 170.223 174.099 169.755 173.585C169.295 173.072 168.931 172.443 168.663 171.699C168.394 170.948 168.26 170.097 168.26 169.146C168.26 168.28 168.379 167.479 168.617 166.743C168.862 166.007 169.218 165.374 169.686 164.845C170.161 164.309 170.744 163.891 171.434 163.592C172.124 163.285 172.914 163.132 173.803 163.132C174.639 163.132 175.375 163.266 176.011 163.534C176.647 163.803 177.215 164.182 177.713 164.673L177.115 165.501ZM187.47 167.858C187.47 167.414 187.405 167.004 187.275 166.628C187.152 166.252 186.968 165.926 186.723 165.65C186.477 165.374 186.178 165.16 185.826 165.006C185.473 164.853 185.067 164.776 184.607 164.776C183.664 164.776 182.92 165.049 182.376 165.593C181.839 166.137 181.498 166.892 181.352 167.858H187.47ZM189.322 173.332C189.046 173.654 188.728 173.934 188.367 174.172C188.007 174.402 187.624 174.59 187.217 174.735C186.811 174.881 186.389 174.988 185.952 175.058C185.523 175.127 185.097 175.161 184.676 175.161C183.871 175.161 183.123 175.027 182.433 174.758C181.751 174.482 181.157 174.084 180.651 173.562C180.152 173.033 179.761 172.382 179.478 171.607C179.202 170.825 179.064 169.928 179.064 168.916C179.064 168.104 179.19 167.349 179.443 166.651C179.696 165.946 180.057 165.332 180.524 164.811C181 164.29 181.578 163.879 182.261 163.58C182.943 163.281 183.71 163.132 184.561 163.132C185.274 163.132 185.929 163.251 186.527 163.488C187.133 163.718 187.654 164.056 188.091 164.5C188.528 164.945 188.869 165.493 189.115 166.145C189.368 166.797 189.494 167.54 189.494 168.376C189.494 168.721 189.456 168.955 189.379 169.077C189.303 169.192 189.161 169.25 188.954 169.25H181.295C181.318 169.948 181.417 170.557 181.594 171.078C181.77 171.592 182.012 172.021 182.318 172.366C182.633 172.711 183.004 172.968 183.434 173.137C183.863 173.306 184.342 173.39 184.871 173.39C185.37 173.39 185.799 173.332 186.159 173.217C186.527 173.102 186.842 172.98 187.102 172.849C187.371 172.711 187.593 172.585 187.769 172.47C187.953 172.355 188.114 172.297 188.252 172.297C188.436 172.297 188.578 172.366 188.678 172.504L189.322 173.332ZM199.644 167.858C199.644 167.414 199.579 167.004 199.449 166.628C199.326 166.252 199.142 165.926 198.897 165.65C198.651 165.374 198.352 165.16 198 165.006C197.647 164.853 197.241 164.776 196.781 164.776C195.838 164.776 195.094 165.049 194.55 165.593C194.013 166.137 193.672 166.892 193.526 167.858H199.644ZM201.496 173.332C201.22 173.654 200.901 173.934 200.541 174.172C200.181 174.402 199.797 174.59 199.391 174.735C198.985 174.881 198.563 174.988 198.126 175.058C197.697 175.127 197.271 175.161 196.85 175.161C196.045 175.161 195.297 175.027 194.607 174.758C193.925 174.482 193.331 174.084 192.825 173.562C192.326 173.033 191.935 172.382 191.652 171.607C191.376 170.825 191.238 169.928 191.238 168.916C191.238 168.104 191.364 167.349 191.617 166.651C191.87 165.946 192.23 165.332 192.698 164.811C193.173 164.29 193.752 163.879 194.435 163.58C195.117 163.281 195.884 163.132 196.735 163.132C197.448 163.132 198.103 163.251 198.701 163.488C199.307 163.718 199.828 164.056 200.265 164.5C200.702 164.945 201.043 165.493 201.289 166.145C201.542 166.797 201.668 167.54 201.668 168.376C201.668 168.721 201.63 168.955 201.553 169.077C201.476 169.192 201.335 169.25 201.128 169.25H193.469C193.492 169.948 193.591 170.557 193.768 171.078C193.944 171.592 194.185 172.021 194.492 172.366C194.806 172.711 195.178 172.968 195.608 173.137C196.037 173.306 196.516 173.39 197.045 173.39C197.543 173.39 197.973 173.332 198.333 173.217C198.701 173.102 199.015 172.98 199.276 172.849C199.544 172.711 199.767 172.585 199.943 172.47C200.127 172.355 200.288 172.297 200.426 172.297C200.61 172.297 200.752 172.366 200.852 172.504L201.496 173.332ZM211.611 166.145C211.243 165.662 210.844 165.325 210.415 165.133C209.993 164.941 209.518 164.845 208.989 164.845C207.962 164.845 207.164 165.217 206.597 165.961C206.037 166.697 205.757 167.774 205.757 169.193C205.757 169.936 205.819 170.572 205.941 171.101C206.072 171.623 206.256 172.052 206.493 172.389C206.739 172.719 207.038 172.964 207.39 173.125C207.743 173.279 208.142 173.355 208.586 173.355C209.238 173.355 209.802 173.21 210.277 172.918C210.752 172.627 211.197 172.217 211.611 171.688V166.145ZM213.865 158.026V175H212.508C212.194 175 211.998 174.85 211.921 174.551L211.726 173.206C211.228 173.796 210.66 174.272 210.024 174.632C209.395 174.985 208.667 175.161 207.839 175.161C207.172 175.161 206.566 175.031 206.022 174.77C205.485 174.509 205.025 174.13 204.642 173.631C204.259 173.125 203.963 172.501 203.756 171.757C203.549 171.013 203.446 170.158 203.446 169.193C203.446 168.326 203.561 167.521 203.791 166.777C204.021 166.034 204.354 165.39 204.791 164.845C205.228 164.301 205.757 163.876 206.378 163.569C206.999 163.255 207.701 163.097 208.483 163.097C209.188 163.097 209.786 163.212 210.277 163.443C210.775 163.672 211.22 163.998 211.611 164.42V158.026H213.865Z" fill="white"/>
<path d="M80.7694 65.371C80.0235 65.371 79.4132 65.9135 79.4132 66.6594V73.6438C79.4132 74.3897 80.0235 75 80.7694 75H110.334C111.08 75 111.691 74.3897 111.691 73.6438V66.6594C111.691 65.9135 111.08 65.371 110.334 65.371H101.316V25.9059C101.316 25.16 100.773 24.6175 100.027 24.6175H93.9245C93.2464 24.6175 92.8395 24.6853 92.3649 24.8888L80.0913 30.6526C79.6167 30.856 79.4132 31.1272 79.4132 31.6019V39.3322C79.4132 39.8747 79.6845 40.2137 80.1592 40.2137C80.3626 40.2137 80.6338 40.1459 80.9729 40.0103L89.7881 36.213V65.371H80.7694ZM154.65 58.997V58.4545C154.65 46.6556 146.174 43.333 134.443 43.333H132.476L133.29 33.9752H151.734C152.48 33.9752 153.09 33.4328 153.09 32.6869V25.9059C153.09 25.16 152.48 24.6175 151.734 24.6175H125.356C124.678 24.6175 124.068 25.2278 124 25.9059L121.898 51.1989V51.2667C121.898 51.7413 122.305 52.216 122.847 52.216H133.358C140.885 52.216 142.987 53.9112 142.987 58.4545V58.997C142.987 63.6758 141.631 66.3882 135.189 66.3882C132.68 66.3882 127.255 66.0491 122.983 65.5745C122.915 65.5745 122.847 65.5745 122.847 65.5745C122.169 65.5745 121.627 66.0491 121.627 66.795V72.152C121.627 73.1013 122.305 73.4404 122.983 73.6438C126.916 74.8644 132.002 75.6103 136.341 75.6103C148.208 75.6103 154.65 69.7109 154.65 58.997Z" fill="white"/>
<path d="M185.525 53.0729V49.0043C185.525 48.507 185.118 48.281 184.621 48.281H176.936V40.5959C176.936 40.0987 176.71 39.6918 176.213 39.6918H172.144C171.647 39.6918 171.421 40.0987 171.421 40.5959V48.281H163.781C163.284 48.281 162.877 48.507 162.877 49.0043V53.0729C162.877 53.5702 163.284 53.7962 163.781 53.7962H171.421V61.4361C171.421 61.9333 171.647 62.3402 172.144 62.3402H176.213C176.71 62.3402 176.936 61.9333 176.936 61.4361V53.7962H184.621C185.118 53.7962 185.525 53.5702 185.525 53.0729Z" fill="white"/>
</svg>
