<svg width="256" height="212" viewBox="0 0 256 212" fill="none" xmlns="http://www.w3.org/2000/svg">
<g clip-path="url(#clip0_208_28)">
<path d="M40.7923 109.132C41.651 109.132 42.4253 109.274 43.1153 109.557C43.813 109.833 44.4033 110.236 44.8863 110.765C45.377 111.286 45.7526 111.919 46.0133 112.662C46.274 113.398 46.4043 114.226 46.4043 115.146C46.4043 116.066 46.274 116.898 46.0133 117.642C45.7526 118.386 45.377 119.018 44.8863 119.539C44.4033 120.061 43.813 120.463 43.1153 120.747C42.4253 121.023 41.651 121.161 40.7923 121.161C39.926 121.161 39.144 121.023 38.4463 120.747C37.7563 120.463 37.166 120.061 36.6753 119.539C36.1846 119.018 35.8051 118.386 35.5368 117.642C35.2761 116.898 35.1458 116.066 35.1458 115.146C35.1458 114.226 35.2761 113.398 35.5368 112.662C35.8051 111.919 36.1846 111.286 36.6753 110.765C37.166 110.236 37.7563 109.833 38.4463 109.557C39.144 109.274 39.926 109.132 40.7923 109.132ZM40.7923 119.413C41.8963 119.413 42.7205 119.041 43.2648 118.297C43.8091 117.554 44.0813 116.507 44.0813 115.158C44.0813 113.809 43.8091 112.762 43.2648 112.018C42.7205 111.267 41.8963 110.891 40.7923 110.891C39.673 110.891 38.8373 111.267 38.2853 112.018C37.741 112.762 37.4688 113.809 37.4688 115.158C37.4688 116.507 37.741 117.554 38.2853 118.297C38.8373 119.041 39.673 119.413 40.7923 119.413ZM58.7136 109.316L53.9756 121H51.9516L47.2136 109.316H49.0651C49.2415 109.316 49.3871 109.358 49.5021 109.443C49.6171 109.527 49.6938 109.634 49.7321 109.764L52.5266 116.94C52.6263 117.239 52.7106 117.538 52.7796 117.837C52.8563 118.129 52.9253 118.42 52.9866 118.711C53.048 118.42 53.117 118.129 53.1936 117.837C53.2703 117.546 53.3623 117.247 53.4696 116.94L56.2986 109.764C56.3446 109.634 56.4251 109.527 56.5401 109.443C56.6551 109.358 56.7931 109.316 56.9541 109.316H58.7136ZM67.9 113.858C67.9 113.414 67.8348 113.004 67.7045 112.628C67.5818 112.252 67.3978 111.926 67.1525 111.65C66.9071 111.374 66.6081 111.16 66.2555 111.006C65.9028 110.853 65.4965 110.776 65.0365 110.776C64.0935 110.776 63.3498 111.049 62.8055 111.593C62.2688 112.137 61.9276 112.892 61.782 113.858H67.9ZM69.7515 119.332C69.4755 119.654 69.1573 119.934 68.797 120.172C68.4366 120.402 68.0533 120.59 67.647 120.735C67.2406 120.881 66.819 120.988 66.382 121.058C65.9526 121.127 65.5271 121.161 65.1055 121.161C64.3005 121.161 63.553 121.027 62.863 120.758C62.1806 120.482 61.5865 120.084 61.0805 119.562C60.5821 119.033 60.1911 118.382 59.9075 117.607C59.6315 116.825 59.4935 115.928 59.4935 114.916C59.4935 114.104 59.62 113.349 59.873 112.651C60.126 111.946 60.4863 111.332 60.954 110.811C61.4293 110.29 62.0081 109.879 62.6905 109.58C63.3728 109.281 64.1395 109.132 64.9905 109.132C65.7035 109.132 66.359 109.251 66.957 109.488C67.5626 109.718 68.084 110.056 68.521 110.5C68.958 110.945 69.2991 111.493 69.5445 112.145C69.7975 112.797 69.924 113.54 69.924 114.376C69.924 114.721 69.8856 114.955 69.809 115.077C69.7323 115.192 69.5905 115.25 69.3835 115.25H61.7245C61.7475 115.948 61.8471 116.557 62.0235 117.078C62.1998 117.592 62.4413 118.021 62.748 118.366C63.0623 118.711 63.4341 118.968 63.8635 119.137C64.2928 119.306 64.772 119.39 65.301 119.39C65.7993 119.39 66.2286 119.332 66.589 119.217C66.957 119.102 67.2713 118.98 67.532 118.849C67.8003 118.711 68.0226 118.585 68.199 118.47C68.383 118.355 68.544 118.297 68.682 118.297C68.866 118.297 69.0078 118.366 69.1075 118.504L69.7515 119.332ZM74.4503 111.558C74.826 110.792 75.2783 110.19 75.8073 109.753C76.3363 109.316 76.9726 109.097 77.7163 109.097C77.9693 109.097 78.207 109.128 78.4293 109.189C78.6593 109.243 78.8586 109.327 79.0273 109.443L78.8778 111.133C78.8241 111.34 78.6976 111.443 78.4983 111.443C78.391 111.443 78.23 111.424 78.0153 111.386C77.8006 111.34 77.5706 111.317 77.3253 111.317C76.965 111.317 76.6468 111.371 76.3708 111.478C76.0948 111.578 75.8456 111.731 75.6233 111.938C75.4086 112.137 75.217 112.386 75.0483 112.685C74.8796 112.977 74.7225 113.31 74.5768 113.686V121H72.3343V109.316H73.6223C73.8676 109.316 74.0325 109.362 74.1168 109.454C74.2088 109.538 74.274 109.692 74.3123 109.914L74.4503 111.558ZM86.8565 115.813C85.9441 115.844 85.1698 115.917 84.5335 116.032C83.8971 116.139 83.3796 116.285 82.981 116.469C82.5823 116.653 82.2948 116.871 82.1185 117.124C81.9421 117.37 81.854 117.646 81.854 117.952C81.854 118.244 81.9 118.497 81.992 118.711C82.0916 118.918 82.222 119.091 82.383 119.229C82.5516 119.359 82.7471 119.455 82.9695 119.516C83.1918 119.578 83.4333 119.608 83.694 119.608C84.039 119.608 84.3533 119.574 84.637 119.505C84.9283 119.436 85.2005 119.34 85.4535 119.217C85.7065 119.087 85.948 118.93 86.178 118.746C86.408 118.562 86.6341 118.351 86.8565 118.113V115.813ZM80.2785 110.949C80.9301 110.328 81.6355 109.864 82.3945 109.557C83.1611 109.251 84.0006 109.097 84.913 109.097C85.58 109.097 86.1703 109.209 86.684 109.431C87.1976 109.646 87.6308 109.948 87.9835 110.339C88.3361 110.73 88.6006 111.198 88.777 111.742C88.961 112.287 89.053 112.889 89.053 113.548V121H88.0525C87.8301 121 87.6615 120.965 87.5465 120.896C87.4315 120.82 87.3395 120.682 87.2705 120.482L87.029 119.459C86.73 119.735 86.4348 119.98 86.1435 120.195C85.8521 120.402 85.5455 120.582 85.2235 120.735C84.9091 120.881 84.5718 120.992 84.2115 121.069C83.8511 121.146 83.4525 121.184 83.0155 121.184C82.5555 121.184 82.1223 121.123 81.716 121C81.3173 120.87 80.9685 120.674 80.6695 120.413C80.3705 120.153 80.1328 119.827 79.9565 119.436C79.7878 119.045 79.7035 118.589 79.7035 118.067C79.7035 117.607 79.8261 117.167 80.0715 116.745C80.3245 116.316 80.7308 115.932 81.2905 115.595C81.8578 115.258 82.5938 114.982 83.4985 114.767C84.4108 114.552 85.5301 114.43 86.8565 114.399V113.548C86.8565 112.666 86.6686 112.007 86.293 111.57C85.9173 111.133 85.3653 110.914 84.637 110.914C84.1463 110.914 83.7323 110.976 83.395 111.098C83.0653 111.221 82.7778 111.359 82.5325 111.512C82.2948 111.658 82.084 111.792 81.9 111.915C81.7236 112.038 81.5396 112.099 81.348 112.099C81.1946 112.099 81.0605 112.057 80.9455 111.972C80.8381 111.888 80.75 111.788 80.681 111.673L80.2785 110.949ZM94.355 104.026V121H92.101V104.026H94.355ZM99.8579 104.026V121H97.6039V104.026H99.8579ZM115.767 111.328C115.705 111.428 115.64 111.501 115.571 111.547C115.502 111.585 115.414 111.604 115.307 111.604C115.184 111.604 115.046 111.562 114.893 111.478C114.747 111.394 114.567 111.302 114.352 111.202C114.145 111.102 113.9 111.01 113.616 110.926C113.333 110.842 112.995 110.799 112.604 110.799C112.282 110.799 111.987 110.842 111.719 110.926C111.458 111.003 111.236 111.114 111.052 111.259C110.868 111.397 110.726 111.566 110.626 111.765C110.527 111.957 110.477 112.164 110.477 112.386C110.477 112.678 110.561 112.919 110.73 113.111C110.906 113.303 111.132 113.467 111.408 113.605C111.692 113.743 112.01 113.87 112.363 113.985C112.723 114.092 113.087 114.207 113.455 114.33C113.831 114.453 114.195 114.594 114.548 114.755C114.908 114.909 115.226 115.104 115.502 115.342C115.786 115.572 116.012 115.852 116.181 116.181C116.357 116.511 116.445 116.914 116.445 117.389C116.445 117.933 116.346 118.439 116.146 118.907C115.955 119.367 115.667 119.766 115.284 120.103C114.908 120.44 114.44 120.705 113.881 120.896C113.321 121.088 112.681 121.184 111.96 121.184C111.155 121.184 110.412 121.05 109.729 120.781C109.047 120.513 108.476 120.172 108.016 119.758L108.545 118.895C108.606 118.788 108.683 118.708 108.775 118.654C108.867 118.593 108.989 118.562 109.143 118.562C109.288 118.562 109.438 118.616 109.591 118.723C109.745 118.83 109.929 118.949 110.143 119.079C110.358 119.202 110.619 119.317 110.925 119.424C111.232 119.524 111.615 119.574 112.075 119.574C112.459 119.574 112.792 119.528 113.076 119.436C113.359 119.336 113.593 119.206 113.777 119.045C113.969 118.876 114.111 118.685 114.203 118.47C114.295 118.255 114.341 118.029 114.341 117.791C114.341 117.485 114.253 117.232 114.076 117.032C113.908 116.825 113.681 116.649 113.398 116.503C113.122 116.358 112.804 116.231 112.443 116.124C112.083 116.017 111.715 115.902 111.339 115.779C110.964 115.656 110.596 115.514 110.235 115.353C109.875 115.192 109.553 114.989 109.269 114.744C108.993 114.499 108.767 114.2 108.591 113.847C108.422 113.494 108.338 113.065 108.338 112.559C108.338 112.107 108.43 111.673 108.614 111.259C108.805 110.845 109.078 110.481 109.43 110.167C109.791 109.853 110.231 109.603 110.753 109.419C111.282 109.228 111.884 109.132 112.558 109.132C113.333 109.132 114.03 109.255 114.651 109.5C115.28 109.745 115.817 110.083 116.261 110.512L115.767 111.328ZM125.152 115.813C124.24 115.844 123.466 115.917 122.829 116.032C122.193 116.139 121.676 116.285 121.277 116.469C120.878 116.653 120.591 116.871 120.414 117.124C120.238 117.37 120.15 117.646 120.15 117.952C120.15 118.244 120.196 118.497 120.288 118.711C120.388 118.918 120.518 119.091 120.679 119.229C120.848 119.359 121.043 119.455 121.265 119.516C121.488 119.578 121.729 119.608 121.99 119.608C122.335 119.608 122.649 119.574 122.933 119.505C123.224 119.436 123.496 119.34 123.749 119.217C124.002 119.087 124.244 118.93 124.474 118.746C124.704 118.562 124.93 118.351 125.152 118.113V115.813ZM118.574 110.949C119.226 110.328 119.931 109.864 120.69 109.557C121.457 109.251 122.297 109.097 123.209 109.097C123.876 109.097 124.466 109.209 124.98 109.431C125.494 109.646 125.927 109.948 126.279 110.339C126.632 110.73 126.897 111.198 127.073 111.742C127.257 112.287 127.349 112.889 127.349 113.548V121H126.348C126.126 121 125.957 120.965 125.842 120.896C125.727 120.82 125.635 120.682 125.566 120.482L125.325 119.459C125.026 119.735 124.731 119.98 124.439 120.195C124.148 120.402 123.841 120.582 123.519 120.735C123.205 120.881 122.868 120.992 122.507 121.069C122.147 121.146 121.748 121.184 121.311 121.184C120.851 121.184 120.418 121.123 120.012 121C119.613 120.87 119.264 120.674 118.965 120.413C118.666 120.153 118.429 119.827 118.252 119.436C118.084 119.045 117.999 118.589 117.999 118.067C117.999 117.607 118.122 117.167 118.367 116.745C118.62 116.316 119.027 115.932 119.586 115.595C120.154 115.258 120.89 114.982 121.794 114.767C122.707 114.552 123.826 114.43 125.152 114.399V113.548C125.152 112.666 124.965 112.007 124.589 111.57C124.213 111.133 123.661 110.914 122.933 110.914C122.442 110.914 122.028 110.976 121.691 111.098C121.361 111.221 121.074 111.359 120.828 111.512C120.591 111.658 120.38 111.792 120.196 111.915C120.02 112.038 119.836 112.099 119.644 112.099C119.491 112.099 119.356 112.057 119.241 111.972C119.134 111.888 119.046 111.788 118.977 111.673L118.574 110.949ZM141.268 121H139.014V111.133H133.149V117.975C133.149 118.435 133.26 118.78 133.483 119.01C133.713 119.233 134.004 119.344 134.357 119.344C134.564 119.344 134.74 119.317 134.886 119.263C135.039 119.21 135.169 119.152 135.277 119.091C135.384 119.022 135.476 118.961 135.553 118.907C135.629 118.853 135.698 118.826 135.76 118.826C135.836 118.826 135.894 118.846 135.932 118.884C135.978 118.915 136.024 118.968 136.07 119.045L136.737 120.126C136.369 120.463 135.932 120.724 135.426 120.908C134.92 121.092 134.395 121.184 133.851 121.184C132.908 121.184 132.179 120.919 131.666 120.39C131.16 119.861 130.907 119.106 130.907 118.125V111.133H129.55C129.419 111.133 129.308 111.095 129.216 111.018C129.132 110.934 129.09 110.811 129.09 110.65V109.741L130.999 109.477L131.493 105.992C131.524 105.862 131.581 105.762 131.666 105.693C131.758 105.617 131.873 105.578 132.011 105.578H133.149V109.5H141.268V121ZM141.774 105.636C141.774 105.843 141.732 106.042 141.648 106.234C141.563 106.418 141.448 106.583 141.303 106.728C141.165 106.866 141 106.978 140.808 107.062C140.616 107.139 140.417 107.177 140.21 107.177C140.003 107.177 139.808 107.139 139.624 107.062C139.44 106.978 139.275 106.866 139.129 106.728C138.991 106.583 138.88 106.418 138.796 106.234C138.719 106.042 138.681 105.843 138.681 105.636C138.681 105.421 138.719 105.218 138.796 105.026C138.88 104.835 138.991 104.67 139.129 104.532C139.275 104.386 139.44 104.275 139.624 104.198C139.808 104.114 140.003 104.072 140.21 104.072C140.417 104.072 140.616 104.114 140.808 104.198C141 104.275 141.165 104.386 141.303 104.532C141.448 104.67 141.563 104.835 141.648 105.026C141.732 105.218 141.774 105.421 141.774 105.636ZM151.412 111.328C151.351 111.428 151.286 111.501 151.217 111.547C151.148 111.585 151.06 111.604 150.952 111.604C150.83 111.604 150.692 111.562 150.538 111.478C150.393 111.394 150.212 111.302 149.998 111.202C149.791 111.102 149.545 111.01 149.262 110.926C148.978 110.842 148.641 110.799 148.25 110.799C147.928 110.799 147.633 110.842 147.364 110.926C147.104 111.003 146.881 111.114 146.697 111.259C146.513 111.397 146.371 111.566 146.272 111.765C146.172 111.957 146.122 112.164 146.122 112.386C146.122 112.678 146.207 112.919 146.375 113.111C146.552 113.303 146.778 113.467 147.054 113.605C147.337 113.743 147.656 113.87 148.008 113.985C148.369 114.092 148.733 114.207 149.101 114.33C149.476 114.453 149.841 114.594 150.193 114.755C150.554 114.909 150.872 115.104 151.148 115.342C151.431 115.572 151.658 115.852 151.826 116.181C152.003 116.511 152.091 116.914 152.091 117.389C152.091 117.933 151.991 118.439 151.792 118.907C151.6 119.367 151.313 119.766 150.929 120.103C150.554 120.44 150.086 120.705 149.526 120.896C148.967 121.088 148.326 121.184 147.606 121.184C146.801 121.184 146.057 121.05 145.375 120.781C144.692 120.513 144.121 120.172 143.661 119.758L144.19 118.895C144.252 118.788 144.328 118.708 144.42 118.654C144.512 118.593 144.635 118.562 144.788 118.562C144.934 118.562 145.083 118.616 145.237 118.723C145.39 118.83 145.574 118.949 145.789 119.079C146.003 119.202 146.264 119.317 146.571 119.424C146.877 119.524 147.261 119.574 147.721 119.574C148.104 119.574 148.438 119.528 148.721 119.436C149.005 119.336 149.239 119.206 149.423 119.045C149.614 118.876 149.756 118.685 149.848 118.47C149.94 118.255 149.986 118.029 149.986 117.791C149.986 117.485 149.898 117.232 149.722 117.032C149.553 116.825 149.327 116.649 149.043 116.503C148.767 116.358 148.449 116.231 148.089 116.124C147.728 116.017 147.36 115.902 146.985 115.779C146.609 115.656 146.241 115.514 145.881 115.353C145.52 115.192 145.198 114.989 144.915 114.744C144.639 114.499 144.413 114.2 144.236 113.847C144.068 113.494 143.983 113.065 143.983 112.559C143.983 112.107 144.075 111.673 144.259 111.259C144.451 110.845 144.723 110.481 145.076 110.167C145.436 109.853 145.877 109.603 146.398 109.419C146.927 109.228 147.529 109.132 148.204 109.132C148.978 109.132 149.676 109.255 150.297 109.5C150.925 109.745 151.462 110.083 151.907 110.512L151.412 111.328ZM155.289 121V111.156L154.07 111.006C153.894 110.968 153.748 110.907 153.633 110.822C153.526 110.73 153.472 110.6 153.472 110.431V109.5H155.289V108.442C155.289 107.775 155.385 107.181 155.577 106.659C155.769 106.138 156.041 105.697 156.393 105.337C156.754 104.969 157.183 104.693 157.681 104.509C158.187 104.317 158.755 104.221 159.383 104.221C159.912 104.221 160.399 104.298 160.844 104.451L160.798 105.578C160.79 105.678 160.76 105.755 160.706 105.808C160.652 105.854 160.579 105.889 160.487 105.912C160.403 105.935 160.296 105.95 160.165 105.958C160.043 105.958 159.909 105.958 159.763 105.958C159.418 105.958 159.104 106 158.82 106.084C158.536 106.169 158.295 106.311 158.095 106.51C157.896 106.709 157.743 106.974 157.635 107.303C157.528 107.625 157.474 108.028 157.474 108.511V109.5H160.752V111.133H157.543V121H155.289ZM168.839 115.813C167.927 115.844 167.152 115.917 166.516 116.032C165.88 116.139 165.362 116.285 164.963 116.469C164.565 116.653 164.277 116.871 164.101 117.124C163.925 117.37 163.836 117.646 163.836 117.952C163.836 118.244 163.882 118.497 163.974 118.711C164.074 118.918 164.204 119.091 164.365 119.229C164.534 119.359 164.73 119.455 164.952 119.516C165.174 119.578 165.416 119.608 165.676 119.608C166.021 119.608 166.336 119.574 166.619 119.505C166.911 119.436 167.183 119.34 167.436 119.217C167.689 119.087 167.93 118.93 168.16 118.746C168.39 118.562 168.617 118.351 168.839 118.113V115.813ZM162.261 110.949C162.913 110.328 163.618 109.864 164.377 109.557C165.144 109.251 165.983 109.097 166.895 109.097C167.562 109.097 168.153 109.209 168.666 109.431C169.18 109.646 169.613 109.948 169.966 110.339C170.319 110.73 170.583 111.198 170.759 111.742C170.943 112.287 171.035 112.889 171.035 113.548V121H170.035C169.813 121 169.644 120.965 169.529 120.896C169.414 120.82 169.322 120.682 169.253 120.482L169.011 119.459C168.712 119.735 168.417 119.98 168.126 120.195C167.835 120.402 167.528 120.582 167.206 120.735C166.892 120.881 166.554 120.992 166.194 121.069C165.834 121.146 165.435 121.184 164.998 121.184C164.538 121.184 164.105 121.123 163.698 121C163.3 120.87 162.951 120.674 162.652 120.413C162.353 120.153 162.115 119.827 161.939 119.436C161.77 119.045 161.686 118.589 161.686 118.067C161.686 117.607 161.809 117.167 162.054 116.745C162.307 116.316 162.713 115.932 163.273 115.595C163.84 115.258 164.576 114.982 165.481 114.767C166.393 114.552 167.513 114.43 168.839 114.399V113.548C168.839 112.666 168.651 112.007 168.275 111.57C167.9 111.133 167.348 110.914 166.619 110.914C166.129 110.914 165.715 110.976 165.377 111.098C165.048 111.221 164.76 111.359 164.515 111.512C164.277 111.658 164.066 111.792 163.882 111.915C163.706 112.038 163.522 112.099 163.33 112.099C163.177 112.099 163.043 112.057 162.928 111.972C162.821 111.888 162.732 111.788 162.663 111.673L162.261 110.949ZM182.225 111.501C182.156 111.585 182.087 111.654 182.018 111.708C181.957 111.754 181.865 111.777 181.742 111.777C181.62 111.777 181.489 111.731 181.351 111.639C181.221 111.539 181.052 111.436 180.845 111.328C180.646 111.213 180.401 111.11 180.109 111.018C179.826 110.918 179.473 110.868 179.051 110.868C178.499 110.868 178.013 110.968 177.591 111.167C177.169 111.367 176.817 111.65 176.533 112.018C176.257 112.386 176.046 112.835 175.9 113.364C175.755 113.893 175.682 114.487 175.682 115.146C175.682 115.829 175.759 116.438 175.912 116.975C176.065 117.504 176.284 117.952 176.567 118.32C176.851 118.681 177.196 118.957 177.602 119.148C178.009 119.332 178.461 119.424 178.959 119.424C179.442 119.424 179.841 119.367 180.155 119.252C180.47 119.129 180.73 118.999 180.937 118.861C181.144 118.723 181.317 118.596 181.455 118.481C181.593 118.359 181.735 118.297 181.88 118.297C182.064 118.297 182.206 118.366 182.306 118.504L182.95 119.332C182.682 119.662 182.379 119.942 182.041 120.172C181.712 120.402 181.359 120.59 180.983 120.735C180.608 120.881 180.213 120.988 179.799 121.058C179.393 121.127 178.979 121.161 178.557 121.161C177.829 121.161 177.146 121.027 176.51 120.758C175.881 120.49 175.333 120.099 174.865 119.585C174.405 119.072 174.041 118.443 173.773 117.699C173.505 116.948 173.37 116.097 173.37 115.146C173.37 114.28 173.489 113.479 173.727 112.743C173.972 112.007 174.329 111.374 174.796 110.845C175.272 110.309 175.854 109.891 176.544 109.592C177.234 109.285 178.024 109.132 178.913 109.132C179.749 109.132 180.485 109.266 181.121 109.534C181.758 109.803 182.325 110.182 182.823 110.673L182.225 111.501ZM196.118 121H193.864V111.133H187.999V117.975C187.999 118.435 188.11 118.78 188.332 119.01C188.562 119.233 188.854 119.344 189.206 119.344C189.413 119.344 189.59 119.317 189.735 119.263C189.889 119.21 190.019 119.152 190.126 119.091C190.234 119.022 190.326 118.961 190.402 118.907C190.479 118.853 190.548 118.826 190.609 118.826C190.686 118.826 190.743 118.846 190.782 118.884C190.828 118.915 190.874 118.968 190.92 119.045L191.587 120.126C191.219 120.463 190.782 120.724 190.276 120.908C189.77 121.092 189.245 121.184 188.7 121.184C187.757 121.184 187.029 120.919 186.515 120.39C186.009 119.861 185.756 119.106 185.756 118.125V111.133H184.399C184.269 111.133 184.158 111.095 184.066 111.018C183.981 110.934 183.939 110.811 183.939 110.65V109.741L185.848 109.477L186.343 105.992C186.373 105.862 186.431 105.762 186.515 105.693C186.607 105.617 186.722 105.578 186.86 105.578H187.999V109.5H196.118V121ZM196.624 105.636C196.624 105.843 196.582 106.042 196.497 106.234C196.413 106.418 196.298 106.583 196.152 106.728C196.014 106.866 195.849 106.978 195.658 107.062C195.466 107.139 195.267 107.177 195.06 107.177C194.853 107.177 194.657 107.139 194.473 107.062C194.289 106.978 194.124 106.866 193.979 106.728C193.841 106.583 193.73 106.418 193.645 106.234C193.569 106.042 193.53 105.843 193.53 105.636C193.53 105.421 193.569 105.218 193.645 105.026C193.73 104.835 193.841 104.67 193.979 104.532C194.124 104.386 194.289 104.275 194.473 104.198C194.657 104.114 194.853 104.072 195.06 104.072C195.267 104.072 195.466 104.114 195.658 104.198C195.849 104.275 196.014 104.386 196.152 104.532C196.298 104.67 196.413 104.835 196.497 105.026C196.582 105.218 196.624 105.421 196.624 105.636ZM204.353 109.132C205.212 109.132 205.986 109.274 206.676 109.557C207.374 109.833 207.964 110.236 208.447 110.765C208.938 111.286 209.313 111.919 209.574 112.662C209.835 113.398 209.965 114.226 209.965 115.146C209.965 116.066 209.835 116.898 209.574 117.642C209.313 118.386 208.938 119.018 208.447 119.539C207.964 120.061 207.374 120.463 206.676 120.747C205.986 121.023 205.212 121.161 204.353 121.161C203.487 121.161 202.705 121.023 202.007 120.747C201.317 120.463 200.727 120.061 200.236 119.539C199.745 119.018 199.366 118.386 199.097 117.642C198.837 116.898 198.706 116.066 198.706 115.146C198.706 114.226 198.837 113.398 199.097 112.662C199.366 111.919 199.745 111.286 200.236 110.765C200.727 110.236 201.317 109.833 202.007 109.557C202.705 109.274 203.487 109.132 204.353 109.132ZM204.353 119.413C205.457 119.413 206.281 119.041 206.825 118.297C207.37 117.554 207.642 116.507 207.642 115.158C207.642 113.809 207.37 112.762 206.825 112.018C206.281 111.267 205.457 110.891 204.353 110.891C203.234 110.891 202.398 111.267 201.846 112.018C201.302 112.762 201.029 113.809 201.029 115.158C201.029 116.507 201.302 117.554 201.846 118.297C202.398 119.041 203.234 119.413 204.353 119.413ZM214.573 110.937C214.826 110.669 215.09 110.424 215.366 110.201C215.642 109.979 215.933 109.791 216.24 109.638C216.554 109.477 216.888 109.354 217.241 109.27C217.601 109.178 217.984 109.132 218.391 109.132C219.035 109.132 219.598 109.239 220.081 109.454C220.572 109.669 220.982 109.971 221.312 110.362C221.641 110.746 221.89 111.21 222.059 111.754C222.228 112.298 222.312 112.9 222.312 113.559V121H220.058V113.559C220.058 112.724 219.866 112.076 219.483 111.616C219.1 111.148 218.513 110.914 217.724 110.914C217.149 110.914 216.608 111.052 216.102 111.328C215.604 111.597 215.14 111.965 214.711 112.432V121H212.468V109.316H213.814C214.128 109.316 214.323 109.465 214.4 109.764L214.573 110.937Z" fill="white"/>
<path d="M31.5796 197H30.6096V189.835H31.5796V197ZM33.996 189.835C34.0826 189.835 34.146 189.847 34.186 189.87C34.2293 189.89 34.2776 189.933 34.331 190L38.481 195.4C38.471 195.313 38.4643 195.23 38.461 195.15C38.4576 195.067 38.456 194.987 38.456 194.91V189.835H39.306V197H38.816C38.7393 197 38.6743 196.987 38.621 196.96C38.571 196.933 38.521 196.888 38.471 196.825L34.326 191.43C34.3326 191.513 34.3376 191.595 34.341 191.675C34.3443 191.755 34.346 191.828 34.346 191.895V197H33.496V189.835H33.996ZM45.9346 189.835V190.65H43.6196V197H42.6496V190.65H40.3246V189.835H45.9346ZM53.1197 193.42C53.1197 193.957 53.0347 194.45 52.8647 194.9C52.6947 195.347 52.4547 195.732 52.1447 196.055C51.8347 196.378 51.4614 196.63 51.0247 196.81C50.5914 196.987 50.1114 197.075 49.5847 197.075C49.0581 197.075 48.5781 196.987 48.1447 196.81C47.7114 196.63 47.3397 196.378 47.0297 196.055C46.7197 195.732 46.4797 195.347 46.3097 194.9C46.1397 194.45 46.0547 193.957 46.0547 193.42C46.0547 192.883 46.1397 192.392 46.3097 191.945C46.4797 191.495 46.7197 191.108 47.0297 190.785C47.3397 190.458 47.7114 190.205 48.1447 190.025C48.5781 189.845 49.0581 189.755 49.5847 189.755C50.1114 189.755 50.5914 189.845 51.0247 190.025C51.4614 190.205 51.8347 190.458 52.1447 190.785C52.4547 191.108 52.6947 191.495 52.8647 191.945C53.0347 192.392 53.1197 192.883 53.1197 193.42ZM52.1247 193.42C52.1247 192.98 52.0647 192.585 51.9447 192.235C51.8247 191.885 51.6547 191.59 51.4347 191.35C51.2147 191.107 50.9481 190.92 50.6347 190.79C50.3214 190.66 49.9714 190.595 49.5847 190.595C49.2014 190.595 48.8531 190.66 48.5397 190.79C48.2264 190.92 47.9581 191.107 47.7347 191.35C47.5147 191.59 47.3447 191.885 47.2247 192.235C47.1047 192.585 47.0447 192.98 47.0447 193.42C47.0447 193.86 47.1047 194.255 47.2247 194.605C47.3447 194.952 47.5147 195.247 47.7347 195.49C47.9581 195.73 48.2264 195.915 48.5397 196.045C48.8531 196.172 49.2014 196.235 49.5847 196.235C49.9714 196.235 50.3214 196.172 50.6347 196.045C50.9481 195.915 51.2147 195.73 51.4347 195.49C51.6547 195.247 51.8247 194.952 51.9447 194.605C52.0647 194.255 52.1247 193.86 52.1247 193.42ZM60.0468 190.955C60.0168 191.005 59.9852 191.043 59.9518 191.07C59.9185 191.093 59.8752 191.105 59.8218 191.105C59.7652 191.105 59.6985 191.077 59.6218 191.02C59.5485 190.963 59.4535 190.902 59.3368 190.835C59.2235 190.765 59.0852 190.702 58.9218 190.645C58.7618 190.588 58.5668 190.56 58.3368 190.56C58.1202 190.56 57.9285 190.59 57.7618 190.65C57.5952 190.707 57.4552 190.785 57.3418 190.885C57.2318 190.985 57.1485 191.103 57.0918 191.24C57.0352 191.373 57.0068 191.518 57.0068 191.675C57.0068 191.875 57.0552 192.042 57.1518 192.175C57.2518 192.305 57.3818 192.417 57.5418 192.51C57.7052 192.603 57.8885 192.685 58.0918 192.755C58.2985 192.822 58.5085 192.892 58.7218 192.965C58.9385 193.038 59.1485 193.122 59.3518 193.215C59.5585 193.305 59.7418 193.42 59.9018 193.56C60.0652 193.7 60.1952 193.872 60.2918 194.075C60.3918 194.278 60.4418 194.528 60.4418 194.825C60.4418 195.138 60.3885 195.433 60.2818 195.71C60.1752 195.983 60.0185 196.222 59.8118 196.425C59.6085 196.628 59.3568 196.788 59.0568 196.905C58.7602 197.022 58.4218 197.08 58.0418 197.08C57.5785 197.08 57.1552 196.997 56.7718 196.83C56.3918 196.66 56.0668 196.432 55.7968 196.145L56.0768 195.685C56.1035 195.648 56.1352 195.618 56.1718 195.595C56.2118 195.568 56.2552 195.555 56.3018 195.555C56.3718 195.555 56.4518 195.593 56.5418 195.67C56.6318 195.743 56.7435 195.825 56.8768 195.915C57.0135 196.005 57.1768 196.088 57.3668 196.165C57.5602 196.238 57.7952 196.275 58.0718 196.275C58.3018 196.275 58.5068 196.243 58.6868 196.18C58.8668 196.117 59.0185 196.028 59.1418 195.915C59.2685 195.798 59.3652 195.66 59.4318 195.5C59.4985 195.34 59.5318 195.162 59.5318 194.965C59.5318 194.748 59.4818 194.572 59.3818 194.435C59.2852 194.295 59.1568 194.178 58.9968 194.085C58.8368 193.992 58.6535 193.913 58.4468 193.85C58.2435 193.783 58.0335 193.717 57.8168 193.65C57.6035 193.58 57.3935 193.5 57.1868 193.41C56.9835 193.32 56.8018 193.203 56.6418 193.06C56.4818 192.917 56.3518 192.738 56.2518 192.525C56.1552 192.308 56.1068 192.042 56.1068 191.725C56.1068 191.472 56.1552 191.227 56.2518 190.99C56.3518 190.753 56.4952 190.543 56.6818 190.36C56.8685 190.177 57.0985 190.03 57.3718 189.92C57.6485 189.81 57.9652 189.755 58.3218 189.755C58.7218 189.755 59.0868 189.818 59.4168 189.945C59.7468 190.072 60.0352 190.255 60.2818 190.495L60.0468 190.955ZM66.5596 189.835V190.65H64.2446V197H63.2746V190.65H60.9496V189.835H66.5596ZM70.363 196.23C70.6597 196.23 70.9247 196.18 71.158 196.08C71.3913 195.98 71.588 195.84 71.748 195.66C71.9113 195.48 72.0347 195.265 72.118 195.015C72.2047 194.765 72.248 194.49 72.248 194.19V189.835H73.213V194.19C73.213 194.603 73.1463 194.987 73.013 195.34C72.883 195.693 72.6947 196 72.448 196.26C72.2047 196.517 71.9063 196.718 71.553 196.865C71.1997 197.012 70.803 197.085 70.363 197.085C69.923 197.085 69.5263 197.012 69.173 196.865C68.8197 196.718 68.5197 196.517 68.273 196.26C68.0263 196 67.8363 195.693 67.703 195.34C67.573 194.987 67.508 194.603 67.508 194.19V189.835H68.473V194.185C68.473 194.485 68.5147 194.76 68.598 195.01C68.6847 195.26 68.808 195.475 68.968 195.655C69.1313 195.835 69.3297 195.977 69.563 196.08C69.7997 196.18 70.0663 196.23 70.363 196.23ZM81.0927 193.42C81.0927 193.957 81.0077 194.445 80.8377 194.885C80.6677 195.325 80.4277 195.702 80.1177 196.015C79.8077 196.328 79.436 196.572 79.0027 196.745C78.5694 196.915 78.0894 197 77.5627 197H74.8827V189.835H77.5627C78.0894 189.835 78.5694 189.922 79.0027 190.095C79.436 190.265 79.8077 190.508 80.1177 190.825C80.4277 191.138 80.6677 191.515 80.8377 191.955C81.0077 192.395 81.0927 192.883 81.0927 193.42ZM80.0977 193.42C80.0977 192.98 80.0377 192.587 79.9177 192.24C79.7977 191.893 79.6277 191.6 79.4077 191.36C79.1877 191.12 78.921 190.937 78.6077 190.81C78.2944 190.683 77.946 190.62 77.5627 190.62H75.8577V196.215H77.5627C77.946 196.215 78.2944 196.152 78.6077 196.025C78.921 195.898 79.1877 195.717 79.4077 195.48C79.6277 195.24 79.7977 194.947 79.9177 194.6C80.0377 194.253 80.0977 193.86 80.0977 193.42ZM86.827 189.835V190.625H83.387V193.005H86.172V193.765H83.387V196.21H86.827V197H82.412V189.835H86.827ZM88.7225 189.835C88.8092 189.835 88.8725 189.847 88.9125 189.87C88.9559 189.89 89.0042 189.933 89.0575 190L93.2075 195.4C93.1975 195.313 93.1909 195.23 93.1875 195.15C93.1842 195.067 93.1825 194.987 93.1825 194.91V189.835H94.0325V197H93.5425C93.4659 197 93.4009 196.987 93.3475 196.96C93.2975 196.933 93.2475 196.888 93.1975 196.825L89.0525 191.43C89.0592 191.513 89.0642 191.595 89.0675 191.675C89.0709 191.755 89.0725 191.828 89.0725 191.895V197H88.2225V189.835H88.7225ZM100.661 189.835V190.65H98.3461V197H97.3761V190.65H95.0511V189.835H100.661ZM108.028 189.835V190.625H104.588V193.005H107.373V193.765H104.588V196.21H108.028V197H103.613V189.835H108.028ZM111.089 193.32L108.724 189.835H109.689C109.759 189.835 109.81 189.847 109.844 189.87C109.877 189.893 109.907 189.927 109.934 189.97L111.804 192.84C111.827 192.77 111.862 192.693 111.909 192.61L113.674 189.99C113.704 189.943 113.735 189.907 113.769 189.88C113.805 189.85 113.849 189.835 113.899 189.835H114.824L112.449 193.275L114.904 197H113.944C113.87 197 113.812 196.982 113.769 196.945C113.729 196.905 113.695 196.862 113.669 196.815L111.749 193.81C111.725 193.88 111.695 193.947 111.659 194.01L109.789 196.815C109.759 196.862 109.724 196.905 109.684 196.945C109.647 196.982 109.594 197 109.524 197H108.624L111.089 193.32ZM116.914 194.32V197H115.949V189.835H118.064C118.518 189.835 118.911 189.888 119.244 189.995C119.581 190.098 119.859 190.247 120.079 190.44C120.299 190.633 120.463 190.867 120.569 191.14C120.679 191.413 120.734 191.718 120.734 192.055C120.734 192.388 120.676 192.693 120.559 192.97C120.443 193.247 120.271 193.485 120.044 193.685C119.821 193.885 119.543 194.042 119.209 194.155C118.876 194.265 118.494 194.32 118.064 194.32H116.914ZM116.914 193.55H118.064C118.341 193.55 118.584 193.513 118.794 193.44C119.008 193.367 119.186 193.265 119.329 193.135C119.473 193.002 119.581 192.843 119.654 192.66C119.728 192.477 119.764 192.275 119.764 192.055C119.764 191.598 119.623 191.242 119.339 190.985C119.059 190.728 118.634 190.6 118.064 190.6H116.914V193.55ZM126.378 189.835V190.625H122.938V193.005H125.723V193.765H122.938V196.21H126.378V197H121.963V189.835H126.378ZM128.838 194.01V197H127.873V189.835H129.898C130.352 189.835 130.743 189.882 131.073 189.975C131.403 190.065 131.675 190.197 131.888 190.37C132.105 190.543 132.265 190.753 132.368 191C132.472 191.243 132.523 191.517 132.523 191.82C132.523 192.073 132.483 192.31 132.403 192.53C132.323 192.75 132.207 192.948 132.053 193.125C131.903 193.298 131.718 193.447 131.498 193.57C131.282 193.693 131.035 193.787 130.758 193.85C130.878 193.92 130.985 194.022 131.078 194.155L133.168 197H132.308C132.132 197 132.002 196.932 131.918 196.795L130.058 194.235C130.002 194.155 129.94 194.098 129.873 194.065C129.807 194.028 129.707 194.01 129.573 194.01H128.838ZM128.838 193.305H129.853C130.137 193.305 130.385 193.272 130.598 193.205C130.815 193.135 130.995 193.038 131.138 192.915C131.285 192.788 131.395 192.638 131.468 192.465C131.542 192.292 131.578 192.1 131.578 191.89C131.578 191.463 131.437 191.142 131.153 190.925C130.873 190.708 130.455 190.6 129.898 190.6H128.838V193.305ZM135.359 197H134.389V189.835H135.359V197ZM141.69 189.835V190.625H138.25V193.005H141.035V193.765H138.25V196.21H141.69V197H137.275V189.835H141.69ZM143.586 189.835C143.672 189.835 143.736 189.847 143.776 189.87C143.819 189.89 143.867 189.933 143.921 190L148.071 195.4C148.061 195.313 148.054 195.23 148.051 195.15C148.047 195.067 148.046 194.987 148.046 194.91V189.835H148.896V197H148.406C148.329 197 148.264 196.987 148.211 196.96C148.161 196.933 148.111 196.888 148.061 196.825L143.916 191.43C143.922 191.513 143.927 191.595 143.931 191.675C143.934 191.755 143.936 191.828 143.936 191.895V197H143.086V189.835H143.586ZM155.694 195.52C155.748 195.52 155.796 195.542 155.839 195.585L156.219 196C155.926 196.34 155.569 196.605 155.149 196.795C154.733 196.985 154.229 197.08 153.639 197.08C153.123 197.08 152.654 196.992 152.234 196.815C151.814 196.635 151.456 196.385 151.159 196.065C150.863 195.742 150.633 195.355 150.469 194.905C150.306 194.455 150.224 193.96 150.224 193.42C150.224 192.88 150.311 192.385 150.484 191.935C150.661 191.485 150.908 191.098 151.224 190.775C151.541 190.452 151.919 190.202 152.359 190.025C152.803 189.845 153.291 189.755 153.824 189.755C154.351 189.755 154.804 189.837 155.184 190C155.568 190.163 155.908 190.385 156.204 190.665L155.889 191.11C155.866 191.143 155.839 191.172 155.809 191.195C155.779 191.215 155.736 191.225 155.679 191.225C155.636 191.225 155.589 191.21 155.539 191.18C155.493 191.147 155.436 191.107 155.369 191.06C155.303 191.013 155.224 190.963 155.134 190.91C155.044 190.857 154.938 190.807 154.814 190.76C154.691 190.713 154.548 190.675 154.384 190.645C154.221 190.612 154.033 190.595 153.819 190.595C153.436 190.595 153.084 190.662 152.764 190.795C152.448 190.925 152.174 191.112 151.944 191.355C151.714 191.598 151.534 191.895 151.404 192.245C151.278 192.595 151.214 192.987 151.214 193.42C151.214 193.867 151.278 194.265 151.404 194.615C151.534 194.965 151.709 195.262 151.929 195.505C152.153 195.745 152.416 195.928 152.719 196.055C153.023 196.182 153.349 196.245 153.699 196.245C153.913 196.245 154.104 196.233 154.274 196.21C154.444 196.183 154.601 196.143 154.744 196.09C154.891 196.037 155.026 195.97 155.149 195.89C155.276 195.807 155.403 195.708 155.529 195.595C155.586 195.545 155.641 195.52 155.694 195.52ZM161.905 189.835V190.625H158.465V193.005H161.25V193.765H158.465V196.21H161.905V197H157.49V189.835H161.905ZM168.904 190.955C168.874 191.005 168.843 191.043 168.809 191.07C168.776 191.093 168.733 191.105 168.679 191.105C168.623 191.105 168.556 191.077 168.479 191.02C168.406 190.963 168.311 190.902 168.194 190.835C168.081 190.765 167.943 190.702 167.779 190.645C167.619 190.588 167.424 190.56 167.194 190.56C166.978 190.56 166.786 190.59 166.619 190.65C166.453 190.707 166.313 190.785 166.199 190.885C166.089 190.985 166.006 191.103 165.949 191.24C165.893 191.373 165.864 191.518 165.864 191.675C165.864 191.875 165.913 192.042 166.009 192.175C166.109 192.305 166.239 192.417 166.399 192.51C166.563 192.603 166.746 192.685 166.949 192.755C167.156 192.822 167.366 192.892 167.579 192.965C167.796 193.038 168.006 193.122 168.209 193.215C168.416 193.305 168.599 193.42 168.759 193.56C168.923 193.7 169.053 193.872 169.149 194.075C169.249 194.278 169.299 194.528 169.299 194.825C169.299 195.138 169.246 195.433 169.139 195.71C169.033 195.983 168.876 196.222 168.669 196.425C168.466 196.628 168.214 196.788 167.914 196.905C167.618 197.022 167.279 197.08 166.899 197.08C166.436 197.08 166.013 196.997 165.629 196.83C165.249 196.66 164.924 196.432 164.654 196.145L164.934 195.685C164.961 195.648 164.993 195.618 165.029 195.595C165.069 195.568 165.113 195.555 165.159 195.555C165.229 195.555 165.309 195.593 165.399 195.67C165.489 195.743 165.601 195.825 165.734 195.915C165.871 196.005 166.034 196.088 166.224 196.165C166.418 196.238 166.653 196.275 166.929 196.275C167.159 196.275 167.364 196.243 167.544 196.18C167.724 196.117 167.876 196.028 167.999 195.915C168.126 195.798 168.223 195.66 168.289 195.5C168.356 195.34 168.389 195.162 168.389 194.965C168.389 194.748 168.339 194.572 168.239 194.435C168.143 194.295 168.014 194.178 167.854 194.085C167.694 193.992 167.511 193.913 167.304 193.85C167.101 193.783 166.891 193.717 166.674 193.65C166.461 193.58 166.251 193.5 166.044 193.41C165.841 193.32 165.659 193.203 165.499 193.06C165.339 192.917 165.209 192.738 165.109 192.525C165.013 192.308 164.964 192.042 164.964 191.725C164.964 191.472 165.013 191.227 165.109 190.99C165.209 190.753 165.353 190.543 165.539 190.36C165.726 190.177 165.956 190.03 166.229 189.92C166.506 189.81 166.823 189.755 167.179 189.755C167.579 189.755 167.944 189.818 168.274 189.945C168.604 190.072 168.893 190.255 169.139 190.495L168.904 190.955ZM173.322 196.23C173.619 196.23 173.884 196.18 174.117 196.08C174.35 195.98 174.547 195.84 174.707 195.66C174.87 195.48 174.994 195.265 175.077 195.015C175.164 194.765 175.207 194.49 175.207 194.19V189.835H176.172V194.19C176.172 194.603 176.105 194.987 175.972 195.34C175.842 195.693 175.654 196 175.407 196.26C175.164 196.517 174.865 196.718 174.512 196.865C174.159 197.012 173.762 197.085 173.322 197.085C172.882 197.085 172.485 197.012 172.132 196.865C171.779 196.718 171.479 196.517 171.232 196.26C170.985 196 170.795 195.693 170.662 195.34C170.532 194.987 170.467 194.603 170.467 194.19V189.835H171.432V194.185C171.432 194.485 171.474 194.76 171.557 195.01C171.644 195.26 171.767 195.475 171.927 195.655C172.09 195.835 172.289 195.977 172.522 196.08C172.759 196.18 173.025 196.23 173.322 196.23ZM178.907 194.01V197H177.942V189.835H179.967C180.42 189.835 180.812 189.882 181.142 189.975C181.472 190.065 181.743 190.197 181.957 190.37C182.173 190.543 182.333 190.753 182.437 191C182.54 191.243 182.592 191.517 182.592 191.82C182.592 192.073 182.552 192.31 182.472 192.53C182.392 192.75 182.275 192.948 182.122 193.125C181.972 193.298 181.787 193.447 181.567 193.57C181.35 193.693 181.103 193.787 180.827 193.85C180.947 193.92 181.053 194.022 181.147 194.155L183.237 197H182.377C182.2 197 182.07 196.932 181.987 196.795L180.127 194.235C180.07 194.155 180.008 194.098 179.942 194.065C179.875 194.028 179.775 194.01 179.642 194.01H178.907ZM178.907 193.305H179.922C180.205 193.305 180.453 193.272 180.667 193.205C180.883 193.135 181.063 193.038 181.207 192.915C181.353 192.788 181.463 192.638 181.537 192.465C181.61 192.292 181.647 192.1 181.647 191.89C181.647 191.463 181.505 191.142 181.222 190.925C180.942 190.708 180.523 190.6 179.967 190.6H178.907V193.305ZM183.447 189.835H184.222C184.309 189.835 184.379 189.857 184.432 189.9C184.486 189.943 184.526 189.998 184.552 190.065L186.577 195.12C186.624 195.233 186.666 195.357 186.702 195.49C186.742 195.623 186.781 195.762 186.817 195.905C186.847 195.762 186.879 195.623 186.912 195.49C186.949 195.357 186.991 195.233 187.037 195.12L189.052 190.065C189.076 190.008 189.116 189.957 189.172 189.91C189.229 189.86 189.299 189.835 189.382 189.835H190.162L187.242 197H186.367L183.447 189.835ZM195.489 189.835V190.625H192.049V193.005H194.834V193.765H192.049V196.21H195.489V197H191.074V189.835H195.489ZM199.645 194.15V197H198.68V194.15L196.055 189.835H196.905C196.991 189.835 197.06 189.857 197.11 189.9C197.16 189.943 197.203 189.997 197.24 190.06L198.88 192.845C198.946 192.962 199.001 193.072 199.045 193.175C199.091 193.278 199.133 193.38 199.17 193.48C199.206 193.377 199.246 193.273 199.29 193.17C199.333 193.067 199.388 192.958 199.455 192.845L201.09 190.06C201.12 190.007 201.16 189.957 201.21 189.91C201.263 189.86 201.331 189.835 201.415 189.835H202.275L199.645 194.15ZM207.242 189.755C207.546 189.755 207.829 189.8 208.092 189.89C208.356 189.98 208.582 190.112 208.772 190.285C208.966 190.455 209.117 190.663 209.227 190.91C209.337 191.157 209.392 191.437 209.392 191.75C209.392 192.017 209.352 192.263 209.272 192.49C209.192 192.717 209.084 192.935 208.947 193.145C208.811 193.352 208.652 193.553 208.472 193.75C208.296 193.943 208.107 194.142 207.907 194.345L206.022 196.275C206.156 196.238 206.291 196.21 206.427 196.19C206.564 196.167 206.696 196.155 206.822 196.155H209.222C209.319 196.155 209.396 196.183 209.452 196.24C209.509 196.297 209.537 196.37 209.537 196.46V197H204.757V196.695C204.757 196.632 204.769 196.567 204.792 196.5C204.819 196.433 204.861 196.372 204.917 196.315L207.212 194.01C207.402 193.817 207.576 193.632 207.732 193.455C207.889 193.275 208.022 193.095 208.132 192.915C208.246 192.735 208.332 192.553 208.392 192.37C208.452 192.183 208.482 191.985 208.482 191.775C208.482 191.565 208.449 191.382 208.382 191.225C208.316 191.065 208.224 190.933 208.107 190.83C207.991 190.727 207.854 190.65 207.697 190.6C207.541 190.547 207.372 190.52 207.192 190.52C207.012 190.52 206.846 190.547 206.692 190.6C206.539 190.653 206.402 190.728 206.282 190.825C206.166 190.918 206.066 191.03 205.982 191.16C205.902 191.29 205.846 191.433 205.812 191.59C205.786 191.687 205.746 191.757 205.692 191.8C205.639 191.843 205.569 191.865 205.482 191.865C205.466 191.865 205.447 191.865 205.427 191.865C205.411 191.862 205.391 191.858 205.367 191.855L204.902 191.775C204.949 191.448 205.039 191.16 205.172 190.91C205.306 190.657 205.474 190.445 205.677 190.275C205.884 190.105 206.119 189.977 206.382 189.89C206.649 189.8 206.936 189.755 207.242 189.755ZM215.538 193.42C215.538 194.047 215.47 194.59 215.333 195.05C215.2 195.507 215.016 195.885 214.783 196.185C214.55 196.485 214.273 196.708 213.953 196.855C213.636 197.002 213.296 197.075 212.933 197.075C212.566 197.075 212.225 197.002 211.908 196.855C211.595 196.708 211.321 196.485 211.088 196.185C210.855 195.885 210.671 195.507 210.538 195.05C210.405 194.59 210.338 194.047 210.338 193.42C210.338 192.793 210.405 192.25 210.538 191.79C210.671 191.33 210.855 190.95 211.088 190.65C211.321 190.347 211.595 190.122 211.908 189.975C212.225 189.828 212.566 189.755 212.933 189.755C213.296 189.755 213.636 189.828 213.953 189.975C214.273 190.122 214.55 190.347 214.783 190.65C215.016 190.95 215.2 191.33 215.333 191.79C215.47 192.25 215.538 192.793 215.538 193.42ZM214.613 193.42C214.613 192.873 214.566 192.415 214.473 192.045C214.383 191.672 214.26 191.372 214.103 191.145C213.95 190.918 213.771 190.757 213.568 190.66C213.365 190.56 213.153 190.51 212.933 190.51C212.713 190.51 212.501 190.56 212.298 190.66C212.095 190.757 211.916 190.918 211.763 191.145C211.61 191.372 211.486 191.672 211.393 192.045C211.303 192.415 211.258 192.873 211.258 193.42C211.258 193.967 211.303 194.425 211.393 194.795C211.486 195.165 211.61 195.463 211.763 195.69C211.916 195.917 212.095 196.08 212.298 196.18C212.501 196.277 212.713 196.325 212.933 196.325C213.153 196.325 213.365 196.277 213.568 196.18C213.771 196.08 213.95 195.917 214.103 195.69C214.26 195.463 214.383 195.165 214.473 194.795C214.566 194.425 214.613 193.967 214.613 193.42ZM218.844 189.755C219.147 189.755 219.431 189.8 219.694 189.89C219.957 189.98 220.184 190.112 220.374 190.285C220.567 190.455 220.719 190.663 220.829 190.91C220.939 191.157 220.994 191.437 220.994 191.75C220.994 192.017 220.954 192.263 220.874 192.49C220.794 192.717 220.686 192.935 220.549 193.145C220.412 193.352 220.254 193.553 220.074 193.75C219.897 193.943 219.709 194.142 219.509 194.345L217.624 196.275C217.757 196.238 217.892 196.21 218.029 196.19C218.166 196.167 218.297 196.155 218.424 196.155H220.824C220.921 196.155 220.997 196.183 221.054 196.24C221.111 196.297 221.139 196.37 221.139 196.46V197H216.359V196.695C216.359 196.632 216.371 196.567 216.394 196.5C216.421 196.433 216.462 196.372 216.519 196.315L218.814 194.01C219.004 193.817 219.177 193.632 219.334 193.455C219.491 193.275 219.624 193.095 219.734 192.915C219.847 192.735 219.934 192.553 219.994 192.37C220.054 192.183 220.084 191.985 220.084 191.775C220.084 191.565 220.051 191.382 219.984 191.225C219.917 191.065 219.826 190.933 219.709 190.83C219.592 190.727 219.456 190.65 219.299 190.6C219.142 190.547 218.974 190.52 218.794 190.52C218.614 190.52 218.447 190.547 218.294 190.6C218.141 190.653 218.004 190.728 217.884 190.825C217.767 190.918 217.667 191.03 217.584 191.16C217.504 191.29 217.447 191.433 217.414 191.59C217.387 191.687 217.347 191.757 217.294 191.8C217.241 191.843 217.171 191.865 217.084 191.865C217.067 191.865 217.049 191.865 217.029 191.865C217.012 191.862 216.992 191.858 216.969 191.855L216.504 191.775C216.551 191.448 216.641 191.16 216.774 190.91C216.907 190.657 217.076 190.445 217.279 190.275C217.486 190.105 217.721 189.977 217.984 189.89C218.251 189.8 218.537 189.755 218.844 189.755ZM224.645 189.755C224.948 189.755 225.231 189.8 225.495 189.89C225.758 189.98 225.985 190.112 226.175 190.285C226.368 190.455 226.52 190.663 226.63 190.91C226.74 191.157 226.795 191.437 226.795 191.75C226.795 192.017 226.755 192.263 226.675 192.49C226.595 192.717 226.486 192.935 226.35 193.145C226.213 193.352 226.055 193.553 225.875 193.75C225.698 193.943 225.51 194.142 225.31 194.345L223.425 196.275C223.558 196.238 223.693 196.21 223.83 196.19C223.966 196.167 224.098 196.155 224.225 196.155H226.625C226.721 196.155 226.798 196.183 226.855 196.24C226.911 196.297 226.94 196.37 226.94 196.46V197H222.16V196.695C222.16 196.632 222.171 196.567 222.195 196.5C222.221 196.433 222.263 196.372 222.32 196.315L224.615 194.01C224.805 193.817 224.978 193.632 225.135 193.455C225.291 193.275 225.425 193.095 225.535 192.915C225.648 192.735 225.735 192.553 225.795 192.37C225.855 192.183 225.885 191.985 225.885 191.775C225.885 191.565 225.851 191.382 225.785 191.225C225.718 191.065 225.626 190.933 225.51 190.83C225.393 190.727 225.256 190.65 225.1 190.6C224.943 190.547 224.775 190.52 224.595 190.52C224.415 190.52 224.248 190.547 224.095 190.6C223.941 190.653 223.805 190.728 223.685 190.825C223.568 190.918 223.468 191.03 223.385 191.16C223.305 191.29 223.248 191.433 223.215 191.59C223.188 191.687 223.148 191.757 223.095 191.8C223.041 191.843 222.971 191.865 222.885 191.865C222.868 191.865 222.85 191.865 222.83 191.865C222.813 191.862 222.793 191.858 222.77 191.855L222.305 191.775C222.351 191.448 222.441 191.16 222.575 190.91C222.708 190.657 222.876 190.445 223.08 190.275C223.286 190.105 223.521 189.977 223.785 189.89C224.051 189.8 224.338 189.755 224.645 189.755Z" fill="#F0F0F0"/>
<path d="M108.679 54.3181V43.9432C108.679 30.4491 101.423 24.0072 90.5059 24.0072C78.8427 24.0072 72.6042 30.9238 72.6042 41.2309V41.7055C72.6042 52.9619 80.1989 56.827 89.3532 56.827C92.2012 56.827 95.5917 56.3524 97.3547 56.0133V56.488C97.3547 64.0149 94.8458 66.3882 88.8785 66.3882C84.8778 66.3882 79.792 65.9813 76.5372 65.4389C76.4016 65.4389 76.3338 65.4389 76.1981 65.4389C75.4522 65.4389 74.9776 65.9135 74.9776 66.8629V72.7623C74.9776 73.576 75.3844 73.9829 76.4694 74.2541C79.2496 74.9322 83.725 75.6103 89.8278 75.6103C101.355 75.6103 108.679 69.643 108.679 54.3181ZM97.3547 48.0796C95.7951 48.3509 92.9471 48.7577 91.184 48.7577C87.1833 48.7577 83.9284 47.2659 83.9284 41.7055V41.2309C83.9284 34.5855 86.7764 32.8225 90.5059 32.8225C94.4389 32.8225 97.3547 34.7211 97.3547 43.9432V48.0796ZM150.825 60.6244V59.4038C150.825 54.9962 148.519 51.1989 144.79 49.2324C148.383 47.1981 150.825 42.7905 150.825 38.8575V37.9082C150.825 27.7368 144.179 24.0072 133.126 24.0072C127.837 24.0072 122.819 25.0244 119.293 26.1093C118.615 26.3128 117.937 26.7196 117.937 27.3977V32.8225C117.937 33.5684 118.479 34.043 119.158 34.043C119.225 34.043 119.225 34.043 119.293 34.043C124.447 33.5684 127.905 33.2293 132.652 33.2293C137.941 33.2293 139.365 35.2636 139.365 38.315V39.2644C139.365 42.248 138.009 45.1638 133.601 45.1638H121.938C121.192 45.1638 120.649 45.7063 120.649 46.4522V52.216C120.649 52.9619 121.192 53.5722 121.938 53.5722H133.872C138.28 53.5722 139.365 56.3524 139.365 59.4038V60.6244C139.365 64.3539 137.466 66.3882 132.652 66.3882C128.99 66.3882 123.904 66.1848 119.158 65.7779C119.09 65.7779 119.09 65.7779 119.022 65.7779C118.344 65.7779 117.801 66.2526 117.801 66.9985V72.4232C117.801 73.1013 118.412 73.5082 119.09 73.7116C122.616 74.7966 127.837 75.6103 133.126 75.6103C143.637 75.6103 150.825 70.9992 150.825 60.6244Z" fill="white"/>
<path d="M191.852 69.6862V66.2957C191.852 61.0518 189.456 58.5203 185.207 58.5203C180.958 58.5203 178.517 61.0518 178.517 66.2957V69.6862C178.517 74.9302 180.958 77.4617 185.207 77.4617C189.456 77.4617 191.852 74.9302 191.852 69.6862ZM187.196 43.9638C187.196 43.7378 187.061 43.6022 186.744 43.6022H182.088C181.591 43.6022 181.365 43.8282 180.958 44.5063L162.152 76.2411C162.061 76.422 162.016 76.5576 162.016 76.6932C162.016 77.0097 162.197 77.1905 162.513 77.1905H167.17C167.667 77.1905 167.848 76.874 168.209 76.2411L187.015 44.5063C187.151 44.3255 187.196 44.1446 187.196 43.9638ZM170.741 54.4969V51.1064C170.741 45.8625 168.3 43.3761 164.05 43.3761C159.801 43.3761 157.36 45.8625 157.36 51.1064V54.4969C157.36 59.7408 159.801 62.2724 164.05 62.2724C168.3 62.2724 170.741 59.7408 170.741 54.4969ZM187.332 69.6862C187.332 72.7603 186.518 73.5288 185.207 73.5288C183.896 73.5288 183.037 72.7603 183.037 69.6862V66.2957C183.037 63.2217 183.896 62.4532 185.207 62.4532C186.518 62.4532 187.332 63.2217 187.332 66.2957V69.6862ZM166.175 54.4969C166.175 57.5709 165.361 58.3846 164.05 58.3846C162.74 58.3846 161.881 57.5709 161.881 54.4969V51.1064C161.881 48.0324 162.74 47.2639 164.05 47.2639C165.361 47.2639 166.175 48.0324 166.175 51.1064V54.4969Z" fill="white"/>
</g>
<defs>
<clipPath id="clip0_208_28">
<rect width="256" height="212" fill="white"/>
</clipPath>
</defs>
</svg>
