<svg xmlns="http://www.w3.org/2000/svg" viewBox="0 0 739.091 242.907"><defs><style>.cls-1{fill:#27348b;}.cls-2{fill:#e1b600;}.cls-3,.cls-4{fill:#fff;}.cls-3{fill-rule:evenodd;}</style></defs><g id="Layer_2" data-name="Layer 2"><g id="Layer_1-2" data-name="Layer 1"><path class="cls-1" d="M191.81,169.7a99.27,99.27,0,0,1-169.556,0L3.181,187.333a124.868,124.868,0,0,0,166.182,38.919c16.14-9.315,30.533-23.989,41.08-39.325Z"/><rect class="cls-2" x="24.391" width="165.283" height="6.278"/><path class="cls-1" d="M189.674,66.145c-.315,18.432,4.017,91.578-82.641,142.754C20.373,157.723,24.705,84.577,24.391,66.145V6.278H189.674Z"/><path class="cls-2" d="M35.314,130.387c10.491,25.736,31.118,54.535,71.719,78.512,40.6-23.977,61.229-52.776,71.717-78.512L107.031,64.062Z"/><path class="cls-3" d="M93.566,22.623V54.494c-8.556-3.141-18.873-.639-24.347,3.392V26.312C74.027,21.628,85.361,19.536,93.566,22.623Z"/><path class="cls-3" d="M42.516,22.707v31.87c8.55-3.141,18.869-.639,24.345,3.393V26.4C62.055,21.712,50.721,19.619,42.516,22.707Z"/><path class="cls-4" d="M100.9,47.985l-.07-.011c-1.224-.131-2.157-.2-2.793-.238V37.341c.621.037,1.528.1,2.723.233l.14,0c2.444.11,2.78-1.136,2.78-1.136a3.32,3.32,0,0,0-2.78-1.952l-.07-.008c-1.224-.132-2.157-.2-2.793-.241v-8.78H95.877V57.505C84.1,54.992,75.2,56.287,68.035,61.544c-7.162-5.257-16.062-6.55-27.838-4.039V25.461H38.035v8.78c-.454.027-1.054.069-1.814.139v-.326a.452.452,0,0,0-.483-.441L32.8,33.93a.445.445,0,0,0-.42.446v3.758a.451.451,0,0,0,.5.435l2.925-.286a.458.458,0,0,0,.411-.447v-.358c.76-.072,1.361-.114,1.814-.14v10.4c-.454.027-1.054.069-1.814.14v-.332a.451.451,0,0,0-.483-.438l-2.937.318a.443.443,0,0,0-.42.45v3.75a.455.455,0,0,0,.5.439l2.925-.3a.443.443,0,0,0,.411-.441V50.97c.76-.071,1.361-.113,1.814-.139v9.384l1.328-.308c12.123-2.826,21.024-1.6,28.006,3.841l.666.526.67-.526c6.98-5.446,15.883-6.666,28.008-3.841l1.326.308V50.833c.621.037,1.528.105,2.723.233l.14.006c2.444.11,2.78-1.137,2.78-1.137A3.318,3.318,0,0,0,100.9,47.985Z"/><path class="cls-4" d="M39.768,211.443c-1.155,1.5-3.1,1.736-5.182.13a8.517,8.517,0,0,1-2.254-2.556l1.11-1.437c.083-.107.212-.1.345.02l.676.6a.143.143,0,0,1,.036.2l-.471.66a8.94,8.94,0,0,0,1.34,1.358c1.081.834,2.208,1.118,2.97.132.816-1.057.578-1.582-.747-3.648-.945-1.527-1.336-2.91-.318-4.228,1.147-1.484,3.037-1.6,5.044-.048a10.876,10.876,0,0,1,1.918,1.861l-1.2,1.556c-.082.107-.211.1-.345-.02l-.675-.6a.143.143,0,0,1-.036-.2l.471-.66a10.7,10.7,0,0,0-.892-.784c-1.1-.853-2.223-.9-2.856-.083-.661.855-.4,1.549.776,3.388C40.716,208.989,40.686,210.256,39.768,211.443Z"/><path class="cls-4" d="M51.281,220.171a.111.111,0,0,1,.044.164l-.931,1.577-6.268-3.694c-.1-.061-.109-.169-.021-.291l.42-.623a.128.128,0,0,1,.165-.042l.39.195,4.752-8.066-.385-.262c-.091-.053-.077-.167,0-.275l.42-.624a.11.11,0,0,1,.164-.042l6.049,3.564-.929,1.577c-.061.1-.169.109-.29.021l-.625-.42a.125.125,0,0,1-.041-.164l.194-.391-3.218-1.9-1.8,3.063,3.646,2.148-.7,1.189-3.645-2.148-1.987,3.374,3.438,2.026.262-.385c.053-.091.166-.077.275,0Z"/><path class="cls-4" d="M64.408,226.3a.112.112,0,0,1,.064.158l-.726,1.681-6.683-2.882c-.11-.048-.129-.155-.056-.286l.338-.671a.127.127,0,0,1,.158-.063l.411.145,3.709-8.6-.416-.212c-.1-.042-.1-.156-.028-.274l.338-.672a.11.11,0,0,1,.158-.062l6.448,2.781L67.4,219.03c-.047.111-.154.13-.285.057l-.671-.339a.126.126,0,0,1-.063-.158l.144-.411-3.43-1.48-1.409,3.266,3.885,1.676-.546,1.268-3.886-1.677-1.551,3.6,3.665,1.581.213-.415c.041-.1.155-.1.273-.029Z"/><path class="cls-4" d="M82.194,221.77c.115.033.148.136.094.276l-.248.71a.125.125,0,0,1-.147.083l-.426-.089-4.7,2.792,2.06,6.189.425.151c.1.029.116.142.065.267l-.246.71a.11.11,0,0,1-.148.083l-1.545-.434-2.033-6.12-1.308.77-.841,2.988.439.155c.1.029.117.142.066.268l-.248.71a.11.11,0,0,1-.147.083l-2.469-.695c-.115-.032-.149-.136-.094-.276l.246-.71a.127.127,0,0,1,.149-.082l.426.089,2.536-9.01-.439-.155c-.1-.029-.117-.142-.065-.268l.247-.71a.11.11,0,0,1,.147-.083l2.469.7c.115.032.149.135.094.276l-.246.71a.128.128,0,0,1-.148.083l-.427-.089L74.6,225.165l4.916-2.964-.439-.155c-.1-.028-.116-.141-.064-.267l.246-.71a.11.11,0,0,1,.148-.083Z"/><path class="cls-4" d="M108.625,224.831c.121.006.175.1.153.249l-.085.746a.124.124,0,0,1-.126.114l-.421.008-3.052,9.834a.689.689,0,0,1-.716.488l-1.168-.105c-.164-.009-.218-.117-.255-.284l-1.581-8.874h-.016l-2.444,8.273a.8.8,0,0,1-.832.663l-1.122-.1c-.134-.006-.22-.086-.255-.283l-1.927-10.3-.447-.054c-.106-.006-.146-.113-.124-.247l.084-.746a.111.111,0,0,1,.127-.114l2.473.129c.12.006.175.1.152.248l-.084.747a.127.127,0,0,1-.126.114l-.421.008,1.463,8.837h.014l2.623-9.075c.147-.518.411-.685.77-.651l.852.09c.149.023.2.1.239.3l1.676,9.659h.014l2.465-8.632-.448-.053c-.105-.006-.145-.114-.123-.248l.084-.747a.111.111,0,0,1,.127-.113Z"/><path class="cls-4" d="M118.028,234.619c.1-.008.157.092.154.228l.019.752a.113.113,0,0,1-.11.13l-2.556.214c-.12.01-.186-.074-.185-.225l-.018-.751a.127.127,0,0,1,.109-.13l.431-.067-.784-9.326-.467.009c-.1.009-.157-.092-.154-.227l-.018-.752a.109.109,0,0,1,.109-.129l2.556-.216c.12-.009.187.075.184.225l.019.752a.126.126,0,0,1-.11.129l-.431.067.785,9.326Z"/><path class="cls-4" d="M132.183,230.3c.357,1.855-.751,3.475-3.329,3.97a8.528,8.528,0,0,1-3.406,0l-.343-1.783c-.025-.132.063-.225.243-.245l.895-.111a.143.143,0,0,1,.172.1l.184.79a8.986,8.986,0,0,0,1.9-.107c1.341-.258,2.3-.916,2.062-2.139-.252-1.31-.8-1.479-3.228-1.852-1.768-.3-3.064-.922-3.379-2.557-.354-1.841.81-3.333,3.3-3.812a10.87,10.87,0,0,1,2.663-.207l.372,1.929c.025.132-.065.226-.244.245l-.894.112a.146.146,0,0,1-.174-.1l-.182-.789a10.844,10.844,0,0,0-1.178.15c-1.369.264-2.145,1.07-1.95,2.086.2,1.061.9,1.325,3.054,1.658C130.971,227.966,131.9,228.826,132.183,230.3Z"/><path class="cls-4" d="M139.785,219.391c4.408-1.481,6.272.25,7.39,3.578,1.389,4.137-.114,6.257-3.938,7.541l-3.014,1.014c-.114.037-.2-.029-.233-.175l-.2-.726a.124.124,0,0,1,.075-.152l.4-.167-2.982-8.872-.45.119c-.1.033-.175-.052-.2-.184l-.2-.726a.11.11,0,0,1,.075-.152Zm3.42,9.706c3.014-1.013,3.014-3.323,2.254-5.584-.841-2.5-2-3.965-5.268-2.867l-1.236.416,2.857,8.5Z"/><path class="cls-4" d="M161.243,216.468c1.783,3.551,1.076,6.054-1.551,7.373-2.6,1.3-5.083.337-6.839-3.161-1.266-2.52-1.7-5.758,1.57-7.4C157.225,211.873,159.668,213.332,161.243,216.468Zm-6.808,3.385c.88,1.755,2.427,3.832,4.625,2.728,1.823-.915,1.833-2.867.588-5.346-.9-1.8-2.455-3.785-4.613-2.7C152.838,215.637,153.56,218.11,154.435,219.853Z"/><path class="cls-4" d="M179.3,210.134c.086-.061.183,0,.25.117l.4.638a.11.11,0,0,1-.029.168l-2.054,1.459c-.1.069-.2.03-.273-.1l-.4-.637a.125.125,0,0,1,.029-.167l.325-.268-4.287-5.75,1.554,7.213a.574.574,0,0,1-.127.623c-.135.1-.343.243-.474.318a.316.316,0,0,1-.369.023l-6.54-3.947,3.993,5.958.4-.244c.086-.061.183,0,.248.117l.4.637a.112.112,0,0,1-.028.168l-2.006,1.424c-.1.069-.2.031-.274-.1l-.4-.638a.125.125,0,0,1,.029-.166L170,216.7l-5.15-7.822-.384.236c-.085.061-.183,0-.249-.118l-.4-.637a.112.112,0,0,1,.029-.168l1.467-1.042a.165.165,0,0,1,.183,0l7.695,4.617-1.9-8.638a.259.259,0,0,1,.116-.3l1.528-1.086c.1-.069.2-.031.274.1l.4.637a.126.126,0,0,1-.027.167l-.338.277,5.676,7.449Z"/><path class="cls-1" d="M7.875,178.7l12.152-11.227,2.758-2.6,1.539,2.547a99.39,99.39,0,0,0,8.815,12.362l4.123-3.75a86.284,86.284,0,0,1-13.5-22.535,85.375,85.375,0,0,1-3.217-9.446l-6.612,16.975L0,162.977c.021.059.043.117.064.172Z"/><path class="cls-3" d="M171.65,22.623V54.494c-8.556-3.141-18.873-.639-24.347,3.392V26.312C152.111,21.628,163.445,19.536,171.65,22.623Z"/><path class="cls-3" d="M120.6,22.707v31.87c8.55-3.141,18.869-.639,24.345,3.393V26.4C140.139,21.712,128.805,19.619,120.6,22.707Z"/><path class="cls-4" d="M178.986,47.985l-.07-.011c-1.224-.131-2.157-.2-2.793-.238V37.341c.621.037,1.528.1,2.723.233l.14,0c2.444.11,2.78-1.136,2.78-1.136a3.32,3.32,0,0,0-2.78-1.952l-.07-.008c-1.224-.132-2.157-.2-2.793-.241v-8.78h-2.162V57.505c-11.776-2.513-20.676-1.218-27.842,4.039-7.162-5.257-16.062-6.55-27.838-4.039V25.461h-2.162v8.78c-.454.027-1.054.069-1.814.139v-.326a.452.452,0,0,0-.483-.441l-2.937.317a.445.445,0,0,0-.42.446v3.758a.451.451,0,0,0,.5.435l2.925-.286a.458.458,0,0,0,.411-.447v-.358c.76-.072,1.361-.114,1.814-.14v10.4c-.454.027-1.054.069-1.814.14v-.332a.451.451,0,0,0-.483-.438l-2.937.318a.443.443,0,0,0-.42.45v3.75a.455.455,0,0,0,.5.439l2.925-.3a.443.443,0,0,0,.411-.441V50.97c.76-.071,1.361-.113,1.814-.139v9.384l1.328-.308c12.123-2.826,21.024-1.6,28.006,3.841l.666.526.67-.526c6.98-5.446,15.883-6.666,28.008-3.841l1.326.308V50.833c.621.037,1.528.105,2.723.233l.14.006c2.444.11,2.78-1.137,2.78-1.137A3.318,3.318,0,0,0,178.986,47.985Z"/><path class="cls-1" d="M206.085,178.7l-12.152-11.227-2.758-2.6-1.539,2.547a99.39,99.39,0,0,1-8.815,12.362l-4.123-3.75A86.284,86.284,0,0,0,190.2,153.5a85.375,85.375,0,0,0,3.217-9.446l6.611,16.975,13.936,1.951c-.022.059-.043.117-.065.172Z"/><path class="cls-4" d="M111.236,155.848c4.879,2.44,9.063,3.647,11.592,3.484.076,0,.262-.007.34-.011a6.692,6.692,0,0,0,2.812-.805,5.177,5.177,0,0,0,1.694-1.564,3.91,3.91,0,0,0,.758-2.135,8.315,8.315,0,0,1-.924.291c-.078.019-.27.057-.348.074-2.834.443-6.381.059-11.275-1.267a4.376,4.376,0,0,1-4.2.98C111.539,155.223,111.391,155.534,111.236,155.848Z"/><path class="cls-4" d="M118.17,129.071a8.224,8.224,0,0,1-.434.906,6.741,6.741,0,0,1-2.736,2.7c.012.323.016.645.019.971,2.1-.914,4.231-1.965,6.352-3.105,7.871-4.219,13.424-8.909,15.147-12.246.042-.08.148-.27.187-.352a7.674,7.674,0,0,0,.891-3.3,5.557,5.557,0,0,0-2.055-4.512,39.7,39.7,0,0,1-8.69,12.069A50.512,50.512,0,0,1,118.17,129.071Z"/><path class="cls-4" d="M117.107,148.94a5.2,5.2,0,0,1-3.3,1.58,7.269,7.269,0,0,1-.815.031c-.082.287-.17.567-.264.848,7.077,1.976,12.989,2.4,16.014,1.432.074-.02.266-.075.34-.1a7.037,7.037,0,0,0,2.672-1.535,5.474,5.474,0,0,0,1.332-2.037,3.64,3.64,0,0,0,.217-1.612,13.706,13.706,0,0,1-1.772.684C128.76,149.243,124.021,149.45,117.107,148.94Z"/><path class="cls-4" d="M137.072,130.584c-2.611,2.872-9.342,6.061-18.26,8.206a5.876,5.876,0,0,1-2.978,2.246,6.8,6.8,0,0,1-1.158.314c-.035.3-.073.586-.108.885.7-.024,1.405-.057,2.112-.1,8.92-.5,15.933-2.406,18.9-4.7l.32-.232a7.813,7.813,0,0,0,2.207-2.622,6.013,6.013,0,0,0,.615-2.627,4.56,4.56,0,0,0-.658-2.558,9.471,9.471,0,0,1-.707.881C137.3,130.352,137.139,130.512,137.072,130.584Z"/><path class="cls-4" d="M121.609,161.639c-2.812-.064-6.855-1.338-11.578-3.693-.221.367-.437.719-.668,1.062a42.734,42.734,0,0,0,9.584,3.817c-.129.144-.265.287-.426.435a5.211,5.211,0,0,1-2,1.147,6.55,6.55,0,0,1-2.923.142c-.079-.009-.26-.047-.334-.062a17.576,17.576,0,0,1-6.084-2.739c-.282.286-.565.553-.852.807a22.7,22.7,0,0,0,6.5,3.2,4.143,4.143,0,0,1-1.572.762,5.517,5.517,0,0,1-2.414-.008c-.063-.012-.207-.053-.27-.064a13.978,13.978,0,0,1-4.56-2.287,10.754,10.754,0,0,1-1.207.519,10.369,10.369,0,0,1-2.623.44,9.513,9.513,0,0,1-6.59-3c-.08-.075-.664.525-.584.6a9.808,9.808,0,0,0,7.125,3.385,9.616,9.616,0,0,0,3.594-.756,13.225,13.225,0,0,0,5.23,2.391c.068.011.232.045.3.054a6.061,6.061,0,0,0,2.652-.134,4.652,4.652,0,0,0,1.811-1.038,4.724,4.724,0,0,0,.562-.591,7.165,7.165,0,0,0,2.848-.211,5.674,5.674,0,0,0,2.2-1.264,5.032,5.032,0,0,0,1.24-1.424,11.056,11.056,0,0,0,2.475-.174,3.108,3.108,0,0,0,1.615-.705,2.626,2.626,0,0,0,.75-1,11.375,11.375,0,0,1-3.279.418C122.018,161.661,121.728,161.647,121.609,161.639Z"/><path class="cls-4" d="M126.109,130.131a52.118,52.118,0,0,1-6.82,3.526,7.78,7.78,0,0,1-.953,1.3,6.664,6.664,0,0,1-3.352,2.1c-.013.316-.033.637-.047.951,1.305-.295,2.631-.631,3.956-.988,8.617-2.344,15.082-5.666,17.511-8.533.059-.065.207-.227.262-.3a7.746,7.746,0,0,0,1.615-3.018,4.881,4.881,0,0,0-.9-4.534C134.943,123.959,130.982,127.139,126.109,130.131Z"/><path class="cls-4" d="M136.389,138.811c-.075.061-.291.217-.364.273-2.849,2.2-9.2,3.975-17.42,4.68l-.007,0a7.912,7.912,0,0,1-2.043,1.531A7.508,7.508,0,0,1,114,146c-.059.319-.125.5-.189.819.054.006.1.008.156.017,8.873,1.053,16.111.4,19.433-1.349.082-.041.28-.133.356-.17a7.876,7.876,0,0,0,2.629-2.2,6.08,6.08,0,0,0,1.064-2.477,4.381,4.381,0,0,0-.195-2.559A9.229,9.229,0,0,1,136.389,138.811Z"/><path class="cls-4" d="M118.377,121.972a6.976,6.976,0,0,1-.994,3.423,6.758,6.758,0,0,1-2.7,2.687c.034.334.067.665.1,1a48.539,48.539,0,0,0,10.529-7.909,38.887,38.887,0,0,0,8.508-11.8,7.722,7.722,0,0,0,.569-3.566c-.186-2.682-1.588-4.91-3.375-5.65a8.059,8.059,0,0,1-.061,1.594c-.392,3.734-3.855,10.147-9.656,16.941C120.338,119.815,119.367,120.917,118.377,121.972Z"/><path class="cls-4" d="M119.8,117.763c5.722-6.865,9.1-13.319,9.453-17.059.285-2.346-.311-4.52-1.629-5.287-.106,3.339-4.637,11.474-11.82,20.577.673,1.265.365,3.393-.727,5.256a6.056,6.056,0,0,1-1.23,1.5c.084.408.16.841.234,1.257A81.845,81.845,0,0,0,119.8,117.763Z"/><path d="M74.521,121.661a5.234,5.234,0,0,0-.529-.18c.076.8.08,1.656.076,2.549a24.928,24.928,0,0,1-.756,6.013.884.884,0,0,0,.483,1.065.791.791,0,0,0,.4.049l.008-.024a44.34,44.34,0,0,1,2.7-5.177q.3-.5.6-.987A4.973,4.973,0,0,0,74.521,121.661Z"/><path d="M141.076,131.8a8.057,8.057,0,0,0-1.209-3.746,7.511,7.511,0,0,0,1.211-4.525,8.233,8.233,0,0,0-1.805-4.943,7.968,7.968,0,0,0,.975-4.252,8.179,8.179,0,0,0-3.449-6.621,11.16,11.16,0,0,0,.072-1.647c-.129-4.279-1.977-6.975-4.943-8.125a13.113,13.113,0,0,0-4.545-7.294c-2.244,9.517-9.309,18.666-11.856,22.281-4.1,5.813-5.054,11.341-7.336,18.011-2.693,7.869-4.582,16.23-11.8,21.184a21.657,21.657,0,0,1,.137-2.426c1.188-10.721,9.852-28.173,6.715-38.349a15.357,15.357,0,0,0-.672-1.807c-3.088-6.977-10.111-8.062-17.3-4.817-4.48,2.018-9.136,3.726-11.279,8.614a11.286,11.286,0,0,0-.969,5.7.912.912,0,0,0,.58.806,1.056,1.056,0,0,0,1.221-.608,3.154,3.154,0,0,0,.369-1.345.35.35,0,0,1,.008-.064,1.278,1.278,0,0,1,.078-.367,1.005,1.005,0,1,1,1.856.755,1.134,1.134,0,0,1-.149.265,6.375,6.375,0,0,0-.385.6,4.439,4.439,0,0,0-.5,1.39,1.324,1.324,0,0,0,.789,1.4c.038.02.1.047.135.064,2.033.829,4.453-.229,5.908-2.385a20.651,20.651,0,0,0,1.5-2.708c.719-1.545.682-3.119,1.852-4.489,1.967-2.288,7.707-3.786,10.2-.756,4.854,5.891-.543,13.511-3.908,18.521-4.238,6.31-10.137,13.535-13.1,20.64-7.75,18.567,5.477,36.784,26.807,36.784,13.547,0,22-5.9,26.809-12.95a21.846,21.846,0,0,1-14.282-6.707,4.382,4.382,0,0,0,3.049-2.2s.865-.1,1.637-.2a4.9,4.9,0,0,0,4.289-3.279,10.839,10.839,0,0,0,.641-2.858,4.212,4.212,0,0,0,1.972-2.205,5.073,5.073,0,0,0,.524-2.389,7.96,7.96,0,0,0,4.679-4.894,5.563,5.563,0,0,0,.455-3.028c2.411-1.21,4.225-4.634,4.131-7.41a7.015,7.015,0,0,0-.617-2.609A6.847,6.847,0,0,0,141.076,131.8Zm-3.631,8.844a6.08,6.08,0,0,1-1.064,2.477,7.876,7.876,0,0,1-2.629,2.2c-.076.037-.274.129-.356.17-3.322,1.748-10.56,2.4-19.433,1.349-.059-.009-.1-.011-.156-.017.064-.315.13-.5.189-.819a7.508,7.508,0,0,0,2.559-.7,7.912,7.912,0,0,0,2.043-1.531l.007,0c8.217-.705,14.571-2.478,17.42-4.68.073-.056.289-.212.364-.273a9.229,9.229,0,0,0,.861-.729A4.381,4.381,0,0,1,137.445,140.641Zm-4.357,8.52a5.474,5.474,0,0,1-1.332,2.037,7.037,7.037,0,0,1-2.672,1.535c-.074.023-.266.078-.34.1-3.025.97-8.937.544-16.014-1.432.094-.281.182-.561.264-.848a7.269,7.269,0,0,0,.815-.031,5.2,5.2,0,0,0,3.3-1.58c6.914.51,11.653.3,14.426-.707a13.706,13.706,0,0,0,1.772-.684A3.64,3.64,0,0,1,133.088,149.161Zm-10.045,13.8a11.056,11.056,0,0,1-2.475.174,5.032,5.032,0,0,1-1.24,1.424,5.674,5.674,0,0,1-2.2,1.264,7.165,7.165,0,0,1-2.848.211,4.724,4.724,0,0,1-.562.591,4.652,4.652,0,0,1-1.811,1.038,6.061,6.061,0,0,1-2.652.134c-.069-.009-.233-.043-.3-.054a13.225,13.225,0,0,1-5.23-2.391,9.616,9.616,0,0,1-3.594.756A9.808,9.808,0,0,1,93,162.721c-.08-.076.5-.676.584-.6a9.513,9.513,0,0,0,6.59,3,10.369,10.369,0,0,0,2.623-.44,10.754,10.754,0,0,0,1.207-.519,13.978,13.978,0,0,0,4.56,2.287c.063.011.207.052.27.064a5.517,5.517,0,0,0,2.414.008,4.143,4.143,0,0,0,1.572-.762,22.7,22.7,0,0,1-6.5-3.2c.287-.254.57-.521.852-.807a17.576,17.576,0,0,0,6.084,2.739c.074.015.255.053.334.062a6.55,6.55,0,0,0,2.923-.142,5.211,5.211,0,0,0,2-1.147c.161-.148.3-.291.426-.435a42.734,42.734,0,0,1-9.584-3.817c.231-.343.447-.7.668-1.062,4.723,2.355,8.766,3.629,11.578,3.693.119.008.409.022.52.029a11.375,11.375,0,0,0,3.279-.418,2.626,2.626,0,0,1-.75,1A3.108,3.108,0,0,1,123.043,162.959Zm.125-3.638c-.078,0-.264.008-.34.011-2.529.163-6.713-1.044-11.592-3.484.155-.314.3-.625.449-.953a4.376,4.376,0,0,0,4.2-.98c4.894,1.326,8.441,1.71,11.275,1.267.078-.017.27-.055.348-.074a8.315,8.315,0,0,0,.924-.291,3.91,3.91,0,0,1-.758,2.135,5.177,5.177,0,0,1-1.694,1.564A6.692,6.692,0,0,1,123.168,159.321Zm6.088-58.617c-.348,3.74-3.731,10.194-9.453,17.059A81.845,81.845,0,0,1,114.084,124c-.074-.416-.15-.849-.234-1.257a6.056,6.056,0,0,0,1.23-1.5c1.092-1.863,1.4-3.991.727-5.256,7.183-9.1,11.714-17.238,11.82-20.577C128.945,96.184,129.541,98.358,129.256,100.7Zm1.756-.543c1.787.74,3.189,2.968,3.375,5.65a7.722,7.722,0,0,1-.569,3.566,38.887,38.887,0,0,1-8.508,11.8,48.539,48.539,0,0,1-10.529,7.909c-.029-.339-.062-.67-.1-1a6.758,6.758,0,0,0,2.7-2.687,6.976,6.976,0,0,0,.994-3.423c.99-1.055,1.961-2.157,2.918-3.276,5.8-6.794,9.264-13.207,9.656-16.941A8.059,8.059,0,0,0,131.012,100.161Zm7.269,25.019a7.746,7.746,0,0,1-1.615,3.018c-.055.07-.2.232-.262.3-2.429,2.867-8.894,6.189-17.511,8.533-1.325.357-2.651.693-3.956.988.014-.314.034-.635.047-.951a6.664,6.664,0,0,0,3.352-2.1,7.78,7.78,0,0,0,.953-1.3,52.118,52.118,0,0,0,6.82-3.526c4.873-2.992,8.834-6.172,11.27-9.485A4.881,4.881,0,0,1,138.281,125.18Zm-1.576-7.238c-.039.082-.145.272-.187.352-1.723,3.337-7.276,8.027-15.147,12.246-2.121,1.14-4.252,2.191-6.352,3.105,0-.326-.007-.648-.019-.971a6.741,6.741,0,0,0,2.736-2.7,8.224,8.224,0,0,0,.434-.906,50.512,50.512,0,0,0,8.681-6.874,39.7,39.7,0,0,0,8.69-12.069,5.557,5.557,0,0,1,2.055,4.512A7.674,7.674,0,0,1,136.705,117.942Zm-.8,19.264-.32.232c-2.971,2.3-9.984,4.2-18.9,4.7-.707.039-1.409.072-2.112.1.035-.3.073-.582.108-.885a6.8,6.8,0,0,0,1.158-.314,5.876,5.876,0,0,0,2.978-2.246c8.918-2.145,15.649-5.334,18.26-8.206.067-.072.227-.232.289-.3a9.471,9.471,0,0,0,.707-.881,4.56,4.56,0,0,1,.658,2.558,6.013,6.013,0,0,1-.615,2.627A7.813,7.813,0,0,1,135.9,137.206Z"/><path class="cls-1" d="M270.079,6.3v5.852c0,.384-.289.576-.768.527l-2.4-.143a.4.4,0,0,1-.383-.384l-.1-1.392v-.048h-7.29V39.871l1.487.1c.336,0,.479.336.432.767l-.144,2.4a.353.353,0,0,1-.384.384h-8.2c-.383,0-.575-.287-.528-.768l.145-2.4a.4.4,0,0,1,.383-.384l1.391-.1V10.707h-6.764l-.095,1.487c0,.337-.335.48-.767.432l-2.4-.144a.351.351,0,0,1-.383-.382V6.3Z"/><path class="cls-1" d="M305.814,39.967c.336,0,.479.336.431.767l-.144,2.4a.352.352,0,0,1-.384.384h-8.2c-.383,0-.575-.287-.527-.768l.144-2.4a.4.4,0,0,1,.383-.384l1.392-.1v-12.9H282.214v12.9l1.487.1c.337,0,.48.336.432.767l-.144,2.4a.353.353,0,0,1-.384.384h-8.2c-.385,0-.575-.287-.528-.768l.143-2.4a.4.4,0,0,1,.385-.384l1.392-.1V9.94l-1.487-.095c-.336,0-.48-.336-.433-.768l.143-2.4A.354.354,0,0,1,275.4,6.3h8.2c.384,0,.576.288.528.767l-.144,2.4a.4.4,0,0,1-.384.384l-1.391.095V22.507h16.693V9.94l-1.487-.095c-.336,0-.48-.336-.432-.768l.144-2.4a.353.353,0,0,1,.383-.384h8.2c.384,0,.576.288.528.767l-.144,2.4a.4.4,0,0,1-.384.384l-1.39.095V39.871Z"/><path class="cls-1" d="M336.37,37.281a.353.353,0,0,1,.383.384v5.851H313.49c-.384,0-.575-.287-.527-.768l.143-2.4a.4.4,0,0,1,.384-.384l1.392-.1V9.94l-1.488-.095c-.335,0-.479-.336-.431-.768l.143-2.4a.354.354,0,0,1,.384-.384h22.448v5.852c0,.384-.289.576-.767.527l-2.4-.143a.4.4,0,0,1-.384-.384l-.1-1.392H320.35V22.123h13.525v4.414H320.35V39.055h12.758l.1-1.487c0-.336.336-.48.767-.432Z"/><path class="cls-1" d="M391.668,6.3c.385,0,.576.288.527.767l-.142,2.4a.405.405,0,0,1-.385.384l-1.39.095h-.145V29.8c0,9.689-3.788,14.294-13.478,14.294-9.258,0-13.286-3.118-13.286-14.294V9.94l-1.488-.095c-.336,0-.481-.336-.432-.768l.144-2.4a.353.353,0,0,1,.384-.384h8.2c.384,0,.577.288.527.767l-.143,2.4a.4.4,0,0,1-.384.384l-1.388.095V30.757c0,5.948,1.772,9.162,7.817,9.162,6.717,0,8.249-4.125,8.249-9.162V9.94l-1.485-.095c-.336,0-.481-.336-.433-.768l.145-2.4a.353.353,0,0,1,.384-.384Z"/><path class="cls-1" d="M431.863,6.3c.386,0,.578.288.529.767l-.143,2.4a.407.407,0,0,1-.386.384l-1.388.095h-.432V43.516h-3.6a.605.605,0,0,1-.529-.287L406.3,15.792V39.871h.43l1.489.1c.335,0,.48.336.431.767l-.142,2.4a.354.354,0,0,1-.385.384h-8.2c-.383,0-.575-.287-.527-.768l.144-2.4a.4.4,0,0,1,.383-.384l1.39-.1V9.94l-1.487-.095c-.334,0-.478-.336-.43-.768l.144-2.4a.353.353,0,0,1,.383-.384h5.322a.671.671,0,0,1,.579.336l19.233,26.861V9.94l-1.487-.095c-.335,0-.478-.336-.432-.768l.144-2.4a.354.354,0,0,1,.384-.384Z"/><path class="cls-1" d="M448.893,39.967c.338,0,.481.336.433.767l-.143,2.4a.354.354,0,0,1-.386.384h-8.2c-.382,0-.574-.287-.528-.768l.146-2.4a.4.4,0,0,1,.382-.384l1.391-.1V9.94L440.5,9.845c-.335,0-.479-.336-.433-.768l.146-2.4A.352.352,0,0,1,440.6,6.3h8.2c.386,0,.577.288.529.767l-.143,2.4a.407.407,0,0,1-.386.384l-1.389.095V39.871Z"/><path class="cls-1" d="M487.891,6.3c.385,0,.576.288.529.767l-.144,2.4a.4.4,0,0,1-.385.384L486.5,9.94,474.6,42.365a1.537,1.537,0,0,1-1.533,1.151l-4.03-.143c-.143,0-.239-.049-.335-.288L456.281,9.94,454.8,9.845c-.336,0-.479-.336-.431-.768l.144-2.4a.352.352,0,0,1,.381-.384h8.3c.386,0,.577.288.528.767l-.142,2.4a.407.407,0,0,1-.386.384l-1.39.095,9.64,27.052h.144l9.6-27.052-1.488-.095c-.337,0-.48-.336-.432-.768l.143-2.4a.353.353,0,0,1,.383-.384Z"/><path class="cls-1" d="M516.864,37.281a.354.354,0,0,1,.386.384v5.851H493.984c-.383,0-.575-.287-.527-.768l.144-2.4a.4.4,0,0,1,.383-.384l1.391-.1V9.94l-1.487-.095c-.335,0-.479-.336-.431-.768l.144-2.4a.353.353,0,0,1,.383-.384h22.449v5.852c0,.384-.289.576-.766.527l-2.4-.143a.4.4,0,0,1-.385-.384l-.1-1.392H500.845V22.123h13.527v4.414H500.845V39.055H513.6l.1-1.487c0-.336.336-.48.768-.432Z"/><path class="cls-1" d="M550.778,39.967c.335,0,.478.336.432.767l-.144,2.4a.352.352,0,0,1-.383.384h-5.47l-8.153-14.39h-5.275V39.871l1.488.1c.332,0,.478.336.43.767l-.144,2.4a.352.352,0,0,1-.382.384h-8.2c-.385,0-.576-.287-.528-.768l.143-2.4a.4.4,0,0,1,.385-.384l1.39-.1V9.94l-1.486-.095c-.337,0-.48-.336-.432-.768l.143-2.4a.354.354,0,0,1,.385-.384h10.84c9.353,0,13.766,3.55,13.766,11.129a10.983,10.983,0,0,1-7.1,10.7l6.81,11.752ZM535.956,24.858c5.182,0,8.156-2.255,8.156-7.434,0-4.942-2.832-6.908-7.723-6.908h-4.6V24.858Z"/><path class="cls-1" d="M580.566,33.3c0,6.043-4.461,10.455-12.856,10.455a27.243,27.243,0,0,1-10.7-2.062v-5.8c0-.431.337-.67.913-.623l2.878.192a.463.463,0,0,1,.48.431l.1,2.591a28.892,28.892,0,0,0,6.045.814c4.362,0,7.769-1.486,7.769-5.467,0-4.269-1.631-5.133-9.018-7.769-5.371-2.017-9.065-4.75-9.065-10.075,0-6,4.555-9.976,12.662-9.976a34.98,34.98,0,0,1,8.493.959V13.25c0,.432-.339.672-.915.623l-2.877-.191a.461.461,0,0,1-.481-.432l-.094-2.591a35.216,35.216,0,0,0-3.791-.239c-4.462,0-7.387,2.062-7.387,5.372,0,3.454,2.015,4.7,8.588,7.05C578.168,25.242,580.566,28.5,580.566,33.3Z"/><path class="cls-1" d="M596.109,39.967c.334,0,.477.336.429.767l-.142,2.4a.353.353,0,0,1-.383.384h-8.2c-.385,0-.577-.287-.53-.768l.145-2.4a.406.406,0,0,1,.385-.384l1.391-.1V9.94l-1.487-.095c-.337,0-.481-.336-.434-.768l.145-2.4a.354.354,0,0,1,.385-.384h8.2c.383,0,.573.288.525.767l-.142,2.4a.405.405,0,0,1-.383.384l-1.392.095V39.871Z"/><path class="cls-1" d="M629.06,6.3v5.852c0,.384-.287.576-.766.527l-2.4-.143a.4.4,0,0,1-.384-.384l-.1-1.392v-.048h-7.289V39.871l1.488.1c.334,0,.479.336.43.767l-.144,2.4a.352.352,0,0,1-.384.384h-8.2c-.385,0-.576-.287-.528-.768l.143-2.4a.4.4,0,0,1,.385-.384l1.39-.1V10.707h-6.762l-.1,1.487c0,.337-.337.48-.769.432l-2.4-.144a.353.353,0,0,1-.385-.382V6.3Z"/><path class="cls-1" d="M661.391,6.3c.381,0,.575.288.528.767l-.147,2.4a.4.4,0,0,1-.381.384L660,9.94,649.543,30.422v9.449l1.486.1c.337,0,.481.336.433.767l-.143,2.4a.352.352,0,0,1-.384.384h-8.2c-.382,0-.576-.287-.528-.768l.146-2.4a.4.4,0,0,1,.382-.384l1.389-.1V30.325L633.81,9.94l-1.439-.095c-.335,0-.48-.336-.433-.768l.146-2.4a.353.353,0,0,1,.383-.384h8.2c.382,0,.575.288.528.767l-.146,2.4a.4.4,0,0,1-.382.384l-1.343.095,7.483,15.445h.144L654.677,9.94l-1.49-.095c-.335,0-.478-.336-.429-.768l.142-2.4a.354.354,0,0,1,.384-.384Z"/><path class="cls-1" d="M709.942,24.953c0,12.712-5.611,18.851-15.011,18.851-9.305,0-15.014-6.331-15.014-18.851,0-9.018,3.4-18.9,15.108-18.9C705.051,6.056,709.942,13.73,709.942,24.953Zm-24.316-.095c0,6.284,1.438,14.436,9.305,14.436,6.522,0,9.352-5.563,9.352-14.436,0-6.428-1.583-14.342-9.305-14.342C687.112,10.516,685.626,18.623,685.626,24.858Z"/><path class="cls-1" d="M738.676,6.3v5.852c0,.384-.288.576-.767.527l-2.4-.143a.4.4,0,0,1-.384-.384l-.1-1.392H723.039V22.123h13v4.414h-13V39.871l1.488.1c.335,0,.481.336.432.767l-.144,2.4a.353.353,0,0,1-.384.384h-8.205c-.38,0-.572-.287-.525-.768l.145-2.4a.4.4,0,0,1,.38-.384l1.393-.1V9.94l-1.485-.095c-.337,0-.48-.336-.433-.768l.145-2.4a.351.351,0,0,1,.38-.384Z"/><path class="cls-1" d="M345.026,60.833c.847,0,1.272.637,1.166,1.7l-.319,5.3a.891.891,0,0,1-.847.848l-2.97.212-17.919,70.516a4.886,4.886,0,0,1-4.879,3.712l-8.27-.318c-1.168,0-1.593-.743-1.911-1.909L294.656,78.86h-.105l-14.209,59.275c-.532,2.122-1.909,5.091-5.621,4.985l-7.953-.318c-.954,0-1.589-.531-1.908-1.909l-17.39-72-3.181-.212c-.742,0-1.061-.742-.956-1.7l.319-5.3a.781.781,0,0,1,.848-.849H262c.848,0,1.272.637,1.167,1.7l-.319,5.3a.891.891,0,0,1-.848.848l-2.97.212,13.574,61.82h.106l15.163-65c.848-3.711,2.651-4.984,5.2-4.878l6.044.318c1.059.106,1.483.637,1.8,2.015l15.375,67.546h.106l14.21-61.82-3.181-.212c-.742,0-1.061-.742-.955-1.7l.318-5.3a.781.781,0,0,1,.848-.849Z"/><path class="cls-1" d="M403.765,129.334a.781.781,0,0,1,.848.849V143.12H353.186c-.848,0-1.273-.637-1.168-1.7l.32-5.3a.889.889,0,0,1,.848-.848l3.074-.213V68.892l-3.287-.212c-.742,0-1.06-.742-.955-1.7l.32-5.3a.78.78,0,0,1,.848-.849h49.625V73.77c0,.848-.637,1.272-1.7,1.166l-5.3-.318a.892.892,0,0,1-.849-.848l-.21-3.075h-26.4V95.826h29.9v9.756h-29.9v27.676h28.206l.212-3.288c0-.741.742-1.06,1.7-.954Z"/><path class="cls-1" d="M464.629,120.534c0,13.36-9.861,23.116-28.419,23.116a60.254,60.254,0,0,1-23.646-4.561V126.26c0-.955.741-1.486,2.015-1.38l6.361.425a1.021,1.021,0,0,1,1.062.955l.211,5.725a63.774,63.774,0,0,0,13.362,1.8c9.651,0,17.176-3.286,17.176-12.087,0-9.438-3.6-11.346-19.935-17.179-11.876-4.454-20.041-10.5-20.041-22.268,0-13.254,10.075-22.056,28-22.056a77.167,77.167,0,0,1,18.768,2.12V76.209c0,.954-.741,1.485-2.013,1.378l-6.362-.424a1.019,1.019,0,0,1-1.062-.954l-.21-5.726a77.346,77.346,0,0,0-8.377-.53c-9.862,0-16.332,4.559-16.332,11.876,0,7.634,4.455,10.392,18.981,15.587C459.327,102.718,464.629,109.93,464.629,120.534Z"/><path class="cls-1" d="M528.037,60.833V73.77c0,.848-.637,1.272-1.7,1.166l-5.3-.318a.892.892,0,0,1-.848-.848l-.212-3.075v-.106H503.859V135.06l3.288.213c.743,0,1.06.742.954,1.7l-.319,5.3a.779.779,0,0,1-.848.849H488.8c-.849,0-1.273-.637-1.167-1.7l.318-5.3a.89.89,0,0,1,.849-.848l3.074-.213V70.589H476.926l-.211,3.286c0,.743-.744,1.061-1.7.956l-5.3-.319a.779.779,0,0,1-.849-.848V60.833Z"/><path class="cls-1" d="M587.521,129.334a.78.78,0,0,1,.848.849V143.12H536.94c-.849,0-1.273-.637-1.166-1.7l.317-5.3a.893.893,0,0,1,.849-.848l3.077-.213V68.892l-3.289-.212c-.742,0-1.061-.742-.954-1.7l.317-5.3a.781.781,0,0,1,.849-.849h49.626V73.77c0,.848-.634,1.272-1.7,1.166l-5.3-.318a.89.89,0,0,1-.848-.848l-.213-3.075H552.1V95.826h29.905v9.756H552.1v27.676H580.31l.212-3.288c0-.741.744-1.06,1.7-.954Z"/><path class="cls-1" d="M656.55,135.273c.743,0,1.058.742.953,1.7l-.318,5.3a.781.781,0,0,1-.849.849H644.249l-18.028-31.812H614.558V135.06l3.287.213c.741,0,1.059.742.955,1.7l-.32,5.3a.78.78,0,0,1-.846.849H599.5c-.849,0-1.274-.637-1.165-1.7l.316-5.3a.891.891,0,0,1,.849-.848l3.076-.213V68.892l-3.287-.212c-.744,0-1.063-.742-.954-1.7l.316-5.3a.782.782,0,0,1,.849-.849h23.965c20.678,0,30.433,7.847,30.433,24.6,0,10.71-5.623,19.829-15.693,23.647l15.057,25.979Zm-32.767-33.4c11.452,0,18.027-4.984,18.027-16.436,0-10.922-6.256-15.269-17.073-15.269H614.558V101.87Z"/><path class="cls-1" d="M737.875,60.833c.849,0,1.274.637,1.167,1.7l-.318,5.3a.889.889,0,0,1-.849.848l-3.073.212h-.954V143.12h-7.954a1.332,1.332,0,0,1-1.167-.637L681.358,81.829V135.06h.954l3.288.213c.742,0,1.062.742.954,1.7l-.318,5.3a.781.781,0,0,1-.849.849H667.255c-.848,0-1.274-.637-1.166-1.7l.318-5.3a.889.889,0,0,1,.848-.848l3.074-.213V68.892l-3.288-.212c-.74,0-1.06-.742-.952-1.7l.318-5.3a.781.781,0,0,1,.848-.849h11.77a1.475,1.475,0,0,1,1.273.743l42.52,59.382V68.892l-3.287-.212c-.742,0-1.058-.742-.954-1.7l.319-5.3a.78.78,0,0,1,.848-.849Z"/><path class="cls-1" d="M306.186,223.634c.636,0,.908.635.817,1.452l-.272,4.537a.648.648,0,0,1-.634.726h-15.88c-.726,0-1.09-.545-1-1.452l.272-4.537a.762.762,0,0,1,.726-.726l2.54-.181-3.538-10.072H260.454L257.1,223.453l2.812.181c.635,0,.908.635.817,1.452l-.272,4.537a.668.668,0,0,1-.727.726H244.393c-.726,0-1.09-.545-1-1.452l.272-4.537a.763.763,0,0,1,.726-.726l2.541-.181,20.324-56.622-2.722-.181c-.634,0-.907-.635-.816-1.452l.272-4.537a.668.668,0,0,1,.728-.725h14.425l24.32,63.517Zm-19.872-18.6-11.8-33.483h-.089l-11.163,33.483Z"/><path class="cls-1" d="M363.712,159.936c.723,0,1.088.543,1,1.451l-.274,4.536a.76.76,0,0,1-.723.727l-2.633.181h-.272V204.4c0,18.329-7.168,27.04-25.5,27.04-17.513,0-25.135-5.9-25.135-27.04V166.831l-2.812-.181c-.636,0-.908-.635-.817-1.452l.271-4.537a.668.668,0,0,1,.727-.725h15.516c.726,0,1.089.543,1,1.451l-.273,4.536a.763.763,0,0,1-.726.727l-2.631.181v39.381c0,11.252,3.357,17.332,14.79,17.332,12.7,0,15.607-7.8,15.607-17.332V166.831l-2.812-.181c-.636,0-.908-.635-.817-1.452l.273-4.537a.667.667,0,0,1,.725-.725Z"/><path class="cls-1" d="M415.156,211.021c0,11.434-8.438,19.781-24.319,19.781a51.6,51.6,0,0,1-20.235-3.9V215.922c0-.817.637-1.272,1.726-1.18l5.442.363a.872.872,0,0,1,.909.817l.18,4.9a54.575,54.575,0,0,0,11.434,1.542c8.257,0,14.7-2.812,14.7-10.344,0-8.076-3.083-9.708-17.058-14.7-10.165-3.811-17.15-8.983-17.15-19.055,0-11.343,8.62-18.875,23.955-18.875a66,66,0,0,1,16.062,1.817v11.886c0,.816-.637,1.269-1.724,1.18l-5.445-.364a.87.87,0,0,1-.908-.816l-.18-4.9a66.242,66.242,0,0,0-7.169-.453c-8.441,0-13.974,3.9-13.974,10.162,0,6.534,3.811,8.893,16.24,13.339C410.618,195.777,415.156,201.947,415.156,211.021Z"/><path class="cls-1" d="M470.685,159.936v11.07c0,.725-.546,1.089-1.453,1l-4.537-.273a.759.759,0,0,1-.723-.725l-.185-2.632v-.09H449.994v55.169l2.813.181c.635,0,.91.635.82,1.452l-.275,4.537a.667.667,0,0,1-.725.726H437.11c-.724,0-1.088-.545-1-1.452l.272-4.537a.761.761,0,0,1,.724-.726l2.632-.181V168.284H426.948l-.18,2.812c0,.635-.636.908-1.452.817l-4.54-.273a.666.666,0,0,1-.722-.725V159.936Z"/><path class="cls-1" d="M527.3,223.634c.635,0,.908.635.819,1.452l-.273,4.537a.669.669,0,0,1-.728.726H516.775L501.35,203.127h-9.981v20.326l2.813.181c.634,0,.906.635.816,1.452l-.272,4.537a.667.667,0,0,1-.727.726H478.483c-.725,0-1.088-.545-1-1.452l.275-4.537a.761.761,0,0,1,.725-.726l2.632-.181V166.831l-2.812-.181c-.634,0-.908-.635-.82-1.452l.275-4.537a.667.667,0,0,1,.725-.725h20.508c17.694,0,26.042,6.714,26.042,21.05,0,9.164-4.808,16.969-13.43,20.236l12.887,22.231Zm-28.039-28.582c9.8,0,15.427-4.266,15.427-14.066,0-9.346-5.351-13.066-14.61-13.066h-8.709v27.132Z"/><path class="cls-1" d="M595.079,223.634c.635,0,.908.635.815,1.452l-.269,4.537a.648.648,0,0,1-.637.726H579.109c-.725,0-1.09-.545-1-1.452l.273-4.537a.761.761,0,0,1,.725-.726l2.54-.181-3.538-10.072H549.347l-3.358,10.072,2.812.181c.638,0,.909.635.816,1.452l-.27,4.537a.668.668,0,0,1-.725.726H533.285c-.725,0-1.089-.545-1-1.452l.272-4.537a.762.762,0,0,1,.725-.726l2.542-.181,20.323-56.622-2.72-.181c-.637,0-.907-.635-.818-1.452l.275-4.537a.666.666,0,0,1,.725-.725h14.426l24.317,63.517Zm-19.872-18.6-11.8-33.483h-.088l-11.166,33.483Z"/><path class="cls-1" d="M645.891,218.553a.665.665,0,0,1,.723.726v11.07H602.607c-.726,0-1.088-.545-1-1.452l.274-4.537a.763.763,0,0,1,.726-.726l2.631-.181V166.831l-2.812-.181c-.633,0-.907-.635-.819-1.452l.274-4.537a.666.666,0,0,1,.726-.725h15.517c.726,0,1.088.543,1,1.451l-.271,4.536a.762.762,0,0,1-.726.727l-2.632.181V221.91h24.227l.182-2.813c0-.635.634-.907,1.451-.817Z"/><path class="cls-1" d="M668.751,223.634c.636,0,.908.635.817,1.452l-.272,4.537a.668.668,0,0,1-.727.726H653.055c-.729,0-1.09-.545-1-1.452l.271-4.537a.764.764,0,0,1,.729-.726l2.63-.181V166.831l-2.813-.181c-.634,0-.907-.635-.817-1.452l.271-4.537a.669.669,0,0,1,.729-.725h15.514c.727,0,1.09.543,1,1.451l-.272,4.536a.763.763,0,0,1-.727.727l-2.63.181v56.622Z"/><path class="cls-1" d="M738.257,223.634c.636,0,.906.635.817,1.452l-.273,4.537a.647.647,0,0,1-.634.726H722.286c-.724,0-1.089-.545-1-1.452l.274-4.537a.763.763,0,0,1,.724-.726l2.541-.181-3.539-10.072H692.523l-3.355,10.072,2.811.181c.636,0,.909.635.819,1.452l-.275,4.537a.666.666,0,0,1-.724.726H676.464c-.728,0-1.091-.545-1-1.452l.271-4.537a.765.765,0,0,1,.728-.726l2.54-.181,20.324-56.622-2.721-.181c-.633,0-.907-.635-.814-1.452l.267-4.537a.669.669,0,0,1,.729-.725h14.429l24.318,63.517Zm-19.871-18.6-11.8-33.483h-.09l-11.163,33.483Z"/><path class="cls-1" d="M129.327,37.575h-4.654V30.138h4.554a2.163,2.163,0,0,1,.078.66,2.821,2.821,0,0,1-.078.682h-2.981v1.606h2.52a2.087,2.087,0,0,1,.077.649,2.78,2.78,0,0,1-.077.671h-2.52v1.826h3.081a2.187,2.187,0,0,1,.076.661A2.819,2.819,0,0,1,129.327,37.575Z"/><path class="cls-1" d="M136.015,37.563a5.863,5.863,0,0,1-.924.067,4.483,4.483,0,0,1-.825-.055L132.758,34.9h-.649v2.674a4.771,4.771,0,0,1-.8.055,4.608,4.608,0,0,1-.77-.055V30.138c.506-.034,1.562-.056,2.2-.056,1.87,0,2.806.661,2.806,2.377a2.4,2.4,0,0,1-1.32,2.156Zm-3.18-6.193c-.242,0-.539.011-.726.022v2.2h.55c.9,0,1.3-.33,1.3-1.144S133.561,31.37,132.835,31.37Z"/><path class="cls-1" d="M141.449,37.575h-4.654V30.138h4.555a2.2,2.2,0,0,1,.077.66,2.871,2.871,0,0,1-.077.682h-2.982v1.606h2.52a2.087,2.087,0,0,1,.077.649,2.78,2.78,0,0,1-.077.671h-2.52v1.826h3.081a2.187,2.187,0,0,1,.076.661A2.819,2.819,0,0,1,141.449,37.575Z"/><path class="cls-1" d="M127.017,45.162h-.771v2.663a5.031,5.031,0,0,1-.792.055,5.2,5.2,0,0,1-.781-.055V40.4c.638-.033,1.606-.067,2.233-.067,1.684,0,2.9.584,2.9,2.333C129.81,44.37,128.743,45.162,127.017,45.162Zm-.044-3.531c-.221,0-.507.011-.727.022v2.189h.683c.846,0,1.3-.22,1.3-1.122C128.226,41.95,127.842,41.631,126.973,41.631Z"/><path class="cls-1" d="M135.435,47.825h-4.653V40.388h4.555a2.171,2.171,0,0,1,.077.66,2.82,2.82,0,0,1-.077.682h-2.982v1.606h2.519a2.056,2.056,0,0,1,.077.649,2.683,2.683,0,0,1-.077.671h-2.519v1.826h3.08a2.171,2.171,0,0,1,.078.661A2.821,2.821,0,0,1,135.435,47.825Z"/><path class="cls-1" d="M142,47.813a5.845,5.845,0,0,1-.924.067,4.5,4.5,0,0,1-.825-.055l-1.507-2.674h-.649v2.674a4.763,4.763,0,0,1-.8.055,4.627,4.627,0,0,1-.771-.055V40.388c.506-.034,1.563-.056,2.2-.056,1.87,0,2.805.661,2.805,2.377a2.393,2.393,0,0,1-1.32,2.156Zm-3.179-6.193c-.242,0-.539.011-.726.022v2.2h.55c.9,0,1.3-.33,1.3-1.144S139.545,41.62,138.819,41.62Z"/><path class="cls-1" d="M159.8,37.575a4.911,4.911,0,0,1-.847.055,5.871,5.871,0,0,1-.759-.055l-.55-1.508h-2.641l-.517,1.508a6.18,6.18,0,0,1-.814.055,4.878,4.878,0,0,1-.781-.055l2.6-7.437a4.741,4.741,0,0,1,.758-.056,4.15,4.15,0,0,1,.771.056Zm-2.629-2.817-.649-2.1a8.118,8.118,0,0,1-.22-.891h-.022a6.191,6.191,0,0,1-.221.891l-.615,2.1Z"/><path class="cls-1" d="M165.93,37.563a5.854,5.854,0,0,1-.924.067,4.489,4.489,0,0,1-.825-.055L162.673,34.9h-.649v2.674a4.763,4.763,0,0,1-.8.055,4.616,4.616,0,0,1-.77-.055V30.138c.506-.034,1.562-.056,2.2-.056,1.87,0,2.806.661,2.806,2.377a2.4,2.4,0,0,1-1.32,2.156Zm-3.18-6.193c-.242,0-.539.011-.726.022v2.2h.55c.9,0,1.3-.33,1.3-1.144S163.476,31.37,162.75,31.37Z"/><path class="cls-1" d="M156.453,41.73h-1.97v6.1a5.424,5.424,0,0,1-.78.055,5.716,5.716,0,0,1-.793-.055v-6.1h-1.969a2.77,2.77,0,0,1,.011-1.342h5.5a2.962,2.962,0,0,1,0,1.342Z"/><path class="cls-1" d="M162.011,47.825h-4.654V40.388h4.555a2.171,2.171,0,0,1,.077.66,2.82,2.82,0,0,1-.077.682h-2.981v1.606h2.519a2.087,2.087,0,0,1,.077.649,2.731,2.731,0,0,1-.077.671h-2.519v1.826h3.08a2.179,2.179,0,0,1,.077.661A2.82,2.82,0,0,1,162.011,47.825Z"/><path class="cls-1" d="M165.308,47.935A5.924,5.924,0,0,1,163,47.5a2.681,2.681,0,0,1-.055-.528,3.15,3.15,0,0,1,.11-.815,6.289,6.289,0,0,0,2.178.43c.782,0,1.2-.364,1.2-.858,0-.551-.352-.782-1.42-1.112-1.188-.363-2.057-.935-2.057-2.211,0-1.364,1.177-2.123,2.729-2.123a5.909,5.909,0,0,1,1.782.253,2.494,2.494,0,0,1,.054.605,3.562,3.562,0,0,1-.065.7,7.085,7.085,0,0,0-1.684-.22c-.825,0-1.276.275-1.276.715,0,.517.407.726,1.4,1.034,1.188.374,2.068.935,2.068,2.255A2.367,2.367,0,0,1,165.308,47.935Z"/><path class="cls-1" d="M49.8,34.318a9.261,9.261,0,0,1,.407,1.419h.022a9.185,9.185,0,0,1,.4-1.419l.814-2.354a5.769,5.769,0,0,0,.341-1.826,5.648,5.648,0,0,1,.781-.056,5.33,5.33,0,0,1,.76.056,6.1,6.1,0,0,1-.429,2.222L50.9,37.575a3.777,3.777,0,0,1-.7.055,4.485,4.485,0,0,1-.737-.055L47.5,32.382a6.189,6.189,0,0,1-.429-2.244,4.8,4.8,0,0,1,.792-.056,5.236,5.236,0,0,1,.77.056,5.272,5.272,0,0,0,.33,1.826Z"/><path class="cls-1" d="M55.882,37.575a5.031,5.031,0,0,1-.792.055,5.188,5.188,0,0,1-.781-.055V30.138a5.436,5.436,0,0,1,.792-.056,4.848,4.848,0,0,1,.781.056Z"/><path class="cls-1" d="M62.383,31.48H60.414v6.1a5.428,5.428,0,0,1-.781.055,5.713,5.713,0,0,1-.792-.055v-6.1H56.872a2.738,2.738,0,0,1,.011-1.342h5.5a2.962,2.962,0,0,1,0,1.342Z"/><path class="cls-1" d="M53.435,47.825a4.911,4.911,0,0,1-.847.055,5.871,5.871,0,0,1-.759-.055l-.55-1.508H48.638l-.517,1.508a6.18,6.18,0,0,1-.814.055,4.878,4.878,0,0,1-.781-.055l2.6-7.437a4.764,4.764,0,0,1,.759-.056,4.15,4.15,0,0,1,.771.056Zm-2.629-2.817-.649-2.1a8.1,8.1,0,0,1-.221-.891h-.022a6.2,6.2,0,0,1-.22.891l-.615,2.1Z"/><path class="cls-1" d="M61.828,47.825a3.844,3.844,0,0,1-.737.055,5.318,5.318,0,0,1-.77-.055l-.132-4.467L58.56,47.121a2.083,2.083,0,0,1-.549.065,2.608,2.608,0,0,1-.561-.054l-1.629-3.774-.143,4.467a4.582,4.582,0,0,1-.781.055,4.862,4.862,0,0,1-.671-.055l.319-7.437a5.98,5.98,0,0,1,.638-.056,3.068,3.068,0,0,1,.649.056l2.179,5.05,2.189-5.05a4.282,4.282,0,0,1,.638-.056,3.389,3.389,0,0,1,.649.056Z"/><path class="cls-1" d="M77.881,37.575H73.227V30.138h4.555a2.179,2.179,0,0,1,.076.66,2.87,2.87,0,0,1-.076.682H74.8v1.606h2.519a2.056,2.056,0,0,1,.077.649,2.731,2.731,0,0,1-.077.671H74.8v1.826h3.081a2.187,2.187,0,0,1,.076.661A2.87,2.87,0,0,1,77.881,37.575Z"/><path class="cls-1" d="M79.617,35.561l1.408-1.914-1.287-1.793a3.75,3.75,0,0,1-.77-1.716,5.225,5.225,0,0,1,.77-.056,5.057,5.057,0,0,1,.781.056,2.947,2.947,0,0,0,.616,1.3l.77,1.122.792-1.111a2.9,2.9,0,0,0,.561-1.309,7.411,7.411,0,0,1,.781-.056,4.841,4.841,0,0,1,.749.056,3.892,3.892,0,0,1-.826,1.87L82.8,33.614l1.409,1.98a3.815,3.815,0,0,1,.77,1.981,5.212,5.212,0,0,1-.782.055,5.634,5.634,0,0,1-.77-.055,2.819,2.819,0,0,0-.473-1.364l-1.045-1.574-1.023,1.541a2.626,2.626,0,0,0-.418,1.4,5.59,5.59,0,0,1-.792.055,7.208,7.208,0,0,1-.77-.055A3.222,3.222,0,0,1,79.617,35.561Z"/><path class="cls-1" d="M90.542,31.689a6.234,6.234,0,0,0-1.716-.286c-1.255,0-2.069.891-2.069,2.486,0,1.464.638,2.421,2.057,2.421a5.761,5.761,0,0,0,1.651-.275,2.3,2.3,0,0,1,.132.736,3.223,3.223,0,0,1-.033.518,4.768,4.768,0,0,1-1.9.4c-2.366,0-3.532-1.431-3.532-3.763,0-2.266,1.254-3.894,3.6-3.894a5.064,5.064,0,0,1,1.849.374,2.3,2.3,0,0,1,.044.495A3.84,3.84,0,0,1,90.542,31.689Z"/><path class="cls-1" d="M75.719,47.935c-2.035,0-3.114-1.409-3.114-3.829s1.079-3.828,3.114-3.828,3.113,1.408,3.113,3.828S77.754,47.935,75.719,47.935Zm0-6.3c-.946,0-1.485.726-1.485,2.475s.539,2.476,1.485,2.476,1.485-.727,1.485-2.476S76.665,41.631,75.719,41.631Z"/><path class="cls-1" d="M84.271,47.825H79.717V40.388a5.549,5.549,0,0,1,1.573,0v6.094h2.981a2.171,2.171,0,0,1,.078.661A2.821,2.821,0,0,1,84.271,47.825Z"/><path class="cls-1" d="M90.525,45c0,1.893-.726,2.938-2.838,2.938-2.134,0-2.806-1.045-2.806-2.938V40.388a5.556,5.556,0,0,1,1.574,0v4.719c0,1.013.286,1.584,1.243,1.584s1.287-.571,1.287-1.584V40.388a5.393,5.393,0,0,1,.781-.056,5.081,5.081,0,0,1,.759.056Z"/></g></g></svg>