<svg xmlns="http://www.w3.org/2000/svg" viewBox="0 0 200 53.571"><defs><style>.cls-1,.cls-4{fill:#ed0000;}.cls-1{fill-rule:evenodd;}.cls-2{fill:#1c1c1b;}.cls-3{fill:#fff;}</style></defs><title>Asset 49</title><g id="Layer_2" data-name="Layer 2"><g id="Layer_1-2" data-name="Layer 1"><path class="cls-1" d="M60.309,43.964c.165-.549.329-.571.835-.6.132-.011.263-.044.263-.2,0-.087-.033-.131-.131-.131a9.866,9.866,0,0,1-1.187.087,6.135,6.135,0,0,1-1.417-.087c-.132,0-.264.054-.264.186,0,.1.055.143.352.143.142,0,.373,0,.373.243a1.677,1.677,0,0,1-.066.418L57.529,49.2c-.121.428-.341.438-.528.461-.417.033-.571.055-.571.22,0,.132.132.132.187.132.2,0,.549-.088,1.308-.088.867,0,1.23.088,1.482.088.067,0,.188-.022.188-.155,0-.087-.044-.153-.33-.164-.077-.011-.516-.033-.516-.306a1.368,1.368,0,0,1,.088-.441l1.472-4.978"/><path class="cls-1" d="M63.785,43.075a.586.586,0,0,0,.044-.166c0-.088-.1-.12-.143-.12a1.083,1.083,0,0,0-.263.088,3.129,3.129,0,0,1-1.22.241c-.308,0-.494,0-.494.187,0,.11.044.11.417.121.044,0,.341.022.341.264a1.568,1.568,0,0,1-.11.461l-1.264,3.67a7.307,7.307,0,0,0-.406,1.66c0,.384.186.615.526.615.771,0,1.968-1.363,1.968-1.692a.121.121,0,0,0-.121-.111c-.045,0-.066.034-.1.077-.154.241-.78,1.013-1.055,1.013-.088,0-.121-.078-.121-.155a11.931,11.931,0,0,1,.473-1.627l1.527-4.526"/><path class="cls-1" d="M66.7,43.075a.607.607,0,0,0,.043-.166c0-.088-.1-.12-.142-.12a1.08,1.08,0,0,0-.264.088,3.125,3.125,0,0,1-1.219.241c-.308,0-.5,0-.5.187,0,.11.044.11.418.121.044,0,.34.022.34.264a1.535,1.535,0,0,1-.11.461l-1.263,3.67a7.309,7.309,0,0,0-.407,1.66c0,.384.186.615.528.615.768,0,1.966-1.363,1.966-1.692a.121.121,0,0,0-.12-.111c-.044,0-.066.034-.1.077-.154.241-.781,1.013-1.055,1.013-.088,0-.12-.078-.12-.155a11.777,11.777,0,0,1,.472-1.627L66.7,43.075"/><path class="cls-1" d="M69.282,45.36c0-.165-.022-.44-.352-.44a3.048,3.048,0,0,0-2.121,1.473.12.12,0,0,0,.111.12c.021,0,.923-.91,1.153-.91.088,0,.088.087.088.11a1.61,1.61,0,0,1-.176.5,14.119,14.119,0,0,0-1.132,3.362c0,.33.11.517.473.517.813,0,2.044-1.374,2.044-1.649a.129.129,0,0,0-.121-.12c-.055,0-.1.064-.122.1-.1.153-.757.933-1.021.933-.066,0-.1-.065-.1-.131,0-.572,1.275-3.275,1.275-3.868m.626-1.747c0-.1,0-.56-.451-.56a.833.833,0,0,0-.7.834c0,.221.1.561.46.561A.817.817,0,0,0,69.908,43.613Z"/><path class="cls-1" d="M71.892,47.689l.143-.416a7.439,7.439,0,0,0,.472-1.815c0-.483-.209-.538-.384-.538-.968,0-1.989,1.385-1.989,1.55a.142.142,0,0,0,.11.131c.087,0,.867-1,1.109-1,.022,0,.11.01.11.152A37.163,37.163,0,0,1,70.2,49.81c0,.141.165.141.263.141.67,0,.748,0,.89-.405.748-2.109,2.308-4.12,3.11-4.12.077,0,.252.032.252.287,0,.361-1.208,3.218-1.208,3.855,0,.253.066.528.494.528.978,0,2.044-1.473,2.044-1.692a.133.133,0,0,0-.11-.133c-.066,0-.077.034-.242.252-.307.441-.736.825-.9.825-.077,0-.131-.088-.131-.2a9.526,9.526,0,0,1,.648-1.988,4.837,4.837,0,0,0,.461-1.571.687.687,0,0,0-.791-.681c-1.34,0-2.351,1.625-3.065,2.8l-.022-.022"/><path class="cls-1" d="M81.863,47.019a2.063,2.063,0,0,0-2-2.1,3.283,3.283,0,0,0-3.252,3.033,2.022,2.022,0,0,0,1.934,2.132c1.34,0,3.318-1.176,3.318-3.066m-1.033-.648A5.069,5.069,0,0,1,79.7,49.305a1.459,1.459,0,0,1-1.132.538c-.77,0-.923-.725-.923-1.187,0-1.265.8-3.494,2.23-3.494C80.644,45.162,80.83,45.843,80.83,46.371Z"/><path class="cls-1" d="M85.133,45.36c0-.165-.022-.44-.352-.44a3.045,3.045,0,0,0-2.12,1.473.119.119,0,0,0,.109.12c.022,0,.923-.91,1.154-.91.088,0,.088.087.088.11a1.637,1.637,0,0,1-.176.5,14.114,14.114,0,0,0-1.131,3.362c0,.33.11.517.472.517.812,0,2.044-1.374,2.044-1.649a.13.13,0,0,0-.122-.12c-.054,0-.1.064-.12.1-.1.153-.758.933-1.022.933-.066,0-.1-.065-.1-.131,0-.572,1.275-3.275,1.275-3.868m.626-1.747c0-.1,0-.56-.45-.56a.833.833,0,0,0-.7.834c0,.221.1.561.462.561A.817.817,0,0,0,85.759,43.613Z"/><path class="cls-1" d="M87.072,50.085c1.133,0,2.066-.726,2.066-1.528a1.612,1.612,0,0,0-.626-1.131c-.89-.9-1.22-1.319-1.22-1.671,0-.406.429-.45.5-.45a1.513,1.513,0,0,1,1.045.549c.165.165.351.363.571.363.274,0,.352-.484.352-.671,0-.395-.583-.626-1.33-.626A1.888,1.888,0,0,0,86.4,46.492c0,.373.275.747.89,1.384.583.582.78.824.78,1.165,0,.3-.22.736-.626.736-.2,0-.451-.088-.857-.627-.34-.45-.484-.636-.715-.636-.263,0-.373.428-.373.6,0,.945,1.363.967,1.571.967"/><path class="cls-1" d="M92.011,42.909a.509.509,0,0,0-.55.528c0,.166.078.253.232.362a.31.31,0,0,1,.153.252c0,.276-.307.639-.955.947-.034.01-.111.053-.111.12s.066.121.165.121c.274,0,1.649-.758,1.649-1.714a.587.587,0,0,0-.583-.616"/><path class="cls-1" d="M98.338,45.415c.121,0,.176-.209.176-.264s-.011-.1-.077-.1H97.394c.153-.581.5-1.878,1-1.878.121,0,.187.11.264.242a.781.781,0,0,0,.638.418.5.5,0,0,0,.5-.484c0-.352-.372-.56-.812-.56a2.793,2.793,0,0,0-1.791.8,3.255,3.255,0,0,0-.847,1.46h-.8c-.132,0-.187.265-.187.265,0,.044.012.1.076.1h.8c-.658,2.186-.823,2.8-1.46,5.175-.143.538-.406,1.528-.846,1.528-.187,0-.264-.221-.3-.331-.077-.219-.165-.472-.516-.472a.453.453,0,0,0-.473.46c0,.353.4.672.934.672a2.124,2.124,0,0,0,1.308-.505c.7-.561.834-.924,2-5.111l.395-1.416h1.055"/><path class="cls-1" d="M100.982,45.36c0-.165-.023-.44-.352-.44a3.048,3.048,0,0,0-2.121,1.473.12.12,0,0,0,.111.12c.021,0,.922-.91,1.153-.91.088,0,.088.087.088.11a1.61,1.61,0,0,1-.176.5,14.075,14.075,0,0,0-1.132,3.362c0,.33.11.517.473.517.814,0,2.043-1.374,2.043-1.649a.129.129,0,0,0-.12-.12c-.055,0-.1.064-.121.1-.1.153-.759.933-1.022.933-.066,0-.1-.065-.1-.131,0-.572,1.275-3.275,1.275-3.868m.626-1.747c0-.1,0-.56-.451-.56a.832.832,0,0,0-.7.834c0,.221.1.561.461.561A.816.816,0,0,0,101.608,43.613Z"/><path class="cls-1" d="M103.328,48.03A13.328,13.328,0,0,0,104,45.5c0-.44-.144-.583-.385-.583-.824,0-1.879,1.484-1.879,1.726a.12.12,0,0,0,.11.12c.088,0,.22-.219.308-.351.252-.385.648-.8.79-.8.11,0,.11.142.11.176,0,.5-1.152,3.844-1.152,4.01s.043.152.472.152c.252,0,.406,0,.46-.086.122-.187,1.682-4.186,2.374-4.186.044,0,.11.034.11.164l-.011.187a.373.373,0,0,0,.407.353c.439,0,.615-.54.615-.847a.56.56,0,0,0-.571-.616c-.869,0-1.8,1.846-1.869,1.989l-.318.659c-.055.121-.154.319-.22.484l-.022-.022"/><path class="cls-1" d="M107.43,50.085c1.132,0,2.066-.726,2.066-1.528a1.616,1.616,0,0,0-.626-1.131c-.891-.9-1.219-1.319-1.219-1.671,0-.406.427-.45.5-.45a1.513,1.513,0,0,1,1.044.549c.165.165.351.363.57.363.276,0,.353-.484.353-.671,0-.395-.582-.626-1.33-.626a1.887,1.887,0,0,0-2.031,1.572c0,.373.274.747.89,1.384.581.582.779.824.779,1.165,0,.3-.221.736-.627.736-.2,0-.45-.088-.856-.627-.341-.45-.484-.636-.714-.636-.264,0-.374.428-.374.6,0,.945,1.362.967,1.571.967"/><path class="cls-1" d="M113.775,45.415a.262.262,0,0,0,.3-.253c0-.022,0-.111-.088-.111h-1.142a1.678,1.678,0,0,0,.056-.163l.142-.4a4.817,4.817,0,0,0,.2-.659c0-.133-.1-.133-.241-.133a3.76,3.76,0,0,0-.714.056,6.9,6.9,0,0,0-.494,1.3h-.528c-.3,0-.506,0-.506.276,0,.088.121.088.232.088h.692c-.363,1.055-.814,2.384-1,3.142a3.623,3.623,0,0,0-.144.89c0,.462.22.638.452.638a3.072,3.072,0,0,0,2.1-1.715.13.13,0,0,0-.122-.12c-.054,0-.109.055-.142.12a2.382,2.382,0,0,1-1.066.967c-.066,0-.132-.054-.132-.2a4.827,4.827,0,0,1,.22-.879c.506-1.65.516-1.692.89-2.846h1.044"/><path class="cls-1" d="M117.732,49.755a1.5,1.5,0,0,0,1.075.33c2.308,0,3.33-2.46,3.33-3.725,0-1.495-1.418-1.495-1.813-1.495a5.176,5.176,0,0,0-1.022.088c0-.065.308-.824.308-.967,0-.076-.022-.1-.165-.1-.736,0-.758.023-.8.067a3.606,3.606,0,0,0-.319.9l-.065.22c-.968.165-1.078.176-1.078.363a.1.1,0,0,0,.1.109.306.306,0,0,0,.088-.01,5.008,5.008,0,0,1,.78-.143l-1.89,5.768c-.177.538-.308.736-.836.781-.252.021-.471.031-.471.23,0,.044.01.121.109.121a9.206,9.206,0,0,1,1.373-.088,14.072,14.072,0,0,1,1.45.088c.1,0,.242,0,.242-.154s-.132-.154-.527-.2c-.2-.022-.4-.079-.4-.3a1.223,1.223,0,0,1,.066-.33l.463-1.56m1.493-4.527a5.49,5.49,0,0,1,.67-.055c.538,0,1.187.1,1.187,1.055,0,.923-.835,3.593-2.451,3.593-.417,0-.724-.22-.724-.538a2.251,2.251,0,0,1,.142-.605Z"/><path class="cls-1" d="M126.745,47.48a14.338,14.338,0,0,0-.626,2.187.41.41,0,0,0,.406.429,3.04,3.04,0,0,0,2.23-1.715.117.117,0,0,0-.11-.11c-.022,0-.054.01-.121.1-.582.825-1.055.989-1.12.989s-.11-.076-.11-.142c0-.649,1.318-3.956,1.318-4.166,0-.11-.109-.131-.175-.131l-.66.033c-.23.011-.274.165-.34.374a5.892,5.892,0,0,1-.922,2.011c-.835,1.176-1.825,2.087-2.3,2.087a.183.183,0,0,1-.208-.2c0-.4,1.33-3.507,1.33-3.955,0-.254-.155-.353-.408-.353a2.612,2.612,0,0,0-2.12,1.484.11.11,0,0,0,.1.119.2.2,0,0,0,.143-.108,2.129,2.129,0,0,1,1.022-.9.108.108,0,0,1,.109.11c0,.109-.725,1.835-.845,2.186a7.127,7.127,0,0,0-.439,1.713.522.522,0,0,0,.537.573c1.582,0,3.285-2.616,3.285-2.637l.023.021"/><path class="cls-1" d="M130.783,47.184c.165-.463,1.406-4.153,1.406-4.264,0-.087-.044-.131-.121-.131a.321.321,0,0,0-.153.055,2.961,2.961,0,0,1-1.342.34c-.328,0-.57,0-.57.2,0,.121.12.121.187.121.011,0,.3-.022.351-.022a.217.217,0,0,1,.242.232,4.4,4.4,0,0,1-.176.746l-.769,2.395a7.473,7.473,0,0,0-.407,1.846,1.4,1.4,0,0,0,1.539,1.4c1.823,0,3.834-1.593,3.834-3.462a1.543,1.543,0,0,0-1.351-1.724c-.913,0-1.78,1.131-2.648,2.3l-.022-.022m.077,2.6a.584.584,0,0,1-.615-.6c0-1.089,1.724-3.67,2.856-3.67.45,0,.582.439.582.813C133.683,47.525,132.387,49.788,130.86,49.788Z"/><path class="cls-1" d="M138.139,43.075a.586.586,0,0,0,.044-.166c0-.088-.1-.12-.143-.12a1.083,1.083,0,0,0-.263.088,3.129,3.129,0,0,1-1.22.241c-.308,0-.494,0-.494.187,0,.11.043.11.418.121.043,0,.34.022.34.264a1.568,1.568,0,0,1-.11.461l-1.264,3.67a7.307,7.307,0,0,0-.406,1.66c0,.384.186.615.527.615.769,0,1.967-1.363,1.967-1.692a.121.121,0,0,0-.121-.111c-.043,0-.066.034-.1.077-.154.241-.78,1.013-1.054,1.013-.089,0-.122-.078-.122-.155a11.918,11.918,0,0,1,.472-1.627l1.528-4.526"/><path class="cls-1" d="M140.717,45.36c0-.165-.022-.44-.352-.44a3.048,3.048,0,0,0-2.12,1.473.12.12,0,0,0,.11.12c.022,0,.923-.91,1.154-.91.088,0,.088.087.088.11a1.665,1.665,0,0,1-.176.5,14.075,14.075,0,0,0-1.132,3.362c0,.33.11.517.473.517.811,0,2.043-1.374,2.043-1.649a.129.129,0,0,0-.122-.12c-.054,0-.1.064-.12.1-.1.153-.758.933-1.022.933-.066,0-.1-.065-.1-.131,0-.572,1.274-3.275,1.274-3.868m.626-1.747c0-.1,0-.56-.45-.56a.833.833,0,0,0-.7.834c0,.221.1.561.462.561A.816.816,0,0,0,141.343,43.613Z"/><path class="cls-1" d="M141.349,48.316a1.683,1.683,0,0,0,1.682,1.78,3.082,3.082,0,0,0,2.35-1.627.107.107,0,0,0-.109-.1c-.033,0-.067.034-.1.077a2.412,2.412,0,0,1-1.658,1.022.993.993,0,0,1-.957-1.11c0-1.23.857-3.175,1.8-3.175.207,0,.3.132.394.341.078.143.309.582.692.582a.5.5,0,0,0,.517-.473c0-.153-.131-.724-1.209-.724a3.511,3.511,0,0,0-3.406,3.406"/><path class="cls-1" d="M153.138,47.48a14.428,14.428,0,0,0-.625,2.187.409.409,0,0,0,.405.429,3.04,3.04,0,0,0,2.231-1.715.117.117,0,0,0-.11-.11c-.022,0-.054.01-.121.1-.582.825-1.054.989-1.121.989s-.109-.076-.109-.142c0-.649,1.318-3.956,1.318-4.166,0-.11-.11-.131-.175-.131l-.66.033c-.231.011-.275.165-.34.374a5.846,5.846,0,0,1-.924,2.011c-.834,1.176-1.823,2.087-2.3,2.087a.183.183,0,0,1-.208-.2c0-.4,1.33-3.507,1.33-3.955,0-.254-.155-.353-.408-.353a2.61,2.61,0,0,0-2.119,1.484.108.108,0,0,0,.1.119.194.194,0,0,0,.143-.108,2.142,2.142,0,0,1,1.022-.9.108.108,0,0,1,.11.11c0,.109-.725,1.835-.845,2.186a7.076,7.076,0,0,0-.44,1.713.522.522,0,0,0,.538.573c1.582,0,3.285-2.616,3.285-2.637l.022.021"/><path class="cls-1" d="M157.583,47.689l.142-.416a7.4,7.4,0,0,0,.474-1.815c0-.483-.21-.538-.385-.538-.967,0-1.989,1.385-1.989,1.55a.142.142,0,0,0,.11.131c.088,0,.868-1,1.11-1,.022,0,.11.01.11.152a37.142,37.142,0,0,1-1.264,4.055c0,.141.165.141.264.141.67,0,.746,0,.89-.405.746-2.109,2.306-4.12,3.109-4.12.077,0,.252.032.252.287,0,.361-1.208,3.218-1.208,3.855,0,.253.065.528.5.528.978,0,2.042-1.473,2.042-1.692a.132.132,0,0,0-.108-.133c-.066,0-.078.034-.242.252-.309.441-.736.825-.9.825-.078,0-.133-.088-.133-.2A9.6,9.6,0,0,1,161,47.162a4.837,4.837,0,0,0,.461-1.571.686.686,0,0,0-.79-.681c-1.341,0-2.352,1.625-3.066,2.8l-.022-.022"/><path class="cls-1" d="M165.016,45.36c0-.165-.022-.44-.351-.44a3.048,3.048,0,0,0-2.121,1.473.12.12,0,0,0,.11.12c.023,0,.922-.91,1.153-.91.088,0,.088.087.088.11a1.637,1.637,0,0,1-.176.5,14.114,14.114,0,0,0-1.131,3.362c0,.33.109.517.472.517.813,0,2.044-1.374,2.044-1.649a.129.129,0,0,0-.121-.12c-.055,0-.1.064-.121.1-.1.153-.758.933-1.022.933-.065,0-.1-.065-.1-.131,0-.572,1.275-3.275,1.275-3.868m.627-1.747c0-.1,0-.56-.451-.56a.833.833,0,0,0-.7.834c0,.221.1.561.461.561A.817.817,0,0,0,165.643,43.613Z"/><path class="cls-1" d="M167.1,50.085c2.089,0,3.99-2.835,3.99-4.417,0-.451-.221-.758-.529-.758a.567.567,0,0,0-.526.636.763.763,0,0,0,.153.484c.187.275.219.33.219.517,0,.8-1.306,3.065-2.68,3.065a.456.456,0,0,1-.517-.451c0-.638,1.285-3.34,1.285-3.812,0-.11-.054-.439-.515-.439a2.718,2.718,0,0,0-2.044,1.483.1.1,0,0,0,.088.1c.076,0,.155-.1.165-.109a2.559,2.559,0,0,1,1.021-.88c.045,0,.11.033.11.142a6.919,6.919,0,0,1-.4,1.066,6.528,6.528,0,0,0-.758,2.439.924.924,0,0,0,.933.935"/><path class="cls-1" d="M173.727,47.689c.452-.078,2.11-.439,2.11-1.626a1.273,1.273,0,0,0-1.374-1.153,3.53,3.53,0,0,0-3.262,3.361,1.67,1.67,0,0,0,1.658,1.814,3.048,3.048,0,0,0,2.287-1.495c0-.055-.023-.11-.089-.11s-.076.023-.319.263a2.03,2.03,0,0,1-1.427.7c-.21,0-.924-.1-.924-1.176a2.646,2.646,0,0,1,.022-.34l1.318-.242m-1.273-.054c.262-1.252,1.022-2.473,1.835-2.473.526,0,.526.517.526.616C174.815,47.25,173.211,47.547,172.454,47.635Z"/><path class="cls-1" d="M177.788,48.03a13.328,13.328,0,0,0,.671-2.527c0-.44-.142-.583-.385-.583-.824,0-1.879,1.484-1.879,1.726a.119.119,0,0,0,.11.12c.088,0,.22-.219.308-.351.252-.385.648-.8.791-.8.111,0,.111.142.111.176,0,.5-1.155,3.844-1.155,4.01s.044.152.473.152c.252,0,.406,0,.461-.086.121-.187,1.681-4.186,2.373-4.186.044,0,.11.034.11.164l-.011.187a.373.373,0,0,0,.407.353c.439,0,.615-.54.615-.847a.56.56,0,0,0-.571-.616c-.87,0-1.8,1.846-1.868,1.989l-.319.659c-.055.121-.153.319-.219.484l-.023-.022"/><path class="cls-1" d="M181.78,50.085c1.132,0,2.066-.726,2.066-1.528a1.612,1.612,0,0,0-.626-1.131c-.89-.9-1.22-1.319-1.22-1.671,0-.406.429-.45.5-.45a1.513,1.513,0,0,1,1.044.549c.164.165.352.363.572.363.275,0,.351-.484.351-.671,0-.395-.582-.626-1.329-.626a1.888,1.888,0,0,0-2.033,1.572c0,.373.275.747.89,1.384.583.582.78.824.78,1.165,0,.3-.22.736-.627.736-.2,0-.448-.088-.856-.627-.341-.45-.484-.636-.714-.636-.264,0-.374.428-.374.6,0,.945,1.363.967,1.571.967"/><path class="cls-1" d="M187.389,45.36c0-.165-.022-.44-.352-.44a3.045,3.045,0,0,0-2.12,1.473.12.12,0,0,0,.11.12c.022,0,.924-.91,1.154-.91.087,0,.087.087.087.11a1.619,1.619,0,0,1-.174.5,14.08,14.08,0,0,0-1.133,3.362c0,.33.11.517.472.517.813,0,2.044-1.374,2.044-1.649a.129.129,0,0,0-.121-.12c-.055,0-.1.064-.121.1-.1.153-.758.933-1.022.933-.066,0-.1-.065-.1-.131,0-.572,1.275-3.275,1.275-3.868m.626-1.747c0-.1,0-.56-.45-.56a.833.833,0,0,0-.7.834c0,.221.1.561.462.561A.816.816,0,0,0,188.015,43.613Z"/><path class="cls-1" d="M191.538,45.415a.262.262,0,0,0,.3-.253c0-.022,0-.111-.089-.111H190.6c.02-.043.044-.131.055-.163l.142-.4a4.563,4.563,0,0,0,.2-.659c0-.133-.1-.133-.241-.133a3.778,3.778,0,0,0-.715.056,7.042,7.042,0,0,0-.494,1.3h-.528c-.3,0-.506,0-.506.276,0,.088.122.088.232.088h.692c-.362,1.055-.813,2.384-1,3.142a3.681,3.681,0,0,0-.142.89c0,.462.218.638.45.638a3.074,3.074,0,0,0,2.1-1.715.131.131,0,0,0-.123-.12c-.054,0-.109.055-.142.12a2.383,2.383,0,0,1-1.067.967c-.065,0-.131-.054-.131-.2a4.827,4.827,0,0,1,.22-.879c.5-1.65.516-1.692.89-2.846h1.044"/><path class="cls-1" d="M193.907,49.689a16.046,16.046,0,0,0,.164-2.23c0-2.352-.494-2.539-.955-2.539-1.045,0-1.725,1.463-1.725,1.638,0,.12.075.142.11.142a.155.155,0,0,0,.132-.109c.351-.616.6-1.077.91-1.077.5,0,.5,1.987.5,2.219a7.239,7.239,0,0,1-.506,3.34,1.435,1.435,0,0,1-1.067.9c-.108,0-.175-.031-.3-.164-.232-.23-.385-.4-.659-.4a.478.478,0,0,0-.506.462c0,.286.253.583.835.583.68,0,1.253-.077,3.56-2.912,1.528-1.868,2.252-3.087,2.252-3.933,0-.319-.1-.693-.506-.693a.606.606,0,0,0-.549.649,1.24,1.24,0,0,0,.121.472,1.259,1.259,0,0,1,.11.506c0,.9-1.252,2.373-1.9,3.142h-.022"/><path class="cls-2" d="M67.922,26.552v.691c-.822,0-1.276.341-1.276,1.254v5.6c0,2.266-1.047,4.149-4.285,4.149-3.147,0-4.3-1.785-4.3-3.97V28.5c0-1.076-.049-1.206-1.056-1.254v-.691h4.27v.691c-1.163-.018-1.283.374-1.283,1.254v6.094c0,1.212.281,2.818,2.528,2.818,2.573,0,3.019-1.529,3.019-3.439V28.5c0-1.125-.3-1.19-1.367-1.254v-.691h3.755"/><path class="cls-2" d="M81.783,26.552v.691c-1.07.178-1.269.406-1.269.946v9.955h-.8l-7.747-9.135v7.4c0,.556.286.884,1.324.916v.687H69.632v-.687c.743-.082,1.143-.082,1.2-.916L70.832,27.9c-.419-.474-.565-.746-1.125-.762v-.589h2.535L79.4,34.86V28.205c0-.833-.4-.864-1.343-.962v-.691h3.723"/><path class="cls-2" d="M83.747,38.012v-.769c.852,0,1.328,0,1.328-.834V28.155c0-.832-.476-.912-1.328-.912v-.691h4.62v.691c-.882,0-1.359.08-1.359.912v8.254c0,.834.477.834,1.359.834v.769h-4.62"/><path class="cls-2" d="M98.541,26.552h1.274v.71c-.868.065-1.215,1.138-1.464,1.841l-3.285,9.139h-.61l-3.435-8.927a6.613,6.613,0,0,0-.894-1.8.615.615,0,0,0-.612-.276v-.691h4.22v.791c-.389.051-1.186-.16-1.186.5a4.59,4.59,0,0,0,.3.9l2.4,6.168,1.934-5.338a6.987,6.987,0,0,0,.512-1.73c0-.668-.727-.566-1.161-.583v-.71h2.008"/><path class="cls-2" d="M101.223,38.012V37.2c.744,0,1.148-.087,1.148-.811V28.155c0-.722-.394-.912-1.092-.912v-.691h7.9l.76,2.728-.428.145a7.851,7.851,0,0,0-.595-.864,2.6,2.6,0,0,0-2.464-1.156H104.3v4.274h.649c1.565-.017,2.125.116,2.481-1.729h.41v4.7h-.41c-.156-1.83-.778-1.9-2.28-1.9h-.85v3.59c0,.734.292.8.866.8H106.9a2.665,2.665,0,0,0,1.859-.558,9.763,9.763,0,0,0,1.257-1.738l.355.149-.619,3.02h-8.533"/><path class="cls-2" d="M119.545,29.721c0-1.68-1.038-2.339-2.665-2.339-.789,0-1.035-.014-1.035.834v3.9c.464,0,.786.029,1.253-.006,1.595-.13,2.447-.774,2.447-2.385m-6.595-3.169c1.379,0,2.907-.064,4.333-.064,1.86,0,4.053.853,4.053,3.168,0,1.985-.991,2.479-2.433,2.985a16.633,16.633,0,0,1,2.651,3.891,1.4,1.4,0,0,0,1.487.793v.687h-2.858a28.067,28.067,0,0,0-2.739-4.379c-.481-.538-.894-.474-1.6-.4v3.18c0,.724.228.916,1.174.916v.687h-4.131v-.687c.874,0,1.085-.192,1.045-.916v-8.3c0-.83-.27-.913-.983-.913Z"/><path class="cls-2" d="M124.621,34.231h.5c.206,1.763,1.107,3.05,2.917,3.05,2.1,0,2.545-1.062,2.545-1.892,0-1.682-1.454-1.88-2.641-2.348-1.818-.632-3.117-1.216-3.117-3.413a3.429,3.429,0,0,1,3.591-3.345,3.8,3.8,0,0,1,2.546.95l.392-.539h.388v3.725h-.451a7,7,0,0,0-.971-2.62,2.176,2.176,0,0,0-1.7-.644c-1.376,0-2.309.526-2.309,2.04,0,1.45,1.044,1.8,2.15,2.148,1.724.55,3.7,1.3,3.7,3.53,0,2.363-1.948,3.278-3.972,3.278a4.789,4.789,0,0,1-2.7-.85l-.5.72h-.377v-3.79"/><path class="cls-2" d="M145.431,27.405h-2.2c-.544,0-.732.021-1.07.461-.44.57-.694,1.073-1.147,1.677l-.355-.2.617-3.135a4.938,4.938,0,0,0,1.441.341h7.311a4.946,4.946,0,0,0,1.441-.341l.544,3.152-.369.2a15.146,15.146,0,0,0-1.061-1.692c-.338-.44-.525-.461-1.068-.461h-2.148v8.924c0,.7.293.864,1.364.914v.769h-4.633v-.769c1.013-.05,1.337-.214,1.337-.914V27.405"/><path class="cls-2" d="M152.456,26.552h4.231v.691c-.388,0-1.008-.056-1.008.586a20.2,20.2,0,0,0,1.172,2.04l.9,1.605s1.954-2.837,1.954-3.653c0-.592-.21-.547-.583-.578v-.691H162.2v.691a1.292,1.292,0,0,0-1.011.71l-2.9,4.735v3.721c0,.834.557.936,1.208.936v.667h-4.268v-.687c.589,0,1.147-.082,1.147-.916V32.853l-2.526-4.394c-.359-.594-.649-1.3-1.394-1.3v-.609"/><path class="cls-2" d="M134.581,38.012v-.769c.854,0,1.33,0,1.33-.834V28.155c0-.832-.476-.912-1.33-.912v-.691H139.2v.691c-.884,0-1.36.08-1.36.912v8.254c0,.834.476.834,1.36.834v.769h-4.622"/><path class="cls-2" d="M152.51,9.749h-2.363c-.578,0-.763.006-1.122.451-.468.573-.75,1.2-1.233,1.81l-.322-.175.655-3.126a5.49,5.49,0,0,0,1.475.323h7.765a5.5,5.5,0,0,0,1.476-.323l.576,3.144-.336.174A16.617,16.617,0,0,0,157.94,10.2c-.357-.445-.543-.451-1.121-.451h-2.347v9.222c0,.706.191.872,1.331.92V20.5H151.21v-.613c1.075-.048,1.3-.214,1.3-.92V9.749"/><path class="cls-2" d="M161.331,15.373h2.712l-1.389-3.657-1.323,3.657m-3.38,5.131v-.613a1.119,1.119,0,0,0,1.058-.654l3.18-8.67-.176-.492a5.912,5.912,0,0,0,1.4-1.356l3.693,9.856c.344.934.516,1.2,1.357,1.331v.6h-4.308v-.6c.468,0,1.213.074,1.213-.582a31.167,31.167,0,0,0-1.038-3.089h-3.309c-.156.59-1.045,2.657-1.045,3.085,0,.639.682.565,1.114.586v.6Z"/><path class="cls-2" d="M180.029,20.5v-.613c.748,0,1.1-.162,1.1-.92V10.563c0-.836-.442-.919-1.143-.919V9.032h8.027l.762,2.715-.4.128a8.412,8.412,0,0,0-.627-.84,2.666,2.666,0,0,0-2.478-1.21h-2.177v4.417h.665c1.573-.016,2.063-.042,2.422-1.9h.458v4.876h-.458c-.158-1.838-.709-2.074-2.22-2.074h-.867v3.759c0,.739.305.8.881.8h1.746a2.017,2.017,0,0,0,1.809-.654,8.153,8.153,0,0,0,1.344-1.693l.339.127-.622,3.012h-8.556"/><path class="cls-2" d="M171.969,9.749h-2.363c-.576,0-.761.006-1.121.451-.468.573-.75,1.2-1.232,1.81l-.322-.175.654-3.126a5.5,5.5,0,0,0,1.476.323h7.764a5.5,5.5,0,0,0,1.476-.323l.576,3.144-.337.174A16.609,16.609,0,0,0,177.4,10.2c-.358-.445-.543-.451-1.121-.451h-2.347v9.222c0,.706.193.872,1.331.92V20.5H170.67v-.613c1.076-.048,1.3-.214,1.3-.92V9.749"/><path class="cls-2" d="M57.1,20.5v-.733c1.154,0,1.715-.11,1.715-1.237V7.085c0-1.126-.561-1.236-1.715-1.236V5.117h5.7v.732c-1.2,0-1.787.11-1.787,1.236V18.534c0,1.127.591,1.237,1.787,1.237V20.5H57.1"/><path class="cls-2" d="M64.777,20.5v-.613c.858,0,1.128-.083,1.128-.92V10.563c0-.836-.457-.919-1.1-.919V9.032h4.405v.612c-1.061,0-1.392.279-1.392,1.084v7.763c0,1.263.226,1.3,1.739,1.3a10.9,10.9,0,0,0,1.932-.115,2.348,2.348,0,0,0,1.657-1.255,19.172,19.172,0,0,0,1.122-1.825l.4.18-.9,3.733H64.777"/><path class="cls-2" d="M84.9,20.5v-.613c.858,0,1.33-.083,1.33-.92V10.563c0-.836-.472-.919-1.33-.919V9.032H89.5v.612c-.889,0-1.345.083-1.345.919v8.408c0,.837.456.92,1.345.92V20.5H84.9"/><path class="cls-2" d="M103.68,9.032v.612c-1.076.181-1.166.494-1.166,1.035v9.957h-.875l-7.854-9.057v7.392c0,.559.271.886,1.315.92V20.5H91.634v-.613c.749-.083,1.071-.083,1.133-.92V10.225c-.456-.519-.46-.607-1.058-.625V9.032h2.607l7.167,8.359V10.7c0-.838-.184-.952-1.135-1.051V9.032h3.332"/><path class="cls-2" d="M117.707,20.5v-.613c.857,0,1.329-.083,1.329-.92V10.563c0-.836-.472-.919-1.329-.919V9.032H122.3v.612c-.889,0-1.346.083-1.346.919v8.408c0,.837.457.92,1.346.92V20.5h-4.592"/><path class="cls-2" d="M74.848,20.5v-.613c.859,0,1.128-.083,1.128-.92V10.563c0-.836-.457-.919-1.1-.919V9.032h4.405v.612c-1.06,0-1.391.279-1.391,1.084v7.763c0,1.263.225,1.3,1.737,1.3a10.915,10.915,0,0,0,1.934-.115,2.346,2.346,0,0,0,1.656-1.255,18.97,18.97,0,0,0,1.122-1.825l.4.18-.9,3.733H74.848"/><path class="cls-2" d="M124.34,16.815h.7c.214,1.74.706,3.152,2.894,3.152s2.6-1.217,2.6-2.038c0-1.657-1.465-1.854-2.7-2.314-1.887-.624-3.019-1.2-3.019-3.364a3.3,3.3,0,0,1,3.511-3.3,4.077,4.077,0,0,1,2.643.935l.431-.426h.425v3.513h-.516a5.118,5.118,0,0,0-.9-2.493,2.781,2.781,0,0,0-1.96-.856,2.018,2.018,0,0,0-2.256,2.2c0,1.427,1.038,1.771,2.186,2.116,1.789.542,3.628,1.281,3.628,3.479,0,2.33-1.806,3.233-3.907,3.233a5.161,5.161,0,0,1-2.806-.836l-.563.607h-.391V16.815"/><path class="cls-2" d="M137.5,15.634h.927c.274,2.342,1.113,4.329,3.812,4.329,2.627,0,3.288-1.786,3.288-2.891,0-2.23-1.959-2.495-3.532-3.113-2.413-.839-4.084-1.687-4.084-4.6a4.445,4.445,0,0,1,4.713-4.366A5.038,5.038,0,0,1,146,6.251l.57-.648h.444v4.626h-.627A7.311,7.311,0,0,0,145.249,6.9,3.051,3.051,0,0,0,142.9,5.815,2.791,2.791,0,0,0,139.8,8.857c0,1.922,1.415,2.385,2.883,2.849,2.286.729,4.859,1.8,4.859,4.757,0,3.135-2.531,4.275-5.215,4.275a6.364,6.364,0,0,1-3.588-1.125l-.737.891H137.5v-4.87"/><path class="cls-2" d="M110.594,19.905c2.032-.1,3.147-2.648,3.147-4.886,0-3.591-1.33-5.332-3.122-5.332s-3.292,1.741-3.292,5.332c0,2.25,1.212,4.806,3.267,4.886m-5.509-5.02c0-4.57,3.344-5.91,5.45-5.938,2.105.028,5.45,1.368,5.45,5.938,0,2.02-.982,5.762-5.4,5.762S105.085,16.905,105.085,14.885Z"/><path class="cls-3" d="M26.784,0A26.786,26.786,0,1,0,53.569,26.784,26.785,26.785,0,0,0,26.784,0"/><path class="cls-4" d="M21.3,27.377c-.111.322-.192.556-.295.93l-.362.12c-.189-.51-.353-.956-.53-1.506,0,0,.107-.034.261-.071a1.1,1.1,0,0,1,.283-.05l.29.889c.015.046.025.036.04-.014.109-.352.154-.5.282-.98,0,0,.149-.05.236-.067a1.579,1.579,0,0,1,.262-.035l.211.838c.011.029.011.049.03-.029.095-.371.244-.911.244-.911a1.255,1.255,0,0,1,.165-.044c.052-.015.112-.02.121-.008-.124.4-.329,1.032-.49,1.578l-.437.1-.244-.742c-.017-.036-.056-.038-.067.006M20,31.449a.575.575,0,0,1-.38.2c-.263.046-.45-.1-.442-.313.01-.279.068-.419.462-.608.034-.015.264-.132.356-.177.026-.012.034-.088.034-.131,0-.155-.072-.229-.22-.229a.334.334,0,0,0-.333.291l-.169,0a.415.415,0,0,1,.041-.182.726.726,0,0,1,.595-.386c.37-.03.565.154.565.474l-.019.686c.006.21.2.088.208.084l.049.047c0,.075-.1.227-.375.259a.484.484,0,0,1-.3-.036C20.044,31.4,20,31.449,20,31.449Zm10.042-6.527c-.081-.008-.162.026-.242.026s-.161.053-.242.06V22.579c.081.006.154-.026.235-.026s.168,0,.249-.006Zm-5.381-2.2c.081.006.183,0,.264,0a1.471,1.471,0,0,1,.287.061c-.042.73-.016,1.84,0,2.361-.135-.02-.181-.03-.287-.037-.081,0-.183.006-.264,0C24.679,24.592,24.707,23.453,24.664,22.725Zm1.758,8.2c0,.321.085.436.362.436l0,.164a.841.841,0,0,1-.443-.022c-.35-.08-.423-.278-.423-.577v-.981l-.209-.05a.789.789,0,0,0,0-.206l.209.043v-.359c-.043,0,.522-.073.508-.065v.553l.293.075a.859.859,0,0,0,0,.215l-.293-.048Zm5.733-.117a1.158,1.158,0,0,1-.51.091.826.826,0,0,1-.864-.822c0-.512.266-.9.769-.866a1.1,1.1,0,0,1,.618.214l-.043.4-.08-.016a.366.366,0,0,0-.392-.334c-.286,0-.356.306-.366.586a.573.573,0,0,0,.454.623.719.719,0,0,0,.444-.026ZM29.862,29.8c0-.156-.07-.224-.217-.224a.332.332,0,0,0-.333.292h-.161a.426.426,0,0,1,.033-.18.727.727,0,0,1,.595-.387c.368-.027.566.154.566.476,0,.019,0,.041,0,.062l-.013.647c0,.12-.006.195.21.176l.018.034c0,.074-.119.2-.375.2a.518.518,0,0,1-.267-.076c-.013-.024-.033-.011-.061.029a.627.627,0,0,1-.4.181c-.393.009-.445-.181-.451-.32-.014-.327.208-.538.546-.652a2.294,2.294,0,0,0,.276-.1C29.869,29.933,29.867,29.853,29.862,29.8Zm-.825-1.671a.609.609,0,0,1-.38.215c-.257.057-.446-.04-.438-.3.012-.295.1-.4.458-.62.032-.018.264-.154.356-.2.048-.023.034-.085.034-.131,0-.155-.072-.227-.22-.227a.336.336,0,0,0-.334.292h-.162a.433.433,0,0,1,.036-.181.733.733,0,0,1,.595-.387c.368-.026.563.154.563.474l-.017.688c.005.208.206.093.213.091l.044.039c0,.075-.1.211-.376.243a.521.521,0,0,1-.3-.021C29.077,28.075,29.037,28.124,29.037,28.124Zm2.492-1.837a1,1,0,0,1,.25.036c.124.03.163.031.258.061v.182c.161-.105.279-.19.685-.055.173.059.3.329.3.729l.011.983-.243-.07c-.077-.022-.156-.028-.244-.049l.012-.723c0-.3.014-.64-.232-.656-.279-.016-.28.319-.28.521l.012.731a3.055,3.055,0,0,0-.3-.064,2.178,2.178,0,0,0-.228,0C31.554,27.556,31.554,26.9,31.529,26.287Zm-7.515-3c-.013.009-.037-.008-.045-.018a.706.706,0,0,0-.668-.286c-.394,0-.748.463-.736,1.056.01.556.3.764.739.762a.677.677,0,0,0,.349-.088l-.007-.711c.081.007.159,0,.24,0a2.33,2.33,0,0,0,.273.013v.9c-.063-.005-.59.111-.926.111-.885,0-1.245-.284-1.244-.982a1.307,1.307,0,0,1,1.358-1.292,1.6,1.6,0,0,1,.754.214Zm2.517,2.172c-.034-.054-.034-.039-.107,0a.423.423,0,0,1-.251.067.633.633,0,0,1-.565-.546.353.353,0,0,1,.247-.373,2.032,2.032,0,0,1,.43-.049c.064,0,.144,0,.156-.022a.512.512,0,0,0,.013-.134.251.251,0,0,0-.2-.279.344.344,0,0,0-.384.115l-.165-.064a.551.551,0,0,1,.567-.3c.546.071.656.418.656.648v.817c0,.118.05.158.175.191.031.008.028.065,0,.066a.421.421,0,0,1-.407,0A.5.5,0,0,1,26.531,25.463Zm1.981-1.69V22.85c.09-.033.181-.062.252-.083a1.4,1.4,0,0,1,.255-.054v2.4c-.116.051-.185.07-.238.095-.087.041-.178.077-.254.109l0-.139a.978.978,0,0,1-.379.291c-.188.063-.736.29-.731-.741a.873.873,0,0,1,.7-.909.568.568,0,0,1,.371.033C28.515,23.871,28.515,23.837,28.512,23.773Zm4.632,5.9c0,.056.019.043.041.023s.06-.1.264-.106a.676.676,0,0,1,.545.321.638.638,0,0,1,.135.408v1.094c-.109-.031-.2-.06-.285-.084a.9.9,0,0,0-.243-.044v-.734c0-.3.052-.651-.264-.656-.206-.008-.194.243-.194.45v.748c-.074-.006-.2-.081-.275-.081s-.158-.036-.232-.031V28.529c.074.008.16.024.254.038s.133.052.253.072C33.144,28.838,33.145,29.615,33.144,29.673ZM24.2,30.65s-.007-.053-.048,0a.678.678,0,0,1-.255.084.768.768,0,0,1-.867-.881.721.721,0,0,1,.64-.746.543.543,0,0,1,.456.175c.04.046.067.075.068,0v-.892c0-.031.029-.028.062-.024a1.179,1.179,0,0,1,.2.028.8.8,0,0,1,.216.06v2.328c-.117-.016-.156-.024-.232-.034-.1-.011-.159-.011-.238-.025A.208.208,0,0,0,24.2,30.65Zm-3.144-.918c.066-.017.131-.081.2-.1a2.346,2.346,0,0,1,.246-.073l.04.144c.3-.353.528-.462.8-.355.236.09.226.4.226.786v.706l-.26.052a1.675,1.675,0,0,1-.25.074l.006-.6c0-.3-.009-.637-.234-.637-.279,0-.276.343-.276.546l0,.833a2.463,2.463,0,0,0-.267.054c-.086.016-.143.044-.241.072ZM30.7,26.584a.465.465,0,0,1,.5-.317c-.017.15-.04.293-.052.475l-.029.026a.4.4,0,0,0-.192-.033c-.141,0-.2.056-.236.194a1.612,1.612,0,0,0-.019.37l.023.612a2,2,0,0,0-.272.016c-.09.014-.18.041-.253.05l-.018-1.623a1.088,1.088,0,0,0,.231-.017c.09-.014.185-.016.258-.022v.278C30.642,26.65,30.667,26.655,30.7,26.584ZM27.663,30.8s-.128.384.332.384a.92.92,0,0,0,.558-.334v.222a1.139,1.139,0,0,1-.725.5c-.571.148-.722-.3-.7-.771a1.09,1.09,0,0,1,.8-1c.6-.2.737.2.7.614C28.1,30.629,28.035,30.655,27.663,30.8Zm-.716-2.946s-.008.531.387.531a.709.709,0,0,0,.489-.131c.026-.02.081-.013.076.022a.341.341,0,0,1-.112.211.725.725,0,0,1-.507.193.926.926,0,0,1-.889-.93.708.708,0,0,1,.746-.771.735.735,0,0,1,.778.865C27.376,27.872,26.947,27.857,26.947,27.857ZM25.531,25.81c.09.015.162.033.25.053a2.313,2.313,0,0,1,.264.086,21.766,21.766,0,0,0,0,2.464s-.207-.1-.3-.127l-.274-.084c.022-1.138.033-1.3-.015-2.379C25.473,25.805,25.507,25.805,25.531,25.81Zm-2.158,1.251c-.03,0-.03.02-.032.064a.458.458,0,0,0,.413.466.993.993,0,0,0,.512-.107l-.047.215a.692.692,0,0,1-.254.113,1.223,1.223,0,0,1-.445.02.7.7,0,0,1-.663-.753c0-.449.244-.841.711-.841.646,0,.8.4.765.863A6.57,6.57,0,0,0,23.373,27.061Zm8.016-2.992.289-.744a.947.947,0,0,1,.107.012,2.281,2.281,0,0,1,.248.022l-.46.938c-.238.538-.378.856-.584,1.414-.044-.006-.15,0-.2,0s-.168.02-.168.02l.448-.9L30.438,23.3a1.091,1.091,0,0,1,.3-.022c.08,0,.279.008.279.008.081.231.251.734.251.734C31.315,24.109,31.318,24.193,31.389,24.069Zm-6.125-2.043c-2.169-.7-4.41.64-5.864.687a10.331,10.331,0,0,1-2.352-.247l.018,11.279a13.03,13.03,0,0,0,1.546-.455,11.373,11.373,0,0,1,6.2-.793,9.236,9.236,0,0,1,2.105,1.03,9.219,9.219,0,0,1,2.1-1.03,11.377,11.377,0,0,1,6.2.793,15.367,15.367,0,0,0,1.561.481l0-11.3a10.322,10.322,0,0,1-2.352.247c-1.454-.047-3.694-1.392-5.864-.687a6.673,6.673,0,0,0-1.656.844A6.516,6.516,0,0,0,25.264,22.026ZM19.8,30.835a.342.342,0,0,0-.158.339c.012.107.064.143.149.126A.269.269,0,0,0,20,31C19.989,30.657,19.967,30.7,19.8,30.835Zm9.856-.646a.4.4,0,0,0-.186.319c-.006.106.044.2.152.183.18-.03.222-.125.243-.288C29.875,30.156,29.857,30.071,29.653,30.189ZM28.847,27.5a.39.39,0,0,0-.17.373c.012.119.066.161.16.142a.294.294,0,0,0,.233-.336C29.061,27.3,29.037,27.339,28.847,27.5Zm-2.582-2.747a.3.3,0,0,0-.191.319.223.223,0,0,0,.176.2c.114,0,.181-.041.183-.244C26.441,24.756,26.413,24.713,26.265,24.748Zm1.628-.25a1.335,1.335,0,0,0,.046.549c.037.08.058.132.128.169a.3.3,0,0,0,.139,0,.455.455,0,0,0,.2-.169.871.871,0,0,0,.122-.422,1.2,1.2,0,0,0-.043-.421.312.312,0,0,0-.126-.165.354.354,0,0,0-.253.039.841.841,0,0,0-.127.126A1.063,1.063,0,0,0,27.893,24.5ZM23.57,30.031c0,.165.011.408.331.412.288,0,.268-.353.268-.547,0-.262-.04-.534-.3-.533C23.553,29.369,23.57,29.838,23.57,30.031Zm4.554.367c.054-.22-.055-.481-.237-.417-.206.07-.222.339-.226.426-.01.163.016.178.142.12C27.873,30.5,28.124,30.4,28.124,30.4Zm-1.138-2.76h.441c.021.006.029-.043.029-.043,0-.14-.055-.4-.247-.4-.235,0-.256.274-.26.416A.031.031,0,0,0,26.986,27.638Zm-3.613-.805h.5c.018,0,.018-.012.02-.041.006-.113-.076-.416-.258-.416-.218,0-.279.267-.286.437C23.373,26.833,23.351,26.84,23.373,26.833Zm5.4-5.6a5.477,5.477,0,0,1,.541-.112l.064-.714.44-.008c.477.018.5-.846.071-.862H23.949c-.423.016-.406.88.072.862l.44.008.064.714c.19.031.372.067.538.11l0-.841h.312l.006.941c.149.048.269.089.4.142V20.394H26.1v1.229a3.3,3.3,0,0,1,.823.563,3.351,3.351,0,0,1,.823-.563V20.394h.314v1.083c.124-.053.258-.1.4-.148l0-.935h.313Zm-1.927-9.092a14.573,14.573,0,0,1,2.726.27l-.031,6.566.308.007.335-6.458c.405.094.809.223,1.2.349l.188,7.536h.214l.433-7.237c.4.156.791.346,1.171.536l.148,6.7h.322l.4-6.23c.368.217.725.461,1.069.708l.107,5.522h.544l.354-4.741c.326.278.633.581.934.887l.066,3.854H38.1l.157-2.723c.227.285.439.593.645.895L38.9,20.415l1.074-.006a14.316,14.316,0,0,1,1.461,6.328,14.529,14.529,0,0,1-2.452,8.1l0-9.574H37.887l-.01,9.662H36.683c-1.339-.791-6.354-3.655-9.758-.731-3.4-2.924-8.418-.06-9.756.731H15.894V25.261H14.812v9.72l-.013,0a14.587,14.587,0,0,1-1.106-14.564l1.317,0L15,18.223c.29-.4.611-.789.938-1.16l.071,3.352h.823l.384-4.637.005,0c.228-.2.471-.394.711-.58l.115,5.221h.446l.39-5.895c.353-.233.719-.439,1.094-.641l.109,6.536h.384l.216-6.89c.422-.2.853-.382,1.3-.54l.106,7.43h.25l.213-7.616c.418-.13.846-.24,1.279-.332l.031,4.031a2.967,2.967,0,0,0-.2,1.055,2.075,2.075,0,0,0,.556,1.432h1.537a2.159,2.159,0,0,1,.579-3.018,1.719,1.719,0,0,0,.386,1.522,1.15,1.15,0,0,1,.217,1.5l1.88,0a2.107,2.107,0,0,0-.3-2.636,3.379,3.379,0,0,1-.67-2.021c-.288,0-1.2.659-1.223,1.118a4.454,4.454,0,0,1,.605-2.29c.144-.2-.368-.21-1.212.493l0-1.468c.274-.018.559-.036.837-.036m-2.649,3.668.015-3.416a14.917,14.917,0,0,1,1.564-.2V13.8c-.167.135-.412.37-.577.537A5.835,5.835,0,0,0,24.193,15.813ZM26.9,34.661c1.472-1.528,4.331-1.906,7.068.222H32.2A4.485,4.485,0,0,0,26.9,34.661Zm0,0c-1.472-1.528-4.332-1.906-7.068.222h1.772A4.487,4.487,0,0,1,26.9,34.661Zm5.445,4.721a4.324,4.324,0,0,1-3.554.929C29.179,39.048,31.225,39.174,32.346,39.382Zm-1.535-2.2a3.467,3.467,0,0,1-2.658,2.643A3.469,3.469,0,0,1,30.811,37.187Zm2.818-.324a3.26,3.26,0,0,1-2.965,2.117A3.265,3.265,0,0,1,33.629,36.863Zm2.963-.4a4.725,4.725,0,0,1-3.764,2.8A3.777,3.777,0,0,1,36.592,36.461ZM27.707,35.6h.36l-.357,3.076-.383,0a.426.426,0,0,1-.852,0l-.381,0L25.738,35.6H26.1l.222,2.582h.316L26.46,35.6h.883l-.175,2.582h.316Zm-2.682,4.709a4.323,4.323,0,0,1-3.554-.929C22.593,39.174,24.637,39.048,25.025,40.311Zm.64-.481a3.467,3.467,0,0,1-2.658-2.643A3.469,3.469,0,0,1,25.665,39.83Zm-2.512-.85a3.262,3.262,0,0,1-2.965-2.117A3.264,3.264,0,0,1,23.153,38.98Zm-2.164.284a4.726,4.726,0,0,1-3.764-2.8A3.776,3.776,0,0,1,20.989,39.264ZM26.9,34.883,15.7,36.143l0,.015a14.536,14.536,0,0,0,22.25-.019ZM9.075,27.456c0-.352.049-.824.468-.824s.47.472.47.824c0,.322-.062.768-.47.768S9.075,27.778,9.075,27.456Zm.86,1.521a2.177,2.177,0,0,1,.114.864c0,.348-.082.912-.516.912-.466,0-.495-.564-.495-.924,0-.3-.01-.878.293-1.023A.439.439,0,0,1,9.935,28.977ZM23.318,8.357c.415,1.34.2,1.924-.547,2.152-.721.222-1.239-.132-1.648-1.459-.418-1.353-.166-1.931.54-2.149C22.385,6.681,22.9,7,23.318,8.357Zm17.5,6.53L42,14.5l-.722.978Zm6.2,16.342a5.658,5.658,0,0,0-1.317.022l0-.014c.146-.236,2.254-3.9,2.254-3.9.006-.022-.008-.048-.025-.05a11.863,11.863,0,0,0-2.047.06c-.127.039-.01-.278-.033-.59-.011-.16-.005-.31-.021-.478.828.082,2.88,0,2.88,0l.129.588A16.889,16.889,0,0,0,47.016,31.229ZM45,30.927a2.141,2.141,0,0,1-1.339.373,1.445,1.445,0,0,1-1.189-.51,1.338,1.338,0,0,1-.238-.854h.88c.017.493.075.913.537.912.563,0,.8-.5.8-1.075a1.215,1.215,0,0,0-.148-.76.708.708,0,0,0-.624-.266.972.972,0,0,0-.733.351l-.356-.252c.089-1.806-.109-2.509-.026-2.523a16.255,16.255,0,0,0,2.7-.04c.08-.01.03.39.03.53s.1.577-.044.534a7.649,7.649,0,0,0-1.93-.032l-.043.984.047.023a2.054,2.054,0,0,1,.846-.149,1.435,1.435,0,0,1,1.423,1.5A1.507,1.507,0,0,1,45,30.927Zm-2.929-10.78a9.941,9.941,0,0,0-.722-1.332l3.306-1.8s-.579-.926-.606-.965a4.444,4.444,0,0,0,.644-.352l1.851,3.327a4.4,4.4,0,0,0-.648.348c-.017-.045-.478-1.034-.478-1.034Zm-1.366-2.364c-.142-.182-.441-.5-.593-.676.273-.443.449-.724.76-1.2l-.595-.766c-.521.143-.907.243-1.359.4-.073-.105-.24-.377-.318-.476s-.373-.425-.456-.522l4.74-1.33c.054.09.34.47.4.553s.385.486.459.56L41.16,18.457C41.029,18.266,40.847,17.965,40.706,17.783ZM37.248,13.94c-.185-.153-.383-.292-.577-.436l2.446-2.954a7.885,7.885,0,0,0-.984-.7,3.251,3.251,0,0,0,.276-.277,1.984,1.984,0,0,0,.215-.317l2.913,2.411a2.338,2.338,0,0,0-.256.272,3.044,3.044,0,0,0-.237.321,9.171,9.171,0,0,0-.815-.795l-2.445,2.957C37.607,14.262,37.433,14.092,37.248,13.94Zm-3.429-2.088a4.226,4.226,0,0,1-.69-.68,3.751,3.751,0,0,0,.553-.739l.405.223a.637.637,0,0,0,.27.895.549.549,0,0,0,.791-.151c.6-.862-1.39-1.5-.62-2.881A1.549,1.549,0,0,1,36.7,8.147a3.031,3.031,0,0,1,1.015,1.012c-.171.146-.457.388-.623.552l-.27-.15c.055-.368.024-.676-.3-.858a.527.527,0,0,0-.771.4c-.124.742,1.576,1.474.677,2.768A1.8,1.8,0,0,1,33.819,11.852ZM29.894,7.327c.14.738,1.987.837,1.591,2.362a1.8,1.8,0,0,1-2.452.886,4.27,4.27,0,0,1-.881-.4,3.843,3.843,0,0,0,.264-.886l.456.07a.638.638,0,0,0,.564.748.549.549,0,0,0,.689-.418c.27-1.017-1.82-.92-1.579-2.489a1.551,1.551,0,0,1,1.911-1.1,3.068,3.068,0,0,1,1.3.6c-.11.2-.294.521-.394.733l-.3-.046c-.077-.366-.213-.644-.582-.7A.527.527,0,0,0,29.894,7.327Zm-3.432,3c-.265.008-.529.035-.793.057l-.13-4.513c.265.006.53,0,.8-.007s.528-.018.792-.039l.131,4.512C26.993,10.328,26.727,10.317,26.462,10.323Zm-3.536.634c-1.6.5-2.728-.056-3.167-1.482a2.279,2.279,0,0,1,1.776-3.024A2.281,2.281,0,0,1,24.7,7.927C25.147,9.37,24.513,10.467,22.926,10.957Zm-3.789,1.359c-.717-.222-1.367-.379-2.01-.579l-.92-.319,1.206,1.909c-.076.037-.4.258-.469.3s-.443.338-.443.338c-.577-1.022-.731-1.235-1.244-2.08-.365-.6-.635-1.05-1.13-1.744l.915-.554c1.327.388,1.563.474,2.907.9L16.771,8.543c.08-.034.478-.252.551-.3s.425-.3.425-.3c.376.736.8,1.452,1.158,2.04.316.509.479.8,1.112,1.854ZM15.15,15.143c-.186.19-.356.394-.532.592l-3.233-3.15q.293-.27.571-.554c.183-.19.363-.385.538-.584l3.233,3.15C15.534,14.778,15.333,14.953,15.15,15.143ZM12.5,18.393l-3.61-2.654c.168-.206.34-.409.5-.622s.3-.437.445-.66l3.2,2.356a11.275,11.275,0,0,0,.763-1.2,1.53,1.53,0,0,0,.24.2c.075.054.243.154.243.154A15.507,15.507,0,0,0,12.5,18.393Zm-1.4,3.234L6.968,19.886c.115-.239.236-.474.339-.719s.188-.5.279-.745l3.661,1.543a11.061,11.061,0,0,0,.464-1.34,1.6,1.6,0,0,0,.281.14c.085.035.272.093.272.093A15.567,15.567,0,0,0,11.1,21.627ZM9.53,31.291a2.087,2.087,0,0,1-1.221-.34A1.352,1.352,0,0,1,7.8,29.867a1.4,1.4,0,0,1,1.017-1.392v-.052a.96.96,0,0,1-.843-.919,1.5,1.5,0,0,1,1.548-1.413,1.774,1.774,0,0,1,1.083.267,1.372,1.372,0,0,1,.481,1.079.977.977,0,0,1-.838.986v.052a1.161,1.161,0,0,1,1,1.3A1.56,1.56,0,0,1,9.53,31.291Zm-2.186-.036c-.193-.018-.461-.019-.6-.019s-.416,0-.608.019V27.42a6,6,0,0,0-.754.516,6.421,6.421,0,0,0-.41-.5v-.059a16.068,16.068,0,0,0,2.286-1.222c.054-.028.088,0,.089.037C7.346,26.3,7.344,31.255,7.344,31.255Zm-.971-8.74c.054-.259.1-.506.137-.768l4.422.91c-.068.256-.139.512-.193.772s-.088.522-.128.784L6.19,23.3C6.257,23.048,6.321,22.775,6.373,22.515Zm41.078.518a2.933,2.933,0,0,0-.34.052,2.867,2.867,0,0,0-.325.116,6.4,6.4,0,0,0-.226-1.28l-1.116.279.124.5a6.326,6.326,0,0,0,.251.763c-.09.01-.312.045-.4.066s-.341.106-.426.14a5.8,5.8,0,0,0-.138-.79l-.124-.495-1.24.31a10.145,10.145,0,0,0,.373,1.285c-.092.011-.252.031-.34.051s-.28.092-.365.127L42.443,21.3l4.3-1.078Zm-20.6-18.46a22.153,22.153,0,0,0-21.489,27.6l7.161,0a15.306,15.306,0,1,1,28.672,0l7.137,0A22.121,22.121,0,0,0,26.851,4.573ZM30.191,44.4c.072.537-.171.729-.462.8-.262-1.423-.3-1.5-.233-1.518a.511.511,0,0,1,.569.3A2.009,2.009,0,0,1,30.191,44.4Zm14.1-5.915-1.552-1.095c-1.014-.067-1.958-.089-3.044-.163,0,0,.343-.426.613-.828a7.44,7.44,0,0,0,.4-.668c.464.046,1.466.127,1.653.149L41.461,34.6c.08-.095.27-.4.343-.512s.289-.452.347-.561c.47.979.885,1.667,1.312,2.538l1.7,1.111c-.119.154-.36.476-.467.634S44.383,38.315,44.287,38.481ZM41.331,41.9c-.174.163-.336.345-.5.518L38.2,39.627a7.8,7.8,0,0,0-.812.893,2.486,2.486,0,0,0-.248-.307,2.569,2.569,0,0,0-.28-.253l2.748-2.6a2.775,2.775,0,0,0,.261.293,2.4,2.4,0,0,0,.268.266,9.456,9.456,0,0,0-.888.71l2.633,2.789C41.7,41.579,41.507,41.73,41.331,41.9Zm-2.958,2.467c-.216.153-.472.314-.68.477l-2.612-3.682c.224-.143.452-.294.667-.45s.421-.3.63-.468l2.611,3.682C38.766,44.066,38.589,44.21,38.373,44.364ZM34.6,46.439a4.181,4.181,0,0,1-.953.17,5.268,5.268,0,0,0-.282-.88l.416-.2a.64.64,0,0,0,.888.3A.547.547,0,0,0,35,45.1c-.352-.992-2.023.268-2.708-1.164a1.549,1.549,0,0,1,.956-1.986,3.039,3.039,0,0,1,1.415-.241c.019.224.05.6.088.827l-.278.133c-.268-.257-.539-.411-.877-.249a.528.528,0,0,0-.122.86c.533.528,2.114-.432,2.647,1.052C36.4,45.111,35.783,46.115,34.6,46.439Zm-2.716.806c-.226.055-.842.173-1.067.229l-.345-.467a5.581,5.581,0,0,0-.483-.726l-.053.01.235,1.3c-.191.019-.588.073-.778.108s-.588.126-.774.173l-.808-4.44,1.5-.274a3.662,3.662,0,0,1,1.253-.094,1.167,1.167,0,0,1,.93.871,1.192,1.192,0,0,1-.593,1.4c.53.544.81.936,1.374,1.456,0,0,.295.263.271.3A5.124,5.124,0,0,1,31.88,47.245Zm-4.7-3.116a6.762,6.762,0,0,0-1.294-.094l-.017,1.118.51.006a5.993,5.993,0,0,0,.8-.03c-.014.09-.027.338-.029.43s.006.33.018.422a6.223,6.223,0,0,0-.8-.053l-.512-.007-.017,1.262a10.188,10.188,0,0,0,1.338-.032c-.014.092-.027.267-.029.36a3.5,3.5,0,0,0,.02.368l-2.942-.04.06-4.436,2.9.039a2.423,2.423,0,0,0-.009.687Zm-6.42,2.992-.422-.138c-.094-.032-.419-.148-.51-.165-.092-1.629-.2-3.175-.279-4.839.177.071.683.243.863.3s.614.191.8.24c-.015,1.19-.015,1.4.014,2.542.76-.886.887-1.079,1.642-2.042.164.056.484.166.578.194a5.146,5.146,0,0,0,.5.151C22.865,44.606,21.917,45.787,20.759,47.121ZM16.841,45.6c-.215-.158-.425-.3-.646-.449s-.454-.29-.682-.425l2.476-3.772c.216.157.468.326.689.471s.412.268.641.4ZM13.507,42.9c.03-.749.014-1.418.042-2.089l.071-.976L12.087,41.5c-.057-.063-.352-.317-.414-.377s-.476-.375-.476-.375c.79-.694,1.268-1.224,1.726-1.7.49-.507.852-.884,1.395-1.539l.771.74c-.035,1.384-.055,1.633-.122,3.038l1.576-1.638c.053.071.368.4.43.461s.394.332.394.332c-.614.553-1.2,1.143-1.672,1.646-.412.433-.857.9-1.46,1.607ZM9.884,38.6a2.512,2.512,0,0,1-1-.992c-.538-.928-.678-1.7-.073-2.363a2.9,2.9,0,0,1,.644-.5L11.779,33.4c.078.162.291.525.381.681s.3.517.4.666l-1.639.9a7.929,7.929,0,0,0-1.05.666c-.247.219-.4.306-.466.647a.622.622,0,0,0,.092.505.742.742,0,0,0,.962.348,11.8,11.8,0,0,0,1.2-.654l1.7-1.045c.036.088.273.5.32.579s.214.366.272.442l-2.026,1.173C11.259,38.665,10.67,39.015,9.884,38.6ZM40.846,33a15.343,15.343,0,0,1-28-.011H5.589a22.152,22.152,0,0,0,42.513,0ZM26.852,3.688A23.044,23.044,0,1,1,3.808,26.733,23.045,23.045,0,0,1,26.852,3.688m0-2.305A25.348,25.348,0,1,0,52.2,26.731,25.349,25.349,0,0,0,26.852,1.383"/><path class="cls-2" d="M198.557,50.627a1.107,1.107,0,1,1,1.1-1.1,1.069,1.069,0,0,1-1.1,1.1m0-2.554A1.448,1.448,0,1,0,200,49.523,1.439,1.439,0,0,0,198.557,48.073Zm.16,1.324h-.4v-.38h.324c.15,0,.342,0,.342.153C198.981,49.357,198.887,49.4,198.717,49.4Zm.577-.184c0-.4-.236-.462-.582-.462h-.733v1.5h.336v-.634h.236l.336.634h.364l-.364-.634C199.152,49.6,199.294,49.491,199.294,49.213Z"/></g></g></svg>