<svg xmlns="http://www.w3.org/2000/svg" viewBox="0 0 465.24 292.82"><defs><style>.cls-1{fill:#fff;}.cls-2{fill:#1c4e94;}.cls-3{fill:#f9c60c;}</style></defs><title>Asset 2</title><g id="Layer_2" data-name="Layer 2"><g id="Layer_1-2" data-name="Layer 1"><path class="cls-1" d="M242.57,0c-35.13,0-61.28,6.27-61.28,6.27l.06,80.4c-.14,41.6,52.15,42.48,59.71,50,7.55-7.5,59.27-8.38,59.41-50l-.06-80.4S277.69,0,242.57,0Z"/><path class="cls-2" d="M160.85,161c4.29,0,4.29,4.3,4.29,4.3v58.85s0,4.29-4.29,4.29h17.61c-4.15,0-4.29-4-4.3-4.26V196.94H195.9c4.3,0,4.3,4.3,4.3,4.3V188s0,4.3-4.3,4.3H174.31v-27h26.3c4.29,0,4.29,4.29,4.29,4.29V161H160.85Zm-98.14,0h-18c4.3,0,4.3,4.3,4.3,4.3v26.91H13.46V165.3s0-4.3,4.3-4.3H0c4.29,0,4.29,4.3,4.29,4.3v58.85s0,4.29-4.29,4.29H17.76c-4.3,0-4.3-4.29-4.3-4.29v-27.5H49v27.5s0,4.29-4.3,4.29h18c-4.29,0-4.29-4.29-4.29-4.29V165.3S58.42,161,62.71,161Zm205,4.3v4.29s0-4.29,4.3-4.29h19.6v58.85s0,4.29-4.3,4.29h18c-4.29,0-4.29-4.29-4.29-4.29V165.3h21.21c4.3,0,4.3,4.29,4.3,4.29V161H267.75Zm-155.94-5c-22.91,0-38.23,16.47-38.23,35.37,0,22,17.19,33.79,38.38,33.79s37.8-12.45,37.8-34.36C149.76,176.18,134.72,160.28,111.81,160.28Zm0,64.58c-15.75,0-27.63-12.31-27.63-29.21,0-14.6,8.45-30.64,27.63-30.64s27.35,15.47,27.35,30.07C139.16,212.12,127.42,225,111.81,224.86ZM236.5,187.2c-5.16-2.72-9.88-6-9.88-12.88,0-6.45,5.73-9.45,12-9.45,4.15,0,15.51,2,17,12.1V165.72c-4.29-3.57-11-5.44-16.75-5.44-9,0-19.9,5.59-19.9,17.18,0,14.33,13.16,17.62,22.61,22.63,5.16,2.72,9.89,6.16,9.89,13s-5.88,11.46-14.18,11.46c-5.87,0-17.61-2.85-20.77-14.33V222c6,4.87,12.31,7.16,21,7.16,11.32,0,21.91-7,21.91-19.62C259.55,195.22,246.09,191.93,236.5,187.2Zm209,41.24h19.77c-4.24,0-5.92-4.39-5.92-4.39l-29.16-64.86L401.27,224s-1.26,3.33-4.36,4.23c-10.05-2.75-14.61-30.66-30.24-30.66,8.31-2.73,16.11-9.35,16.11-18.38,0-9.3-8-18.18-24.34-18.18H337.65c4.3,0,4.3,4.3,4.3,4.3v58.85s0,4.29-4.3,4.29h17.2c-4.29,0-4.29-4.29-4.29-4.29v-25c31.18,0,22.2,29.27,38.24,29.27h19.3c-4.58,0-2-4.43-2-4.43l8.1-18.62H441.1c2.61,6.12,5.3,12.77,7.59,18.61C449.29,225.55,450.43,228.44,445.47,228.44Zm-94.91-62.86h3.86c14.75,0,19.33,6.88,19.33,14.32,0,8.73-5.61,15.9-23.19,15.9Zm65.62,35.23,11.45-26.92c1.73,4,7,16.46,11.61,26.92Z"/><path class="cls-2" d="M224.56,288.9H209.44V274.69h11.33a2.19,2.19,0,0,1,2.24,2.24V270a2.19,2.19,0,0,1-2.24,2.24H209.51V258.18h13.72a2.19,2.19,0,0,1,2.24,2.24v-4.48h-23a2.19,2.19,0,0,1,2.24,2.24v30.7a2.19,2.19,0,0,1-2.24,2.24H226.8v-4.47A2.2,2.2,0,0,1,224.56,288.9Zm127-28.48a2.2,2.2,0,0,1,2.25-2.24h10.23v30.7a2.2,2.2,0,0,1-2.25,2.24h9.42a2.2,2.2,0,0,1-2.25-2.24v-30.7h11.07a2.19,2.19,0,0,1,2.24,2.24v-4.48H351.6Zm-93,14.59c4.33-1.42,8.4-4.88,8.4-9.58,0-4.86-4.19-9.49-12.7-9.49H243.44a2.19,2.19,0,0,1,2.24,2.24v30.7a2.19,2.19,0,0,1-2.24,2.24h9a2.19,2.19,0,0,1-2.24-2.24v-13c16.27,0,11.58,15.27,19.95,15.27h5.09C269.35,291.15,267.17,275,258.59,275Zm-8.41-16.68h2c7.69,0,10.08,3.58,10.08,7.47,0,4.55-2.92,8.29-12.1,8.29Zm47.6,11.28c-2.69-1.42-5.16-3.14-5.16-6.72,0-3.37,3-4.94,6.28-4.94,2.17,0,8.09,1,8.89,6.32V258.4a14.49,14.49,0,0,0-8.74-2.84c-4.71,0-10.38,2.92-10.38,9,0,7.47,6.87,9.19,11.79,11.8,2.69,1.43,5.16,3.22,5.16,6.8s-3.06,6-7.4,6c-3.06,0-9.18-1.49-10.83-7.48v6.13a16.22,16.22,0,0,0,11,3.74c5.89,0,11.42-3.66,11.42-10.24C309.8,273.79,302.78,272.07,297.78,269.61Zm38.86-13.67h-8.82a2.19,2.19,0,0,1,2.24,2.24v30.7a2.19,2.19,0,0,1-2.24,2.24h8.82a2.2,2.2,0,0,1-2.25-2.24v-30.7A2.2,2.2,0,0,1,336.64,255.94Zm-193.4,0h-8.81a2.19,2.19,0,0,1,2.24,2.24v30.7a2.19,2.19,0,0,1-2.24,2.24h8.81a2.19,2.19,0,0,1-2.24-2.24v-30.7A2.19,2.19,0,0,1,143.24,255.94Zm-30.41,2.24v24.87c-1.39-1.54-22-24.44-24.06-27.11H83.92a2.19,2.19,0,0,1,2.23,2.24v30.7a2.19,2.19,0,0,1-2.23,2.24H91a2.2,2.2,0,0,1-2.25-2.24V262.51l26.75,29.88V258.18a2.19,2.19,0,0,1,2.23-2.24h-7.17A2.2,2.2,0,0,1,112.83,258.18Zm-49,0v19.49c0,6-4.11,10.76-10.76,10.76S42.91,284,42.91,277.83V258.18a2.2,2.2,0,0,1,2.25-2.24H35.59a2.19,2.19,0,0,1,2.24,2.24v19.49c0,8.52,5.38,14.13,14.42,14.13,6.27,0,13.84-4.13,13.84-13.65v-20a2.19,2.19,0,0,1,2.24-2.24H61.59A2.19,2.19,0,0,1,63.83,258.18Zm122.23,0L174.71,284.4c-1.44-3.22-7.59-17.38-11.08-26.22-.32-.79-.9-2.24,1.19-2.24h-9c1.57,0,2.1,1.3,2.51,2.24,3.87,8.91,14.93,34.64,14.93,34.64l15.24-34.64s1-2.24,2.53-2.24H185C187.32,255.94,186.06,258.18,186.06,258.18Zm236.29-2.24c2.3,0,.39,2.24.39,2.24l-11.1,14.87c-.68-1-5.33-7.83-10-14.87-.5-.75-.89-2.24.58-2.24h-9c1.5,0,2.48,1.38,3.06,2.24,4,5.94,11.22,16.68,12,17.85v12.85a2.19,2.19,0,0,1-2.24,2.24h9.41a2.2,2.2,0,0,1-2.25-2.24V274.09l12.06-15.91s1.52-2.24,3.24-2.24Z"/><path class="cls-3" d="M200.75,22.55V84c0,27.17,35.45,27.63,40.51,32.69,5.06-5.06,40.51-5.52,40.51-32.69V22.55s-10.35-3-40.51-3.1S200.75,22.55,200.75,22.55Z"/><path class="cls-2" d="M285.4,86c0,28.33-38.62,29.28-44.14,34.79-5.52-5.51-44.14-6.46-44.14-34.79V19s11.28-3.52,44.14-3.38S285.4,19,285.4,19ZM242.7,2.76c-33.45,0-58.35,6-58.35,6l.06,77.14c-.13,39.92,49.66,40.77,56.85,48,7.2-7.19,56.44-8,56.57-48l-.05-77.14S276.14,2.76,242.7,2.76Z"/><path class="cls-2" d="M278,21.78l-9.21,4-12.4,30.42c-5-.31-10-.51-14.93-.51-2.42,0-4.88.06-7.36.14l15.26-36.3c-2.86-.06-5.6-.1-8.14-.11l-9.64,4.15L212.34,69.72c3.23-.33,7.84-.62,11.66-.86l-14.22,7-7.34,17.59c2.13,5.36,6,9.16,11,12.28l15.46-37.15q5.92-.26,12.64-.26c7,0,13.31.24,18.94.6l-11.75,5.65-16,38.7c3.55,1.07,7.25,2.13,8.58,3.46,1.33-1.33,5.23-2.47,7.38-3.1l33.13-79.67V22.55C280.31,22.18,279.67,22.07,278,21.78Z"/><path class="cls-2" d="M427.12,279.13a6.27,6.27,0,1,1-6.23,6.26,6.16,6.16,0,0,1,6.23-6.26Zm0,1a5.31,5.31,0,0,0,0,10.6,5.31,5.31,0,0,0,0-10.6ZM425.92,289h-1.11v-7a11.65,11.65,0,0,1,2-.17,3.62,3.62,0,0,1,2.17.53,1.67,1.67,0,0,1,.65,1.44,1.74,1.74,0,0,1-1.37,1.7v.06c.61.11,1,.66,1.17,1.7a6.06,6.06,0,0,0,.44,1.72h-1.17a5.15,5.15,0,0,1-.47-1.78,1.3,1.3,0,0,0-1.49-1.23h-.79Zm0-3.87h.81c.92,0,1.7-.33,1.7-1.2,0-.6-.45-1.22-1.7-1.22-.36,0-.61,0-.81.05Z"/></g></g></svg>