<svg xmlns="http://www.w3.org/2000/svg" viewBox="0 0 199.275 38"><defs><style>.cls-1{fill:#1f356a;}</style></defs><title>Asset 15</title><g id="Layer_2" data-name="Layer 2"><g id="Layer_1-2" data-name="Layer 1"><path class="cls-1" d="M4.98,19.227H.9a.5.5,0,0,1-.5-.5V1.212A.478.478,0,0,1,.9.74H4.98a.478.478,0,0,1,.5.472V18.729A.5.5,0,0,1,4.98,19.227Z"/><path class="cls-1" d="M23.615,19.227H20.281a1.134,1.134,0,0,1-1.045-.671l-4.9-8.336c-.1-.175-.175-.2-.249-.2s-.124.05-.124.223v8.485a.5.5,0,0,1-.5.5H9.731a.521.521,0,0,1-.523-.5V1.661A.934.934,0,0,1,10.129.74h3.284c.473,0,.746.273,1,.722l5.05,8.583c.1.175.15.225.224.225s.125-.026.125-.225V1.237a.5.5,0,0,1,.5-.5h3.733a.5.5,0,0,1,.5.5V18.306A.935.935,0,0,1,23.615,19.227Z"/><path class="cls-1" d="M39.187,4.87H35.479V18.729a.5.5,0,0,1-.5.5H30.926a.5.5,0,0,1-.5-.5V4.87H26.647a.479.479,0,0,1-.5-.473V1.212a.478.478,0,0,1,.5-.472h12.54a.5.5,0,0,1,.522.472V4.4A.5.5,0,0,1,39.187,4.87Z"/><path class="cls-1" d="M47.993,19.451c-4.13,0-7.639-2.114-7.639-8.187V8.7c0-6.071,3.509-8.211,7.639-8.211s7.639,2.14,7.639,8.211v2.562C55.632,17.337,52.123,19.451,47.993,19.451ZM50.506,8.7c0-2.663-.771-3.757-2.513-3.757S45.48,6.039,45.48,8.7v2.562c0,2.663.771,3.733,2.513,3.733s2.513-1.07,2.513-3.733Z"/><path class="cls-1" d="M68.766,19.905a9.953,9.953,0,1,1,9.952-9.953A9.95,9.95,0,0,1,68.766,19.905Zm0-18.412a8.46,8.46,0,1,0,8.46,8.459A8.453,8.453,0,0,0,68.766,1.493Zm.6,9.157-3.707,4.428a1.019,1.019,0,0,1-1.419.125.988.988,0,0,1-.124-1.394l3.234-3.831L64.113,6.121a1.007,1.007,0,1,1,1.543-1.294l3.707,4.429a1,1,0,0,1,.274.7A1.086,1.086,0,0,1,69.363,10.65Zm5.225,0-3.707,4.428a1.017,1.017,0,0,1-1.418.125.987.987,0,0,1-.125-1.394l3.235-3.831L69.338,6.121a1.007,1.007,0,1,1,1.543-1.294l3.707,4.429a1,1,0,0,1,.274.7A1.086,1.086,0,0,1,74.588,10.65Z"/><path d="M91.688,19.179a40.268,40.268,0,0,1-4.706.217c-2.583,0-5.141-.507-5.141-4.489V1.779a.484.484,0,0,1,.483-.484h1.231a.484.484,0,0,1,.482.484V14.907c0,1.834.411,2.51,2.969,2.51h4.658a.261.261,0,0,1,.265.29v1.134A.342.342,0,0,1,91.688,19.179Z"/><path d="M99.676,19.4c-3.789,0-6.54-2.22-6.54-7.578V8.705c0-5.359,2.751-7.579,6.54-7.579s6.516,2.22,6.516,7.579v3.113C106.192,17.176,103.465,19.4,99.676,19.4Zm4.3-10.691c0-4.055-1.642-5.6-4.3-5.6-2.631,0-4.32,1.544-4.32,5.6v3.113c0,4.054,1.665,5.6,4.32,5.6,2.631,0,4.3-1.545,4.3-5.6Z"/><path d="M121.879,19.227h-1.5a.8.8,0,0,1-.772-.386L112.153,4.675c-.024-.049-.048-.073-.072-.073s-.024.024-.024.073V18.768a.454.454,0,0,1-.434.459h-1.256c-.241,0-.434-.048-.434-.29V1.972a.681.681,0,0,1,.7-.677h1.327c.676,0,.8.122.99.484l7.409,14.093.048.073c.024,0,.024-.048.024-.073V1.754a.454.454,0,0,1,.435-.459h1.279a.438.438,0,0,1,.434.459V18.527A.7.7,0,0,1,121.879,19.227Z"/><path d="M131.654,19.4a33.931,33.931,0,0,1-4.392-.242.551.551,0,0,1-.508-.6V1.972a.567.567,0,0,1,.508-.6,34.116,34.116,0,0,1,4.392-.242c4.465,0,7.312,2.294,7.312,7.506v3.259C138.966,17.055,136.119,19.4,131.654,19.4ZM136.77,8.632c0-4.368-2.22-5.623-5.116-5.623-1.135,0-1.883.025-2.679.073V17.465c.772.048,1.544.048,2.679.048,2.9,0,5.116-1.279,5.116-5.622Z"/><path d="M148.741,19.4c-3.79,0-6.541-2.22-6.541-7.578V8.705c0-5.359,2.751-7.579,6.541-7.579s6.516,2.22,6.516,7.579v3.113C155.257,17.176,152.529,19.4,148.741,19.4Zm4.295-10.691c0-4.055-1.641-5.6-4.295-5.6-2.631,0-4.32,1.544-4.32,5.6v3.113c0,4.054,1.665,5.6,4.32,5.6,2.63,0,4.295-1.545,4.295-5.6Z"/><path d="M170.944,19.227h-1.5a.8.8,0,0,1-.773-.386L161.218,4.675c-.024-.049-.048-.073-.072-.073s-.025.024-.025.073V18.768a.453.453,0,0,1-.434.459h-1.255c-.241,0-.434-.048-.434-.29V1.972a.681.681,0,0,1,.7-.677h1.327c.676,0,.8.122.99.484l7.409,14.093.048.073c.024,0,.024-.048.024-.073V1.754a.454.454,0,0,1,.434-.459h1.279a.438.438,0,0,1,.435.459V18.527A.7.7,0,0,1,170.944,19.227Z"/><path class="cls-1" d="M12.419,26.788l-1.436,9.975C10.845,37.725,10.4,38,9.608,38H8.783c-.687,0-1.054-.337-1.268-1.222L6.309,31.736c-.031-.136-.031-.167-.092-.167s-.077.031-.107.167L4.9,36.778C4.689,37.663,4.323,38,3.636,38H2.81c-.794,0-1.237-.275-1.374-1.237L0,26.788v-.046c0-.137.122-.213.26-.213H1.879a.28.28,0,0,1,.259.274l1.1,9.119c.016.138.016.229.077.229s.061-.091.091-.229L4.72,30.561a.848.848,0,0,1,.962-.687H6.736a.848.848,0,0,1,.963.687l1.313,5.361c.031.138.031.229.092.229s.061-.091.076-.229l1.1-9.119a.281.281,0,0,1,.26-.274h1.619c.137,0,.26.076.26.213Z"/><path class="cls-1" d="M18.084,38c-2.52,0-4.353-1.405-4.353-4.766V31.172c0-3.361,1.833-4.766,4.353-4.766s4.354,1.405,4.354,4.766v2.062C22.438,36.6,20.605,38,18.084,38ZM20.3,31.172c0-2.016-.717-2.918-2.215-2.918s-2.214.9-2.214,2.918v2.062c0,2.016.717,2.917,2.214,2.917s2.215-.9,2.215-2.917Z"/><path class="cls-1" d="M32.748,37.877H30.884c-.168,0-.229-.152-.3-.3l-2.2-4.078h-.214c-.4,0-1.008-.046-1.359-.061v4.139a.293.293,0,0,1-.29.3H24.988a.306.306,0,0,1-.306-.3V27.063c0-.3.184-.413.489-.458a20.894,20.894,0,0,1,2.994-.2c2.353,0,4.4.84,4.4,3.453V30A3.094,3.094,0,0,1,30.5,33.111l2.4,4.461a.2.2,0,0,1,.031.123A.168.168,0,0,1,32.748,37.877Zm-2.292-8.018c0-1.146-.763-1.635-2.291-1.635-.321,0-1.084.03-1.359.061v3.436c.244.015,1.1.047,1.359.047,1.574,0,2.291-.428,2.291-1.773Z"/><path class="cls-1" d="M40.659,37.786a16.685,16.685,0,0,1-2.6.214c-1.985,0-3.528-.534-3.528-3.131V26.834a.306.306,0,0,1,.3-.3h1.513a.3.3,0,0,1,.3.3v8.035c0,1.008.306,1.313,1.192,1.313h2.81a.307.307,0,0,1,.306.306v.978C40.965,37.68,40.888,37.74,40.659,37.786Z"/><path class="cls-1" d="M46.081,38a25.948,25.948,0,0,1-3.009-.184.416.416,0,0,1-.4-.473V27.063a.417.417,0,0,1,.4-.474,25.993,25.993,0,0,1,3.009-.183c3.055,0,4.8,1.65,4.8,4.674v2.245C50.877,36.35,49.136,38,46.081,38Zm2.688-6.92c0-2.291-1.161-2.886-2.688-2.886-.565,0-.963.03-1.283.045v7.928c.32.015.718.045,1.283.045,1.527,0,2.688-.6,2.688-2.887Z"/><path class="cls-1" d="M63.631,37.786a14.438,14.438,0,0,1-2.9.214c-1.985,0-3.528-.534-3.528-3.131V29.537c0-2.6,1.543-3.131,3.528-3.131a14.438,14.438,0,0,1,2.9.214c.229.03.3.107.3.32v.979a.306.306,0,0,1-.3.3H60.514c-.886,0-1.206.3-1.206,1.313v1.65h4.139a.307.307,0,0,1,.306.306v1.1a.306.306,0,0,1-.306.3H59.308v1.972c0,1.008.32,1.313,1.206,1.313h3.117a.306.306,0,0,1,.3.306v.978C63.936,37.68,63.86,37.756,63.631,37.786Z"/><path class="cls-1" d="M69.663,38a25.963,25.963,0,0,1-3.009-.184.416.416,0,0,1-.4-.473V27.063a.417.417,0,0,1,.4-.474,26.009,26.009,0,0,1,3.009-.183c3.055,0,4.8,1.65,4.8,4.674v2.245C74.459,36.35,72.718,38,69.663,38Zm2.689-6.92c0-2.291-1.161-2.886-2.689-2.886-.565,0-.962.03-1.283.045v7.928c.321.015.718.045,1.283.045,1.528,0,2.689-.6,2.689-2.887Z"/><path class="cls-1" d="M80.828,38c-2.459,0-4.2-1.07-4.2-4.323V26.819a.292.292,0,0,1,.305-.29h1.512a.293.293,0,0,1,.306.29v6.858c0,1.741.428,2.567,2.077,2.567s2.078-.826,2.078-2.567V26.819a.292.292,0,0,1,.3-.29h1.512a.293.293,0,0,1,.306.29v6.858C85.029,36.93,83.287,38,80.828,38Z"/><path class="cls-1" d="M93.933,37.756A11.626,11.626,0,0,1,91.52,38c-1.833,0-4.323-.9-4.323-4.675V31.08c0-3.834,2.49-4.674,4.323-4.674a11.553,11.553,0,0,1,2.413.244c.2.062.336.138.336.352v1.023c0,.184-.076.322-.305.322h-.031c-.534-.047-1.573-.123-2.383-.123-1.283,0-2.214.687-2.214,2.856v2.245c0,2.124.931,2.857,2.214,2.857.81,0,1.849-.076,2.383-.122h.031c.229,0,.305.137.305.321v1.024C94.269,37.618,94.132,37.7,93.933,37.756Z"/><path class="cls-1" d="M104.518,37.877H102.9a.323.323,0,0,1-.291-.259l-.7-2.9H98.393l-.7,2.9a.323.323,0,0,1-.29.259H95.781a.26.26,0,0,1-.275-.259.725.725,0,0,0,.015-.076l2.5-9.578a2.225,2.225,0,0,1,4.246,0l2.5,9.578a.686.686,0,0,0,.016.076A.26.26,0,0,1,104.518,37.877Zm-4.124-9.439c-.046-.184-.092-.244-.245-.244s-.2.06-.244.244l-1.1,4.537h2.688Z"/><path class="cls-1" d="M112.353,28.3H109.68v9.272a.306.306,0,0,1-.305.3h-1.513a.306.306,0,0,1-.3-.3V28.3h-2.673a.282.282,0,0,1-.306-.275V26.819a.293.293,0,0,1,.306-.29h7.469a.292.292,0,0,1,.305.29v1.206A.281.281,0,0,1,112.353,28.3Z"/><path class="cls-1" d="M116.263,37.877h-1.512a.306.306,0,0,1-.306-.3V26.819a.293.293,0,0,1,.306-.29h1.512a.293.293,0,0,1,.306.29V37.572A.306.306,0,0,1,116.263,37.877Z"/><path class="cls-1" d="M123.166,38c-2.52,0-4.353-1.405-4.353-4.766V31.172c0-3.361,1.833-4.766,4.353-4.766s4.354,1.405,4.354,4.766v2.062C127.52,36.6,125.687,38,123.166,38Zm2.215-6.828c0-2.016-.718-2.918-2.215-2.918s-2.214.9-2.214,2.918v2.062c0,2.016.717,2.917,2.214,2.917s2.215-.9,2.215-2.917Z"/><path class="cls-1" d="M137.738,37.877H136.2a.821.821,0,0,1-.932-.549l-3.391-7.439c-.046-.091-.092-.123-.138-.123s-.076.032-.076.123v7.683a.293.293,0,0,1-.29.3h-1.3a.306.306,0,0,1-.3-.3V27.139a.612.612,0,0,1,.611-.61h1.65c.32,0,.488.091.672.488l3.559,7.852c.031.076.076.121.122.121.03,0,.077-.045.077-.137V26.819a.28.28,0,0,1,.29-.29h1.313a.28.28,0,0,1,.29.29V37.267A.612.612,0,0,1,137.738,37.877Z"/><path class="cls-1" d="M151.408,37.756a11.649,11.649,0,0,1-2.414.244c-1.833,0-4.323-.9-4.323-4.675V31.08c0-3.834,2.49-4.674,4.323-4.674a11.575,11.575,0,0,1,2.414.244c.2.062.335.138.335.352v1.023c0,.184-.076.322-.305.322h-.03c-.535-.047-1.574-.123-2.383-.123-1.284,0-2.215.687-2.215,2.856v2.245c0,2.124.931,2.857,2.215,2.857.809,0,1.848-.076,2.383-.122h.03c.229,0,.305.137.305.321v1.024C151.743,37.618,151.606,37.7,151.408,37.756Z"/><path class="cls-1" d="M160.266,37.786a14.424,14.424,0,0,1-2.9.214c-1.986,0-3.529-.534-3.529-3.131V29.537c0-2.6,1.543-3.131,3.529-3.131a14.424,14.424,0,0,1,2.9.214c.229.03.305.107.305.32v.979a.306.306,0,0,1-.305.3H157.15c-.886,0-1.207.3-1.207,1.313v1.65h4.14a.306.306,0,0,1,.305.306v1.1a.3.3,0,0,1-.305.3h-4.14v1.972c0,1.008.321,1.313,1.207,1.313h3.116a.306.306,0,0,1,.305.306v.978C160.571,37.68,160.5,37.756,160.266,37.786Z"/><path class="cls-1" d="M170.866,37.877h-1.543a.821.821,0,0,1-.932-.549L165,29.889c-.046-.091-.091-.123-.137-.123s-.076.032-.076.123v7.683a.294.294,0,0,1-.291.3h-1.3a.306.306,0,0,1-.306-.3V27.139a.612.612,0,0,1,.611-.61h1.65c.321,0,.489.091.672.488l3.559,7.852c.031.076.077.121.123.121.03,0,.076-.045.076-.137V26.819a.28.28,0,0,1,.29-.29h1.314a.28.28,0,0,1,.29.29V37.267A.613.613,0,0,1,170.866,37.877Z"/><path class="cls-1" d="M180.6,28.3h-2.674v9.272a.306.306,0,0,1-.305.3h-1.512a.306.306,0,0,1-.306-.3V28.3h-2.673a.282.282,0,0,1-.306-.275V26.819a.293.293,0,0,1,.306-.29h7.47a.292.292,0,0,1,.305.29v1.206A.281.281,0,0,1,180.6,28.3Z"/><path class="cls-1" d="M190.752,37.877h-1.863c-.168,0-.229-.152-.306-.3l-2.2-4.078h-.213c-.4,0-1.008-.046-1.36-.061v4.139a.293.293,0,0,1-.29.3h-1.527a.306.306,0,0,1-.306-.3V27.063c0-.3.183-.413.489-.458a20.884,20.884,0,0,1,2.994-.2c2.352,0,4.4.84,4.4,3.453V30a3.1,3.1,0,0,1-2.062,3.116l2.4,4.461a.2.2,0,0,1,.031.123A.168.168,0,0,1,190.752,37.877Zm-2.291-8.018c0-1.146-.764-1.635-2.291-1.635-.321,0-1.085.03-1.36.061v3.436c.245.015,1.1.047,1.36.047,1.573,0,2.291-.428,2.291-1.773Z"/><path class="cls-1" d="M198.97,37.786a14.447,14.447,0,0,1-2.9.214c-1.985,0-3.528-.534-3.528-3.131V29.537c0-2.6,1.543-3.131,3.528-3.131a14.447,14.447,0,0,1,2.9.214c.229.03.305.107.305.32v.979a.306.306,0,0,1-.305.3h-3.117c-.886,0-1.206.3-1.206,1.313v1.65h4.139a.307.307,0,0,1,.306.306v1.1a.306.306,0,0,1-.306.3h-4.139v1.972c0,1.008.32,1.313,1.206,1.313h3.117a.306.306,0,0,1,.305.306v.978C199.275,37.68,199.2,37.756,198.97,37.786Z"/></g></g></svg>