<?xml version="1.0" encoding="UTF-8"?>
<svg xmlns="http://www.w3.org/2000/svg" xmlns:xlink="http://www.w3.org/1999/xlink" width="250px" height="76px" viewBox="0 0 251 76" version="1.1">
<g id="surface1">
<path style=" stroke:none;fill-rule:nonzero;fill:rgb(53.333333%,10.980392%,10.980392%);fill-opacity:1;" d="M 127.6875 49.476562 L 127.6875 48.375 C 130.164062 48.0625 130.519531 47.746094 130.003906 46.214844 C 129.496094 44.679688 128.707031 42.558594 127.84375 40.167969 L 119.476562 40.167969 C 118.847656 41.933594 118.261719 43.585938 117.746094 45.238281 C 116.882812 47.710938 117.238281 48.101562 120.179688 48.375 L 120.179688 49.476562 L 111.660156 49.476562 L 111.660156 48.375 C 114.136719 48.019531 114.6875 47.78125 116.058594 44.332031 L 124.1875 23.71875 L 125.410156 23.363281 C 127.84375 30.121094 130.476562 37.582031 132.988281 44.414062 C 134.242188 47.789062 134.753906 48.144531 137.304688 48.382812 L 137.304688 49.484375 L 127.6875 49.484375 Z M 123.839844 28.46875 L 123.765625 28.46875 C 122.507812 31.84375 121.253906 35.261719 120.074219 38.480469 L 127.300781 38.480469 Z M 123.839844 28.46875 "/>
<path style=" stroke:none;fill-rule:nonzero;fill:rgb(53.333333%,10.980392%,10.980392%);fill-opacity:1;" d="M 159.03125 49.476562 L 159.03125 48.457031 C 161.34375 48.222656 161.777344 48.066406 161.777344 45.277344 L 161.777344 38.726562 C 161.777344 35.9375 160.792969 34.171875 158.316406 34.171875 C 156.902344 34.171875 155.410156 34.960938 153.917969 36.214844 C 153.996094 36.6875 154.039062 37.121094 154.039062 37.867188 L 154.039062 45.523438 C 154.039062 48 154.394531 48.234375 156.546875 48.464844 L 156.546875 49.484375 L 148.144531 49.484375 L 148.144531 48.464844 C 150.578125 48.230469 150.933594 48.035156 150.933594 45.441406 L 150.933594 38.683594 C 150.933594 35.777344 149.917969 34.164062 147.519531 34.164062 C 145.949219 34.164062 144.414062 35.226562 143.238281 36.207031 L 143.238281 45.433594 C 143.238281 47.984375 143.550781 48.222656 145.476562 48.457031 L 145.476562 49.476562 L 137.191406 49.476562 L 137.191406 48.457031 C 139.785156 48.222656 140.132812 47.984375 140.132812 45.433594 L 140.132812 37.304688 C 140.132812 34.792969 140.015625 34.597656 137.734375 34.242188 L 137.734375 33.34375 C 139.464844 33.027344 141.464844 32.519531 143.195312 31.730469 L 143.195312 34.910156 C 144.019531 34.359375 144.882812 33.65625 146.0625 32.910156 C 147.078125 32.28125 148.027344 31.851562 149.28125 31.851562 C 151.164062 31.851562 152.851562 33.027344 153.640625 35.070312 C 154.777344 34.207031 155.917969 33.460938 156.894531 32.875 C 157.71875 32.324219 158.742188 31.855469 159.839844 31.855469 C 162.898438 31.855469 164.824219 34.019531 164.824219 37.867188 L 164.824219 45.445312 C 164.824219 48.074219 165.136719 48.234375 167.375 48.472656 L 167.375 49.492188 L 159.03125 49.492188 Z M 159.03125 49.476562 "/>
<path style=" stroke:none;fill-rule:nonzero;fill:rgb(53.333333%,10.980392%,10.980392%);fill-opacity:1;" d="M 179.464844 49.476562 L 179.464844 48.457031 C 181.746094 48.222656 182.058594 47.984375 182.058594 45.433594 L 182.058594 38.914062 C 182.058594 35.691406 180.839844 34.082031 178.210938 34.082031 C 176.71875 34.082031 175.226562 34.828125 174.125 36.082031 L 174.125 45.425781 C 174.125 47.9375 174.320312 48.214844 176.640625 48.453125 L 176.640625 49.46875 L 168.316406 49.46875 L 168.359375 48.453125 C 170.714844 48.257812 171.027344 48.019531 171.027344 45.425781 L 171.027344 26.699219 C 171.027344 24.222656 170.953125 24.027344 168.359375 23.789062 L 168.359375 22.890625 C 170.242188 22.613281 172.597656 21.984375 174.132812 21.515625 L 174.132812 34.710938 C 175.503906 33.292969 177.625 31.84375 179.742188 31.84375 C 182.921875 31.800781 185.160156 33.84375 185.160156 38.558594 L 185.160156 45.425781 C 185.160156 48.019531 185.433594 48.257812 187.753906 48.453125 L 187.753906 49.46875 L 179.464844 49.46875 Z M 179.464844 49.476562 "/>
<path style=" stroke:none;fill-rule:nonzero;fill:rgb(53.333333%,10.980392%,10.980392%);fill-opacity:1;" d="M 201.28125 46.136719 C 198.804688 49.238281 196.101562 49.945312 194.878906 49.945312 C 190.050781 49.945312 187.226562 46.019531 187.226562 41.578125 C 187.226562 38.871094 188.207031 36.472656 189.820312 34.710938 C 191.429688 32.902344 193.550781 31.84375 195.550781 31.84375 L 195.589844 31.84375 C 198.847656 31.84375 201.484375 34.75 201.484375 37.8125 C 201.484375 38.601562 201.289062 38.914062 200.578125 39.066406 C 199.90625 39.183594 195 39.574219 190.328125 39.734375 C 190.363281 45.078125 193.429688 47.273438 196.175781 47.273438 C 197.746094 47.273438 199.238281 46.644531 200.652344 45.3125 Z M 194.609375 33.300781 C 192.835938 33.300781 191.109375 34.945312 190.523438 38.132812 C 192.71875 38.132812 194.878906 38.089844 197.160156 38.015625 C 197.871094 38.015625 198.101562 37.777344 198.101562 37.226562 C 198.136719 35.183594 196.804688 33.300781 194.644531 33.300781 Z M 194.609375 33.300781 "/>
<path style=" stroke:none;fill-rule:nonzero;fill:rgb(53.333333%,10.980392%,10.980392%);fill-opacity:1;" d="M 208.761719 36.007812 C 209.941406 34.039062 211.628906 31.84375 213.511719 31.84375 C 214.847656 31.84375 215.789062 32.859375 215.789062 33.808594 C 215.789062 34.597656 215.28125 35.378906 214.535156 35.734375 C 214.066406 35.929688 213.710938 35.894531 213.476562 35.65625 C 212.925781 35.070312 212.457031 34.835938 211.824219 34.835938 C 210.804688 34.835938 209.542969 36.011719 208.6875 38.210938 L 208.6875 45.390625 C 208.6875 47.984375 208.878906 48.214844 211.90625 48.453125 L 211.90625 49.46875 L 202.878906 49.46875 L 202.878906 48.453125 C 205.3125 48.214844 205.589844 47.976562 205.589844 45.390625 L 205.589844 37.261719 C 205.589844 34.667969 205.394531 34.515625 203.15625 34.199219 L 203.15625 33.335938 C 205.082031 33.023438 206.808594 32.546875 208.691406 31.726562 L 208.691406 36.007812 Z M 208.761719 36.007812 "/>
<path style=" stroke:none;fill-rule:nonzero;fill:rgb(53.333333%,10.980392%,10.980392%);fill-opacity:1;" d="M 226.570312 36.945312 C 225.824219 34.632812 224.449219 33.054688 222.527344 33.054688 C 221.035156 33.054688 219.972656 34.234375 219.972656 35.769531 C 219.972656 37.496094 221.542969 38.4375 223.3125 39.183594 C 226.253906 40.40625 228.261719 41.8125 228.261719 44.527344 C 228.261719 48.097656 224.925781 49.945312 221.785156 49.945312 C 219.785156 49.945312 217.980469 49.199219 217.269531 48.605469 C 216.996094 48.054688 216.640625 45.382812 216.640625 43.976562 L 217.660156 43.78125 C 218.363281 46.375 220.132812 48.648438 222.492188 48.648438 C 223.949219 48.648438 225.28125 47.546875 225.28125 45.898438 C 225.28125 44.171875 224.144531 43.230469 222.175781 42.328125 C 219.820312 41.226562 217.269531 39.929688 217.269531 36.914062 C 217.269531 34.164062 219.625 31.84375 223.238281 31.84375 C 224.847656 31.800781 225.90625 32.199219 226.730469 32.511719 C 227.042969 33.417969 227.476562 35.734375 227.59375 36.71875 Z M 226.570312 36.945312 "/>
<path style=" stroke:none;fill-rule:nonzero;fill:rgb(53.333333%,10.980392%,10.980392%);fill-opacity:1;" d="M 237.390625 49.433594 C 236.722656 49.789062 236.09375 49.945312 235.746094 49.945312 C 233.269531 49.945312 231.894531 48.375 231.894531 45.273438 L 231.894531 33.851562 L 229.183594 33.851562 L 229.03125 33.460938 L 230.089844 32.324219 L 231.894531 32.324219 L 231.894531 29.457031 L 234.449219 26.863281 L 235 26.941406 L 235 32.324219 L 239.433594 32.324219 C 239.789062 32.714844 239.671875 33.578125 239.195312 33.859375 L 234.992188 33.859375 L 234.992188 43.949219 C 234.992188 47.128906 236.289062 47.71875 237.273438 47.71875 C 238.253906 47.71875 239.152344 47.328125 239.703125 47.050781 L 240.0625 48.066406 Z M 237.390625 49.433594 "/>
<path style=" stroke:none;fill-rule:nonzero;fill:rgb(12.941176%,15.294118%,12.941176%);fill-opacity:1;" d="M 38.570312 25.050781 C 36.214844 25.210938 35.3125 25.757812 35.113281 27.367188 C 34.992188 28.425781 34.917969 30.113281 34.917969 33.726562 L 34.917969 36.945312 C 34.917969 41.578125 34.210938 44.917969 31.933594 47.316406 C 30.128906 49.199219 27.5 50.027344 24.90625 50.027344 C 22.625 50.027344 20.351562 49.476562 18.621094 48.144531 C 16.265625 46.339844 15.164062 43.398438 15.164062 38.800781 L 15.164062 29.019531 C 15.164062 25.484375 14.851562 25.332031 11.75 25.050781 L 11.75 23.949219 L 21.921875 23.949219 L 21.921875 25.050781 C 18.816406 25.246094 18.503906 25.484375 18.503906 29.019531 L 18.503906 37.929688 C 18.503906 44.253906 21.015625 47.867188 25.886719 47.867188 C 31.542969 47.867188 33.304688 43.152344 33.304688 36.675781 L 33.304688 33.734375 C 33.304688 30.121094 33.1875 28.46875 33.035156 27.253906 C 32.796875 25.722656 31.976562 25.253906 29.226562 25.058594 L 29.226562 23.957031 L 38.570312 23.957031 Z M 38.570312 25.050781 "/>
<path style=" stroke:none;fill-rule:nonzero;fill:rgb(12.941176%,15.294118%,12.941176%);fill-opacity:1;" d="M 59.597656 49.476562 L 59.597656 48.375 C 62.777344 48.0625 62.9375 47.867188 62.894531 43.703125 L 62.777344 27.679688 L 62.617188 27.679688 L 53.039062 49.199219 L 52.25 49.199219 L 43.457031 28.230469 L 43.382812 28.230469 L 42.796875 39.421875 C 42.636719 42.644531 42.636719 44.371094 42.675781 45.941406 C 42.753906 47.824219 43.695312 48.101562 46.289062 48.375 L 46.289062 49.476562 L 37.132812 49.476562 L 37.132812 48.375 C 39.414062 48.101562 40.195312 47.671875 40.472656 46.019531 C 40.667969 44.644531 40.90625 42.914062 41.21875 38.828125 L 41.769531 30.664062 C 42.125 25.5625 41.925781 25.402344 38.355469 25.050781 L 38.355469 23.949219 L 44.796875 23.949219 L 53.75 43.585938 L 62.820312 23.949219 L 69.492188 23.949219 L 69.492188 25.050781 C 66.035156 25.367188 65.761719 25.441406 65.878906 29.488281 L 66.269531 43.703125 C 66.390625 47.867188 66.507812 48.0625 69.925781 48.375 L 69.925781 49.476562 Z M 59.597656 49.476562 "/>
<path style=" stroke:none;fill-rule:nonzero;fill:rgb(12.941176%,15.294118%,12.941176%);fill-opacity:1;" d="M 82.335938 49.945312 C 81.75 49.945312 80.917969 49.589844 80.488281 49.199219 C 79.976562 48.648438 79.742188 48.097656 79.546875 47.433594 C 77.976562 48.492188 76.085938 49.945312 74.910156 49.945312 C 72.121094 49.945312 70.195312 47.628906 70.195312 45.152344 C 70.195312 43.230469 71.214844 42.007812 73.375 41.261719 C 75.730469 40.476562 78.597656 39.414062 79.460938 38.710938 L 79.460938 38.007812 C 79.460938 35.183594 78.128906 33.574219 76.164062 33.574219 C 75.375 33.574219 74.792969 33.886719 74.402344 34.351562 C 73.890625 34.863281 73.535156 35.726562 73.222656 36.90625 C 73.0625 37.574219 72.636719 37.847656 72.085938 37.847656 C 71.382812 37.847656 70.355469 37.058594 70.355469 36.160156 C 70.355469 35.574219 70.867188 35.140625 71.613281 34.589844 C 72.714844 33.800781 75.265625 32.277344 77.503906 31.84375 C 78.679688 31.84375 79.859375 32.199219 80.722656 32.902344 C 82.097656 34.039062 82.488281 35.648438 82.488281 37.691406 L 82.488281 44.992188 C 82.488281 46.757812 83.191406 47.351562 83.863281 47.351562 C 84.335938 47.351562 84.878906 47.15625 85.277344 46.917969 L 85.667969 47.9375 Z M 79.46875 40.050781 C 78.648438 40.480469 76.765625 41.304688 75.933594 41.703125 C 74.402344 42.40625 73.535156 43.152344 73.535156 44.566406 C 73.535156 46.609375 75.105469 47.59375 76.324219 47.59375 C 77.34375 47.550781 78.722656 46.890625 79.460938 46.179688 L 79.460938 40.050781 Z M 79.46875 40.050781 "/>
<path style=" stroke:none;fill-rule:nonzero;fill:rgb(12.941176%,15.294118%,12.941176%);fill-opacity:1;" d="M 96.453125 36.945312 C 95.707031 34.632812 94.335938 33.054688 92.410156 33.054688 C 90.917969 33.054688 89.859375 34.234375 89.859375 35.769531 C 89.859375 37.496094 91.425781 38.4375 93.199219 39.183594 C 96.140625 40.40625 98.148438 41.8125 98.148438 44.527344 C 98.148438 48.097656 94.808594 49.945312 91.671875 49.945312 C 89.667969 49.945312 87.863281 49.199219 87.152344 48.605469 C 86.882812 48.054688 86.523438 45.382812 86.523438 43.976562 L 87.542969 43.78125 C 88.246094 46.375 90.019531 48.648438 92.375 48.648438 C 93.824219 48.648438 95.164062 47.546875 95.164062 45.898438 C 95.164062 44.171875 94.027344 43.230469 92.0625 42.328125 C 89.703125 41.226562 87.152344 39.929688 87.152344 36.914062 C 87.152344 34.164062 89.507812 31.84375 93.121094 31.84375 C 94.730469 31.800781 95.792969 32.199219 96.613281 32.511719 C 96.929688 33.417969 97.359375 35.734375 97.480469 36.71875 Z M 96.453125 36.945312 "/>
<path style=" stroke:none;fill-rule:nonzero;fill:rgb(12.941176%,15.294118%,12.941176%);fill-opacity:1;" d="M 108.898438 36.945312 C 108.152344 34.632812 106.78125 33.054688 104.855469 33.054688 C 103.363281 33.054688 102.304688 34.234375 102.304688 35.769531 C 102.304688 37.496094 103.871094 38.4375 105.644531 39.183594 C 108.585938 40.40625 110.59375 41.8125 110.59375 44.527344 C 110.59375 48.097656 107.253906 49.945312 104.117188 49.945312 C 102.113281 49.945312 100.308594 49.199219 99.597656 48.605469 C 99.328125 48.054688 98.96875 45.382812 98.96875 43.976562 L 99.988281 43.78125 C 100.691406 46.375 102.464844 48.648438 104.820312 48.648438 C 106.269531 48.648438 107.609375 47.546875 107.609375 45.898438 C 107.609375 44.171875 106.472656 43.230469 104.507812 42.328125 C 102.148438 41.226562 99.597656 39.929688 99.597656 36.914062 C 99.597656 34.164062 101.953125 31.84375 105.566406 31.84375 C 107.175781 31.800781 108.238281 32.199219 109.058594 32.511719 C 109.375 33.417969 109.804688 35.734375 109.925781 36.71875 Z M 108.898438 36.945312 "/>
</g>
</svg>
