<?xml version="1.0" encoding="utf-8"?>
<!-- Generator: Adobe Illustrator 26.5.0, SVG Export Plug-In . SVG Version: 6.00 Build 0)  -->
<svg version="1.1" id="Layer_1" xmlns="http://www.w3.org/2000/svg" xmlns:xlink="http://www.w3.org/1999/xlink" x="0px" y="0px"
	 viewBox="0 0 1110 377" style="enable-background:new 0 0 1110 377;" xml:space="preserve">
<style type="text/css">
	.st0{fill:#00C896;}
	.st1{fill:#FFFFFF;}
	.st2{fill:#003C3C;}
</style>
<g>
	<g>
		<path class="st0" d="M376.8,188.5c0,104-84.3,188.3-188.3,188.3c-104,0-188.3-84.3-188.3-188.3S84.6,0.2,188.6,0.2
			C292.6,0.2,376.8,84.5,376.8,188.5"/>
		<path class="st1" d="M282.6,114.4V91h-24.5c-19.6-14-43.6-22.2-69.5-22.2c-25.9,0-49.9,8.2-69.5,22.2H94.6v23.3
			c-16.1,20.4-25.7,46.1-25.7,74.1c0,40.8,20.5,76.9,51.7,98.5c0,0,0,0,0,0c2,1.4,4,2.6,6.1,3.7l61.9,32.8l61.9-32.8
			c2.3-1.2,4.4-2.5,6.5-4c0,0,0,0,0,0c31-21.6,51.3-57.6,51.3-98.3C308.3,160.5,298.7,134.7,282.6,114.4"/>
		<path class="st2" d="M277.6,237.7V96.3h-178v141.4c0,20.5,11.3,39.4,29.5,49l59.5,31.5l59.5-31.5
			C266.2,277,277.6,258.2,277.6,237.7 M220.6,283.6c0-3.1,2.5-5.7,5.7-5.7c3.1,0,5.7,2.5,5.7,5.7c0,3.1-2.5,5.7-5.7,5.7
			C223.2,289.2,220.6,286.7,220.6,283.6 M182.6,302.1c0-3.1,2.5-5.7,5.7-5.7c3.1,0,5.7,2.5,5.7,5.7s-2.5,5.7-5.7,5.7
			C185.1,307.8,182.6,305.3,182.6,302.1 M164.7,276.5l23.9-12.9l23.8,12.9l-23.9,12.6L164.7,276.5z M144.7,283.5
			c0-3.1,2.5-5.7,5.7-5.7c3.1,0,5.7,2.5,5.7,5.7c0,3.1-2.5,5.7-5.7,5.7C147.3,289.2,144.7,286.6,144.7,283.5 M125.3,229.4l41.2,22.3
			l-24.1,13l-1.3-0.7c-4.8-2.5-8.8-6.3-11.5-10.9c-2.8-4.6-4.3-9.9-4.3-15.3V229.4z M106.7,225.2c0-3.1,2.5-5.7,5.7-5.7
			c3.1,0,5.7,2.5,5.7,5.7c0,3.1-2.6,5.7-5.7,5.7C109.2,230.9,106.7,228.4,106.7,225.2 M106.7,186.9c0-3.1,2.5-5.7,5.7-5.7
			c3.1,0,5.7,2.5,5.7,5.7c0,3.1-2.6,5.7-5.7,5.7C109.2,192.6,106.7,190.1,106.7,186.9 M106.7,148.6c0-3.1,2.5-5.7,5.7-5.7
			c3.1,0,5.7,2.5,5.7,5.7c0,3.1-2.6,5.7-5.7,5.7C109.2,154.3,106.7,151.7,106.7,148.6 M118.2,109.3c0,3.1-2.5,5.7-5.7,5.7
			c-3.1,0-5.7-2.5-5.7-5.7c0-3.1,2.5-5.7,5.7-5.7C115.7,103.7,118.2,106.2,118.2,109.3 M124.4,259.5c0,3.1-2.5,5.7-5.7,5.7
			c-3.1,0-5.7-2.5-5.7-5.7c0-3.1,2.5-5.7,5.7-5.7C121.9,253.8,124.4,256.3,124.4,259.5 M168.8,109.3c0,3.1-2.5,5.7-5.7,5.7
			c-3.1,0-5.7-2.5-5.7-5.7c0-3.1,2.5-5.7,5.7-5.7C166.2,103.7,168.8,106.2,168.8,109.3 M219.3,109.3c0,3.1-2.5,5.7-5.7,5.7
			c-3.1,0-5.7-2.5-5.7-5.7c0-3.1,2.5-5.7,5.7-5.7C216.8,103.7,219.3,106.2,219.3,109.3 M251.9,205.5l-63.3,34.1l-63.3-34.2V122
			h126.6V205.5z M251.9,237.7c0,5.4-1.5,10.7-4.3,15.3c-2.8,4.6-6.8,8.4-11.6,10.9l-1.3,0.7l-24.1-13l41.1-22.2V237.7z M258.4,253.9
			c3.1,0,5.7,2.5,5.7,5.7c0,3.1-2.5,5.7-5.7,5.7c-3.1,0-5.7-2.5-5.7-5.7C252.8,256.4,255.3,253.9,258.4,253.9 M269.9,109.3
			c0,3.1-2.5,5.7-5.7,5.7c-3.1,0-5.7-2.5-5.7-5.7c0-3.1,2.5-5.7,5.7-5.7C267.3,103.7,269.9,106.2,269.9,109.3 M269.9,148.7
			c0,3.1-2.5,5.7-5.7,5.7c-3.1,0-5.7-2.5-5.7-5.7c0-3.1,2.5-5.7,5.7-5.7C267.3,143,269.9,145.6,269.9,148.7 M269.9,187
			c0,3.1-2.5,5.7-5.7,5.7c-3.1,0-5.7-2.5-5.7-5.7c0-3.1,2.5-5.7,5.7-5.7C267.3,181.4,269.9,183.9,269.9,187 M269.9,225.4
			c0,3.1-2.5,5.7-5.7,5.7c-3.1,0-5.7-2.5-5.7-5.7c0-3.1,2.5-5.7,5.7-5.7C267.3,219.7,269.9,222.2,269.9,225.4 M188.6,218.8l2.4,1.7
			h15.8l2.8-1.5v-19.9l-1.6-1.6v20.2l-3.9-1.9c-2.4-1.2-4.7-1.8-6.8-1.8c-2.1,0-4.3,0.6-6.8,1.8l-2,1l-2-1c-2.4-1.2-4.7-1.8-6.8-1.8
			c-2.1,0-4.3,0.6-6.8,1.8l-3.9,1.9v-20.4l-1.5,1.7v20l2.8,1.5h15.8L188.6,218.8z M202.3,183.5l12.2,9.2c0.8-6.5,1.6-12.9,2.3-18.9
			l-17.3-13.1c0.9,7.3,1.8,15,2.8,22.7L202.3,183.5z M219.5,161c-1.5,12.7-3,25.4-4.6,38c8,3.9,17.1,3.9,25.1,0
			c-1.6-12.7-3.2-25.3-4.6-38C230.1,160.2,224.8,160.2,219.5,161 M226.2,172.4c0-0.9,0.3-1.8,0.8-2.6c0.2-0.3,0.3-0.4,0.5-0.7
			c0.2,0.3,0.3,0.4,0.5,0.7c0.5,0.8,0.8,1.6,0.8,2.6v6.2c-0.8,0-1.6,0-2.5,0V172.4z M235.4,159.7c0.8-1.1,1.5-2.2,2.4-3.3
			c-6.8-1.8-13.8-1.8-20.5,0c0.8,1.1,1.6,2.2,2.4,3.3C224.8,158.9,230.1,158.9,235.4,159.7 M228.1,153.7c3.2,0.1,6.5,0.5,9.7,1.5
			V149c-1.2-0.4-2.3-0.8-3.6-1.1c-0.4,0.8-0.8,1.6-1.2,2.4c-0.8-0.1-1.6-0.3-2.4-0.3c-0.4-0.9-0.8-1.9-1.2-2.8
			c-1.2-0.1-2.5-0.1-3.7,0c-0.4,0.9-0.8,1.9-1.2,2.8c-0.8,0.1-1.6,0.2-2.4,0.3c-0.4-0.8-0.8-1.6-1.2-2.4c-1.2,0.3-2.4,0.7-3.6,1.1
			v6.2C220.7,154.1,224.4,153.6,228.1,153.7 M217.6,167.6l-2.2-1.6l-0.6,1.4l-2-1.5l-0.8-2.4l-2-1.5l-0.8,1.2l-2-1.5l-0.8-2.4
			l-2-1.5l-0.8,1.2l-2-1.5l-0.8-2.4l-2.2-1.6c0,0,0.5,4.2,0.7,5.8l17.7,13.3C217.1,171.4,217.6,167.6,217.6,167.6 M196.5,144.2
			c0.8-1.1,1.5-2.2,2.4-3.3c-6.8-1.8-13.8-1.8-20.5,0c0.8,1.1,1.6,2.2,2.4,3.3C185.9,143.3,191.2,143.3,196.5,144.2 M187.9,138.2
			c3.6-0.1,7.3,0.4,10.9,1.5v-6.2c-1.2-0.4-2.3-0.8-3.6-1.1c-0.4,0.8-0.8,1.6-1.2,2.4c-0.8-0.1-1.6-0.3-2.4-0.3
			c-0.4-0.9-0.8-1.9-1.2-2.8c-1.2-0.1-2.5-0.1-3.7,0c-0.4,0.9-0.8,1.9-1.2,2.8c-0.8,0.1-1.6,0.2-2.4,0.3c-0.4-0.8-0.8-1.6-1.2-2.4
			c-1.2,0.3-2.4,0.7-3.6,1.1v6.2C181.4,138.7,184.7,138.2,187.9,138.2 M178.5,153.2l-2.2,1.6l-0.8,2.4l-2,1.5l-0.8-1.2l-2,1.5
			l-0.8,2.4l-2,1.5l-0.8-1.2l-2,1.5l-0.8,2.4l-2,1.5l-0.6-1.4l-2.2,1.6c0,0,0.5,3.9,0.6,4.8l17.7-13.3
			C178,157.4,178.5,153.2,178.5,153.2 M157.6,159.7c0.8-1.1,1.5-2.2,2.4-3.3c-6.8-1.8-13.8-1.8-20.5,0c0.8,1.1,1.6,2.2,2.4,3.3
			C147,158.9,152.3,158.9,157.6,159.7 M149.1,153.7c3.6-0.1,7.3,0.4,10.9,1.5V149c-1.2-0.4-2.3-0.8-3.6-1.1
			c-0.4,0.8-0.8,1.6-1.2,2.4c-0.8-0.1-1.6-0.3-2.4-0.3c-0.4-0.9-0.8-1.9-1.2-2.8c-1.2-0.1-2.5-0.1-3.7,0c-0.4,0.9-0.8,1.9-1.2,2.8
			c-0.8,0.1-1.6,0.2-2.4,0.3c-0.4-0.8-0.8-1.6-1.2-2.4c-1.2,0.3-2.4,0.7-3.6,1.1v6.2C142.5,154.2,145.8,153.8,149.1,153.7
			 M141.8,161c-1.5,12.7-3,25.4-4.6,38c8,3.9,17.1,3.9,25.1,0c-1.6-12.7-3.2-25.3-4.6-38C152.3,160.2,147,160.2,141.8,161
			 M148.4,172.4c0-0.9,0.3-1.8,0.8-2.6c0.2-0.3,0.3-0.4,0.4-0.7c0.2,0.3,0.3,0.4,0.5,0.7c0.5,0.8,0.8,1.6,0.8,2.6v6.2
			c-0.8,0-1.6,0-2.5,0V172.4z M162.6,192.7l12.2-9.2l0-0.2c1-7.7,1.9-15.4,2.8-22.7l-17.3,13.1C161,179.8,161.8,186.2,162.6,192.7
			 M187.1,214.7l0.6,0.3v-22c-2.9-1.4-5.4-2.1-8-2.1c-2.8,0-5.5,0.8-8.6,2.4l-0.7,0.4v21.9l1.9-0.9c2.6-1.3,5-1.9,7.4-1.9
			C182.1,212.8,184.5,213.4,187.1,214.7 M197.3,190.9c-2.6,0-5.1,0.7-8,2.1v22l0.6-0.3c2.6-1.3,5-1.9,7.4-1.9c2.3,0,4.7,0.6,7.4,1.9
			l1.9,0.9v-21.9l-0.7-0.4C202.8,191.7,200.1,190.9,197.3,190.9 M188.6,171.7c1.8,1.1,3.3,2.7,4.4,4.5c1,1.8,1.6,3.9,1.6,6v1.9
			c0.7,0.5,1,0.7,1.7,1.3c1.7-0.5,3.3-1.1,4.9-1.9c-1.6-12.7-3.2-25.3-4.6-38c-5.3-0.8-10.6-0.8-15.8,0c-1.5,12.7-3,25.4-4.6,38
			c1.6,0.8,3.2,1.4,4.9,1.9c0.7-0.5,1-0.7,1.7-1.3v-1.9C182.6,177.9,184.9,173.9,188.6,171.7 M189.8,163c-0.8,0-1.6,0-2.5,0v-6.2
			c0-0.9,0.3-1.8,0.8-2.6c0.2-0.3,0.3-0.4,0.5-0.7c0.2,0.3,0.3,0.4,0.5,0.7c0.5,0.7,0.8,1.6,0.8,2.6V163z"/>
		<path class="st2" d="M342.4,218.9c-0.1,0.7-0.5,1.1-1,1.5c-0.5,0.3-1.1,0.4-1.7,0.3c-0.7-0.1-1.1-0.4-1.5-0.9
			c-0.3-0.5-0.5-1.1-0.3-1.7c0.1-0.7,0.4-1.1,1-1.5c0.5-0.3,1.1-0.4,1.7-0.3c0.6,0.1,1.1,0.4,1.5,0.9
			C342.4,217.7,342.6,218.2,342.4,218.9 M322.7,249.5l1.7-4.1c0.4-1,1-1.7,1.9-2c0.8-0.3,1.6-0.3,2.5,0.1c0.9,0.4,1.5,1,1.8,1.8
			s0.2,1.7-0.2,2.7l-1.7,4L322.7,249.5z M343.1,249.1l1.8-4.2l-11.5,3.4c0.4-1,0.5-2,0.5-3c-0.1-1.2-0.4-2.2-1.1-3.1
			c-0.6-0.9-1.5-1.6-2.7-2.1c-1.1-0.5-2.2-0.6-3.3-0.5c-1.1,0.2-2.1,0.6-3,1.3c-0.9,0.7-1.6,1.7-2.2,3l-3.2,7.5l20.1,8.5l1.4-3.3
			l-8.5-3.6l0.4-0.8L343.1,249.1z M326.8,280.9c-0.9,1.4-2,2.4-3.4,3.1c-1.3,0.7-2.8,1-4.3,0.9c-1.5-0.1-2.9-0.6-4.3-1.5l-11.2-7.5
			l2-3l11.2,7.5c0.9,0.6,1.8,0.9,2.7,1c0.9,0.1,1.7-0.1,2.5-0.5c0.8-0.4,1.4-1,2-1.8c0.5-0.8,0.8-1.6,0.9-2.5
			c0.1-0.9-0.1-1.7-0.5-2.5c-0.4-0.8-1-1.5-1.9-2.1l-11.2-7.5l2-3l11.3,7.5c1.4,0.9,2.4,2,3,3.4c0.7,1.3,0.9,2.7,0.8,4.2
			C328.2,278.1,327.7,279.5,326.8,280.9 M312,300l-15.2-15.6l-1.8,1.7l3.5,15.5l-15.4-4l-1.8,1.7l15.2,15.6l2.6-2.5l-9.7-10l11,2.9
			l1.8-1.7l-2.5-11.1l9.7,10L312,300z M281.3,326.1l-12.3-17.9l2.9-2l12.3,17.9L281.3,326.1z M261.2,338.1c-1.5,0.7-3,1-4.5,0.9
			c-1.5-0.1-2.9-0.6-4.1-1.4c-1.2-0.8-2.2-2-2.9-3.5l-5.9-12.1l3.2-1.6l5.9,12.1c0.5,1,1.1,1.7,1.8,2.2c0.7,0.5,1.6,0.8,2.4,0.8
			c0.9,0,1.7-0.1,2.6-0.6c0.9-0.4,1.6-1,2-1.7c0.5-0.7,0.8-1.5,0.8-2.4c0.1-0.9-0.1-1.8-0.6-2.7L256,316l3.2-1.6l5.9,12.2
			c0.7,1.5,1,3,0.9,4.4c-0.1,1.5-0.6,2.8-1.4,4.1C263.8,336.3,262.7,337.3,261.2,338.1 M231.6,344.5c-0.9,0.9-2.1,1.6-3.5,1.9
			c-1,0.3-2.1,0.3-3,0.2c-1-0.1-1.9-0.5-2.7-1c-0.8-0.5-1.5-1.2-2.1-2c-0.6-0.8-1-1.8-1.3-2.9c-0.4-1.5-0.4-2.9-0.1-4.2
			c0.3-1.3,1-2.4,1.9-3.3c0.9-0.9,2.1-1.5,3.5-1.9c1.1-0.3,2.1-0.3,3-0.2c1,0.1,1.9,0.5,2.7,1c0.8,0.5,1.5,1.2,2.1,2
			c0.6,0.8,1,1.8,1.3,2.9c0.4,1.5,0.4,2.9,0.1,4.2c0,0.1,0,0.1,0,0.2l-4.7-2.8l-1.7,2.8l4.8,2.9
			C231.8,344.3,231.7,344.4,231.6,344.5 M240.6,345.7l-4.1-2.5c0.3-0.8,0.6-1.7,0.7-2.6c0.2-1.5,0.1-2.9-0.2-4.4
			c-0.4-1.5-1-2.9-1.9-4c-0.9-1.2-1.9-2.1-3.2-2.9c-1.2-0.7-2.6-1.2-4-1.5c-1.4-0.2-2.9-0.1-4.4,0.2c-1.5,0.4-2.8,1-4,1.9
			c-1.2,0.9-2.1,1.9-2.8,3.2c-0.7,1.2-1.2,2.6-1.4,4c-0.2,1.4-0.1,2.9,0.2,4.4c0.4,1.5,1,2.9,1.9,4c0.9,1.2,1.9,2.1,3.2,2.9
			c1.2,0.7,2.6,1.2,4,1.5c1.5,0.2,2.9,0.2,4.4-0.2c1.5-0.4,2.8-1,4-1.9c0.7-0.5,1.3-1.2,1.9-1.8l4.1,2.4L240.6,345.7z M205.2,353.8
			l-0.2-3.3l-11.1,0.6l-0.3-6.3l10-0.5l-0.2-3.1l-10,0.5l-0.3-5.8l10.9-0.6l-0.2-3.3l-14.5,0.8l1.1,21.8L205.2,353.8z M168.8,353.5
			c-1.7-0.2-3.1-0.7-4.2-1.4c-1.1-0.8-2.1-1.8-2.9-3.1l2.7-2.1c0.5,0.9,1.1,1.7,1.9,2.3c0.8,0.6,1.8,0.9,3.1,1.1
			c1.2,0.1,2.2,0,2.9-0.4c0.8-0.4,1.2-1,1.3-1.9c0.1-0.7,0-1.3-0.3-1.8c-0.3-0.5-0.8-0.9-1.3-1.3c-0.6-0.4-1.2-0.7-1.9-1
			c-0.7-0.3-1.4-0.7-2.1-1.1c-0.7-0.4-1.3-0.8-1.9-1.4c-0.6-0.5-1-1.2-1.3-1.9c-0.3-0.8-0.4-1.7-0.2-2.8c0.2-1.3,0.6-2.3,1.3-3.1
			c0.7-0.8,1.7-1.4,2.8-1.7c1.1-0.3,2.4-0.4,3.7-0.3c1.4,0.2,2.7,0.6,3.7,1.3s1.9,1.5,2.5,2.5l-2.7,2.1c-0.5-0.8-1.1-1.4-1.7-1.8
			c-0.6-0.4-1.4-0.7-2.2-0.8c-1.1-0.1-1.9,0-2.6,0.3c-0.7,0.4-1,0.9-1.1,1.7c-0.1,0.7,0,1.2,0.4,1.7c0.3,0.4,0.8,0.8,1.3,1.2
			c0.6,0.4,1.2,0.7,1.9,1c0.7,0.3,1.4,0.7,2.1,1.1c0.7,0.4,1.3,0.9,1.9,1.4c0.5,0.6,1,1.2,1.2,2c0.3,0.8,0.4,1.8,0.2,2.9
			c-0.2,1.9-1.1,3.4-2.6,4.4C173,353.5,171.1,353.8,168.8,353.5 M138.6,323.9l-13,9.2l-2.1-15.7l-2.3-1l-8.7,20l3.3,1.4l5.6-12.8
			l1.5,11.3l2.3,1l9.3-6.6l-5.6,12.8l3.3,1.4l8.7-20L138.6,323.9z M110.3,313.6l1.9-2.7l-11.9-8.3l-12.5,17.8l12,8.4l1.9-2.7
			l-9.1-6.4l3.6-5.1l8.2,5.7l1.8-2.6l-8.2-5.7l3.3-4.8L110.3,313.6z M71,306c-1.1-1.1-1.9-2.4-2.4-3.7c-0.5-1.4-0.8-2.7-0.7-4.2
			c0-1.4,0.4-2.8,0.9-4.1c0.6-1.3,1.4-2.5,2.6-3.6c1.1-1.1,2.3-1.9,3.7-2.5c1.3-0.6,2.7-0.8,4.2-0.8c1.4,0,2.8,0.3,4.2,0.8
			c1.3,0.6,2.6,1.4,3.7,2.5c1.2,1.3,2.1,2.6,2.6,3.9c0.5,1.3,0.7,2.7,0.7,4.1l-3.4,0c0.1-1-0.1-1.9-0.5-2.8c-0.4-0.9-1-1.8-1.8-2.7
			c-0.8-0.8-1.6-1.3-2.5-1.7c-0.9-0.4-1.8-0.6-2.8-0.5c-1,0-1.9,0.2-2.8,0.7c-0.9,0.4-1.8,1-2.6,1.8c-0.8,0.8-1.4,1.7-1.9,2.6
			c-0.4,0.9-0.7,1.9-0.7,2.8c0,1,0.1,1.9,0.5,2.8c0.4,0.9,0.9,1.7,1.7,2.5c0.9,1,1.9,1.6,2.8,2c0.9,0.4,1.9,0.5,2.8,0.5l0,3.4
			c-1.4,0-2.8-0.3-4.2-0.8C73.6,308.2,72.3,307.3,71,306 M49.8,279.8c-0.9-1.4-1.4-2.8-1.5-4.3c-0.1-1.5,0.2-2.9,0.9-4.3
			c0.7-1.3,1.7-2.5,3.1-3.4l11.3-7.4l2,3l-11.3,7.4c-0.9,0.6-1.5,1.3-1.9,2.1c-0.4,0.8-0.6,1.6-0.5,2.5c0.1,0.9,0.4,1.7,0.9,2.5
			c0.5,0.8,1.2,1.4,2,1.8c0.8,0.4,1.6,0.6,2.5,0.5c0.9-0.1,1.8-0.4,2.6-0.9l11.3-7.4l2,3l-11.3,7.4c-1.4,0.9-2.8,1.4-4.3,1.5
			c-1.5,0.1-2.9-0.2-4.2-0.9C51.8,282.3,50.7,281.2,49.8,279.8 M55.1,243l-1.4-3.3l-20,8.6l5.5,12.7l3-1.3l-4.1-9.4L55.1,243z
			 M34.8,218.9c-0.1-0.7,0-1.2,0.3-1.7c0.4-0.5,0.8-0.8,1.5-0.9c0.7-0.1,1.2,0,1.7,0.3c0.5,0.3,0.8,0.8,1,1.5c0.1,0.7,0,1.2-0.3,1.7
			c-0.3,0.5-0.8,0.8-1.5,0.9c-0.6,0.1-1.2,0-1.7-0.3C35.2,220.1,34.9,219.6,34.8,218.9 M350.5,185.9c-0.6,0.6-1.4,1-2.3,1
			c-1,0-1.8-0.2-2.4-0.8c-0.6-0.6-0.9-1.4-0.9-2.5l-0.2-4.4l6.5-0.2l0.2,4.4C351.4,184.4,351.1,185.3,350.5,185.9 M354.2,175.2
			l-21.8,0.8l0.1,3.6l9.2-0.3l0,0.9l-9,7.8l0.2,4.5l9-8c0.1,1.1,0.4,2.1,0.8,2.9c0.6,1,1.3,1.8,2.3,2.3c1,0.5,2.1,0.8,3.3,0.7
			c1.2,0,2.3-0.4,3.2-1c0.9-0.6,1.6-1.4,2.2-2.5c0.5-1.1,0.7-2.3,0.7-3.6L354.2,175.2z M332,154l6.1-1.3l2.1,9.8l3.1-0.7l-2.1-9.8
			l5.7-1.2l2.3,10.7l3.2-0.7l-3.1-14.2l-21.3,4.6l3.1,14.3l3.2-0.7L332,154z M342.3,134.6l3-1.2l-6.8-16.4l-3,1.2l2.7,6.6l-17.1,7.1
			l1.4,3.3l17.1-7.1L342.3,134.6z M316.7,103.6l5.3,8.5l2.7-1.7l-5.3-8.5l4.9-3.1l5.8,9.2l2.8-1.7L325.2,94l-18.4,11.6l7.8,12.4
			l2.8-1.7l-5.9-9.4L316.7,103.6z M314.3,80l-9.7,1.4l2.1-9.7l-2.9-3.1l-2.6,12.8l-13.6,1.8l2.7,2.9l10.7-1.4l-2.5,10.3l2.8,3.1
			l3.1-13.3l12.6-1.8L314.3,80z M285.7,69.1l1.9-2.5l-8.1-6l3.5-4.7l8.8,6.5l1.9-2.6L282,51.2l-13,17.5l11.8,8.7l1.9-2.6l-8.9-6.6
			l3.7-5.1L285.7,69.1z M256.6,40.5l1.2-3l-13-5.3l-8.2,20.2l3.3,1.3l3.5-8.7l9.2,3.7l1.2-3l-9.2-3.7l2.2-5.5L256.6,40.5z
			 M216.6,43.9c1.4,0.3,2.8,0.2,4-0.2c1.2-0.4,2.2-1.2,3.1-2.2c0.8-1,1.4-2.3,1.7-3.8c0.2-1.1,0.2-2.2,0.1-3.2c-0.2-1-0.5-1.9-1-2.7
			c-0.5-0.8-1.2-1.5-2-2c-0.8-0.5-1.8-0.9-2.8-1.1c-1.4-0.3-2.7-0.2-4,0.2c-1.2,0.4-2.2,1.2-3.1,2.2c-0.8,1-1.4,2.3-1.7,3.8
			c-0.2,1.1-0.2,2.2-0.1,3.2c0.2,1,0.5,1.9,1,2.7c0.5,0.8,1.2,1.5,2,2C214.6,43.3,215.5,43.7,216.6,43.9 M216,47.3
			c-1.5-0.3-2.9-0.9-4.1-1.7c-1.2-0.8-2.2-1.8-3-3c-0.8-1.2-1.4-2.5-1.7-4s-0.3-2.9,0-4.5c0.3-1.5,0.9-2.9,1.7-4.1
			c0.8-1.2,1.8-2.2,3-3c1.2-0.8,2.5-1.4,3.9-1.7c1.4-0.3,2.9-0.3,4.4,0c1.5,0.3,2.9,0.9,4.1,1.7c1.2,0.8,2.2,1.8,3,3
			c0.8,1.2,1.4,2.5,1.7,4c0.3,1.4,0.3,2.9,0,4.5c-0.3,1.5-0.9,2.9-1.7,4.1s-1.8,2.2-3,3c-1.2,0.8-2.5,1.4-3.9,1.7
			C219,47.6,217.5,47.6,216,47.3 M186.7,22.3l-4.1,0.3l-5,9.3l-6.3-8.5l-4.1,0.3l8.8,11.7l0.7,9.5l3.6-0.3l-0.7-9.6L186.7,22.3z
			 M159.3,28.2l-0.8-3.2l-17.3,4.2l0.8,3.2l6.9-1.7l4.3,18l3.5-0.8l-4.3-18L159.3,28.2z M135,54.7l-7.9-20.3l3.3-1.3l7.9,20.3
			L135,54.7z M118,63.2c-1.5,0.8-2.9,1.3-4.3,1.3c-1.4,0-2.7-0.2-4.2-0.8l0.9-3.3c1,0.5,1.9,0.7,2.9,0.7c1,0,2-0.3,3.1-0.9
			c1-0.6,1.8-1.3,2.1-2.1c0.4-0.8,0.4-1.6-0.1-2.3c-0.4-0.6-0.8-1.1-1.4-1.3c-0.5-0.2-1.2-0.3-1.8-0.3c-0.7,0-1.4,0.1-2.2,0.3
			c-0.8,0.2-1.5,0.3-2.3,0.4c-0.8,0.1-1.6,0.1-2.3,0c-0.8-0.1-1.5-0.4-2.2-0.8c-0.7-0.4-1.3-1.2-1.8-2.1c-0.6-1.1-0.9-2.2-0.8-3.3
			c0.1-1.1,0.5-2.1,1.2-3.1c0.7-0.9,1.6-1.7,2.8-2.4c1.2-0.7,2.5-1.1,3.8-1.1c1.3-0.1,2.4,0.1,3.5,0.5l-0.9,3.3
			c-0.9-0.3-1.7-0.5-2.5-0.4c-0.8,0-1.5,0.3-2.3,0.7c-0.9,0.5-1.6,1.1-1.9,1.8c-0.3,0.7-0.3,1.4,0.1,2.1c0.3,0.6,0.7,1,1.3,1.1
			c0.5,0.2,1.1,0.2,1.8,0.2c0.7-0.1,1.4-0.2,2.2-0.3c0.8-0.1,1.5-0.3,2.3-0.3c0.8-0.1,1.6-0.1,2.3,0.1c0.8,0.1,1.5,0.4,2.2,0.9
			c0.7,0.5,1.3,1.2,1.9,2.3c1,1.7,1.1,3.4,0.5,5.1C121.4,60.6,120.1,62,118,63.2 M82.8,64.7l3.4-2.8c0.9-0.7,1.7-1,2.6-0.9
			c0.9,0.1,1.6,0.5,2.2,1.2c0.6,0.8,0.9,1.6,0.8,2.4c-0.1,0.8-0.6,1.6-1.5,2.3l-3.4,2.8L82.8,64.7z M101.1,73.9l3.5-2.8l-11.8-2.4
			c0.8-0.7,1.4-1.6,1.8-2.4c0.5-1.1,0.6-2.1,0.5-3.2c-0.1-1.1-0.6-2.1-1.4-3.1c-0.8-0.9-1.7-1.6-2.7-2c-1-0.4-2.1-0.4-3.3-0.2
			c-1.2,0.2-2.3,0.8-3.3,1.6l-6.3,5.1l13.7,16.9l2.8-2.3L88.7,72l0.7-0.6L101.1,73.9z M83.5,89.5L81,87.4l-7.1,8.5l-4.8-4l6.5-7.7
			l-2.4-2l-6.5,7.7l-4.5-3.7l7-8.4l-2.5-2.1l-9.3,11.1l16.7,14L83.5,89.5z M50.7,95.7L48.7,99l10.5,13.4l-16.8-2.7l-2,3.4l23.2,3.4
			l1.3-2.1L50.7,95.7z M54.9,134.7l-20.1-8.4l1.4-3.3l20.1,8.4L54.9,134.7z M50.7,145.7l-21.2-5.2l-0.9,3.5l14.6,3.6l-17.3,7.6
			l-0.6,2.4l21.2,5.2l0.9-3.5l-14.6-3.6l17.3-7.6L50.7,145.7z M44.9,181.8c-0.1,1.6-0.5,3.1-1.3,4.4c-0.8,1.3-1.9,2.3-3.2,2.9
			c-1.3,0.7-2.8,1-4.5,0.9l-13.5-0.6l0.2-3.6l13.5,0.6c1.1,0,2-0.1,2.8-0.5c0.8-0.4,1.4-1,1.9-1.7c0.5-0.7,0.7-1.6,0.8-2.6
			c0-1-0.1-1.8-0.5-2.6c-0.4-0.8-1-1.4-1.7-1.9c-0.8-0.5-1.7-0.7-2.7-0.8l-13.5-0.6l0.2-3.6l13.5,0.6c1.6,0.1,3.1,0.5,4.3,1.3
			c1.2,0.8,2.2,1.9,2.9,3.2C44.7,178.7,45,180.1,44.9,181.8"/>
	</g>
	<path class="st2" d="M648.1,83.6c0-4.8,3.9-8.7,8.7-8.7c4.8,0,8.7,3.9,8.7,8.7s-3.9,8.7-8.7,8.7C652,92.2,648.1,88.3,648.1,83.6z
		 M459.9,85.2v53.9c0,26.6,14.9,41.1,41.3,41.1c26.8,0,41.8-14.5,41.8-41.7V85.3c0-5.5,2.7-10.7,7.2-13.8l3.8-2.7h-31.8l4.4,2.7
		c4.9,3.1,7.9,8.4,7.9,14.2v49.8c0,11.5,0,36.6-29.4,36.6c-26.9,0-30.3-20.1-30.3-36.6V85.2c0-5.5,2.6-10.6,7.1-13.7l3.8-2.7H449
		l3.8,2.7C457.3,74.6,459.9,79.7,459.9,85.2z M650.4,124.6V163c0,4.9-2.2,9.6-5.9,12.8l-2.6,2.2h30.7l-2.8-2.2
		c-4.1-3.2-6.6-8.1-6.6-13.3v-61.8l-21.4,8.4l3.4,3.3C648.6,115.7,650.4,120,650.4,124.6z M915.3,173.5c-7.9,0-17-8.3-19.8-14.8
		l-9.4,11c4.7,6,18.1,10.7,27.1,10.7c18.1,0,30.7-8.9,30.7-23.2c0-11.9-6.8-17.1-18.1-21.6l-7.8-3.2c-9.2-3.7-15.8-7.5-15.8-14.6
		c0-7.1,5.3-10.5,12.7-10.4c12.4,0.1,18.6,13,18.6,13c2.7-5.1,3.9-7.4,7-13.2c-5.7-3-14.5-6.7-23.7-6.7c-16.6,0-27.4,8.2-27.4,21.5
		c0,13.2,10.1,18.1,19.7,22l8.1,3.3c7.5,3.1,12.9,6.1,12.9,13.5C930.1,169.4,924.2,173.5,915.3,173.5z M686.6,121.7l21.6,56.3
		c0.1,0,10,0,10.1,0l22.5-56.4c1.5-3.7,3.5-7.2,6-10.4c2.5-3.1,5.4-5.9,8.7-8.2h-24.6l0.1,0.1c3.3,4.4,4.1,10.2,2.2,15.3l-14.4,38
		c-0.9,2.4-1.7,4.7-2.4,7.1c-0.7-2.3-1.4-4.7-2.3-7.1l-14.7-38c-0.7-1.9-1.1-3.8-1.1-5.8c0-3.4,1.1-6.8,3.2-9.7h-29.6
		C678.6,107.6,683.7,114.1,686.6,121.7z M965.5,92.2c4.8,0,8.7-3.9,8.7-8.7s-3.9-8.7-8.7-8.7c-4.8,0-8.7,3.9-8.7,8.7
		S960.7,92.2,965.5,92.2z M751.9,129c4.6-16.3,20.4-28.1,37.1-28.1c16.6,0,31.3,11.8,35.9,28.1c0.7,2.3,1.1,4.8,1.4,7.2h-58.7
		c0,0.1,0,0.2,0,0.3l0,0.3c0,0.3,0,0.5,0,0.8c0,0.3,0,0.6,0,0.9c0,0.3,0,0.6,0,0.8c0,0.3,0,0.6,0,0.8c0,0.3,0,0.5,0,0.8
		c0.7,16.2,10.7,29.2,24.1,30.3c0.6,0.1,1.2,0.1,1.8,0.1c11.3,0,21-8.6,24.8-20.7h7.1c-4.2,17-18.6,29.5-35.7,29.5
		c-20.4,0-39.2-17.8-39.2-39.7c0-1.5,0.1-2.9,0.2-4.3C750.7,133.8,751.2,131.4,751.9,129z M768.7,129h40.2
		c-3-11.9-9.1-20.7-18.5-21.5c-0.5-0.1-1-0.1-1.6-0.1C778.6,107.4,771.8,116.4,768.7,129z M832.5,175.8l-2.6,2.2h31.6l-3.2-2.2
		c-4.5-3.1-7.2-8.3-7.2-13.8v-36.4c13.5-12.8,29.8-8.3,29.8-8.3v-17.3c-22.3,0-30.7,17.7-30.7,17.7l-1.5-17.1l-18.2,8.4l3.5,3.9
		c2.8,3.1,4.3,7.1,4.3,11.2V163C838.4,168,836.3,172.6,832.5,175.8z M759.4,290.8l-15.9-22.9l15.7-19.5c4.1-5.1,8.8-9.7,13.9-13.7
		l2-1.6l-27.1,0c4.7,4,5.4,10.9,1.8,15.8c-3.5,4.7-7.1,9.4-10.6,14.1l-9.9-14.6c-3.2-4.8-2.5-11.2,1.7-15.1l0.3-0.3h-33.5l0.5,0.4
		c6.3,4.4,11.7,9.9,16,16.2l16,23.3l-15.7,20c-4.2,5.4-9.1,10.2-14.5,14.4l-0.9,0.7h27l-0.1-0.1c-5.1-3.9-6.1-11.1-2.3-16.2
		c3.5-4.7,7-9.5,10.5-14.2l10.8,15.6c3.2,4.6,2.7,10.8-1.3,14.8l-0.1,0.1h33.4l-0.1-0.1C770.3,303.5,764.2,297.7,759.4,290.8z
		 M971.9,162.5v-61.8l-21.4,8.4l3.4,3.3c3.3,3.2,5.1,7.5,5.1,12.1V163c0,4.9-2.2,9.6-5.9,12.8l-2.6,2.2h30.7l-2.8-2.2
		C974.3,172.7,971.9,167.7,971.9,162.5z M918.4,268.7c0,0.3,0,0.6,0,0.8c0,0.3,0,0.5,0,0.8c0,0.3,0,0.5,0,0.8
		c0.7,16.2,10.7,29.2,24.1,30.3c0.6,0.1,1.2,0.1,1.8,0.1c11.3,0,21-8.6,24.8-20.7h7.1c-4.2,17-18.6,29.5-35.7,29.5
		c-20.4,0-39.2-17.8-39.2-39.7c0-1.5,0.1-2.9,0.2-4.3c0.2-2.5,0.7-4.9,1.4-7.2c4.6-16.3,20.4-28.1,37.1-28.1
		c16.6,0,31.3,11.8,35.9,28.1c0.7,2.3,1.1,4.8,1.4,7.2h-58.7c0,0.1,0,0.2,0,0.3l0,0.3c0,0.3,0,0.5,0,0.8
		C918.4,268.1,918.4,268.4,918.4,268.7z M919.6,259.1h40.2c-3-11.9-9.1-20.7-18.5-21.5c-0.5-0.1-1-0.1-1.6-0.1
		C929.6,237.5,922.7,246.5,919.6,259.1z M1085,103L1085,103c4.8,4.4,6.5,11.2,4.4,17.3c-4.2,12-14.9,42.6-15.9,46.1
		c-0.9-3.4-16.2-45.4-16.2-45.4c-2.4-6.5-0.4-13.7,5-18.1l-28.5-0.1l0,0h-23V76l-13.1,11.6v15.3h-12.7v7.9h12.7v52.1
		c0,8.1,4.1,16.5,17.9,16.5c6.3,0,13.3-2.3,19.1-6.9l-1.3-3.7c-16.4,3.8-22.6,1.1-22.6-9.9v-48h28.4l25.3,67.2h4.8
		c0,0-10.1,22.2-26.3,22.2l6.2,11c14.9-4.3,24.7-26.5,33.3-49.4l17.3-46c1.4-3.7,3.6-7,6.5-9.7l3.5-3.2H1085z M878,289.3v-47.9h19.2
		v-8.1H878v-26.8L864.9,218v15.3h-12.7v8.1h12.7v52c0,8.1,4.1,16.5,17.9,16.5c6.3,0,13.3-2.3,19.1-6.9l-1.3-3.7
		C884.2,303,878,300.3,878,289.3z M523.9,259.9c0,26.1-20.9,49.6-47.6,49.6c-18.2,0-27.8-9.5-27.8-29c0-26.1,20.9-49.6,47.6-49.6
		C514.3,230.9,523.9,240.4,523.9,259.9z M508.9,252.4c0-10-3.1-15.6-12.9-15.5c-18.7,0.1-32.4,27.2-32.4,51.2
		c0,10,3.1,15.6,12.9,15.5C495.2,303.5,508.9,276.4,508.9,252.4z M1003.2,247.6l-1.5-17.1l-18.2,8.4l3.5,3.9
		c2.8,3.1,4.3,7.1,4.3,11.2v38.8c0,4.9-2.2,9.6-5.9,12.8l-2.6,2.2h31.6l-3.2-2.2c-4.5-3.1-7.2-8.3-7.2-13.8v-36.4
		c13.5-12.8,29.8-8.3,29.8-8.3v-17.3C1011.6,229.9,1003.2,247.6,1003.2,247.6z M544.2,224c-0.6,3-1.1,6-1.7,9.1h-14.3v7.3l-0.1,0.3
		h13l-12.1,63.9c-2.2,11.7-4.9,21.8-18,36.6l2.8,2.3c16.1-9.5,24.6-19.7,27.5-34.7l13.1-68l22.6-0.2V233h-21.1
		c4.2-21.6,5.2-38.8,16.8-38.8c3.8,0,10.7,2.2,16,6.1l5.2-9.6c-2.4-2.4-9.3-4.3-13.7-4.3C562.2,186.3,548.4,201.7,544.2,224z
		 M605.8,175.8l-2.6,2.2h30.3l-2.6-2.2c-3.9-3.2-6.2-8-6.2-13v-36.9c0-14.7-5.3-25.2-22.5-25.2c-9,0-17.8,4-24,11.6
		c-0.6-4-1.5-11.6-1.5-11.6l-19.6,8.4l3.7,3.7c3.1,3.1,4.9,7.4,4.9,11.8V163c0,4.9-2.2,9.6-5.9,12.8L557,178h30.7l-2.8-2.1
		c-4.2-3.2-6.6-8.1-6.6-13.4v-40.1c2.1-4.2,9.4-11.3,18-11.3c12.3,0,15.5,6.1,15.5,17.1v34.6C611.9,167.9,609.6,172.7,605.8,175.8z
		 M791.2,268.7c0,0.3,0,0.6,0,0.8c0,0.3,0,0.5,0,0.8c0,0.3,0,0.5,0,0.8c0.7,16.2,10.7,29.2,24.1,30.3c0.6,0.1,1.2,0.1,1.8,0.1
		c11.3,0,21-8.6,24.8-20.7h7.1c-4.2,17-18.6,29.5-35.7,29.5c-20.4,0-39.2-17.8-39.2-39.7c0-1.5,0.1-2.9,0.2-4.3
		c0.2-2.5,0.7-4.9,1.4-7.2c4.6-16.3,20.4-28.1,37.1-28.1c16.6,0,31.3,11.8,35.9,28.1c0.7,2.3,1.1,4.8,1.4,7.2h-58.7
		c0,0.1,0,0.2,0,0.3l0,0.3c0,0.3,0,0.5,0,0.8C791.2,268.1,791.2,268.4,791.2,268.7z M792.4,259.1h40.2c-3-11.9-9.1-20.7-18.5-21.5
		c-0.5-0.1-1-0.1-1.6-0.1C802.4,237.5,795.5,246.5,792.4,259.1z M655.2,301.1c-4.2,0-9.7,0-16.7,0l0.2-48.6h13.8
		c5.1,0,10.1,0.6,15,1.7l14.2,3.2V242l-15,3.1c-4.6,1-9.3,1.4-13.9,1.4h-14.4v-41.3c7.9,0,14,0,18.5,0c6.1,0,12.1,1.4,17.6,4.1
		l16.8,8.2l-1.7-18.7h-77l3.8,2.7c4.5,3.1,7.2,8.3,7.2,13.8l-0.1,76.4c0,5.5-2.7,10.6-7.2,13.7l-3.8,2.7H692l1.3-19.5l-17.1,7.9
		C669.7,299.6,662.5,301.1,655.2,301.1z"/>
</g>
</svg>
