<svg id="Layer_1" data-name="Layer 1" xmlns="http://www.w3.org/2000/svg" viewBox="0 0 851.8 199.8"><defs><style>.cls-1{fill:#1a3a59;}</style></defs><title>DREW-Logo-Master</title><path class="cls-1" d="M86.8,0H0V6.5L24.8,17.1V180L0,190.4v6.5H82.3c28.9,0,48.7-5.6,65.8-19.2,23-18.3,35.7-47.8,35.7-83.5,0-27.4-7.4-49.3-22.7-67.3C144,7.1,124.8,0,86.8,0ZM134,165c-14.5,15.6-29.8,21.5-54.3,21.5H49.9V10.3H83.2c28.3,0,44.9,7.7,57.5,26.6,11.2,15.9,16.5,36.3,16.5,60.8C157.3,126.3,149.9,147.9,134,165Z"/><path class="cls-1" d="M522.9,186.5H442.6v-85h68.2l10,27.7h6.8V64.6h-6.8l-10,26.6H442.6V10.3h78.5L535,42.8h7.4V0H392.7V6.8l24.8,10.3V180l-24.8,10.3L367.1,180,309.3,96.5c30.7-4.4,48.4-22.7,48.4-49.9,0-14.8-5.6-26.9-15.9-35.4C331,2.1,316.9,0,292.7,0H202.5V6.5l24.8,10.6V180l-24.8,10.3v6.5h74.7v-6.5L252.5,180V101.5h30.2l65.8,95.3H543.6l4.1-44h-7.1ZM252.5,91.2V10.3h39.9c24.5,0,38.7,14.5,38.7,39.2s-15.9,41.6-39.2,41.6H252.5Z"/><path class="cls-1" d="M788.7,0V6.5l23.6,10.6L763.9,156.7l-2.7-8.9-2.7-8-3.2-9.7L713.4,0H701.9L646.7,157a268.24,268.24,0,0,0-7.7-27.7L603.6,17.1,627.2,6.5V0h-72V6.5L578,17.1l58.7,182.7h9.4L701.6,43.7l50.8,156.1h10.3L828.8,17.1l23-10.6V0Z"/></svg>