<svg xmlns="http://www.w3.org/2000/svg" viewBox="0 0 152.684 90"><defs><style>.cls-1{fill:#1d1d1b}</style></defs><g id="Layer_2" data-name="Layer 2"><g id="Layer_1-2" data-name="Layer 1"><path d="M42.884 17.8h-.7q-.352-.633-1.054-1.757a8.022 8.022 0 00-2.18-2.179A14.7 14.7 0 0035.011 12a20.414 20.414 0 00-6.256-.808q-8.857 0-13.426 5.482T10.76 32.205q0 .915.071 2.531a24.712 24.712 0 00.457 3.619 23.366 23.366 0 001.265 4.218 18.049 18.049 0 002.495 4.327 15.668 15.668 0 002.144 2.39 16.484 16.484 0 002.777 2.038 14.02 14.02 0 003.479 1.441 16.4 16.4 0 004.323.528 20.239 20.239 0 005.729-.738 18.978 18.978 0 007.837-4.464 36.8 36.8 0 002.671-2.812l.774.492-.774 6.959a36.14 36.14 0 01-17.783 4.429 29.455 29.455 0 01-9.7-1.582 23.128 23.128 0 01-7.978-4.639 21.865 21.865 0 01-5.412-7.627 25.847 25.847 0 01-2-10.473 29.34 29.34 0 011.652-9.912 21.9 21.9 0 015.026-8.083A23.793 23.793 0 0116.349 9.4a33.684 33.684 0 0112.2-2 41.242 41.242 0 018.295.808 39.079 39.079 0 018.154 2.707zM53.849 24.192q0-3.375-.07-7.24t-.633-9q.984.142 2.6.282t2.39.14a22.207 22.207 0 002.46-.14l2.53-.282q-.281 1.969-.456 5.026t-.246 6.5q-.072 3.446-.071 6.854v6.08q0 7.874.141 13.671t.562 10.088q-1.2-.07-2.46-.246a17.9 17.9 0 00-2.46-.176 19.45 19.45 0 00-2.531.176q-1.336.175-2.53.246.561-6.327.667-14.621t.107-17.358zM90.948 46.545q0 4.007.177 6.08t.315 3.55q-1.545-.141-3.022-.282t-2.108-.14a17.907 17.907 0 00-1.9.1q-.984.107-2.882.317.212-4.008.458-8.049t.246-8.048l-.071-19.612q0-1.966-.035-3.866t-.1-3.936h-3.519q-.21 0-1.476.035t-2.917.07q-1.653.036-3.445.141t-3.128.246a10.79 10.79 0 00.352-2.6 10.8 10.8 0 00-.352-2.6q2.109.142 4.534.211T77 8.306q2.495.071 4.885.07h4.425q4.428 0 9.067-.07t9.7-.352a18.46 18.46 0 00-.352 2.671 6.018 6.018 0 00.106 1.125c.069.376.151.843.246 1.406q-3.164-.351-6.749-.422t-7.24-.07q-.07 1.9-.105 3.866t-.036 4.007zM134.543 39.937q0 2.25.036 4.112t.1 3.761l.141 3.9q.072 2 .21 4.464-1.2-.141-2.442-.282a21.835 21.835 0 00-2.443-.14 23.569 23.569 0 00-2.408.14q-1.346.142-2.337.282.07-2.038.141-4.675t.141-5.272q.069-2.636.105-5.061t.035-4.042l-4.147-7.169q-1.337-2.32-3.058-5.2t-3.514-5.834q-1.793-2.952-3.55-5.8t-3.093-5.167q1.966.212 3.268.316t2.5.106q1.265 0 2.741-.07a22.787 22.787 0 003.023-.352q1.335 2.883 2.6 5.483t2.674 5.342q1.408 2.742 3.109 5.869t3.97 7.065q2.266-3.866 3.743-6.5t2.712-5.063q1.229-2.425 2.53-5.237t3.2-6.959q.843.142 1.863.282a16.176 16.176 0 002.214.14 11.329 11.329 0 001.722-.106 6.267 6.267 0 001.23-.316l-1.441 2.39q-1.019 1.69-2.179 3.55-1.16 1.863-2.179 3.514t-1.441 2.285q-2.391 3.795-4.5 7.7t-4.358 7.7q-.352.633-.632 1.195a2.367 2.367 0 00-.282 1.054zM7.406 64.8a13.324 13.324 0 00-.064-1.363q.141.027.27.045a1.7 1.7 0 00.257.02 1.382 1.382 0 00.385-.065q-.037.45-.077 1.074t-.064 1.337l-.052 1.465q-.027.753-.038 1.459a4.671 4.671 0 01-.264 1.543 3.251 3.251 0 01-.713 1.157 2.976 2.976 0 01-1.138.719 4.533 4.533 0 01-1.549.244 3.839 3.839 0 01-2.8-.874 3.775 3.775 0 01-.874-2.763q0-.6.032-1.074c.021-.312.032-.632.032-.957q0-1.08-.025-1.916T.67 63.432c.1.018.214.033.334.045a3.135 3.135 0 00.335.02 1.928 1.928 0 00.276-.02q.135-.018.276-.045-.025.284-.051.739t-.051 1.035q-.027.579-.039 1.247t-.013 1.388q0 .438.013.907a6.29 6.29 0 00.09.912 3.761 3.761 0 00.251.849 2.076 2.076 0 00.495.707 2.271 2.271 0 00.809.475 3.637 3.637 0 001.209.174 3.02 3.02 0 001.189-.206 2.259 2.259 0 00.79-.54 2.444 2.444 0 00.482-.771 4.369 4.369 0 00.251-.913 7.282 7.282 0 00.09-.951c.008-.317.013-.608.013-.874q0-1.825-.013-2.81zM14.81 68.928q-1.671-1.794-3.342-3.568a70.068 70.068 0 00-.039 2.61q0 .27.007.668t.013.836q.006.436.019.887t.026.836c.008.257.017.481.025.674s.017.324.026.393a3.476 3.476 0 00-.45-.026 3.916 3.916 0 00-.476.026c.018-.086.037-.245.058-.476s.041-.508.058-.829l.058-1.048c.021-.377.039-.754.051-1.131s.024-.746.033-1.106.012-.681.012-.964q0-1.234-.006-2.121t-.032-1.324h.206l1.677 1.819q.894.97 1.774 1.916t1.671 1.786q.791.841 1.382 1.433v-1.748q0-1.35-.019-2.628t-.084-2.411a1.847 1.847 0 00.437.065 1.786 1.786 0 00.411-.065q-.025.284-.057.849t-.065 1.208q-.032.644-.057 1.26c-.018.411-.026.741-.026.99v.771c0 .291 0 .6.006.912s.009.637.013.958l.013.9c.004.278.006.521.006.726v.424h-.18q-1.477-1.709-3.149-3.502zM20.691 65.1q-.033-.816-.071-1.665c.111.018.219.033.322.045a2.438 2.438 0 00.308.02 2.466 2.466 0 00.309-.02q.153-.018.321-.045-.039.849-.071 1.665t-.032 1.665v2.211q0 .847.032 1.671t.071 1.62c-.2-.018-.407-.026-.63-.026s-.433.008-.63.026q.039-.8.071-1.62t.032-1.671v-2.214q0-.849-.032-1.662zM26.122 70.438q-.425-1.067-.906-2.249t-.99-2.417q-.508-1.235-.971-2.34.18.027.348.045a2.586 2.586 0 00.642 0c.111-.012.227-.027.347-.045q.284.849.624 1.781t.72 1.9q.378.963.777 1.954t.81 1.966q.231-.526.5-1.176t.547-1.35q.276-.7.546-1.426t.521-1.395q.25-.669.456-1.247t.347-1a1.772 1.772 0 00.951 0q-1 2.238-1.928 4.435t-1.774 4.4a3.251 3.251 0 00-.424-.026 2.754 2.754 0 00-.424.026q-.294-.769-.719-1.836zM32.838 65.078q-.032-.824-.07-1.646c.385.018.769.033 1.15.045s.765.02 1.151.02.766-.007 1.144-.02.758-.027 1.144-.045a1.93 1.93 0 000 .772 57.07 57.07 0 01-.752-.052l-.72-.051q-.38-.025-.829-.045t-1.08-.02c-.009.275-.019.536-.032.785s-.019.531-.019.848q0 .5.006.977t.006.72q.566 0 1.016-.013t.823-.032q.372-.019.687-.039t.6-.045a2.015 2.015 0 00-.038.4 1.933 1.933 0 00.038.385c-.223-.025-.482-.047-.778-.064s-.591-.028-.887-.032l-.835-.013c-.262 0-.469-.006-.624-.006 0 .077 0 .16-.006.25s-.006.2-.006.341v1.272q0 .732.006 1.208c0 .317.011.557.019.72h.9q.489 0 .958-.02c.313-.012.608-.029.887-.051a5.7 5.7 0 00.726-.1.91.91 0 00-.032.2c0 .073-.007.139-.007.2a1.188 1.188 0 00.039.335 24.667 24.667 0 00-1.15-.026h-2.336c-.385 0-.775.008-1.169.026q.037-.823.07-1.64t.032-1.664v-2.209q0-.849-.032-1.671zM39.266 65.1q-.033-.816-.071-1.665c.248.018.493.033.733.045s.484.02.732.02.493-.011.733-.032.484-.033.733-.033a5.019 5.019 0 011.028.1 2.5 2.5 0 01.855.341 1.712 1.712 0 01.578.623 2.224 2.224 0 01-.064 2.025 2.581 2.581 0 01-.675.733 3.3 3.3 0 01-.855.449 4.277 4.277 0 01-.829.213q.154.192.425.54t.6.764l.694.874.694.874q.334.418.63.765c.2.232.355.407.475.528a2.767 2.767 0 00-.385-.026h-.758a2.511 2.511 0 00-.373.026q-.194-.271-.585-.81t-.864-1.154q-.475-.618-.97-1.228t-.907-1.035h-.488v.939q0 .847.032 1.671t.071 1.62c-.2-.018-.407-.026-.63-.026s-.433.008-.63.026q.039-.8.071-1.62t.032-1.671v-2.214q.002-.849-.032-1.662zm1.478 2.449c.141.008.3.013.469.013a4.048 4.048 0 00.829-.09 2.411 2.411 0 00.791-.315 1.876 1.876 0 00.6-.6 1.779 1.779 0 00.237-.958 1.662 1.662 0 00-.186-.829 1.485 1.485 0 00-.484-.528 1.84 1.84 0 00-.643-.263 3.411 3.411 0 00-.681-.071q-.45 0-.746.019t-.5.045l-.051 1.4q-.025.692-.026 1.389v.732a2.658 2.658 0 00.391.053zM47.145 71.062a2.134 2.134 0 00.425.43 2.144 2.144 0 001.33.437 1.9 1.9 0 00.765-.148 1.708 1.708 0 00.945-.989 2.059 2.059 0 00.128-.727 1.38 1.38 0 00-.3-.938 2.476 2.476 0 00-.752-.578 8.763 8.763 0 00-.97-.425 4.965 4.965 0 01-.971-.482 2.57 2.57 0 01-.752-.739 2.139 2.139 0 01-.3-1.208 2.437 2.437 0 01.193-.984 2.138 2.138 0 01.559-.764 2.628 2.628 0 01.881-.5 3.48 3.48 0 011.156-.18 3.445 3.445 0 011.067.148 2.681 2.681 0 01.836.456 2.752 2.752 0 00-.193.463c-.051.163-.1.369-.154.617h-.158a3.238 3.238 0 00-.174-.392 1.517 1.517 0 00-.3-.392 1.666 1.666 0 00-.443-.3 1.435 1.435 0 00-.617-.122 1.816 1.816 0 00-.662.116 1.583 1.583 0 00-.527.327 1.45 1.45 0 00-.347.508 1.655 1.655 0 00-.122.643 1.4 1.4 0 00.3.951 2.593 2.593 0 00.752.585 7.346 7.346 0 00.97.424 5.44 5.44 0 01.971.456 2.5 2.5 0 01.752.695 1.913 1.913 0 01.3 1.131 2.973 2.973 0 01-.212 1.118 2.631 2.631 0 01-.617.919 2.733 2.733 0 01-.99.6 3.875 3.875 0 01-1.33.212 3.3 3.3 0 01-1.292-.212 3.488 3.488 0 01-.829-.482 3.046 3.046 0 00.16-.533 7.73 7.73 0 00.084-.611h.154a2.67 2.67 0 00.284.47zM53.547 65.1q-.031-.816-.071-1.665a7.5 7.5 0 00.322.045 2.438 2.438 0 00.308.02 2.466 2.466 0 00.309-.02c.1-.012.209-.027.321-.045q-.039.849-.071 1.665t-.032 1.665v2.211q0 .847.032 1.671t.071 1.62c-.2-.018-.407-.026-.63-.026s-.433.008-.63.026q.039-.8.071-1.62t.032-1.671v-2.214q0-.849-.032-1.662zM58.9 64.1c-.223 0-.456 0-.7.006s-.488.013-.732.026-.48.028-.707.045-.431.039-.611.064a1.547 1.547 0 00.064-.411 1.77 1.77 0 00-.064-.4q.849.027 1.658.045t1.659.02q.847 0 1.658-.02t1.658-.045a1.79 1.79 0 00-.064.412 1.514 1.514 0 00.064.4c-.18-.025-.384-.047-.611-.064s-.462-.032-.707-.045-.488-.021-.732-.026-.478-.006-.7-.006q-.039 1.325-.038 2.661v2.211q0 .847.032 1.671t.07 1.62c-.2-.018-.407-.026-.629-.026s-.433.008-.63.026q.037-.8.07-1.62t.033-1.671v-2.211q-.001-1.336-.041-2.662zM66.067 68.015l-.553-.926-.636-1.067q-.335-.558-.636-1.066t-.546-.913c-.163-.27-.288-.474-.373-.611.12.018.238.033.353.045a3.134 3.134 0 00.707 0q.174-.018.354-.045.578 1.119 1.176 2.2t1.266 2.25q.3-.463.617-1.015t.643-1.132q.321-.578.617-1.163t.553-1.138a1.963 1.963 0 001 0q-.617.939-1.105 1.7t-.861 1.376q-.373.617-.656 1.112t-.489.893q0 .475.007 1.015c0 .36.011.714.019 1.061s.019.668.032.964.028.533.045.714c-.2-.018-.407-.026-.63-.026s-.432.008-.629.026q.077-.669.09-1.62t.012-1.993a23.95 23.95 0 00-.377-.641zM75.361 65.92a4.068 4.068 0 01.99-1.446 4.257 4.257 0 011.523-.9 6.292 6.292 0 013.9 0 4.257 4.257 0 011.523.9 4.068 4.068 0 01.99 1.446 5.546 5.546 0 010 3.894 3.963 3.963 0 01-2.513 2.327 6.706 6.706 0 01-3.9 0 3.963 3.963 0 01-2.513-2.327 5.546 5.546 0 010-3.894zm7.745.1a3.518 3.518 0 00-.752-1.285 3.007 3.007 0 00-1.131-.752 3.99 3.99 0 00-1.408-.244 3.94 3.94 0 00-1.394.244 3 3 0 00-1.132.752 3.518 3.518 0 00-.752 1.285 6.439 6.439 0 000 3.69 3.509 3.509 0 00.752 1.29 2.979 2.979 0 001.132.752 3.918 3.918 0 001.394.245 3.967 3.967 0 001.408-.245A2.983 2.983 0 0082.354 71a3.509 3.509 0 00.752-1.285 6.439 6.439 0 000-3.69zM86.4 65.1q-.033-.816-.071-1.665c.386.018.769.033 1.151.045s.764.02 1.15.02.776-.007 1.17-.02.822-.027 1.285-.045a1.979 1.979 0 000 .772c-.231-.026-.51-.049-.835-.071s-.658-.039-1-.051-.664-.024-.976-.033-.573-.013-.778-.013a55.687 55.687 0 00-.026 1.684c0 .3 0 .577.007.83s.006.516.006.79c.565 0 1.125-.008 1.677-.026s1.1-.051 1.639-.1a1.482 1.482 0 000 .771q-.321-.039-.726-.058t-.842-.032q-.436-.013-.887-.013h-.861v1.093q0 .847.032 1.671t.071 1.62c-.2-.018-.407-.026-.63-.026s-.433.008-.63.026q.039-.8.071-1.62t.032-1.671v-2.216q.006-.849-.029-1.662zM96.4 65.1q-.032-.816-.07-1.665.167.027.321.045a2.389 2.389 0 00.617 0q.154-.018.321-.045-.038.849-.07 1.665t-.033 1.665q0 1.618.013 2.808t.026 2.128q.913 0 1.748-.02a16.522 16.522 0 001.8-.147 1.487 1.487 0 00-.065.385 1.2 1.2 0 00.065.348q-.591-.027-1.183-.026h-2.368q-.573 0-1.189.026.038-.8.07-1.62t.032-1.671v-2.214q0-.849-.035-1.662zM102.5 65.92a4.068 4.068 0 01.99-1.446 4.257 4.257 0 011.523-.9 6.292 6.292 0 013.895 0 4.248 4.248 0 011.523.9 4.068 4.068 0 01.99 1.446 5.531 5.531 0 010 3.894 3.963 3.963 0 01-2.513 2.327 6.706 6.706 0 01-3.895 0 3.963 3.963 0 01-2.513-2.327 5.546 5.546 0 010-3.894zm7.745.1a3.518 3.518 0 00-.752-1.285 3.007 3.007 0 00-1.131-.752 3.986 3.986 0 00-1.408-.244 3.94 3.94 0 00-1.394.244 3.01 3.01 0 00-1.132.752 3.518 3.518 0 00-.752 1.285 6.439 6.439 0 000 3.69 3.509 3.509 0 00.748 1.29 2.987 2.987 0 001.132.752 3.918 3.918 0 001.394.245 3.964 3.964 0 001.408-.245 2.983 2.983 0 001.131-.752 3.509 3.509 0 00.752-1.285 6.439 6.439 0 000-3.69zM117.658 68.928q-1.671-1.794-3.342-3.568a70.068 70.068 0 00-.039 2.61q0 .27.007.668t.013.836q.006.436.019.887t.026.836c.008.257.017.481.025.674s.017.324.026.393a3.476 3.476 0 00-.45-.026 3.916 3.916 0 00-.476.026c.018-.086.037-.245.058-.476s.041-.508.058-.829l.058-1.048c.021-.377.039-.754.051-1.131s.024-.746.032-1.106.013-.681.013-.964q0-1.234-.006-2.121t-.032-1.324h.206l1.677 1.819q.893.97 1.774 1.916t1.671 1.786q.79.841 1.382 1.433v-1.748q0-1.35-.019-2.628t-.084-2.411a1.847 1.847 0 00.437.065 1.8 1.8 0 00.412-.065c-.018.189-.037.472-.059.849s-.042.78-.064 1.208-.041.849-.058 1.26-.025.741-.025.99v.771c0 .291 0 .6.006.912s.008.637.013.958l.013.9c.005.278.006.521.006.726v.424h-.18q-1.477-1.709-3.149-3.502zM123.539 65.1q-.033-.816-.071-1.665c.326.018.649.033.971.045s.644.02.97.02.65-.011.971-.032.644-.033.97-.033a5.624 5.624 0 011.935.3 3.382 3.382 0 011.318.842 3.306 3.306 0 01.751 1.337 6.155 6.155 0 01.238 1.78 4.777 4.777 0 01-.443 2.166 4.147 4.147 0 01-1.131 1.421 4.227 4.227 0 01-1.517.764 6.023 6.023 0 01-1.588.226c-.291 0-.578 0-.861-.013s-.57-.013-.861-.013h-.861c-.283 0-.571.008-.862.026q.039-.8.071-1.62t.032-1.671v-2.218q0-.849-.032-1.662zm1.163 6.6a4.672 4.672 0 00.733.1c.309.022.626.032.951.032a6.09 6.09 0 001.414-.167 3.056 3.056 0 001.267-.63 3.368 3.368 0 00.912-1.266 6.251 6.251 0 00.077-3.914 2.8 2.8 0 00-.758-1.138 2.691 2.691 0 00-1.151-.578 6.268 6.268 0 00-1.465-.161q-.579 0-1.08.039c-.334.025-.634.056-.9.09q-.037.617-.058 1.292t-.019 1.369v2.211q0 1.382.075 2.721zM133.206 65.92a4.043 4.043 0 01.99-1.446 4.257 4.257 0 011.523-.9 6.292 6.292 0 013.9 0 4.257 4.257 0 011.523.9 4.068 4.068 0 01.99 1.446 5.546 5.546 0 010 3.894 3.963 3.963 0 01-2.513 2.327 6.706 6.706 0 01-3.9 0 3.963 3.963 0 01-2.513-2.327 5.531 5.531 0 010-3.894zm7.744.1a3.49 3.49 0 00-.752-1.285 3 3 0 00-1.131-.752 4.144 4.144 0 00-2.8 0 3 3 0 00-1.131.752 3.5 3.5 0 00-.752 1.285 6.439 6.439 0 000 3.69 3.5 3.5 0 00.75 1.29 2.976 2.976 0 001.131.752 4.128 4.128 0 002.8 0A2.976 2.976 0 00140.2 71a3.482 3.482 0 00.752-1.285 6.439 6.439 0 000-3.69zM148.368 68.928q-1.673-1.794-3.343-3.568a72.865 72.865 0 00-.038 2.61q0 .27.006.668c0 .266.009.545.013.836s.011.587.019.887.017.579.026.836.017.481.026.674.017.324.026.393a3.5 3.5 0 00-.451-.026 3.887 3.887 0 00-.475.026c.017-.086.036-.245.058-.476s.04-.508.058-.829l.057-1.048c.021-.377.039-.754.052-1.131s.023-.746.032-1.106.013-.681.013-.964q0-1.234-.006-2.121t-.033-1.324h.206l1.678 1.819q.893.97 1.773 1.916t1.671 1.786q.791.841 1.382 1.433v-1.748q0-1.35-.019-2.628t-.083-2.411a1.84 1.84 0 00.436.065 1.8 1.8 0 00.412-.065q-.027.284-.058.849t-.064 1.208q-.033.644-.058 1.26t-.026.99v.771c0 .291 0 .6.007.912s.008.637.013.958l.012.9c.004.278.007.521.007.726v.424h-.18q-1.479-1.709-3.149-3.502z" class="cls-1"/><path fill="#d51726" d="M100.858 84.721q.735-1.04 1.426-2.013c.458-.655.881-1.259 1.268-1.824s.7-1.036.952-1.431a2.191 2.191 0 00.528.078 1.821 1.821 0 00.5-.078 111.491 111.491 0 00-.108 4.922v1.7a8.919 8.919 0 001.517-.125 1.744 1.744 0 000 1.025 5.445 5.445 0 00-.664-.073 16.484 16.484 0 00-.853-.022v.649c0 .406.009.818.031 1.25s.04.763.06 1.011c-.2-.02-.433-.028-.681-.028s-.473.008-.682.028c.024-.267.049-.613.08-1.036s.045-.83.045-1.225v-.649c-.236 0-.581 0-1.029.008s-.921.014-1.411.023-.958.022-1.4.039l-.993.039v-.281c.454-.638.926-1.307 1.417-1.994m3.385-3.842c-.217.3-.492.684-.821 1.152l-1.021 1.456c-.351.501-.685.983-1 1.448s-.56.85-.736 1.147h3.609v-5.2zm-11.952 8.479a2.024 2.024 0 00.82.17 2.257 2.257 0 001.431-.465 3.456 3.456 0 00.97-1.217 6.451 6.451 0 00.547-1.679 9.781 9.781 0 00.18-1.859h-.031a2.885 2.885 0 01-.967 1.052 2.748 2.748 0 01-1.543.4 3 3 0 01-2.206-.8 3.1 3.1 0 01-.8-2.286 3.479 3.479 0 01.242-1.317 3.026 3.026 0 01.687-1.046 3.27 3.27 0 011.084-.694 3.75 3.75 0 011.426-.259 3.668 3.668 0 011.325.242 2.8 2.8 0 011.1.774 3.937 3.937 0 01.759 1.382 6.484 6.484 0 01.288 2.066 9.04 9.04 0 01-.311 2.414 6.261 6.261 0 01-.9 1.968 4.25 4.25 0 01-1.432 1.3 3.94 3.94 0 01-1.928.465 3.44 3.44 0 01-.729-.069 4.838 4.838 0 01-.5-.131 5.102 5.102 0 00-.131-.418 2.641 2.641 0 00-.177-.42l.078-.045a2.63 2.63 0 00.713.465m3.32-8.823a1.859 1.859 0 00-1.494-.671 1.781 1.781 0 00-1.494.752 3.348 3.348 0 00-.566 2.065 2.91 2.91 0 00.512 1.93 1.758 1.758 0 001.392.579 1.8 1.8 0 00.955-.248 2.245 2.245 0 00.687-.648 3.146 3.146 0 00.428-.931 4.041 4.041 0 00.145-1.083 2.629 2.629 0 00-.565-1.745m-13.26 4.733a3.175 3.175 0 011.727-1.192v-.108a1.98 1.98 0 01-.595-.242 2.316 2.316 0 01-.55-.449 2.135 2.135 0 01-.4-.643 2.01 2.01 0 01-.156-.8 2.183 2.183 0 01.21-.938 2.521 2.521 0 01.588-.78 2.832 2.832 0 01.915-.542 3.387 3.387 0 011.2-.2 4.106 4.106 0 011.331.195 2.8 2.8 0 01.912.5 2.024 2.024 0 01.536.718 2.19 2.19 0 01.177.864 2.328 2.328 0 01-.442 1.369 2.447 2.447 0 01-1.291.905v.109a3.891 3.891 0 01.65.192 2.5 2.5 0 01.736.451 2.63 2.63 0 01.6.783 2.587 2.587 0 01.248 1.191 3.455 3.455 0 01-.272 1.393 3.14 3.14 0 01-.743 1.06 3.036 3.036 0 01-1.1.66 4.048 4.048 0 01-1.337.217 5.076 5.076 0 01-1.363-.178 2.885 2.885 0 01-1.1-.568 2.68 2.68 0 01-.727-.941 2.967 2.967 0 01-.269-1.28 3.1 3.1 0 01.52-1.735m4.531-4.182a1.746 1.746 0 00-.3-.626 1.561 1.561 0 00-.518-.435 1.848 1.848 0 00-1.509 0 1.451 1.451 0 00-.518.435 1.8 1.8 0 00-.3.626 3.09 3.09 0 00-.092.757 3.141 3.141 0 00.092.755 1.84 1.84 0 00.3.635 1.469 1.469 0 00.518.434 1.838 1.838 0 001.509 0 1.582 1.582 0 00.518-.434 1.78 1.78 0 00.3-.635 3 3 0 00.094-.755 2.951 2.951 0 00-.094-.757m.347 4.792a2.542 2.542 0 00-.417-.819 1.925 1.925 0 00-3.05 0 2.545 2.545 0 00-.419.819 3.753 3.753 0 000 2.094 2.566 2.566 0 00.419.821 1.933 1.933 0 003.05 0 2.563 2.563 0 00.417-.821 3.753 3.753 0 000-2.094m-11.866-4.5a1.339 1.339 0 00-.465-.492v-.113c.588-.24 1.189-.5 1.8-.782s1.189-.56 1.725-.828l.109.076q-.06 1.023-.092 2.021a70.953 70.953 0 00-.031 2.022v2.586c0 .683.012 1.351.031 2.005s.052 1.3.092 1.927a2.259 2.259 0 00-.362-.028h-.729a2.25 2.25 0 00-.362.028c.05-.638.084-1.284.1-1.935s.024-1.314.024-2v-5.51zm-10.593-1.41c-.27 0-.55 0-.846.009s-.588.014-.881.03-.58.034-.852.053-.52.047-.737.078a1.872 1.872 0 00.078-.5 2.089 2.089 0 00-.078-.479q1.023.03 2 .053c.65.014 1.317.023 2 .023s1.345-.009 2-.023 1.319-.033 2-.053a2.111 2.111 0 00-.077.5 1.82 1.82 0 00.077.479c-.218-.031-.463-.059-.736-.078s-.559-.039-.853-.053-.587-.025-.881-.03-.575-.009-.844-.009a113.41 113.41 0 00-.049 3.208v2.662c0 .682.016 1.35.041 2.013s.054 1.311.086 1.949c-.241-.02-.491-.028-.759-.028s-.522.008-.761.028c.031-.638.06-1.289.085-1.949s.04-1.331.04-2.013v-2.662q0-1.617-.046-3.208m-10.5 8.387a2.492 2.492 0 00.511.515 2.535 2.535 0 001.6.529 2.318 2.318 0 00.922-.178 2.108 2.108 0 00.7-.482 2.075 2.075 0 00.442-.713 2.451 2.451 0 00.153-.871 1.677 1.677 0 00-.364-1.134 2.992 2.992 0 00-.9-.693 10.843 10.843 0 00-1.172-.515 6.052 6.052 0 01-1.168-.579 3.135 3.135 0 01-.9-.891 2.55 2.55 0 01-.365-1.454 2.98 2.98 0 01.231-1.186 2.649 2.649 0 01.676-.921 3.212 3.212 0 011.06-.6 4.228 4.228 0 011.4-.217 4.07 4.07 0 011.282.181 3.214 3.214 0 011.01.546 3.568 3.568 0 00-.234.56 7.636 7.636 0 00-.185.743h-.185a4.078 4.078 0 00-.211-.473 1.781 1.781 0 00-.356-.474 2.068 2.068 0 00-.533-.362 1.693 1.693 0 00-.745-.147 2.157 2.157 0 00-.8.139 1.97 1.97 0 00-.636.393 1.774 1.774 0 00-.419.615 2.009 2.009 0 00-.145.774 1.7 1.7 0 00.362 1.147 3.162 3.162 0 00.906.7 8.867 8.867 0 001.17.509 6.562 6.562 0 011.168.551 2.971 2.971 0 01.907.836 2.291 2.291 0 01.365 1.361 3.561 3.561 0 01-.257 1.348 3.206 3.206 0 01-.744 1.108 3.3 3.3 0 01-1.192.727 4.686 4.686 0 01-1.6.256 3.986 3.986 0 01-1.556-.256 4.225 4.225 0 01-1-.579 4.137 4.137 0 00.194-.644c.035-.192.068-.437.1-.737h.185a3.127 3.127 0 00.333.568m-8.457-7.212q-.037-.99-.085-1.98.7.03 1.385.053c.459.014.922.023 1.387.023s.923-.009 1.379-.023.912-.033 1.377-.053a2.412 2.412 0 00-.046.465 2.476 2.476 0 00.046.465c-.331-.025-.633-.044-.9-.064s-.565-.041-.871-.061-.636-.039-1-.056-.795-.022-1.3-.022c-.011.331-.022.643-.039.944s-.024.641-.024 1.022c0 .4 0 .8.01 1.178s.006.671.006.868c.455 0 .863 0 1.225-.019s.69-.022.99-.036l.827-.044c.251-.017.493-.033.719-.055a2.429 2.429 0 00-.046.478 2.343 2.343 0 00.046.465 25.519 25.519 0 00-2.005-.116l-1.007-.014c-.315-.005-.563-.009-.751-.009 0 .095 0 .195-.006.3s-.01.245-.01.409V86.8q0 .882.01 1.454c0 .381.011.674.022.868h1.083c.4 0 .779-.005 1.156-.025s.732-.033 1.069-.058a7.044 7.044 0 00.872-.117 1.093 1.093 0 00-.036.239 3.555 3.555 0 00-.009.24 1.556 1.556 0 00.045.4 32.17 32.17 0 00-1.386-.028h-2.81c-.465 0-.933.008-1.409.028.031-.657.06-1.317.085-1.972s.04-1.325.04-2.007v-2.669q0-1.019-.04-2.013"/><path fill="none" stroke="#e20613" stroke-linecap="round" stroke-linejoin="round" stroke-width="1.172" d="M.7 85.011h38.196"/><path fill="none" stroke="#e20613" stroke-linecap="round" stroke-linejoin="round" stroke-width="1.207" d="M113.763 85.011h38.196"/><path fill="#e20613" d="M152.086 1.2H.6A.6.6 0 01.6 0h151.486a.6.6 0 010 1.2z"/></g></g></svg>