<svg xmlns="http://www.w3.org/2000/svg" id="Layer_1" data-name="Layer 1" viewBox="0 0 851.8 199.8"><defs><style>.cls-1{fill:#1a3a59}</style></defs><path d="M86.8 0H0v6.5l24.8 10.6V180L0 190.4v6.5h82.3c28.9 0 48.7-5.6 65.8-19.2 23-18.3 35.7-47.8 35.7-83.5 0-27.4-7.4-49.3-22.7-67.3C144 7.1 124.8 0 86.8 0zM134 165c-14.5 15.6-29.8 21.5-54.3 21.5H49.9V10.3h33.3c28.3 0 44.9 7.7 57.5 26.6 11.2 15.9 16.5 36.3 16.5 60.8.1 28.6-7.3 50.2-23.2 67.3zM522.9 186.5h-80.3v-85h68.2l10 27.7h6.8V64.6h-6.8l-10 26.6h-68.2V10.3h78.5L535 42.8h7.4V0H392.7v6.8l24.8 10.3V180l-24.8 10.3-25.6-10.3-57.8-83.5c30.7-4.4 48.4-22.7 48.4-49.9 0-14.8-5.6-26.9-15.9-35.4C331 2.1 316.9 0 292.7 0h-90.2v6.5l24.8 10.6V180l-24.8 10.3v6.5h74.7v-6.5L252.5 180v-78.5h30.2l65.8 95.3h195.1l4.1-44h-7.1zM252.5 91.2V10.3h39.9c24.5 0 38.7 14.5 38.7 39.2s-15.9 41.6-39.2 41.6h-39.4zM788.7 0v6.5l23.6 10.6-48.4 139.6-2.7-8.9-2.7-8-3.2-9.7L713.4 0h-11.5l-55.2 157a268.24 268.24 0 00-7.7-27.7L603.6 17.1l23.6-10.6V0h-72v6.5L578 17.1l58.7 182.7h9.4l55.5-156.1 50.8 156.1h10.3l66.1-182.7 23-10.6V0z" class="cls-1"/></svg>