<svg xmlns="http://www.w3.org/2000/svg" data-name="Logo Artwork" viewBox="0 0 291.577 49.613"><g><path fill="#9d1e65" d="M5.977 25.103H.65a.651.651 0 01-.649-.65V1.583C0 1.226.292.966.65.966h5.327c.357 0 .65.26.65.617v22.87c0 .357-.292.65-.65.65zM30.307 25.103h-4.353c-.585 0-1.007-.26-1.364-.877l-6.4-10.883c-.13-.227-.228-.26-.325-.26-.098 0-.162.065-.162.292v11.078c0 .357-.293.65-.65.65H12.18c-.357 0-.682-.293-.682-.65V2.168c0-.65.552-1.202 1.202-1.202h4.288c.617 0 .974.357 1.3.942l6.594 11.208c.13.227.195.292.292.292.098 0 .163-.032.163-.292v-11.5c0-.358.292-.65.65-.65h4.872c.358 0 .65.292.65.65V23.9a1.22 1.22 0 01-1.202 1.202zM50.639 6.358h-4.84v18.095c0 .357-.293.65-.65.65h-5.296a.651.651 0 01-.65-.65V6.358h-4.937c-.358 0-.65-.26-.65-.617V1.583c0-.357.292-.617.65-.617h16.373c.357 0 .682.26.682.617v4.158c0 .358-.325.617-.682.617zM62.135 25.395c-5.392 0-9.973-2.76-9.973-10.688v-3.346c0-7.926 4.58-10.72 9.973-10.72s9.973 2.794 9.973 10.72v3.346c0 7.927-4.58 10.688-9.973 10.688zm3.282-14.034c0-3.476-1.008-4.905-3.282-4.905s-3.28 1.43-3.28 4.905v3.346c0 3.477 1.006 4.873 3.28 4.873s3.282-1.397 3.282-4.873v-3.346zM89.257 25.989c-7.18 0-12.995-5.815-12.995-12.995S82.077 0 89.257 0s12.994 5.815 12.994 12.994S96.436 25.99 89.257 25.99zm0-24.04c-6.108 0-11.046 4.938-11.046 11.045S83.15 24.04 89.257 24.04s11.045-4.938 11.045-11.046S95.364 1.95 89.257 1.95zm.78 11.955l-4.841 5.783c-.455.552-1.3.617-1.852.162a1.289 1.289 0 01-.162-1.82l4.223-5.002-4.223-5.035c-.455-.552-.39-1.397.162-1.852.552-.455 1.397-.39 1.852.162l4.84 5.783c.26.292.358.584.358.91 0 .292-.098.584-.358.909zm6.821 0l-4.84 5.783c-.455.552-1.3.617-1.851.162a1.288 1.288 0 01-.163-1.82l4.223-5.002-4.223-5.035c-.455-.552-.39-1.397.162-1.852.553-.455 1.397-.39 1.852.162l4.84 5.783c.26.292.358.584.358.91 0 .292-.098.584-.358.909z"/><path d="M111.842 25.324c-2.206 0-3.844-.221-5.23-.442-.536-.094-.6-.22-.6-.567v-1.26c0-.347.253-.504.536-.504h.095c1.45.126 3.75.189 5.199.189 3.78 0 4.79-1.512 4.79-3.719 0-1.575-.914-2.457-3.782-4.222l-3.056-1.859c-2.899-1.764-4.348-3.371-4.348-5.892 0-3.813 2.741-5.577 7.53-5.577 1.86 0 4.286.19 5.483.378.315.063.536.22.536.536V3.74c0 .315-.221.504-.536.504h-.063a89.2 89.2 0 00-5.42-.19c-3.245 0-4.632.694-4.632 2.994 0 1.481 1.04 2.363 3.435 3.813l2.899 1.733c3.655 2.174 4.947 3.907 4.947 6.427 0 3.025-1.576 6.303-7.783 6.303zM138.625 4.15h-6.144v20.323c0 .315-.221.63-.567.63h-1.734c-.315 0-.567-.284-.567-.63V4.149h-6.144c-.347 0-.63-.157-.63-.504V2.259c0-.315.283-.568.63-.568h15.156c.347 0 .599.221.599.568v1.386c0 .315-.252.504-.599.504zM145.935 25.103h-1.733c-.315 0-.567-.284-.567-.63V2.29c0-.315.22-.599.567-.599h1.734c.314 0 .566.253.566.599v22.183c0 .315-.22.63-.567.63zM167.866 25.103h-2.017c-.378 0-.567 0-.819-.41l-5.64-9.39h-.82c-1.04 0-1.795-.031-3.465-.094v9.264c0 .315-.22.63-.567.63h-1.702c-.315 0-.567-.284-.567-.63V2.416c0-.44.19-.63.756-.693 1.355-.158 3.718-.252 5.546-.252 4.978 0 8.822 1.67 8.822 6.775v.22c0 3.529-2.08 5.609-4.947 6.365l5.735 9.579a.508.508 0 01.094.283c0 .22-.157.41-.41.41zm-3.308-16.857c0-3.151-2.049-4.191-5.987-4.191-.977 0-2.71 0-3.466.094v8.634c1.386.031 2.74.063 3.466.063 3.875 0 5.987-.977 5.987-4.38v-.22zM185.354 25.04c-.82.126-3.182.284-6.144.284-3.372 0-6.712-.662-6.712-5.861V2.322c0-.347.284-.63.63-.63h1.607c.347 0 .63.283.63.63v17.14c0 2.395.536 3.278 3.876 3.278h6.082c.22 0 .347.158.347.378v1.48c0 .19-.127.41-.316.442zM191.845 25.103h-1.733c-.315 0-.567-.284-.567-.63V2.29c0-.315.22-.599.567-.599h1.733c.315 0 .567.253.567.599v22.183c0 .315-.22.63-.567.63zM213.775 25.103h-1.953c-.504 0-.85-.189-1.009-.504l-9.736-18.496c-.031-.063-.063-.095-.094-.095-.032 0-.032.032-.032.095v18.401c0 .315-.252.599-.567.599h-1.638c-.315 0-.568-.063-.568-.378V2.574c0-.504.41-.883.914-.883h1.733c.883 0 1.04.158 1.292.63l9.674 18.402.063.095c.031 0 .031-.063.031-.095V2.29c0-.315.252-.599.567-.599h1.67c.347 0 .568.284.568.599v21.9c0 .503-.41.913-.915.913zM233.942 24.851c-1.544.252-3.309.473-6.27.473-3.94 0-8.161-2.584-8.161-9.8v-4.222c0-7.657 4.41-9.83 8.444-9.83 2.93 0 4.79.251 5.987.44.284.032.535.158.535.473V3.96c0 .22-.126.315-.41.315h-.125c-1.86-.157-3.309-.22-5.987-.22-2.93 0-5.577 1.575-5.577 7.247v4.222c0 5.2 2.363 7.248 5.293 7.248 1.923 0 3.215-.126 3.97-.19v-9.011c0-.347.221-.63.568-.63h1.702c.315 0 .598.283.598.63v10.587c0 .346-.22.63-.567.693z"/></g><g fill="#9d1e65"><path d="M4.6 49.613c-1.495 0-2.573-.14-3.53-.359-.2-.04-.379-.18-.379-.399V47.42c0-.22.18-.38.38-.38h.039c.798.1 2.792.2 3.53.2 1.775 0 2.314-.638 2.314-1.795 0-.777-.38-1.177-1.696-1.954l-2.632-1.575C.771 40.818.273 39.662.273 38.266c0-2.194 1.276-3.79 4.985-3.79 1.317 0 3.151.2 3.83.36.199.04.358.18.358.378v1.476c0 .2-.14.36-.338.36h-.04c-1.317-.12-2.633-.2-3.93-.2-1.475 0-2.093.518-2.093 1.415 0 .658.339 1.058 1.635 1.776l2.394 1.336c2.193 1.216 2.772 2.493 2.772 4.068 0 2.014-1.257 4.168-5.246 4.168zM20.973 49.294c-.3.08-1.616.319-3.152.319-2.393 0-5.644-1.177-5.644-6.103V40.58c0-5.006 3.251-6.103 5.644-6.103 1.536 0 2.852.24 3.152.32.259.08.438.18.438.458v1.336c0 .24-.1.42-.399.42h-.04c-.698-.061-2.054-.16-3.11-.16-1.676 0-2.892.897-2.892 3.729v2.931c0 2.773 1.216 3.73 2.891 3.73 1.057 0 2.413-.1 3.112-.16h.04c.299 0 .398.18.398.42v1.335c0 .28-.18.38-.438.46zM28.93 49.613c-3.291 0-5.685-1.834-5.685-6.222V40.7c0-4.388 2.394-6.223 5.684-6.223s5.684 1.835 5.684 6.223v2.692c0 4.388-2.393 6.222-5.684 6.222zm2.89-8.914c0-2.633-.936-3.81-2.89-3.81s-2.892 1.177-2.892 3.81v2.692c0 2.632.937 3.809 2.891 3.809s2.892-1.177 2.892-3.809V40.7zM46 36.949h-3.49v12.106a.4.4 0 01-.4.399h-1.974a.4.4 0 01-.399-.399V36.95h-3.49c-.219 0-.399-.139-.399-.359v-1.575c0-.22.18-.379.4-.379H46c.219 0 .398.16.398.38v1.574c0 .22-.18.359-.398.359zM56.727 49.334c-.598.14-2.333.279-3.39.279-2.593 0-4.607-.697-4.607-4.088v-10.49a.4.4 0 01.399-.399h1.974a.4.4 0 01.4.399v10.49c0 1.316.398 1.715 1.555 1.715h3.67a.4.4 0 01.398.4v1.275c0 .28-.1.359-.399.419zM70.008 49.454h-2.114c-.18 0-.339-.16-.379-.34l-.917-3.788h-4.587l-.917 3.789c-.04.18-.2.339-.38.339H58.6c-.199 0-.358-.14-.358-.34 0-.02.02-.059.02-.099l3.27-12.505c.479-1.854 1.915-2.034 2.773-2.034.857 0 2.293.18 2.772 2.034l3.27 12.505c0 .04.02.08.02.1 0 .199-.16.339-.359.339zm-5.384-12.326c-.06-.239-.12-.318-.32-.318-.199 0-.259.08-.319.318l-1.436 5.924h3.51l-1.435-5.924zM82.99 49.454h-2.013c-.48 0-.898 0-1.217-.718l-4.428-9.713c-.06-.12-.12-.16-.18-.16-.059 0-.099.04-.099.16v10.032c0 .219-.16.399-.379.399H72.98a.4.4 0 01-.399-.399V35.433a.8.8 0 01.798-.797h2.154c.419 0 .638.12.877.638l4.647 10.25c.04.1.1.16.16.16.04 0 .1-.06.1-.18V35.015c0-.22.16-.379.378-.379h1.715c.22 0 .38.16.38.379v13.64a.8.8 0 01-.798.799zM91.564 49.613c-1.415 0-3.33-.14-3.928-.24-.34-.06-.519-.218-.519-.618V35.333c0-.398.18-.558.519-.618.598-.1 2.513-.24 3.928-.24 3.99 0 6.263 2.155 6.263 6.103v2.932c0 3.95-2.274 6.103-6.263 6.103zm3.51-9.034c0-2.992-1.515-3.769-3.51-3.769-.737 0-1.256.04-1.674.06v10.35c.418.02.937.06 1.674.06 1.995 0 3.51-.777 3.51-3.77V40.58zM114.478 49.334c-.638.1-1.416.279-3.79.279-2.592 0-4.607-.697-4.607-4.088v-6.96c0-3.39 2.015-4.089 4.607-4.089 2.374 0 3.152.18 3.79.28.299.04.398.139.398.418v1.277a.4.4 0 01-.399.398h-4.068c-1.157 0-1.575.4-1.575 1.716v2.153h5.404a.4.4 0 01.4.4v1.435a.4.4 0 01-.4.398h-5.404v2.574c0 1.316.418 1.714 1.575 1.714h4.069a.4.4 0 01.398.4v1.276c0 .28-.1.38-.399.418zM122.354 49.613c-1.415 0-3.33-.14-3.929-.24-.339-.06-.518-.218-.518-.618V35.333c0-.398.18-.558.518-.618.599-.1 2.513-.24 3.929-.24 3.989 0 6.262 2.155 6.262 6.103v2.932c0 3.95-2.273 6.103-6.262 6.103zm3.51-9.034c0-2.992-1.515-3.769-3.51-3.769-.738 0-1.256.04-1.675.06v10.35c.419.02.937.06 1.675.06 1.995 0 3.51-.777 3.51-3.77V40.58zM136.931 49.613c-3.21 0-5.484-1.396-5.484-5.644v-8.954c0-.22.18-.379.399-.379h1.974c.22 0 .399.16.399.38v8.953c0 2.274.558 3.35 2.712 3.35s2.712-1.076 2.712-3.35v-8.954c0-.22.18-.379.4-.379h1.973c.22 0 .4.16.4.38v8.953c0 4.248-2.274 5.644-5.485 5.644zM154.041 49.294c-.3.08-1.616.319-3.151.319-2.393 0-5.644-1.177-5.644-6.103V40.58c0-5.006 3.25-6.103 5.644-6.103 1.535 0 2.852.24 3.151.32.259.08.439.18.439.458v1.336c0 .24-.1.42-.4.42h-.039c-.698-.061-2.054-.16-3.111-.16-1.676 0-2.892.897-2.892 3.729v2.931c0 2.773 1.216 3.73 2.892 3.73 1.057 0 2.413-.1 3.111-.16h.04c.299 0 .399.18.399.42v1.335c0 .28-.18.38-.439.46zM167.86 49.454h-2.114c-.179 0-.338-.16-.378-.34l-.917-3.788h-4.588l-.917 3.789c-.04.18-.2.339-.379.339h-2.114c-.2 0-.359-.14-.359-.34 0-.02.02-.059.02-.099l3.27-12.505c.48-1.854 1.915-2.034 2.773-2.034.858 0 2.294.18 2.772 2.034l3.27 12.505c0 .04.02.08.02.1 0 .199-.16.339-.358.339zm-5.384-12.326c-.06-.239-.12-.318-.319-.318-.2 0-.26.08-.32.318l-1.435 5.924h3.51l-1.436-5.924zM178.09 36.949h-3.49v12.106a.4.4 0 01-.398.399h-1.974a.4.4 0 01-.4-.399V36.95h-3.49c-.219 0-.398-.139-.398-.359v-1.575c0-.22.18-.379.399-.379h9.752c.22 0 .398.16.398.38v1.574c0 .22-.179.359-.398.359zM183.195 49.454h-1.975a.4.4 0 01-.399-.399v-14.04c0-.22.18-.379.4-.379h1.974c.219 0 .399.16.399.38v14.04a.4.4 0 01-.4.398zM192.208 49.613c-3.29 0-5.684-1.834-5.684-6.222V40.7c0-4.388 2.394-6.223 5.684-6.223s5.684 1.835 5.684 6.223v2.692c0 4.388-2.393 6.222-5.683 6.222zm2.892-8.914c0-2.633-.937-3.81-2.891-3.81s-2.892 1.177-2.892 3.81v2.692c0 2.632.937 3.809 2.891 3.809s2.892-1.177 2.892-3.809V40.7zM211.233 49.454h-2.014c-.48 0-.898 0-1.217-.718l-4.427-9.713c-.06-.12-.12-.16-.18-.16s-.1.04-.1.16v10.032c0 .219-.16.399-.378.399h-1.696a.4.4 0 01-.399-.399V35.433a.8.8 0 01.798-.797h2.154c.419 0 .638.12.877.638l4.647 10.25c.04.1.1.16.16.16.04 0 .1-.06.1-.18V35.015c0-.22.16-.379.379-.379h1.714c.22 0 .38.16.38.379v13.64a.8.8 0 01-.798.799zM229.08 49.294c-.3.08-1.616.319-3.151.319-2.393 0-5.644-1.177-5.644-6.103V40.58c0-5.006 3.25-6.103 5.644-6.103 1.535 0 2.852.24 3.151.32.259.08.439.18.439.458v1.336c0 .24-.1.42-.4.42h-.039c-.698-.061-2.054-.16-3.111-.16-1.676 0-2.892.897-2.892 3.729v2.931c0 2.773 1.216 3.73 2.892 3.73 1.057 0 2.413-.1 3.111-.16h.04c.299 0 .399.18.399.42v1.335c0 .28-.18.38-.439.46zM240.647 49.334c-.64.1-1.416.279-3.79.279-2.592 0-4.607-.697-4.607-4.088v-6.96c0-3.39 2.015-4.089 4.607-4.089 2.373 0 3.15.18 3.79.28.298.04.398.139.398.418v1.277a.4.4 0 01-.398.398h-4.07c-1.156 0-1.575.4-1.575 1.716v2.153h5.405a.4.4 0 01.399.4v1.435a.4.4 0 01-.4.398h-5.404v2.574c0 1.316.419 1.714 1.576 1.714h4.068a.4.4 0 01.399.4v1.276c0 .28-.1.38-.398.418zM254.486 49.454h-2.014c-.48 0-.898 0-1.217-.718l-4.427-9.713c-.06-.12-.12-.16-.18-.16s-.1.04-.1.16v10.032c0 .219-.16.399-.379.399h-1.695a.4.4 0 01-.399-.399V35.433a.8.8 0 01.798-.797h2.154c.419 0 .638.12.877.638l4.647 10.25c.04.1.1.16.16.16.04 0 .1-.06.1-.18V35.015c0-.22.16-.379.378-.379h1.715c.22 0 .38.16.38.379v13.64a.8.8 0 01-.798.799zM267.188 36.949h-3.49v12.106a.4.4 0 01-.399.399h-1.974a.4.4 0 01-.399-.399V36.95h-3.49c-.219 0-.399-.139-.399-.359v-1.575c0-.22.18-.379.4-.379h9.752c.219 0 .398.16.398.38v1.574c0 .22-.18.359-.398.359zM280.45 49.454h-2.433c-.22 0-.3-.2-.4-.399l-2.871-5.325h-.28c-.518 0-1.316-.06-1.774-.08v5.405c0 .219-.16.399-.379.399h-1.995a.4.4 0 01-.398-.399V35.333c0-.398.239-.538.638-.597 1.037-.16 2.453-.26 3.909-.26 3.071 0 5.744 1.097 5.744 4.508v.179c0 2.114-1.058 3.43-2.693 4.068l3.131 5.824c.04.06.04.12.04.16 0 .139-.08.239-.24.239zm-2.992-10.47c0-1.496-.997-2.135-2.991-2.135-.42 0-1.416.04-1.775.08v4.488c.319.019 1.435.06 1.775.06 2.054 0 2.991-.56 2.991-2.314v-.18zM291.179 49.334c-.639.1-1.416.279-3.79.279-2.592 0-4.607-.697-4.607-4.088v-6.96c0-3.39 2.015-4.089 4.607-4.089 2.374 0 3.151.18 3.79.28.299.04.398.139.398.418v1.277a.4.4 0 01-.398.398h-4.07c-1.156 0-1.574.4-1.574 1.716v2.153h5.404a.4.4 0 01.399.4v1.435a.4.4 0 01-.399.398h-5.404v2.574c0 1.316.418 1.714 1.575 1.714h4.069a.4.4 0 01.398.4v1.276c0 .28-.1.38-.398.418z"/></g></svg>